<svg width="180" height="50" viewBox="0 0 180 50" fill="none" xmlns="http://www.w3.org/2000/svg">
<rect x="1" y="0.999756" width="178" height="48" rx="24" fill="#FAFAFA" stroke="#EEEEEE"/>
<path d="M57.6502 29.9998V21.0398H58.431V29.2446H63.3846V29.9998H57.6502ZM66.9932 30.1406C66.4471 30.1406 65.9607 30.004 65.534 29.731C65.1073 29.4579 64.7703 29.0824 64.5228 28.6046C64.2753 28.1182 64.1516 27.5592 64.1516 26.9278C64.1516 26.2963 64.2753 25.7416 64.5228 25.2638C64.7703 24.7774 65.1073 24.3976 65.534 24.1246C65.9607 23.8515 66.4471 23.715 66.9932 23.715C67.5479 23.715 68.0385 23.8515 68.4652 24.1246C68.8919 24.3976 69.2289 24.7774 69.4764 25.2638C69.7239 25.7416 69.8476 26.2963 69.8476 26.9278C69.8476 27.5592 69.7239 28.1182 69.4764 28.6046C69.2289 29.0824 68.8919 29.4579 68.4652 29.731C68.0385 30.004 67.5479 30.1406 66.9932 30.1406ZM66.9932 29.411C67.3943 29.411 67.7484 29.3086 68.0556 29.1038C68.3713 28.899 68.6188 28.6131 68.798 28.2462C68.9772 27.8707 69.0668 27.4312 69.0668 26.9278C69.0668 26.4243 68.9772 25.9891 68.798 25.6222C68.6188 25.2467 68.3713 24.9566 68.0556 24.7518C67.7484 24.547 67.3943 24.4446 66.9932 24.4446C66.3959 24.4446 65.9009 24.6707 65.5084 25.123C65.1244 25.5667 64.9324 26.1683 64.9324 26.9278C64.9324 27.6787 65.1244 28.2803 65.5084 28.7326C65.9009 29.1848 66.3959 29.411 66.9932 29.411ZM73.6036 32.7646C72.4687 32.7646 71.6153 32.3208 71.0436 31.4334L71.6836 31.011C72.1103 31.6851 72.7503 32.0222 73.6036 32.0222C74.2351 32.0222 74.7172 31.8131 75.05 31.395C75.3828 30.9854 75.5492 30.3667 75.5492 29.539V28.4382C75.3359 28.771 75.0585 29.0355 74.7172 29.2318C74.3759 29.4195 73.9876 29.5134 73.5524 29.5134C73.0319 29.5134 72.5668 29.3939 72.1572 29.155C71.7561 28.916 71.4361 28.579 71.1972 28.1438C70.9668 27.7086 70.8516 27.1966 70.8516 26.6078C70.8516 26.019 70.9668 25.5112 71.1972 25.0846C71.4361 24.6494 71.7561 24.3123 72.1572 24.0734C72.5668 23.8344 73.0319 23.715 73.5524 23.715C73.9961 23.715 74.3929 23.8174 74.7428 24.0222C75.0927 24.2184 75.3743 24.4915 75.5876 24.8414L75.6004 23.8686H76.3172V29.539C76.3172 30.6483 76.0655 31.4632 75.562 31.9838C75.0671 32.5043 74.4143 32.7646 73.6036 32.7646ZM73.5908 28.7966C73.9748 28.7966 74.3161 28.707 74.6148 28.5278C74.9135 28.34 75.1481 28.084 75.3188 27.7598C75.4895 27.427 75.5748 27.043 75.5748 26.6078C75.5748 26.1726 75.4895 25.7928 75.3188 25.4686C75.1481 25.1443 74.9135 24.8926 74.6148 24.7134C74.3161 24.5256 73.9748 24.4318 73.5908 24.4318C73.2153 24.4318 72.8783 24.5256 72.5796 24.7134C72.2895 24.8926 72.0591 25.1443 71.8884 25.4686C71.7177 25.7928 71.6324 26.1726 71.6324 26.6078C71.6324 27.043 71.7177 27.427 71.8884 27.7598C72.0591 28.084 72.2895 28.34 72.5796 28.5278C72.8783 28.707 73.2153 28.7966 73.5908 28.7966ZM81.5377 29.9998V21.0398H82.3185V29.9998H81.5377ZM84.1597 29.9998V23.8686H84.8893L84.9149 24.739C85.1112 24.4488 85.3714 24.2056 85.6957 24.0094C86.0285 23.8131 86.404 23.715 86.8221 23.715C87.4792 23.715 88.0082 23.924 88.4093 24.3422C88.8104 24.7603 89.0109 25.3576 89.0109 26.1342V29.9998H88.2429V26.2494C88.2429 25.652 88.0978 25.204 87.8077 24.9054C87.5261 24.6067 87.1592 24.4574 86.7069 24.4574C86.3656 24.4574 86.0584 24.5342 85.7853 24.6878C85.5208 24.8328 85.3117 25.0334 85.1581 25.2894C85.013 25.5368 84.9405 25.8142 84.9405 26.1214V29.9998H84.1597ZM95.4537 29.9998L93.5337 23.8686H94.3017L95.7737 28.7454L97.2201 23.8686H97.8473L99.2937 28.7454L100.766 23.8686H101.534L99.6137 29.9998H98.9865L97.5401 25.1102L96.0681 29.9998H95.4537ZM102.865 29.9998V23.8686H103.633V29.9998H102.865ZM103.249 22.5374C103.087 22.5374 102.946 22.4819 102.826 22.371C102.707 22.2515 102.647 22.1107 102.647 21.9486C102.647 21.7779 102.707 21.6371 102.826 21.5262C102.946 21.4152 103.087 21.3598 103.249 21.3598C103.411 21.3598 103.547 21.4152 103.658 21.5262C103.769 21.6371 103.825 21.7779 103.825 21.9486C103.825 22.1107 103.769 22.2515 103.658 22.371C103.547 22.4819 103.411 22.5374 103.249 22.5374ZM107.928 30.1406C107.382 30.1406 106.973 30.0254 106.699 29.795C106.426 29.5646 106.29 29.1507 106.29 28.5534V24.5854H104.959V23.8686H106.29V21.6158H107.058V23.8686H108.927V24.5854H107.058V28.4254C107.058 28.8094 107.139 29.0739 107.301 29.219C107.463 29.3555 107.715 29.4238 108.056 29.4238C108.201 29.4238 108.355 29.4024 108.517 29.3598C108.679 29.3171 108.816 29.2702 108.927 29.219V29.9742C108.807 30.0168 108.654 30.0552 108.466 30.0894C108.278 30.1235 108.099 30.1406 107.928 30.1406ZM110.16 29.9998V20.7582H110.94V24.739C111.12 24.4488 111.371 24.2056 111.696 24.0094C112.028 23.8131 112.404 23.715 112.822 23.715C113.479 23.715 114.008 23.924 114.409 24.3422C114.81 24.7603 115.011 25.3576 115.011 26.1342V29.9998H114.243V26.2494C114.243 25.652 114.098 25.204 113.808 24.9054C113.526 24.6067 113.159 24.4574 112.707 24.4574C112.366 24.4574 112.058 24.5342 111.785 24.6878C111.521 24.8328 111.312 25.0334 111.158 25.2894C111.013 25.5368 110.94 25.8142 110.94 26.1214V29.9998H110.16ZM123.924 30.1662C123.122 30.1662 122.405 29.9699 121.774 29.5774C121.151 29.1848 120.66 28.6387 120.302 27.939C119.943 27.2392 119.764 26.4286 119.764 25.507C119.764 24.5854 119.943 23.7747 120.302 23.075C120.66 22.3752 121.151 21.8291 121.774 21.4366C122.405 21.044 123.122 20.8478 123.924 20.8478C124.547 20.8478 125.11 20.9587 125.614 21.1806C126.126 21.3939 126.565 21.7011 126.932 22.1022L126.394 22.691C125.789 21.9827 124.965 21.6286 123.924 21.6286C123.258 21.6286 122.674 21.795 122.17 22.1278C121.667 22.452 121.274 22.9043 120.993 23.4846C120.711 24.0648 120.57 24.739 120.57 25.507C120.57 26.2664 120.711 26.9406 120.993 27.5294C121.274 28.1182 121.667 28.579 122.17 28.9118C122.674 29.236 123.258 29.3982 123.924 29.3982C124.393 29.3982 124.799 29.3512 125.14 29.2574C125.481 29.1635 125.81 29.0227 126.126 28.835V26.1726H124.206V25.4174H126.919V29.3214C126.646 29.5091 126.262 29.6968 125.767 29.8846C125.281 30.0723 124.666 30.1662 123.924 30.1662ZM131.018 30.1406C130.472 30.1406 129.986 30.004 129.559 29.731C129.132 29.4579 128.795 29.0824 128.548 28.6046C128.3 28.1182 128.177 27.5592 128.177 26.9278C128.177 26.2963 128.3 25.7416 128.548 25.2638C128.795 24.7774 129.132 24.3976 129.559 24.1246C129.986 23.8515 130.472 23.715 131.018 23.715C131.573 23.715 132.064 23.8515 132.49 24.1246C132.917 24.3976 133.254 24.7774 133.501 25.2638C133.749 25.7416 133.873 26.2963 133.873 26.9278C133.873 27.5592 133.749 28.1182 133.501 28.6046C133.254 29.0824 132.917 29.4579 132.49 29.731C132.064 30.004 131.573 30.1406 131.018 30.1406ZM131.018 29.411C131.419 29.411 131.773 29.3086 132.081 29.1038C132.396 28.899 132.644 28.6131 132.823 28.2462C133.002 27.8707 133.092 27.4312 133.092 26.9278C133.092 26.4243 133.002 25.9891 132.823 25.6222C132.644 25.2467 132.396 24.9566 132.081 24.7518C131.773 24.547 131.419 24.4446 131.018 24.4446C130.421 24.4446 129.926 24.6707 129.533 25.123C129.149 25.5667 128.957 26.1683 128.957 26.9278C128.957 27.6787 129.149 28.2803 129.533 28.7326C129.926 29.1848 130.421 29.411 131.018 29.411ZM137.718 30.1406C137.172 30.1406 136.686 30.004 136.259 29.731C135.832 29.4579 135.495 29.0824 135.248 28.6046C135 28.1182 134.877 27.5592 134.877 26.9278C134.877 26.2963 135 25.7416 135.248 25.2638C135.495 24.7774 135.832 24.3976 136.259 24.1246C136.686 23.8515 137.172 23.715 137.718 23.715C138.273 23.715 138.764 23.8515 139.19 24.1246C139.617 24.3976 139.954 24.7774 140.201 25.2638C140.449 25.7416 140.573 26.2963 140.573 26.9278C140.573 27.5592 140.449 28.1182 140.201 28.6046C139.954 29.0824 139.617 29.4579 139.19 29.731C138.764 30.004 138.273 30.1406 137.718 30.1406ZM137.718 29.411C138.119 29.411 138.473 29.3086 138.781 29.1038C139.096 28.899 139.344 28.6131 139.523 28.2462C139.702 27.8707 139.792 27.4312 139.792 26.9278C139.792 26.4243 139.702 25.9891 139.523 25.6222C139.344 25.2467 139.096 24.9566 138.781 24.7518C138.473 24.547 138.119 24.4446 137.718 24.4446C137.121 24.4446 136.626 24.6707 136.233 25.123C135.849 25.5667 135.657 26.1683 135.657 26.9278C135.657 27.6787 135.849 28.2803 136.233 28.7326C136.626 29.1848 137.121 29.411 137.718 29.411ZM144.329 32.7646C143.194 32.7646 142.34 32.3208 141.769 31.4334L142.409 31.011C142.835 31.6851 143.475 32.0222 144.329 32.0222C144.96 32.0222 145.442 31.8131 145.775 31.395C146.108 30.9854 146.274 30.3667 146.274 29.539V28.4382C146.061 28.771 145.784 29.0355 145.442 29.2318C145.101 29.4195 144.713 29.5134 144.277 29.5134C143.757 29.5134 143.292 29.3939 142.882 29.155C142.481 28.916 142.161 28.579 141.922 28.1438C141.692 27.7086 141.577 27.1966 141.577 26.6078C141.577 26.019 141.692 25.5112 141.922 25.0846C142.161 24.6494 142.481 24.3123 142.882 24.0734C143.292 23.8344 143.757 23.715 144.277 23.715C144.721 23.715 145.118 23.8174 145.468 24.0222C145.818 24.2184 146.099 24.4915 146.313 24.8414L146.325 23.8686H147.042V29.539C147.042 30.6483 146.79 31.4632 146.287 31.9838C145.792 32.5043 145.139 32.7646 144.329 32.7646ZM144.316 28.7966C144.7 28.7966 145.041 28.707 145.34 28.5278C145.638 28.34 145.873 28.084 146.044 27.7598C146.214 27.427 146.3 27.043 146.3 26.6078C146.3 26.1726 146.214 25.7928 146.044 25.4686C145.873 25.1443 145.638 24.8926 145.34 24.7134C145.041 24.5256 144.7 24.4318 144.316 24.4318C143.94 24.4318 143.603 24.5256 143.305 24.7134C143.014 24.8926 142.784 25.1443 142.613 25.4686C142.443 25.7928 142.357 26.1726 142.357 26.6078C142.357 27.043 142.443 27.427 142.613 27.7598C142.784 28.084 143.014 28.34 143.305 28.5278C143.603 28.707 143.94 28.7966 144.316 28.7966ZM148.747 29.9998V20.7582H149.528V29.9998H148.747ZM153.743 30.1406C153.189 30.1406 152.694 30.0126 152.259 29.7566C151.832 29.492 151.495 29.1208 151.247 28.643C151.009 28.1566 150.889 27.5848 150.889 26.9278C150.889 26.2878 151.009 25.7288 151.247 25.251C151.495 24.7731 151.832 24.4019 152.259 24.1374C152.685 23.8643 153.172 23.7278 153.718 23.7278C154.273 23.7278 154.742 23.8686 155.126 24.1502C155.518 24.4232 155.817 24.7816 156.022 25.2254C156.227 25.6606 156.329 26.1214 156.329 26.6078V26.8638H151.67C151.653 27.6318 151.832 28.2547 152.207 28.7326C152.591 29.2019 153.108 29.4366 153.756 29.4366C154.234 29.4366 154.635 29.3171 154.959 29.0782C155.284 28.8307 155.548 28.468 155.753 27.9902L156.393 28.3614C155.847 29.5475 154.964 30.1406 153.743 30.1406ZM151.721 26.1982H155.561C155.518 25.8654 155.412 25.5624 155.241 25.2894C155.079 25.0163 154.866 24.7987 154.601 24.6366C154.345 24.4744 154.051 24.3934 153.718 24.3934C153.197 24.3934 152.758 24.5555 152.399 24.8798C152.05 25.1955 151.823 25.635 151.721 26.1982Z" fill="#616161"/>
<mask id="mask0_19_2927" style="mask-type:luminance" maskUnits="userSpaceOnUse" x="23" y="15" width="18" height="19">
<rect x="23" y="15.4998" width="18" height="18" fill="white"/>
</mask>
<g mask="url(#mask0_19_2927)">
<path fill-rule="evenodd" clip-rule="evenodd" d="M39.3541 23.0309H38.75V22.9998H32V25.9998H36.2386C35.6203 27.7461 33.9586 28.9998 32 28.9998C29.5149 28.9998 27.5 26.9849 27.5 24.4998C27.5 22.0146 29.5149 19.9998 32 19.9998C33.1471 19.9998 34.1908 20.4325 34.9854 21.1394L37.1067 19.018C35.7673 17.7696 33.9755 16.9998 32 16.9998C27.8581 16.9998 24.5 20.3579 24.5 24.4998C24.5 28.6416 27.8581 31.9998 32 31.9998C36.1419 31.9998 39.5 28.6416 39.5 24.4998C39.5 23.9969 39.4482 23.506 39.3541 23.0309Z" fill="#FFC107"/>
<path fill-rule="evenodd" clip-rule="evenodd" d="M25.3652 21.0089L27.8294 22.816C28.4961 21.1653 30.1109 19.9998 32.0005 19.9998C33.1476 19.9998 34.1912 20.4325 34.9859 21.1394L37.1072 19.018C35.7677 17.7696 33.976 16.9998 32.0005 16.9998C29.1197 16.9998 26.6215 18.6261 25.3652 21.0089Z" fill="#FF3D00"/>
<path fill-rule="evenodd" clip-rule="evenodd" d="M32.0001 31.9998C33.9374 31.9998 35.6976 31.2584 37.0285 30.0528L34.7072 28.0885C33.9542 28.6589 33.0182 28.9998 32.0001 28.9998C30.0494 28.9998 28.393 27.7559 27.769 26.02L25.3232 27.9044C26.5645 30.3333 29.0852 31.9998 32.0001 31.9998Z" fill="#4CAF50"/>
<path fill-rule="evenodd" clip-rule="evenodd" d="M39.3541 23.0309H38.75V22.9998H32V25.9998H36.2386C35.9416 26.8386 35.402 27.562 34.706 28.0889C34.7064 28.0885 34.7068 28.0885 34.7071 28.0881L37.0284 30.0524C36.8641 30.2016 39.5 28.2498 39.5 24.4998C39.5 23.9969 39.4482 23.506 39.3541 23.0309Z" fill="#1976D2"/>
</g>
</svg>
