<svg width="20" height="20" viewBox="0 0 20 20" fill="none" xmlns="http://www.w3.org/2000/svg">
<path fill-rule="evenodd" clip-rule="evenodd" d="M4.41107 4.41082C4.73651 4.08539 5.26414 4.08539 5.58958 4.41082L10.0003 8.82158L14.4111 4.41082C14.7365 4.08539 15.2642 4.08539 15.5896 4.41082C15.915 4.73626 15.915 5.2639 15.5896 5.58934L11.1788 10.0001L15.5896 14.4108C15.915 14.7362 15.915 15.2639 15.5896 15.5893C15.2642 15.9147 14.7365 15.9147 14.4111 15.5893L10.0003 11.1786L5.58958 15.5893C5.26414 15.9147 4.73651 15.9147 4.41107 15.5893C4.08563 15.2639 4.08563 14.7362 4.41107 14.4108L8.82183 10.0001L4.41107 5.58934C4.08563 5.2639 4.08563 4.73626 4.41107 4.41082Z" fill="#0F1729"/>
</svg>
