<svg width="63" height="64" viewBox="0 0 63 64" fill="none" xmlns="http://www.w3.org/2000/svg">
<path d="M61.689 32.0001C61.689 49.0412 47.9876 62.8487 31.0945 62.8487C14.2015 62.8487 0.5 49.0412 0.5 32.0001C0.5 14.9589 14.2015 1.15137 31.0945 1.15137C47.9876 1.15137 61.689 14.9589 61.689 32.0001Z" fill="#D4C7FF" stroke="#D4C7FF"/>
<circle cx="30.5" cy="32.1514" r="23.5" fill="#D4C7FF"/>
<path d="M40.9249 33.2399L37.809 31.9413V31.0089C38.2379 30.7627 38.6093 30.4278 38.8983 30.0266C39.1874 29.6253 39.3875 29.167 39.4851 28.6822H39.555C39.8328 28.686 40.1008 28.5793 40.2999 28.3855C40.4991 28.1917 40.6131 27.9268 40.6169 27.6489C40.6207 27.3711 40.514 27.1031 40.3202 26.904C40.1264 26.7048 39.8615 26.5908 39.5836 26.587L39.9258 25.7936C40.2182 25.1157 40.2332 24.3501 39.9675 23.6613C39.7017 22.9724 39.1765 22.4152 38.5046 22.1093L37.5296 21.6658C36.9527 21.4097 36.3184 21.3107 35.6909 21.3789C35.0634 21.4471 34.4651 21.68 33.9566 22.0541L33.4133 22.464C32.8585 22.6069 32.382 22.9619 32.0863 23.4526C31.9231 23.7237 31.8212 24.0273 31.7879 24.3419C31.7546 24.6566 31.7907 24.9748 31.8936 25.274C31.3664 25.1686 30.8223 25.1818 30.3009 25.3128C30.4502 24.6792 30.3748 24.0135 30.0878 23.4293C29.8008 22.8451 29.3198 22.3786 28.7271 22.1096L27.7521 21.6658C27.1752 21.4097 26.5408 21.3107 25.9133 21.3789C25.2858 21.4471 24.6875 21.68 24.1791 22.0541L23.6358 22.464C23.3211 22.5445 23.0284 22.6943 22.7791 22.9026C22.5299 23.111 22.3305 23.3724 22.1956 23.6679C22.0606 23.9633 21.9935 24.2852 21.9992 24.61C22.0049 24.9348 22.0833 25.2541 22.2285 25.5447L22.7502 26.587C22.4724 26.5928 22.2082 26.7086 22.0158 26.9092C21.8234 27.1097 21.7185 27.3784 21.7243 27.6563C21.73 27.9341 21.8459 28.1983 22.0464 28.3907C22.2469 28.5831 22.5157 28.6879 22.7935 28.6822H22.8633C22.9614 29.1668 23.1616 29.6248 23.4507 30.0259C23.7397 30.427 24.1109 30.7619 24.5395 31.0082V31.9413L21.4236 33.2399C21.1051 33.372 20.8329 33.5956 20.6416 33.8825C20.4504 34.1694 20.3486 34.5067 20.3491 34.8515V39.5073C20.3491 39.5999 20.3859 39.6888 20.4514 39.7542C20.5169 39.8197 20.6057 39.8565 20.6983 39.8565H23.1427V42.6501C23.1427 42.7427 23.1795 42.8315 23.245 42.897C23.3105 42.9625 23.3993 42.9993 23.4919 42.9993H38.8566C38.9492 42.9993 39.038 42.9625 39.1035 42.897C39.169 42.8315 39.2058 42.7427 39.2058 42.6501V39.8565H41.6502C41.7428 39.8565 41.8316 39.8197 41.8971 39.7542C41.9626 39.6888 41.9994 39.5999 41.9994 39.5073V34.8515C41.9999 34.5067 41.8981 34.1694 41.7068 33.8825C41.5156 33.5956 41.2434 33.372 40.9249 33.2399ZM32.3521 26.1425L33.3267 26.587C33.8322 26.8173 34.2273 27.2366 34.4271 27.7549C34.627 28.2732 34.6157 28.8492 34.3956 29.3593L34.2908 29.5985L33.9329 28.8753C33.9101 28.8293 33.8774 28.7888 33.8371 28.7569C33.7969 28.7249 33.75 28.7022 33.7 28.6904C33.65 28.6787 33.598 28.6781 33.5477 28.6887C33.4974 28.6994 33.4501 28.721 33.4091 28.752L32.8504 29.1711C32.3668 29.5338 31.7787 29.7298 31.1742 29.7298C30.5698 29.7298 29.9817 29.5338 29.4981 29.1711L28.9394 28.752C28.8986 28.7212 28.8515 28.6997 28.8014 28.6893C28.7514 28.6788 28.6996 28.6796 28.6499 28.6916C28.6 28.7033 28.5534 28.7258 28.5132 28.7576C28.473 28.7893 28.4403 28.8295 28.4173 28.8753L28.0315 29.6498L27.743 29.0733C27.6305 28.8482 27.5774 28.5981 27.5887 28.3468C27.5999 28.0954 27.6753 27.851 27.8075 27.637C27.9397 27.4229 28.1245 27.2461 28.3442 27.1235C28.5639 27.0008 28.8114 26.9364 29.063 26.9362C29.332 26.936 29.5969 27.0022 29.8341 27.1291C30.0713 27.2561 30.2734 27.4397 30.4224 27.6636L30.5321 27.8284L31.1131 27.4408L31.0035 27.2763C30.6931 26.8113 30.2257 26.4736 29.6867 26.3251C30.0828 26.0807 30.5324 25.9363 30.9968 25.9045C31.4612 25.8727 31.9263 25.9544 32.3521 26.1425ZM34.6662 31.1266H35.0154C35.108 31.1266 35.1968 31.1634 35.2623 31.2289C35.3278 31.2944 35.3646 31.3832 35.3646 31.4758C35.3646 31.5684 35.3278 31.6572 35.2623 31.7227C35.1968 31.7882 35.108 31.825 35.0154 31.825H34.6662V31.1266ZM30.1267 35.156C30.8086 35.3706 31.5399 35.3706 32.2218 35.156V35.8708L31.1742 36.9184L30.1267 35.8708V35.156ZM31.1742 34.6186C30.4336 34.6177 29.7235 34.3231 29.1998 33.7994C28.6761 33.2757 28.3815 32.5656 28.3807 31.825V30.5106L28.8549 29.5618L29.0791 29.7298C29.6835 30.1831 30.4187 30.4282 31.1742 30.4282C31.9298 30.4282 32.665 30.1831 33.2694 29.7298L33.4936 29.5618L33.9678 30.5106V31.825C33.967 32.5656 33.6724 33.2757 33.1487 33.7994C32.625 34.3231 31.9149 34.6177 31.1742 34.6186ZM27.6823 31.825H27.3331C27.2405 31.825 27.1516 31.7882 27.0862 31.7227C27.0207 31.6572 26.9839 31.5684 26.9839 31.4758C26.9839 31.3832 27.0207 31.2944 27.0862 31.2289C27.1516 31.1634 27.2405 31.1266 27.3331 31.1266H27.6823V31.825ZM23.1427 38.8229V39.1581H21.0475V34.8515C21.0474 34.6447 21.1086 34.4426 21.2233 34.2706C21.338 34.0986 21.5012 33.9645 21.6921 33.8852L25.0231 32.4975C25.0869 32.4709 25.1413 32.426 25.1796 32.3684C25.2178 32.3109 25.2381 32.2433 25.2379 32.1742V30.7997C25.236 30.7336 25.2163 30.6692 25.1806 30.6134C25.145 30.5576 25.0949 30.5125 25.0357 30.483C24.6182 30.2754 24.2597 29.9661 23.9929 29.5838C23.7261 29.2014 23.5598 28.7581 23.509 28.2946C23.4996 28.2092 23.4589 28.1302 23.3949 28.0729C23.3308 28.0155 23.2479 27.9838 23.1619 27.9838H22.7935C22.7009 27.9838 22.6121 27.947 22.5466 27.8815C22.4811 27.816 22.4443 27.7272 22.4443 27.6346C22.4443 27.542 22.4811 27.4532 22.5466 27.3877C22.6121 27.3222 22.7009 27.2854 22.7935 27.2854H23.1427C23.1888 27.2854 23.2344 27.2763 23.2769 27.2586C23.3194 27.2409 23.358 27.215 23.3905 27.1823C23.4229 27.1496 23.4486 27.1108 23.466 27.0682C23.4834 27.0255 23.4922 26.9798 23.4919 26.9338L23.4895 26.5846C23.4891 26.5312 23.4766 26.4787 23.4528 26.4309L22.8532 25.2321C22.7528 25.0309 22.6997 24.8093 22.6979 24.5844C22.6962 24.3595 22.7458 24.1371 22.8431 23.9343C22.9404 23.7315 23.0828 23.5536 23.2593 23.4142C23.4358 23.2748 23.6419 23.1776 23.8617 23.13C23.9111 23.119 23.9577 23.0977 23.9982 23.0675L24.5989 22.6135C25.0064 22.314 25.4859 22.1274 25.9888 22.0729C26.4916 22.0183 26.9999 22.0976 27.4623 22.3027L28.4379 22.7459C28.9435 22.9761 29.3385 23.3954 29.5384 23.9138C29.7382 24.4321 29.7269 25.0081 29.5068 25.5181L29.4503 25.6491C29.3177 25.7225 29.1901 25.8047 29.0686 25.8953L28.5179 26.3077C28.2038 26.3884 27.9118 26.5383 27.6633 26.7466C27.4147 26.9548 27.2159 27.2161 27.0815 27.5112C26.9471 27.8063 26.8805 28.1277 26.8865 28.4519C26.8925 28.7761 26.971 29.0949 27.1162 29.3848L27.6386 30.4282H27.3331C27.0552 30.4282 26.7888 30.5386 26.5923 30.735C26.3959 30.9315 26.2855 31.1979 26.2855 31.4758C26.2855 31.7536 26.3959 32.0201 26.5923 32.2165C26.7888 32.413 27.0552 32.5234 27.3331 32.5234H27.7521C27.8521 33.0066 28.0532 33.4631 28.342 33.8631C28.6309 34.2632 29.0011 34.5976 29.4283 34.8445V35.75L24.4215 37.1408C24.0542 37.2437 23.7306 37.4636 23.4997 37.7672C23.2689 38.0708 23.1436 38.4415 23.1427 38.8229ZM38.5074 42.3009H36.4122V39.5073H35.7138V42.3009H26.6347V39.5073H25.9363V42.3009H23.8411V38.8229C23.8416 38.5939 23.9169 38.3714 24.0556 38.1892C24.1943 38.007 24.3888 37.8752 24.6093 37.8137L29.6758 36.4065L30.9284 37.659C30.9939 37.7245 31.0827 37.7613 31.1753 37.7613C31.2679 37.7613 31.3567 37.7245 31.4222 37.659L32.6747 36.4065L37.7392 37.8137C37.9597 37.8752 38.1542 38.007 38.2929 38.1892C38.4315 38.3714 38.5069 38.5939 38.5074 38.8229V42.3009ZM41.301 39.1581H39.2058V38.8229C39.2049 38.4415 39.0796 38.0708 38.8487 37.7672C38.6179 37.4636 38.2943 37.2437 37.927 37.1408L32.9202 35.75V34.8445C33.3474 34.5976 33.7176 34.2632 34.0065 33.8631C34.2953 33.4631 34.4964 33.0066 34.5964 32.5234H35.0154C35.2933 32.5234 35.5597 32.413 35.7562 32.2165C35.9526 32.0201 36.063 31.7536 36.063 31.4758C36.063 31.1979 35.9526 30.9315 35.7562 30.735C35.5597 30.5386 35.2933 30.4282 35.0154 30.4282H34.6949L35.0371 29.6352C35.3295 28.9572 35.3444 28.1916 35.0787 27.5028C34.813 26.814 34.2878 26.2567 33.6158 25.9508L32.8057 25.5817L32.6311 25.2325C32.5306 25.0312 32.4774 24.8097 32.4756 24.5847C32.4738 24.3598 32.5234 24.1374 32.6207 23.9345C32.7179 23.7317 32.8603 23.5538 33.0368 23.4143C33.2133 23.2749 33.4194 23.1776 33.6392 23.13C33.6886 23.119 33.7352 23.0977 33.7758 23.0675L34.3764 22.6135C34.7839 22.314 35.2634 22.1274 35.7663 22.0729C36.2691 22.0183 36.7775 22.0976 37.2398 22.3027L38.2155 22.7459C38.721 22.9761 39.1161 23.3954 39.3159 23.9138C39.5158 24.4321 39.5044 25.0081 39.2844 25.5181L38.8828 26.4473C38.8637 26.4914 38.854 26.539 38.8541 26.587L38.8566 26.9362C38.8566 27.0288 38.8934 27.1177 38.9589 27.1831C39.0243 27.2486 39.1132 27.2854 39.2058 27.2854H39.555C39.6476 27.2854 39.7364 27.3222 39.8019 27.3877C39.8674 27.4532 39.9042 27.542 39.9042 27.6346C39.9042 27.7272 39.8674 27.816 39.8019 27.8815C39.7364 27.947 39.6476 27.9838 39.555 27.9838H39.1866C39.1006 27.9838 39.0177 28.0155 38.9536 28.0729C38.8896 28.1302 38.8489 28.2092 38.8395 28.2946C38.7886 28.7598 38.621 29.2047 38.3525 29.588C38.0839 29.9712 37.7229 30.2805 37.303 30.4872C37.2448 30.5161 37.1959 30.5607 37.1616 30.6159C37.1274 30.6711 37.1092 30.7348 37.1092 30.7997V32.1742C37.1092 32.2431 37.1296 32.3105 37.1678 32.3678C37.206 32.4252 37.2604 32.47 37.324 32.4965L40.6563 33.8852C40.8473 33.9645 41.0104 34.0986 41.1252 34.2706C41.2399 34.4426 41.3011 34.6447 41.301 34.8515V39.1581Z" fill="#5027D9"/>
</svg>
