<svg width="63" height="64" viewBox="0 0 63 64" fill="none" xmlns="http://www.w3.org/2000/svg">
<ellipse cx="31.0945" cy="32.0001" rx="31.0945" ry="31.3487" fill="#D4C7FF"/>
<circle cx="30.5" cy="32.5" r="23.5" fill="#D4C7FF"/>
<path d="M41.0262 37.4298V35.6388C41.0262 35.2819 40.7297 34.9915 40.3653 34.9915H31.548V33.3632C35.404 33.154 38.4757 30.0156 38.4757 26.1873C38.4756 22.2242 35.1839 19 31.1378 19C29.8558 19 28.5937 19.3287 27.4881 19.9505C26.416 20.5535 25.5092 21.419 24.8658 22.4535C24.748 22.6431 24.8093 22.8903 25.0027 23.0057C25.196 23.1211 25.4485 23.0612 25.5664 22.8717C26.7612 20.9505 28.8439 19.8036 31.1378 19.8036C34.7316 19.8036 37.6554 22.6673 37.6554 26.1873C37.6554 27.9996 36.8803 29.6378 35.6379 30.8009C35.4739 29.4764 34.4097 29.0592 33.4872 28.8024C33.4792 28.8 33.0328 28.6813 32.9667 28.6636C32.9015 28.6464 32.8446 28.5572 32.7994 28.4621C33.7716 27.8032 34.4925 26.6886 34.4925 25.7144V24.8314C34.4925 23.7302 34.1328 22.795 33.4523 22.1268C32.8431 21.5286 32.0234 21.1916 31.1444 21.178C31.14 21.178 31.1357 21.178 31.1314 21.178C30.2516 21.1917 29.4315 21.5286 28.8221 22.1268C28.1414 22.7949 27.7816 23.7302 27.7816 24.8314V25.7145C27.7816 26.6886 28.5025 27.8033 29.4747 28.4622C29.4294 28.5572 29.3721 28.6466 29.3058 28.6641C29.2414 28.6814 28.7954 28.7999 28.7879 28.8022C27.8654 29.0589 26.8011 29.4758 26.6364 30.7996C25.3949 29.6366 24.6204 27.9989 24.6204 26.1873C24.6204 25.62 24.6958 25.0584 24.8445 24.5181C24.9034 24.3038 24.774 24.0833 24.5552 24.0255C24.3368 23.9677 24.1114 24.0947 24.0525 24.3089C23.885 24.9174 23.8001 25.5494 23.8001 26.1873C23.8001 30.0156 26.8717 33.154 30.7278 33.3632V34.9915H21.6347C21.2703 34.9915 20.9738 35.2819 20.9738 35.6388V37.4298C18.7482 37.6331 17 39.4723 17 41.7045C17 44.0714 18.9667 45.9969 21.384 45.9969C23.8013 45.9969 25.7679 44.0714 25.7679 41.7045C25.7679 39.4723 24.0197 37.6331 21.7941 37.4298V35.7951H30.7277V37.4311C29.9343 37.5026 29.1838 37.7811 28.5369 38.2484C28.3545 38.38 28.3158 38.6316 28.4502 38.8102C28.5847 38.9888 28.8415 39.0268 29.0237 38.8951C29.6392 38.4505 30.3702 38.2155 31.1378 38.2155C33.1019 38.2155 34.6999 39.7813 34.6999 41.7059C34.6999 42.4979 34.4289 43.2286 33.9736 43.815C33.778 43.204 33.3798 42.667 32.8387 42.2953C33.0815 41.9611 33.225 41.5531 33.225 41.1127C33.225 39.9854 32.2887 39.0683 31.1378 39.0683C29.9869 39.0683 29.0506 39.9854 29.0506 41.1127C29.0506 41.5528 29.1938 41.9605 29.4363 42.2945C28.8947 42.6663 28.4962 43.2035 28.3005 43.8148C27.8451 43.2285 27.5742 42.4978 27.5742 41.706C27.5742 41.1622 27.6971 40.6427 27.9397 40.1621C28.04 39.9632 27.9568 39.7222 27.7537 39.6239C27.5506 39.5256 27.3047 39.6071 27.2043 39.806C26.9096 40.39 26.7539 41.047 26.7539 41.706C26.7539 44.0737 28.7205 46 31.1378 46C33.5543 46 35.5203 44.0737 35.5203 41.706C35.5203 39.4738 33.7728 37.6348 31.548 37.4313V35.795H40.2059V37.4298C37.9811 37.6331 36.2336 39.4723 36.2336 41.7044C36.2336 44.0713 38.1996 45.9969 40.616 45.9969C43.0333 45.9969 45 44.0713 45 41.7044C45 39.4723 43.2518 37.6331 41.0262 37.4298ZM21.384 45.1934C20.5801 45.1934 19.8377 44.9312 19.2408 44.4899C19.3037 43.8127 19.7009 43.2037 20.3021 42.859C20.6178 43.0471 20.9882 43.1556 21.384 43.1556C21.7794 43.1556 22.1495 43.0473 22.465 42.8594C23.0666 43.2045 23.4642 43.8133 23.5271 44.49C22.9302 44.9312 22.1878 45.1934 21.384 45.1934ZM20.1171 41.1112C20.1171 40.427 20.6854 39.8703 21.384 39.8703C22.0825 39.8703 22.6508 40.427 22.6508 41.1112C22.6508 41.7953 22.0825 42.352 21.384 42.352C20.6854 42.352 20.1171 41.7954 20.1171 41.1112ZM24.9476 41.7045C24.9476 42.4961 24.6764 43.2267 24.2209 43.8128C24.0249 43.2022 23.6264 42.6654 23.0849 42.2937C23.3277 41.9595 23.4711 41.5516 23.4711 41.1112C23.4711 39.9839 22.5348 39.0668 21.384 39.0668C20.2331 39.0668 19.2968 39.9839 19.2968 41.1112C19.2968 41.5513 19.44 41.959 19.6825 42.2931C19.1411 42.6647 18.7427 43.2017 18.5468 43.8126C18.0914 43.2265 17.8203 42.496 17.8203 41.7045C17.8203 39.7798 19.4189 38.214 21.384 38.214C23.3489 38.214 24.9476 39.7798 24.9476 41.7045ZM31.1378 39.8719C31.8363 39.8719 32.4047 40.4286 32.4047 41.1127C32.4047 41.7969 31.8363 42.3535 31.1378 42.3535C30.4393 42.3535 29.871 41.7969 29.871 41.1127C29.871 40.4286 30.4392 39.8719 31.1378 39.8719ZM31.1378 45.1965C30.3339 45.1965 29.5915 44.9341 28.9946 44.4925C29.057 43.8149 29.4544 43.2054 30.056 42.8605C30.3716 43.0486 30.742 43.1571 31.1378 43.1571C31.5333 43.1571 31.9034 43.0489 32.2189 42.8609C32.8201 43.206 33.2173 43.8155 33.2796 44.493C32.683 44.9343 31.9411 45.1965 31.1378 45.1965ZM31.1378 21.9816C32.2445 22.0016 33.4255 22.742 33.6384 24.3135C33.503 24.2435 33.409 24.1494 33.3074 24.0479C33.0833 23.8239 32.7764 23.5172 32.1418 23.6769C31.9942 23.7145 31.8679 23.7477 31.758 23.7767C31.4295 23.8631 31.2646 23.9065 31.1378 23.9065C31.0106 23.9065 30.8471 23.8635 30.5214 23.7779C30.4103 23.7487 30.2822 23.715 30.1312 23.6766C29.498 23.517 29.1908 23.8238 28.9667 24.0478C28.8651 24.1494 28.771 24.2435 28.6356 24.3135C28.8487 22.742 30.0304 22.0016 31.1378 21.9816ZM28.6018 25.7145V25.1761C29.1051 25.0574 29.3675 24.7954 29.5526 24.6103C29.737 24.426 29.7521 24.4109 29.9262 24.4548C30.0738 24.4922 30.1996 24.5253 30.3088 24.554C30.6915 24.6546 30.9023 24.7101 31.1378 24.7101C31.3729 24.7101 31.5853 24.6543 31.9709 24.5527C32.0789 24.5244 32.203 24.4917 32.347 24.455C32.5218 24.4109 32.5369 24.4259 32.7214 24.6103C32.9065 24.7954 33.169 25.0575 33.6721 25.1762V25.7145C33.6721 26.6016 32.7473 27.7451 31.7316 28.1138C31.2925 28.2734 30.9814 28.2733 30.5422 28.1136C29.5267 27.745 28.6018 26.6016 28.6018 25.7145ZM32.411 29.2692L31.3287 29.8917C31.3235 29.8947 31.3184 29.8978 31.3134 29.901C31.1385 30.012 31.1354 30.0118 30.9607 29.901C30.9557 29.8978 30.9505 29.8947 30.9454 29.8917L29.8628 29.269C30.0174 29.1477 30.1233 28.99 30.1975 28.844C30.2174 28.8516 30.2371 28.8598 30.2571 28.867C30.5697 28.9807 30.8534 29.0375 31.1372 29.0375C31.4209 29.0375 31.7045 28.9807 32.0169 28.8671C32.0369 28.8598 32.0568 28.8516 32.0767 28.8439C32.1508 28.9901 32.2566 29.1478 32.411 29.2692ZM27.434 31.1655C27.434 30.2029 27.9636 29.886 28.8547 29.6211L30.5225 30.5804C30.7432 30.7193 30.9401 30.7887 31.137 30.7887C31.3339 30.7887 31.5307 30.7193 31.7515 30.5804L33.4193 29.6211C34.3104 29.886 34.84 30.2029 34.84 31.1655V31.438C33.7878 32.152 32.5119 32.5711 31.1378 32.5711C29.763 32.5711 28.4865 32.1516 27.434 31.437L27.434 31.1655ZM40.616 45.1934C39.8128 45.1934 39.0709 44.9314 38.4744 44.4904C38.5371 43.8133 38.9341 43.2043 39.535 42.8594C39.8505 43.0473 40.2206 43.1556 40.616 43.1556C41.0118 43.1556 41.3822 43.0471 41.6979 42.859C42.2991 43.2037 42.6963 43.8128 42.7592 44.4899C42.1623 44.9312 41.4199 45.1934 40.616 45.1934ZM39.3492 41.1112C39.3492 40.427 39.9175 39.8703 40.616 39.8703C41.3146 39.8703 41.8829 40.427 41.8829 41.1112C41.8829 41.7953 41.3146 42.352 40.616 42.352C39.9175 42.352 39.3492 41.7954 39.3492 41.1112ZM43.4531 43.8126C43.2573 43.2016 42.8588 42.6647 42.3175 42.2931C42.56 41.9591 42.7032 41.5513 42.7032 41.1112C42.7032 39.9839 41.7669 39.0668 40.616 39.0668C39.4651 39.0668 38.5288 39.9839 38.5288 41.1112C38.5288 41.5516 38.6723 41.9596 38.9151 42.2938C38.3742 42.6654 37.9761 43.2022 37.7804 43.8129C37.325 43.2268 37.0539 42.4962 37.0539 41.7045C37.0539 39.7798 38.6519 38.214 40.616 38.214C42.581 38.214 44.1796 39.7798 44.1796 41.7045C44.1797 42.496 43.9086 43.2265 43.4531 43.8126Z" fill="#5027D9"/>
</svg>
