<svg width="19" height="19" viewBox="0 0 19 19" fill="none" xmlns="http://www.w3.org/2000/svg">
<path d="M10.3272 13.1989C10.2207 13.3155 10.0701 13.3818 9.91211 13.3818C9.75416 13.3818 9.60356 13.3155 9.49699 13.1989L6.49697 9.91766C6.28735 9.68839 6.30328 9.33259 6.53255 9.12296C6.76184 8.91334 7.11763 8.92924 7.32725 9.15851L9.34961 11.3705V3.06934C9.34961 2.75868 9.60146 2.50684 9.91211 2.50684C10.2228 2.50684 10.4746 2.75868 10.4746 3.06934V11.3705L12.497 9.15851C12.7066 8.92924 13.0624 8.91334 13.2917 9.12296C13.521 9.33259 13.5369 9.68839 13.3272 9.91766L10.3272 13.1989Z" fill="#5027D9"/>
<path d="M3.72461 12.0693C3.72461 11.7587 3.47277 11.5068 3.16211 11.5068C2.85145 11.5068 2.59961 11.7587 2.59961 12.0693V12.1105C2.59959 13.1362 2.59958 13.9629 2.687 14.6132C2.77776 15.2883 2.97193 15.8566 3.42337 16.308C3.87481 16.7595 4.44321 16.9537 5.1183 17.0445C5.76852 17.1318 6.59526 17.1318 7.62096 17.1318H12.2033C13.229 17.1318 14.0557 17.1318 14.706 17.0445C15.381 16.9537 15.9494 16.7595 16.4009 16.308C16.8523 15.8566 17.0465 15.2883 17.1372 14.6132C17.2246 13.9629 17.2246 13.1362 17.2246 12.1105V12.0693C17.2246 11.7587 16.9728 11.5068 16.6621 11.5068C16.3515 11.5068 16.0996 11.7587 16.0996 12.0693C16.0996 13.1459 16.0984 13.8967 16.0223 14.4633C15.9483 15.0136 15.813 15.305 15.6054 15.5126C15.3978 15.7202 15.1064 15.8555 14.556 15.9295C13.9895 16.0056 13.2387 16.0068 12.1621 16.0068H7.66211C6.58555 16.0068 5.83471 16.0056 5.2682 15.9295C4.71787 15.8555 4.42644 15.7202 4.21887 15.5126C4.0113 15.305 3.87596 15.0136 3.80197 14.4633C3.7258 13.8967 3.72461 13.1459 3.72461 12.0693Z" fill="#5027D9"/>
</svg>
