<svg width="24" height="24" viewBox="0 0 24 24" fill="none" xmlns="http://www.w3.org/2000/svg">
<path d="M14.4306 14.7344L9.43057 9.73438M14.4306 14.7344L8.1825 20.9824C7.35919 21.8057 6.3598 22.4557 5.21241 22.6536C4.05389 22.8535 2.61617 22.92 1.93055 22.2344C1.24494 21.5487 1.31144 20.111 1.51125 18.9525C1.70914 17.8051 2.35919 16.8057 3.1825 15.9824L9.43057 9.73438M14.4306 14.7344C14.4306 14.7344 18.1805 10.9844 15.6805 8.48438C13.1805 5.98438 9.43057 9.73438 9.43057 9.73438M1.375 12C1.375 3.875 3.875 1.375 12 1.375C20.125 1.375 22.625 3.875 22.625 12C22.625 20.125 20.125 22.625 12 22.625" stroke="#5027D9" stroke-width="1.875" stroke-linecap="round" stroke-linejoin="round"/>
</svg>
