<svg width="13" height="13" viewBox="0 0 13 13" fill="none" xmlns="http://www.w3.org/2000/svg">
<g clip-path="url(#clip0_393_1060)">
<path fill-rule="evenodd" clip-rule="evenodd" d="M11.2928 1.0177C10.6582 0.383099 9.62932 0.383096 8.9947 1.0177L1.32602 8.68641C1.09917 8.91326 0.944543 9.20219 0.881628 9.51673L0.563632 11.1067C0.412026 11.8647 1.08035 12.5331 1.83839 12.3815L3.42836 12.0635C3.74294 12.0006 4.03187 11.846 4.25872 11.6191L11.9274 3.9504C12.562 3.3158 12.562 2.28691 11.9274 1.6523L11.2928 1.0177ZM9.76073 1.78373C9.9723 1.5722 10.3152 1.5722 10.5268 1.78373L11.1614 2.41834C11.3729 2.62987 11.3729 2.97283 11.1614 3.18437L9.71425 4.63148L8.31366 3.23084L9.76073 1.78373ZM7.54758 3.99688L2.09205 9.45244C2.01644 9.52805 1.9649 9.62436 1.94392 9.72923L1.62593 11.3192L3.2159 11.0012C3.32076 10.9802 3.41707 10.9287 3.49269 10.8531L8.94823 5.39751L7.54758 3.99688Z" fill="#5027D9"/>
</g>
<defs>
<clipPath id="clip0_393_1060">
<rect width="13" height="13" fill="white"/>
</clipPath>
</defs>
</svg>
