<svg width="13" height="12" viewBox="0 0 13 12" fill="none" xmlns="http://www.w3.org/2000/svg">
<path d="M11.3838 4.09667C11.3838 3.87952 11.2975 3.67127 11.144 3.51772C10.9904 3.36417 10.7822 3.27791 10.565 3.27791H5.24307L4.26055 1.96789C4.18428 1.8662 4.08539 1.78366 3.9717 1.72682C3.85801 1.66998 3.73265 1.64038 3.60554 1.64038H1.55863C1.34148 1.64038 1.13323 1.72664 0.979678 1.88019C0.82613 2.03374 0.739868 2.24199 0.739868 2.45914V9.82801C0.739868 10.0452 0.82613 10.2534 0.979678 10.407C1.13323 10.5605 1.34148 10.6468 1.55863 10.6468H10.565C10.7822 10.6468 10.9904 10.5605 11.144 10.407C11.2975 10.2534 11.3838 10.0452 11.3838 9.82801V4.09667Z" stroke="#5027D9" stroke-width="1.33049" stroke-linecap="round" stroke-linejoin="round"/>
</svg>
