<svg width="32" height="32" viewBox="0 0 32 32" fill="none" xmlns="http://www.w3.org/2000/svg">
<path d="M8 13.3333H14C15.1045 13.3333 16 12.4378 16 11.3333V5.33325" stroke="#5027D9" stroke-width="1.8125"/>
<path fill-rule="evenodd" clip-rule="evenodd" d="M13.1381 4.97631C13.7632 4.35119 14.6111 4 15.4951 4H22C23.841 4 25.3334 5.49239 25.3334 7.33333V24.6667C25.3334 26.5076 23.841 28 22 28H10C8.15907 28 6.66669 26.5076 6.66669 24.6667V12.8284C6.66669 11.9444 7.01787 11.0965 7.64299 10.4714L13.1381 4.97631ZM15.4951 6.66667C15.3183 6.66667 15.1487 6.73691 15.0238 6.86193L9.52862 12.357C9.40359 12.4821 9.33335 12.6516 9.33335 12.8284V24.6667C9.33335 25.0348 9.63183 25.3333 10 25.3333H22C22.3682 25.3333 22.6667 25.0348 22.6667 24.6667V7.33333C22.6667 6.96515 22.3682 6.66667 22 6.66667H15.4951Z" fill="#5027D9"/>
<path d="M13.3333 19.3334H18.6667M16 16.6667V22.0001" stroke="#5027D9" stroke-width="1.8125" stroke-linecap="round" stroke-linejoin="round"/>
</svg>
