<svg width="63" height="64" viewBox="0 0 63 64" fill="none" xmlns="http://www.w3.org/2000/svg">
<ellipse cx="31.0945" cy="32.0001" rx="31.0945" ry="31.3487" fill="#D4C7FF"/>
<path d="M40.8259 24.0437L32.6584 19.3275C31.3246 18.5575 29.6746 18.5575 28.3271 19.3275L20.1734 24.0437C18.8396 24.8137 18.0146 26.2438 18.0146 27.7975V37.2025C18.0146 38.7425 18.8396 40.1725 20.1734 40.9562L28.3409 45.6725C29.6746 46.4425 31.3246 46.4425 32.6721 45.6725L40.8396 40.9562C42.1734 40.1862 42.9984 38.7563 42.9984 37.2025V27.7975C42.9846 26.2438 42.1596 24.8275 40.8259 24.0437ZM29.4684 26.6562C29.4684 26.0925 29.9359 25.625 30.4996 25.625C31.0634 25.625 31.5309 26.0925 31.5309 26.6562V33.875C31.5309 34.4388 31.0634 34.9062 30.4996 34.9062C29.9359 34.9062 29.4684 34.4388 29.4684 33.875V26.6562ZM31.7646 38.8662C31.6959 39.0312 31.5996 39.1825 31.4759 39.32C31.2146 39.5812 30.8709 39.7188 30.4996 39.7188C30.3209 39.7188 30.1421 39.6775 29.9771 39.6087C29.7984 39.54 29.6609 39.4437 29.5234 39.32C29.3996 39.1825 29.3034 39.0312 29.2209 38.8662C29.1521 38.7012 29.1246 38.5225 29.1246 38.3438C29.1246 37.9862 29.2621 37.6287 29.5234 37.3675C29.6609 37.2437 29.7984 37.1475 29.9771 37.0788C30.4859 36.8587 31.0909 36.9825 31.4759 37.3675C31.5996 37.505 31.6959 37.6425 31.7646 37.8212C31.8334 37.9862 31.8746 38.165 31.8746 38.3438C31.8746 38.5225 31.8334 38.7012 31.7646 38.8662Z" fill="#5027D9"/>
</svg>
