<svg width="117" height="42" viewBox="0 0 117 42" fill="none" xmlns="http://www.w3.org/2000/svg">
<path d="M58.3502 24.4504C58.2664 24.4504 58.1826 24.4378 58.0963 24.4025C58.0125 24.3671 57.9465 24.3192 57.883 24.2485C57.817 24.1778 57.7713 24.1021 57.7383 24.0163C57.7078 23.933 57.6951 23.8421 57.6951 23.7437V17.6406C57.6875 17.5497 57.7078 17.4513 57.7383 17.368C57.7713 17.2821 57.817 17.1989 57.883 17.1357C58.0125 17.0095 58.175 16.9464 58.3502 16.9464C58.5254 16.9464 58.6879 17.0171 58.8174 17.1357C58.8758 17.2064 58.9291 17.2821 58.9545 17.368C58.9875 17.4513 59.0002 17.5497 58.9951 17.6406V23.7437C58.9951 23.8345 58.9799 23.9254 58.9494 24.0163C58.9164 24.1021 58.8707 24.1778 58.8123 24.2485C58.7539 24.3192 58.6752 24.3671 58.5965 24.4025C58.5254 24.4378 58.4416 24.4504 58.3502 24.4504ZM58.3502 15.7223C58.1547 15.7223 57.9617 15.6516 57.8119 15.5178C57.6545 15.3866 57.5504 15.1973 57.5123 14.9928C57.4742 14.7833 57.4996 14.5739 57.591 14.3845C57.6799 14.1952 57.8297 14.0489 58.0125 13.9731C58.1953 13.8873 58.3959 13.8823 58.5838 13.9378C58.7742 14.0009 58.9367 14.1271 59.0459 14.3013C59.1576 14.4754 59.2008 14.6849 59.183 14.8969C59.1627 15.1064 59.0789 15.3033 58.9367 15.4573C58.858 15.5406 58.7666 15.6112 58.6625 15.6516C58.5711 15.7021 58.4619 15.7223 58.3502 15.7223Z" fill="white"/>
<path d="M58.4416 23.953C58.4162 23.9606 58.3959 23.9682 58.3705 23.9682L58.3299 24.9273C58.4797 24.9349 58.6295 24.9071 58.7666 24.8491L58.4416 23.953ZM58.5076 23.9127C58.4873 23.9328 58.467 23.948 58.4492 23.953L58.7742 24.8491C58.9088 24.7935 59.0383 24.7027 59.1424 24.5841L58.5076 23.9127ZM58.5457 23.842C58.5381 23.8697 58.5203 23.8899 58.5076 23.9127L59.15 24.5765C59.2465 24.4654 59.3328 24.3316 59.3836 24.1853L58.5457 23.842ZM58.5584 23.7637C58.5584 23.794 58.5508 23.8218 58.5457 23.8496L59.3785 24.1928C59.4293 24.0439 59.4547 23.8899 59.4496 23.736L58.5584 23.7637ZM58.5584 17.648V23.7511H59.4496V17.648H58.5584ZM58.5457 17.542C58.5508 17.5697 58.5584 17.5975 58.5584 17.6253L59.4496 17.6682C59.4547 17.5066 59.4293 17.3527 59.3785 17.1987L58.5457 17.542ZM58.5 17.4713C58.5203 17.494 58.533 17.5142 58.5381 17.542L59.3785 17.1987C59.3252 17.0523 59.2465 16.911 59.1424 16.7999L58.5 17.4713ZM58.3578 17.4234C58.4213 17.4234 58.4797 17.4511 58.5254 17.494L59.1246 16.7722C58.9164 16.5677 58.6422 16.4566 58.3578 16.4566V17.4234ZM58.1877 17.494C58.2334 17.4511 58.2994 17.4234 58.3578 17.4234V16.4642C58.0785 16.4642 57.8043 16.5753 57.591 16.7797L58.1877 17.494ZM58.1623 17.542C58.1674 17.5142 58.1877 17.494 58.2004 17.4789L57.5758 16.7923C57.4742 16.9059 57.3879 17.0447 57.3295 17.1911L58.1623 17.542ZM58.1496 17.6253C58.1496 17.5975 58.1496 17.5697 58.1623 17.5496L57.3295 17.1987C57.2787 17.3451 57.2508 17.5066 57.2584 17.6682L58.1496 17.6253ZM58.1496 23.7511V17.648H57.2584V23.7511H58.1496ZM58.1623 23.842C58.1547 23.8142 58.1496 23.794 58.1496 23.7637L57.2584 23.736C57.2508 23.8975 57.2787 24.0515 57.3371 24.1979L58.1623 23.842ZM58.2004 23.9127C58.1826 23.8899 58.1674 23.8697 58.1623 23.842L57.3295 24.1979C57.3828 24.3468 57.4666 24.478 57.5707 24.5916L58.2004 23.9127ZM58.2664 23.953C58.241 23.948 58.2207 23.9253 58.2004 23.9127L57.5707 24.5916C57.6748 24.7027 57.7992 24.786 57.9338 24.8491L58.2664 23.953ZM58.3375 23.9682C58.3121 23.9682 58.2867 23.9606 58.2664 23.953L57.9338 24.8491C58.0709 24.9071 58.2131 24.9349 58.3629 24.9349L58.3375 23.9682ZM58.5 15.2098C58.4543 15.2325 58.4035 15.2401 58.3578 15.2401L58.3451 16.1967C58.5127 16.1967 58.6828 16.1639 58.8453 16.0932L58.5 15.2098ZM58.6244 15.1189C58.5914 15.1542 58.5457 15.1896 58.5 15.2098L58.8453 16.1008C59.0002 16.0301 59.1424 15.9241 59.2668 15.7928L58.6244 15.1189ZM58.7463 14.8539C58.7412 14.9523 58.6955 15.0508 58.6295 15.1189L59.2617 15.7979C59.475 15.5682 59.6045 15.2678 59.6375 14.9447L58.7463 14.8539ZM58.6828 14.5661C58.7336 14.652 58.759 14.7479 58.7463 14.8463L59.6375 14.9372C59.6705 14.6166 59.5918 14.2935 59.4242 14.0285L58.6828 14.5661ZM58.4619 14.392C58.5508 14.4197 58.6295 14.4828 58.6828 14.5661L59.4242 14.0285C59.2541 13.761 59.0078 13.5591 58.7209 13.4682L58.4619 14.392ZM58.1877 14.4122C58.2715 14.3718 58.3705 14.3718 58.4619 14.3996L58.7209 13.4758C58.434 13.3849 58.1242 13.3975 57.85 13.5237L58.1877 14.4122ZM57.9871 14.6091C58.0328 14.5182 58.1039 14.4475 58.1877 14.4122L57.8424 13.5237C57.5631 13.6499 57.3371 13.8746 57.2 14.1598L57.9871 14.6091ZM57.9541 14.8968C57.9338 14.7984 57.9465 14.6923 57.9922 14.6091L57.2 14.1598C57.0578 14.4475 57.0172 14.7782 57.0756 15.0911L57.9541 14.8968ZM58.0912 15.1467C58.0201 15.0861 57.9668 14.9927 57.9465 14.8968L57.0705 15.0911C57.1289 15.4066 57.2914 15.6944 57.525 15.8963L58.0912 15.1467ZM58.3502 15.2401C58.2588 15.2401 58.1674 15.2047 58.0963 15.1416L57.5377 15.8887C57.7713 16.0932 58.0633 16.2042 58.3629 16.1967L58.3502 15.2401ZM59.0002 23.7511H58.5508V23.7637L59.0002 23.7511ZM59.0002 17.648L58.5508 17.6253V17.653H59.0002V17.648ZM58.825 17.1356L59.1424 16.7999L59.1297 16.7848L59.117 16.7722L58.825 17.1356ZM57.8881 17.1356L57.591 16.7797L57.5834 16.7848L57.5758 16.7923L57.8881 17.1356ZM57.7002 17.648H58.1496V17.6253L57.7002 17.648ZM57.7002 23.7511L58.1496 23.7637V23.7511H57.7002ZM58.3502 24.4503L58.3705 23.9682H58.3451L58.3502 24.4503ZM58.9418 15.4571L58.6244 15.1139V15.1189L58.9418 15.4571ZM58.3502 15.7222L58.3578 15.2401H58.3451L58.3502 15.7222Z" fill="white"/>
<path d="M70.68 19.8391V23.7639C70.68 23.8573 70.6673 23.9482 70.6368 24.0391C70.6038 24.1224 70.5581 24.1981 70.4997 24.2687C70.4413 24.3394 70.3626 24.3874 70.2839 24.4227C70.2077 24.458 70.1163 24.4732 70.03 24.4656C69.9462 24.4656 69.8624 24.4505 69.7786 24.4151C69.6999 24.3823 69.6288 24.3318 69.5628 24.2612C69.5044 24.1981 69.4536 24.1148 69.4206 24.0315C69.3876 23.9482 69.3749 23.8573 69.3749 23.7589V19.8315C69.3749 19.256 69.2454 18.8294 68.9788 18.5493C68.8417 18.4105 68.6792 18.2969 68.504 18.2287C68.3288 18.158 68.1384 18.1227 67.9505 18.1303C67.7499 18.1227 67.5417 18.1656 67.3538 18.2489C67.1634 18.3322 66.9958 18.466 66.8587 18.6275C66.5667 18.9708 66.4169 19.4251 66.4372 19.887V23.7589C66.4372 23.8498 66.4245 23.9406 66.3915 24.0315C66.3585 24.1148 66.3128 24.193 66.2544 24.2612C66.13 24.3874 65.9624 24.458 65.7872 24.458C65.612 24.458 65.4495 24.3874 65.3175 24.2612C65.2591 24.1981 65.2083 24.1224 65.1753 24.0315C65.1423 23.9482 65.1296 23.8573 65.1296 23.7589V19.8315C65.1296 19.256 65.0001 18.8294 64.7335 18.5493C64.5964 18.4105 64.4339 18.2969 64.2587 18.2287C64.0835 18.158 63.8956 18.1227 63.7077 18.1303C63.4995 18.1227 63.2964 18.1656 63.1085 18.2489C62.9206 18.3322 62.7505 18.466 62.6083 18.6275C62.4661 18.7941 62.3493 18.991 62.2757 19.208C62.2046 19.4251 62.1665 19.6573 62.1792 19.887V23.7589C62.1868 23.9406 62.1208 24.1224 62.004 24.2561C61.9456 24.3243 61.8669 24.3748 61.7882 24.4101C61.712 24.4429 61.6206 24.458 61.5368 24.4505C61.4505 24.4505 61.3667 24.4379 61.2829 24.4025C61.2042 24.3672 61.1255 24.3192 61.0671 24.2486C61.0087 24.1855 60.9579 24.1072 60.9249 24.0163C60.8919 23.933 60.8792 23.8422 60.8792 23.7437V17.6406C60.8716 17.5498 60.8919 17.4513 60.9173 17.368C60.9503 17.2772 60.996 17.1989 61.062 17.1358C61.1839 17.0096 61.354 16.9389 61.5292 16.9465C61.613 16.9389 61.7044 16.9617 61.7831 16.9894C61.8618 17.0172 61.938 17.0727 62.004 17.1358C62.1208 17.2696 62.1868 17.4437 62.1792 17.6255C62.3163 17.4791 62.4661 17.3529 62.6286 17.2469C63.0298 16.9894 63.4995 16.8556 63.9667 16.8632C64.4161 16.8556 64.8579 16.9692 65.254 17.2065C65.546 17.3806 65.7923 17.633 65.9751 17.9334C66.1833 17.6532 66.4423 17.4236 66.7368 17.2469C67.1837 16.9818 67.6915 16.8481 68.2044 16.8632C68.6538 16.8556 69.1007 16.9692 69.4917 17.2065C69.8675 17.4362 70.1747 17.7946 70.3626 18.2136C70.5911 18.731 70.7003 19.2863 70.68 19.8391Z" fill="white"/>
<path d="M69.9664 18.4304C70.1543 18.8646 70.2457 19.3416 70.233 19.8161L71.1242 19.8439C71.142 19.2154 71.0201 18.5844 70.7713 18.019L69.9664 18.4304ZM69.2758 17.6328C69.5754 17.8146 69.8166 18.0947 69.9715 18.4304L70.7789 18.0114C70.5504 17.4991 70.1797 17.0725 69.7252 16.7923L69.2758 17.6328ZM68.2246 17.3602C68.5953 17.3527 68.9584 17.4511 69.2834 17.6404L69.7125 16.7999C69.2504 16.5273 68.7299 16.386 68.1992 16.4011L68.2246 17.3602ZM66.9576 17.6808C67.341 17.4587 67.7701 17.3451 68.2043 17.3527L68.2246 16.3935C67.633 16.3809 67.0465 16.5349 66.5336 16.8352L66.9576 17.6808ZM66.3254 18.2487C66.5006 18.019 66.7164 17.8221 66.9576 17.6808L66.5285 16.8428C66.1832 17.0447 65.8836 17.3173 65.6373 17.648L66.3254 18.2487ZM65.0381 17.6328C65.2666 17.7717 65.4621 17.9685 65.6043 18.2058L66.3508 17.6808C66.1299 17.3173 65.8328 17.017 65.4799 16.7999L65.0381 17.6328ZM63.9793 17.3602C64.35 17.3527 64.7131 17.4511 65.0381 17.6404L65.4672 16.7999C65.0076 16.5273 64.4871 16.386 63.9539 16.4011L63.9793 17.3602ZM62.8621 17.6758C63.1922 17.4587 63.5756 17.3527 63.959 17.3602L63.9793 16.4011C63.4207 16.386 62.8748 16.5475 62.4 16.8554L62.8621 17.6758ZM62.4965 17.9761C62.6082 17.8575 62.7326 17.759 62.8621 17.6682L62.4 16.8479C62.2045 16.9741 62.0293 17.123 61.8668 17.2971L62.4965 17.9761ZM61.684 17.4789C61.717 17.5218 61.7373 17.5697 61.7373 17.6253L62.6285 17.648C62.6336 17.3401 62.5244 17.0372 62.3289 16.8201L61.684 17.4789ZM61.6332 17.4511C61.6586 17.4587 61.6789 17.4789 61.6992 17.494L62.3162 16.7923C62.2121 16.6813 62.0826 16.598 61.9455 16.5399L61.6332 17.4511ZM61.5545 17.436C61.5799 17.436 61.6078 17.436 61.6332 17.4511L61.9455 16.5475C61.8084 16.492 61.6586 16.4718 61.5164 16.4768L61.5545 17.436ZM61.3742 17.4991C61.4123 17.4587 61.4631 17.436 61.5215 17.436L61.5494 16.4768C61.2549 16.4718 60.9756 16.5828 60.7674 16.7999L61.3742 17.4991ZM61.3463 17.5571C61.3539 17.5268 61.3666 17.5066 61.3869 17.494L60.7547 16.8075C60.6506 16.9185 60.5668 17.0599 60.5084 17.2063L61.3463 17.5571ZM61.3336 17.6328C61.3336 17.6051 61.3336 17.5773 61.3463 17.5571L60.516 17.2063C60.4627 17.3527 60.4373 17.5218 60.4424 17.6808L61.3336 17.6328ZM61.3336 23.7587V17.653H60.4424V23.7587H61.3336ZM61.3463 23.8571C61.3412 23.8344 61.3336 23.8066 61.3336 23.7789L60.4424 23.7435C60.4373 23.9051 60.4627 24.059 60.5211 24.2054L61.3463 23.8571ZM61.3869 23.9177C61.3666 23.8975 61.3539 23.8773 61.3463 23.8571L60.516 24.213C60.5668 24.3594 60.6506 24.4932 60.7547 24.6042L61.3869 23.9177ZM61.4504 23.9682C61.425 23.9606 61.4047 23.9404 61.3869 23.9253L60.7547 24.6042C60.8588 24.7178 60.9832 24.8087 61.1203 24.8642L61.4504 23.9682ZM61.5215 23.9808C61.4961 23.9808 61.4707 23.9758 61.4504 23.9682L61.1203 24.8642C61.2549 24.9197 61.4047 24.9475 61.5494 24.9475L61.5215 23.9808ZM61.6332 23.9682C61.6129 23.9758 61.5875 23.9808 61.5621 23.9808L61.5164 24.9399C61.6662 24.9475 61.816 24.9197 61.9582 24.8642L61.6332 23.9682ZM61.6916 23.9253C61.6713 23.948 61.6535 23.9606 61.6332 23.9682L61.9582 24.8642C62.1004 24.8087 62.2248 24.7178 62.3289 24.5967L61.6916 23.9253ZM61.7373 23.7789C61.7373 23.8344 61.717 23.8899 61.684 23.9328L62.334 24.5916C62.5371 24.3594 62.6412 24.059 62.6336 23.7435L61.7373 23.7789ZM61.7373 19.8944V23.7637H62.6285V19.8944H61.7373ZM61.8668 19.0463C61.7703 19.3189 61.7297 19.6142 61.7373 19.907L62.6285 19.8717C62.6209 19.7051 62.6463 19.536 62.6996 19.382L61.8668 19.0463ZM62.2883 18.3042C62.1004 18.5213 61.9582 18.7737 61.8668 19.0463L62.7047 19.382C62.758 19.228 62.8418 19.0816 62.9459 18.9554L62.2883 18.3042ZM62.9459 17.8146C62.6996 17.9282 62.4711 18.0947 62.2883 18.3118L62.9459 18.963C63.0424 18.852 63.1617 18.7611 63.2912 18.703L62.9459 17.8146ZM63.733 17.653C63.4664 17.648 63.1922 17.6959 62.9459 17.807L63.2912 18.698C63.4207 18.6399 63.5629 18.6122 63.7 18.6122L63.733 17.653ZM64.4287 17.7792C64.1951 17.6808 63.9463 17.6404 63.6924 17.653L63.733 18.6122C63.8625 18.6071 63.992 18.6273 64.1088 18.6753L64.4287 17.7792ZM65.0584 18.2058C64.8756 18.019 64.6623 17.8777 64.4338 17.7792L64.1164 18.6828C64.2383 18.7308 64.35 18.809 64.4414 18.8999L65.0584 18.2058ZM65.5916 19.8389C65.5916 19.1927 65.4418 18.6197 65.0584 18.2134L64.4338 18.8999C64.5836 19.0539 64.6953 19.334 64.6953 19.8389H65.5916ZM65.5916 23.7587V19.8313H64.7004V23.7587H65.5916ZM65.6043 23.8571C65.5992 23.8268 65.5916 23.8066 65.5916 23.7789L64.7004 23.7435C64.6953 23.9051 64.7207 24.059 64.7791 24.2054L65.6043 23.8571ZM65.6424 23.9177C65.6246 23.8975 65.6119 23.8773 65.6043 23.8571L64.7715 24.213C64.8248 24.3594 64.9086 24.4932 65.0127 24.6042L65.6424 23.9177ZM65.7922 23.9808C65.7338 23.9808 65.6754 23.953 65.6297 23.9127L65.0203 24.6118C65.2285 24.8213 65.5078 24.9399 65.7922 24.9399V23.9808ZM65.9547 23.9127C65.909 23.953 65.8506 23.9808 65.7922 23.9808V24.9399C66.0791 24.9399 66.3584 24.8213 66.5666 24.6118L65.9547 23.9127ZM65.9826 23.8571C65.975 23.8849 65.9547 23.9051 65.942 23.9253L66.5793 24.5967C66.6834 24.4856 66.7621 24.3518 66.8129 24.2054L65.9826 23.8571ZM65.9953 23.7789C65.9953 23.8066 65.9877 23.8344 65.9826 23.8571L66.8129 24.2054C66.8662 24.059 66.8916 23.9051 66.884 23.7435L65.9953 23.7789ZM65.9953 19.8944V23.7637H66.884V19.8944H65.9953ZM66.5336 18.3118C66.1629 18.7459 65.9674 19.3265 65.9953 19.9146L66.884 19.8717C66.8713 19.536 66.983 19.2078 67.1963 18.9554L66.5336 18.3118ZM67.1836 17.8146C66.9373 17.9282 66.7164 18.0947 66.5336 18.3118L67.1912 18.963C67.2877 18.852 67.3994 18.7661 67.5289 18.703L67.1836 17.8146ZM67.9707 17.653C67.7041 17.648 67.4375 17.6959 67.1912 17.8146L67.5416 18.703C67.6711 18.6475 67.8082 18.6197 67.9504 18.6197L67.9707 17.653ZM68.6715 17.7792C68.4379 17.6808 68.1916 17.6404 67.9377 17.653L67.9758 18.6122C68.1078 18.6071 68.2373 18.6273 68.3541 18.6753L68.6715 17.7792ZM69.2961 18.2134C69.1133 18.0241 68.9 17.8777 68.6664 17.7868L68.3465 18.6904C68.4709 18.7384 68.575 18.8166 68.6715 18.9075L69.2961 18.2134ZM69.8293 19.8389C69.8293 19.1927 69.6795 18.6197 69.2961 18.2134L68.6715 18.8999C68.8213 19.0539 68.933 19.334 68.933 19.8389H69.8293ZM69.8293 23.7587V19.8313H68.9381V23.7587H69.8293ZM69.842 23.8571C69.8369 23.8268 69.8293 23.8066 69.8293 23.7789L68.9381 23.7511C68.933 23.9127 68.9584 24.0666 69.0168 24.213L69.842 23.8571ZM69.8826 23.9177C69.8623 23.8975 69.8496 23.8773 69.842 23.8495L69.0117 24.2054C69.0625 24.3518 69.1463 24.4856 69.2504 24.5967L69.8826 23.9177ZM69.9461 23.9682C69.9207 23.9606 69.9004 23.9404 69.8826 23.9253L69.2504 24.6042C69.3545 24.7178 69.4789 24.8087 69.616 24.8642L69.9461 23.9682ZM70.0172 23.9808C69.9918 23.9808 69.9664 23.9758 69.9461 23.9682L69.616 24.8642C69.7506 24.9197 69.9004 24.9475 70.0451 24.9475L70.0172 23.9808ZM70.1213 23.9682C70.1035 23.9758 70.0756 23.9808 70.0578 23.9808L70.0121 24.9399C70.1619 24.9475 70.3117 24.9273 70.4539 24.8642L70.1213 23.9682ZM70.1797 23.9253C70.167 23.948 70.1492 23.9606 70.1213 23.9682L70.4463 24.8642C70.591 24.8087 70.7129 24.7102 70.817 24.5967L70.1797 23.9253ZM70.2254 23.8571C70.2203 23.8849 70.2 23.9051 70.1873 23.9253L70.8246 24.5967C70.9287 24.4856 71.0049 24.3518 71.0582 24.2054L70.2254 23.8571ZM70.2381 23.7789C70.2381 23.8066 70.233 23.8344 70.2254 23.8571L71.0582 24.2054C71.109 24.059 71.1369 23.9051 71.1293 23.7435L70.2381 23.7789ZM70.233 19.8389V23.7637H71.1242V19.8389H70.233ZM68.2119 16.8782L68.2043 17.3602H68.217L68.2119 16.8782ZM65.9826 17.9483L65.6119 18.2134L65.9496 18.7661L66.333 18.2563L65.9826 17.9483ZM63.9742 16.8782L63.959 17.3602H63.9742V16.8782ZM62.1867 17.6328L61.7373 17.6253L61.717 18.8166L62.4965 17.9837L62.1867 17.6328ZM62.009 17.1508L62.334 16.8151L62.3289 16.8075L62.3162 16.7999L62.009 17.1508ZM61.5367 16.9614L61.5215 17.4435H61.5494L61.5367 16.9614ZM61.067 17.1508L60.7674 16.7999H60.7623L60.7547 16.8075L61.067 17.1508ZM60.8867 17.6606H61.3336V17.6328L60.8867 17.6606ZM60.8867 23.7587L61.3336 23.7713V23.7587H60.8867ZM61.5367 24.4578L61.5545 23.9758H61.5164L61.5367 24.4578ZM62.009 24.261L62.3289 24.5967L62.3416 24.584L62.009 24.261ZM62.1867 23.7587H61.7373V23.7713L62.1867 23.7587ZM62.1867 19.8944H62.6336V19.8792L62.1867 19.8944ZM63.7127 18.1377L63.7 18.6197H63.7254L63.7127 18.1377ZM65.1422 23.7587L65.5916 23.7713V23.7587H65.1422ZM65.325 24.261L65.0127 24.6042L65.0203 24.6118L65.0254 24.6194L65.325 24.261ZM66.2619 24.261L66.5666 24.6118L66.5742 24.6042L66.5793 24.5967L66.2619 24.261ZM66.4422 23.7587H65.9953V23.7713L66.4422 23.7587ZM66.4422 19.8944H66.8916V19.8792L66.4422 19.8944ZM67.958 18.1377L67.9453 18.6197H67.9834L67.958 18.1377ZM69.3799 23.7587L69.8293 23.7713V23.7587H69.3799ZM70.0299 24.4578L70.0578 23.9758H70.0172L70.0299 24.4578ZM70.6799 23.7587H70.233V23.7713L70.6799 23.7587ZM70.6799 19.8389L70.233 19.8237V19.8389H70.6799Z" fill="white"/>
<path d="M75.8038 23.2691C76.2125 23.2741 76.6163 23.1555 76.959 22.9309C77.2993 22.7087 77.5786 22.3932 77.7665 22.0146C77.967 21.6158 78.0711 21.1615 78.0661 20.7072C78.0711 20.2428 77.967 19.7884 77.7665 19.3821C77.5786 19.006 77.2993 18.6905 76.959 18.4658C76.7 18.2967 76.4131 18.1857 76.1161 18.1428C75.8165 18.1024 75.5118 18.115 75.2172 18.2059C74.9252 18.2917 74.6536 18.4381 74.4174 18.64C74.1838 18.8444 73.9833 19.0968 73.8411 19.3821C73.6379 19.7884 73.5415 20.2428 73.5465 20.7072C73.5415 21.1615 73.6379 21.6158 73.8411 22.0146C74.029 22.3932 74.3083 22.7138 74.6459 22.9309C74.9963 23.1555 75.4 23.2741 75.8038 23.2691ZM72.9499 27.6559C72.8661 27.6559 72.7797 27.6432 72.6959 27.6079C72.6172 27.5726 72.5461 27.5246 72.4827 27.4539C72.4243 27.3908 72.3709 27.3075 72.3379 27.2217C72.3049 27.1384 72.2922 27.0476 72.2922 26.9491V20.6996C72.2922 20.0206 72.4547 19.3467 72.767 18.7536C73.0667 18.1857 73.4958 17.7162 74.0163 17.3881C74.4174 17.1357 74.8618 16.9691 75.3163 16.8984C75.7758 16.8277 76.2456 16.8555 76.6924 16.9817C77.1418 17.1079 77.5633 17.3325 77.934 17.6329C78.3047 17.9333 78.612 18.3194 78.8456 18.746C79.1579 19.3417 79.3204 20.0131 79.3127 20.692C79.3254 21.3634 79.1756 22.0348 78.8836 22.6305C78.612 23.1833 78.2083 23.6527 77.7208 23.9884C77.2663 24.2837 76.7458 24.4579 76.2125 24.4857C75.6793 24.5134 75.1461 24.4024 74.6663 24.1575C74.2499 23.9405 73.8868 23.625 73.5872 23.2464V26.9491C73.5872 27.04 73.5745 27.1309 73.5415 27.2217C73.5084 27.3075 73.4627 27.3833 73.4043 27.4539C73.3459 27.5246 73.2672 27.5726 73.1911 27.6079C73.125 27.6508 73.0413 27.6634 72.9499 27.6559Z" fill="white"/>
<path d="M74.4174 23.3372C74.8338 23.6098 75.3162 23.7587 75.8088 23.7512L75.8037 22.792C75.4787 22.792 75.1588 22.7012 74.8871 22.5194L74.4174 23.3372ZM73.45 22.2317C73.6785 22.686 74.0086 23.0722 74.425 23.3372L74.8871 22.5119C74.6129 22.3377 74.392 22.0853 74.2422 21.7774L73.45 22.2317ZM73.1047 20.692C73.0996 21.2322 73.2164 21.7622 73.45 22.2317L74.2371 21.7849C74.0746 21.4543 73.9883 21.0832 73.9959 20.7072L73.1047 20.692ZM73.45 19.1524C73.2164 19.6269 73.0996 20.167 73.1047 20.7072L73.9959 20.692C73.9883 20.3134 74.0746 19.9348 74.2371 19.5991L73.45 19.1524ZM74.1457 18.2563C73.8588 18.5012 73.6252 18.8015 73.45 19.1448L74.2371 19.5991C74.3539 19.3694 74.5088 19.165 74.6992 19.006L74.1457 18.2563ZM75.108 17.7313C74.7576 17.8348 74.4326 18.0115 74.1457 18.2563L74.6992 19.011C74.8871 18.852 75.108 18.7308 75.3416 18.6627L75.108 17.7313ZM76.1795 17.6607C75.8215 17.6051 75.4508 17.6329 75.108 17.7313L75.3416 18.6627C75.5752 18.592 75.8164 18.5769 76.0576 18.6122L76.1795 17.6607ZM77.1951 18.0519C76.8828 17.85 76.5375 17.7162 76.1795 17.6607L76.0576 18.6122C76.2963 18.6476 76.5248 18.7384 76.733 18.8722L77.1951 18.0519ZM78.1625 19.1524C77.934 18.7031 77.6039 18.3194 77.1951 18.0519L76.7254 18.8722C76.9996 19.0539 77.2205 19.3063 77.3754 19.6143L78.1625 19.1524ZM78.5205 20.7122C78.5256 20.167 78.4088 19.6345 78.1701 19.1524L77.383 19.6067C77.5506 19.9424 77.6369 20.3134 77.6293 20.692L78.5205 20.7122ZM78.1625 22.2393C78.4037 21.7622 78.5205 21.2322 78.5129 20.692L77.6242 20.7072C77.6293 21.0832 77.5455 21.4467 77.3754 21.7774L78.1625 22.2393ZM77.2002 23.3372C77.6039 23.0722 77.9416 22.686 78.1701 22.2393L77.383 21.7774C77.2256 22.0777 77.0047 22.3377 76.733 22.5194L77.2002 23.3372ZM75.7961 23.7512C76.2912 23.7587 76.7711 23.6174 77.1951 23.3448L76.733 22.5194C76.4537 22.7012 76.1338 22.792 75.8088 22.7845L75.7961 23.7512ZM73.0412 27.1662C73.0209 27.1738 72.9955 27.1813 72.9701 27.1813L72.9295 28.1405C73.0793 28.148 73.2291 28.1177 73.3662 28.0622L73.0412 27.1662ZM73.1047 27.1258C73.0869 27.146 73.0666 27.1611 73.0463 27.1662L73.3713 28.0622C73.5084 28.0067 73.6379 27.9158 73.742 27.7972L73.1047 27.1258ZM73.1377 27.0551C73.1326 27.0829 73.1123 27.1031 73.0996 27.1258L73.742 27.7896C73.841 27.6786 73.9248 27.5448 73.9756 27.3984L73.1377 27.0551ZM73.1504 26.9769C73.1504 27.0072 73.1453 27.0349 73.1377 27.0627L73.9705 27.406C74.0213 27.257 74.0492 27.1031 74.0416 26.9491L73.1504 26.9769ZM73.1504 23.2539V26.9567H74.0416V23.2539H73.1504ZM74.8744 23.736C74.5164 23.5467 74.1965 23.2817 73.9451 22.946L73.2545 23.5619C73.5922 23.996 74.0086 24.3519 74.4758 24.5967L74.8744 23.736ZM76.1998 24.0162C75.7377 24.0439 75.2832 23.948 74.8668 23.731L74.4834 24.5967C75.0293 24.8769 75.6336 25.0107 76.2455 24.9753L76.1998 24.0162ZM77.4998 23.5896C77.1088 23.8496 76.6619 23.9884 76.1998 24.0162L76.2455 24.9753C76.8498 24.94 77.4414 24.7532 77.9619 24.4099L77.4998 23.5896ZM78.5002 22.421C78.2666 22.9031 77.9162 23.3019 77.4922 23.5972L77.967 24.4099C78.5256 24.0313 78.9826 23.4988 79.2924 22.8677L78.5002 22.421ZM78.8709 20.7122C78.8785 21.3079 78.7541 21.896 78.4951 22.421L79.2873 22.8677C79.6123 22.1964 79.7748 21.4543 79.7621 20.6996L78.8709 20.7122ZM78.4672 18.9984C78.7414 19.5158 78.8836 20.1039 78.8785 20.6996L79.7672 20.7122C79.7799 19.9424 79.5996 19.1877 79.2416 18.5214L78.4672 18.9984ZM77.675 18.0241C78 18.2917 78.2666 18.6198 78.4672 18.9984L79.2416 18.5138C78.9826 18.0241 78.6297 17.5976 78.2133 17.2543L77.675 18.0241ZM76.5883 17.4512C76.9793 17.5622 77.35 17.7515 77.675 18.0191L78.2133 17.2543C77.7994 16.911 77.3246 16.6611 76.8168 16.5198L76.5883 17.4512ZM75.3873 17.3729C75.791 17.3098 76.1998 17.3401 76.5883 17.4512L76.8168 16.5198C76.309 16.381 75.7834 16.3456 75.2629 16.4214L75.3873 17.3729ZM74.2498 17.807C74.6002 17.5849 74.9836 17.436 75.3873 17.3805L75.2629 16.4289C74.7424 16.5072 74.2422 16.6939 73.7953 16.9817L74.2498 17.807ZM73.1631 18.9908C73.4246 18.5012 73.7953 18.0872 74.2498 17.807L73.8004 16.9741C73.2088 17.3451 72.7213 17.8777 72.3912 18.5214L73.1631 18.9908ZM72.7492 20.7072C72.7492 20.1039 72.8914 19.5158 73.1631 18.9984L72.3836 18.5289C72.0332 19.1927 71.8504 19.95 71.858 20.7122L72.7492 20.7072ZM72.7492 26.9567V20.7072H71.858V26.9567H72.7492ZM72.7619 27.0476C72.7543 27.0198 72.7492 26.9996 72.7492 26.9718L71.858 26.9441C71.8504 27.1031 71.8758 27.257 71.9367 27.406L72.7619 27.0476ZM72.8 27.1182C72.7797 27.098 72.767 27.0753 72.7619 27.0476L71.9291 27.406C71.9799 27.5524 72.0662 27.6861 72.1703 27.7972L72.8 27.1182ZM72.866 27.1611C72.8381 27.1536 72.8203 27.1308 72.8 27.1182L72.1703 27.7972C72.2744 27.9082 72.3963 27.9991 72.5334 28.0572L72.866 27.1611ZM72.9371 27.1738C72.9117 27.1738 72.8838 27.1662 72.866 27.1611L72.5334 28.0572C72.6705 28.1127 72.8127 28.1405 72.9625 28.1405L72.9371 27.1738ZM73.5465 20.6996L73.9959 20.7072V20.692L73.5465 20.6996ZM78.0711 20.7072L77.6242 20.6996V20.7122L78.0711 20.7072ZM75.8037 23.2691L75.8088 22.7845H75.7961L75.8037 23.2691ZM73.5998 26.9567H73.1504V26.9718L73.5998 26.9567ZM73.5998 23.2539L73.9451 22.946L73.1504 21.9162V23.2464H73.5998V23.2539ZM77.7258 24.0036L77.9619 24.415H77.9746L77.7258 24.0036ZM79.3203 20.7072L78.8709 20.6996V20.7122L79.3203 20.7072ZM72.2998 26.9567L72.7492 26.9718V26.9567H72.2998ZM72.9498 27.6558L72.9701 27.1738H72.9295L72.9498 27.6558Z" fill="white"/>
<path d="M92.1503 20.6291C92.1046 20.2025 92.1756 19.7684 92.3508 19.3898C92.554 18.9784 92.8587 18.6275 93.237 18.3953C93.5417 18.1732 93.9047 18.052 94.2704 18.047C94.6411 18.047 95.0042 18.1656 95.3088 18.3827C95.5424 18.5442 95.7456 18.7386 95.9208 18.9708L92.3204 21.3863C92.234 21.1389 92.1706 20.8891 92.1503 20.6291ZM98.0663 21.245C98.0129 21.1743 97.9546 21.1112 97.8835 21.0708C97.8124 21.0279 97.7337 21.0001 97.6499 20.985C97.5077 20.9648 97.3629 21.0001 97.2462 21.0834C97.1243 21.1743 97.0253 21.3081 96.9745 21.4544C96.8755 21.7069 96.746 21.9391 96.5835 22.141C96.4133 22.3782 96.2077 22.5827 95.9715 22.7442C95.5958 23.0093 95.159 23.1556 94.7122 23.1834C94.2958 23.2061 93.8794 23.1001 93.5087 22.8906C93.2547 22.7442 93.0288 22.5549 92.8383 22.3227L96.9542 19.5639C97.0913 19.4806 97.1878 19.3418 97.2258 19.1803C97.2462 19.102 97.2462 19.0188 97.2335 18.943C97.2208 18.8648 97.1954 18.7891 97.1547 18.726C96.8424 18.1581 96.4133 17.6684 95.9005 17.31C95.4333 16.9894 94.8924 16.8203 94.3338 16.8203C93.7372 16.843 93.1506 17.0374 92.6505 17.3882C92.1172 17.7315 91.6755 18.2287 91.3758 18.8168C91.0965 19.3772 90.9671 20.0132 91.0077 20.6493C91.0508 21.3358 91.254 22.0072 91.6044 22.5827C91.937 23.1708 92.4118 23.6529 92.9755 23.981C93.5163 24.2889 94.1206 24.4303 94.7249 24.395C95.2581 24.352 95.7837 24.1981 96.2585 23.9255C96.7333 23.6605 97.1547 23.2894 97.4924 22.8401C97.759 22.5044 97.9672 22.1284 98.112 21.722C98.1424 21.6437 98.1577 21.5605 98.1501 21.4772C98.1374 21.3989 98.112 21.3156 98.0663 21.245Z" fill="white"/>
<path d="M92.7368 21.1969C92.6581 21 92.6124 20.7981 92.5921 20.581L91.7009 20.677C91.7288 20.9849 91.7999 21.2878 91.9091 21.5679L92.7368 21.1969ZM95.6872 18.5568L92.0868 20.9723L92.5591 21.7901L96.162 19.3771L95.6872 18.5568ZM95.0753 18.7814C95.2632 18.9152 95.4333 19.0742 95.5755 19.2635L96.2712 18.6628C96.0706 18.3902 95.8294 18.158 95.5577 17.9687L95.0753 18.7814ZM94.2755 18.5214C94.5548 18.5214 94.829 18.6123 95.0626 18.7814L95.5577 17.9838C95.1743 17.7112 94.7249 17.5623 94.2704 17.5623L94.2755 18.5214ZM93.4884 18.789C93.7245 18.6199 93.9962 18.529 94.2755 18.5214L94.2704 17.5623C93.8083 17.5623 93.3589 17.7163 92.9831 17.9889L93.4884 18.789ZM92.7495 19.6068C92.912 19.2711 93.1583 18.9909 93.463 18.8016L93.0161 17.9687C92.5667 18.2488 92.196 18.6628 91.9548 19.16L92.7495 19.6068ZM92.5921 20.5735C92.554 20.2378 92.6124 19.9021 92.7546 19.5992L91.9548 19.1651C91.7339 19.6345 91.6501 20.1595 91.7085 20.677L92.5921 20.5735ZM98.5868 21.4417C98.5716 21.2802 98.5208 21.1187 98.437 20.9798L97.688 21.5099V21.5175L98.5868 21.4417ZM98.5132 21.9163C98.5792 21.7623 98.6046 21.6033 98.5919 21.4342L97.7007 21.5099V21.5175L98.5132 21.9163ZM97.8251 23.1556C98.1247 22.777 98.3583 22.3504 98.5208 21.8885L97.6829 21.5452C97.5585 21.9036 97.3757 22.2318 97.1421 22.5271L97.8251 23.1556ZM96.4591 24.3595C96.9923 24.0592 97.462 23.6528 97.8327 23.148L97.137 22.5473C96.8374 22.9461 96.4667 23.2742 96.0452 23.514L96.4591 24.3595ZM94.7503 24.877C95.3495 24.8366 95.9259 24.6548 96.4591 24.3595L96.0452 23.5064C95.6212 23.7437 95.1591 23.885 94.6868 23.9178L94.7503 24.877ZM92.7622 24.4151C93.3716 24.7659 94.0546 24.9199 94.7452 24.877L94.6919 23.9178C94.1663 23.9532 93.6382 23.827 93.1786 23.5619L92.7622 24.4151ZM91.221 22.8401C91.5993 23.5064 92.1249 24.044 92.7622 24.4151L93.1837 23.5695C92.6911 23.2818 92.2747 22.8552 91.9827 22.3428L91.221 22.8401ZM90.5583 20.6845C90.604 21.4544 90.8376 22.204 91.2286 22.8476L91.9751 22.3226C91.6704 21.8128 91.4876 21.2247 91.4495 20.6214L90.5583 20.6845ZM90.9798 18.5921C90.6624 19.2357 90.5202 19.9576 90.5583 20.677L91.4495 20.6214C91.4165 20.0762 91.5333 19.531 91.7669 19.0389L90.9798 18.5921ZM92.4245 16.9818C91.8202 17.373 91.3251 17.9283 90.9874 18.5921L91.7745 19.054C92.0335 18.5366 92.4169 18.11 92.8841 17.8071L92.4245 16.9818ZM94.3212 16.3381C93.6382 16.3583 92.9755 16.583 92.4042 16.9893L92.8917 17.7945C93.3259 17.4866 93.8286 17.3175 94.3415 17.3048L94.3212 16.3381ZM96.1417 16.9111C95.6009 16.5401 94.9788 16.3457 94.3339 16.3457V17.3048C94.8036 17.3048 95.2632 17.4437 95.6542 17.7163L96.1417 16.9111ZM97.5382 18.481C97.1954 17.8425 96.713 17.3048 96.1417 16.906L95.6618 17.7163C96.1163 18.0318 96.4997 18.4659 96.7714 18.9707L97.5382 18.481ZM97.6753 18.8647C97.6499 18.7183 97.6042 18.5845 97.5255 18.4583L96.779 18.9909C96.7841 19.006 96.7917 19.0111 96.7917 19.0262L97.6753 18.8647ZM97.6626 19.2988C97.6956 19.16 97.7007 19.0111 97.6753 18.8647L96.7993 19.0262C96.7993 19.0389 96.7993 19.054 96.7993 19.0691L97.6626 19.2988ZM97.1827 19.9854C97.4163 19.839 97.5915 19.5941 97.6626 19.3064L96.7993 19.0616C96.7917 19.102 96.7663 19.1322 96.7333 19.1524L97.1827 19.9854ZM93.0745 22.7366L97.1878 19.9778L96.713 19.16L92.5997 21.9163L93.0745 22.7366ZM93.7245 22.469C93.5163 22.3504 93.3335 22.1964 93.1786 22.0071L92.5083 22.6457C92.7368 22.9183 93.0009 23.148 93.3005 23.3247L93.7245 22.469ZM94.6919 22.7088C94.3542 22.7214 94.0165 22.6457 93.7245 22.469L93.3005 23.3171C93.7423 23.5695 94.2374 23.6957 94.7376 23.6679L94.6919 22.7088ZM95.7329 22.3428C95.4206 22.5599 95.0626 22.6861 94.6919 22.7088L94.7376 23.6679C95.2632 23.6402 95.7786 23.4559 96.2204 23.148L95.7329 22.3428ZM96.2331 21.8532C96.0884 22.05 95.9208 22.2116 95.7329 22.3428L96.2204 23.148C96.4921 22.9612 96.7384 22.7139 96.9415 22.4413L96.2331 21.8532ZM96.5632 21.2726C96.487 21.4771 96.3753 21.6639 96.2458 21.833L96.9288 22.4564C97.1167 22.2116 97.2716 21.939 97.3884 21.6437L96.5632 21.2726ZM96.9999 20.6921C96.7993 20.8385 96.6495 21.0429 96.5581 21.2878L97.3884 21.6361C97.4087 21.573 97.4493 21.525 97.5001 21.4897L96.9999 20.6921ZM97.7134 20.5179C97.4671 20.4826 97.2132 20.5381 97.005 20.6921L97.5001 21.4897C97.5255 21.4695 97.5585 21.4619 97.5915 21.4695L97.7134 20.5179ZM98.1044 20.6492C97.98 20.5735 97.8454 20.523 97.7007 20.5104L97.6042 21.4695C97.6245 21.4695 97.6499 21.4771 97.6702 21.4897L98.1044 20.6492ZM98.4243 20.9571C98.338 20.8309 98.2288 20.735 98.1044 20.6568L97.6626 21.4973C97.6829 21.5099 97.7007 21.525 97.7134 21.5452L98.4243 20.9571ZM92.1503 20.629V20.1469H91.6577L91.7085 20.677L92.1503 20.629ZM92.3255 21.3786L91.9167 21.5679L92.1173 22.0854L92.5591 21.785L92.3255 21.3786ZM95.9259 18.9631L96.162 19.3695L96.5911 19.0818L96.2712 18.6628L95.9259 18.9631ZM95.3165 18.3826L95.0702 18.7814H95.0829L95.3165 18.3826ZM93.2421 18.3902L93.4706 18.8016L93.4833 18.794L93.496 18.789L93.2421 18.3902ZM92.1503 20.629V21.1111H92.6505L92.5921 20.5735L92.1503 20.629ZM98.1044 21.7219L97.6956 21.525L97.688 21.5402L97.6829 21.5528L98.1044 21.7219ZM97.4874 22.8476L97.1497 22.5321L97.1421 22.5397L97.137 22.5473L97.4874 22.8476ZM91.6044 22.5902L91.9878 22.3378L91.9827 22.3302L91.9751 22.3226L91.6044 22.5902ZM92.6505 17.3957L92.879 17.8071L92.8917 17.7945L92.6505 17.3957ZM94.3339 16.8202V16.3381H94.3212L94.3339 16.8202ZM97.1548 18.7259L96.7714 18.9707L96.779 18.9833L96.7841 18.9985L97.1548 18.7259ZM96.9542 19.5639L96.7257 19.1524L96.7206 19.16L96.713 19.1651L96.9542 19.5639ZM92.8384 22.3226L92.6048 21.9163L92.1579 22.2191L92.5083 22.6457L92.8384 22.3226ZM96.5835 22.1485L96.2382 21.8405L96.2331 21.8481L96.2255 21.8532L96.5835 22.1485ZM96.9745 21.4619L97.3833 21.6437V21.631L96.9745 21.4619ZM97.6499 20.9925L97.5839 21.4695H97.5966L97.6499 20.9925ZM98.0663 21.2449L98.437 20.9798L98.4294 20.9647L98.4243 20.9521L98.0663 21.2449Z" fill="white"/>
<path d="M104.792 22.0146C104.604 22.3932 104.325 22.7087 103.987 22.9308C103.637 23.1555 103.238 23.269 102.829 23.269C102.426 23.269 102.025 23.1479 101.674 22.9308C101.329 22.7087 101.05 22.3932 100.854 22.0146C100.659 21.6082 100.554 21.1539 100.554 20.6996C100.554 20.2427 100.659 19.7884 100.854 19.382C101.05 19.0059 101.329 18.6904 101.674 18.4658C102.025 18.2412 102.421 18.1301 102.829 18.1301C103.233 18.1301 103.637 18.2487 103.987 18.4658C104.325 18.6904 104.604 19.0059 104.792 19.382C104.988 19.7884 105.087 20.2427 105.087 20.6996C105.087 21.1539 104.988 21.6032 104.792 22.0146ZM105.866 18.7535C105.559 18.1781 105.117 17.7035 104.584 17.3729C104.051 17.0448 103.441 16.8782 102.829 16.8908C102.205 16.8832 101.588 17.0523 101.042 17.3956C100.516 17.7237 100.08 18.1932 99.7826 18.7611C99.4703 19.3467 99.3078 20.0206 99.3129 20.6996C99.3002 21.3785 99.45 22.0424 99.742 22.638C100.016 23.1908 100.412 23.6603 100.905 23.996C101.408 24.3241 101.984 24.4932 102.576 24.4932C103.162 24.4932 103.741 24.319 104.246 23.996C104.546 23.794 104.812 23.5416 105.033 23.2463V23.7587C105.033 23.8496 105.046 23.9404 105.079 24.0313C105.112 24.1146 105.158 24.1928 105.221 24.261C105.28 24.3241 105.358 24.3822 105.437 24.415C105.513 24.4503 105.605 24.4654 105.691 24.4654C105.775 24.4654 105.859 24.4503 105.942 24.415C106.029 24.3822 106.092 24.3317 106.158 24.261C106.217 24.1979 106.267 24.1146 106.3 24.0313C106.333 23.948 106.346 23.8572 106.346 23.7587V20.6996C106.341 20.0206 106.184 19.3467 105.866 18.7535Z" fill="white"/>
<path d="M104.637 20.6997C104.637 21.0833 104.554 21.4544 104.391 21.7976L105.188 22.2318C105.412 21.7572 105.529 21.2322 105.529 20.6997H104.637ZM104.396 19.5992C104.559 19.9425 104.642 20.3135 104.642 20.6997H105.534C105.534 20.1671 105.417 19.6421 105.196 19.1651L104.396 19.5992ZM103.754 18.8723C104.025 19.0464 104.246 19.3064 104.396 19.6068L105.183 19.1524C104.955 18.6981 104.625 18.3195 104.213 18.0469L103.754 18.8723ZM102.83 18.6072C103.155 18.6072 103.48 18.6981 103.759 18.8798L104.208 18.0469C103.792 17.7794 103.312 17.6405 102.83 17.6405V18.6072ZM101.908 18.8798C102.187 18.7032 102.512 18.6072 102.837 18.6072V17.6481C102.35 17.6481 101.875 17.7869 101.458 18.052L101.908 18.8798ZM101.25 19.6143C101.408 19.314 101.634 19.054 101.908 18.8798L101.446 18.052C101.037 18.3195 100.699 18.6981 100.463 19.1524L101.25 19.6143ZM101.009 20.6997C101.009 20.3211 101.095 19.9425 101.258 19.5992L100.463 19.16C100.237 19.6345 100.12 20.1595 100.12 20.6921H101.009V20.6997ZM101.258 21.7901C101.095 21.4544 101.009 21.0783 101.009 20.6921H100.12C100.12 21.2247 100.237 21.7572 100.463 22.2242L101.258 21.7901ZM101.908 22.5195C101.634 22.3378 101.408 22.0854 101.25 21.7774L100.463 22.2393C100.692 22.6937 101.029 23.0723 101.438 23.3373L101.908 22.5195ZM102.83 22.7921C102.505 22.7921 102.18 22.7012 101.9 22.5195L101.451 23.3524C101.867 23.6175 102.35 23.7588 102.83 23.7588V22.7921ZM103.759 22.5195C103.48 22.6937 103.155 22.7921 102.83 22.7921V23.7512C103.317 23.7512 103.792 23.6099 104.208 23.3449L103.759 22.5195ZM104.396 21.785C104.246 22.0854 104.025 22.3428 103.754 22.5195L104.221 23.3373C104.63 23.0723 104.962 22.6861 105.188 22.2318L104.396 21.785ZM106.775 20.7072C106.788 19.9349 106.608 19.1802 106.25 18.5138L105.475 18.9909C105.749 19.5083 105.892 20.0888 105.879 20.6845L106.775 20.7072ZM106.775 23.7588V20.6997H105.884V23.7588H106.775ZM106.704 24.2056C106.755 24.0592 106.783 23.8976 106.783 23.7437L105.892 23.7714C105.892 23.7992 105.884 23.827 105.879 23.8497L106.704 24.2056ZM106.463 24.5968C106.567 24.4857 106.651 24.3519 106.704 24.2056L105.871 23.8497C105.866 23.8774 105.846 23.8976 105.833 23.9178L106.463 24.5968ZM106.1 24.8568C106.237 24.8012 106.359 24.7104 106.463 24.5968L105.833 23.9178C105.813 23.9405 105.795 23.9532 105.767 23.9607L106.1 24.8568ZM105.671 24.935C105.821 24.9401 105.963 24.9123 106.1 24.8492L105.767 23.9532C105.742 23.9607 105.722 23.9683 105.696 23.9683L105.671 24.935ZM105.267 24.8568C105.404 24.9123 105.554 24.9401 105.696 24.9401L105.671 23.9809C105.645 23.9809 105.617 23.9759 105.6 23.9683L105.267 24.8568ZM104.904 24.5968C105.008 24.7104 105.13 24.8012 105.267 24.8568L105.6 23.9607C105.574 23.9532 105.554 23.933 105.534 23.9178L104.904 24.5968ZM104.663 24.2056C104.716 24.3519 104.8 24.4857 104.904 24.5968L105.534 23.9128C105.513 23.8901 105.501 23.8699 105.496 23.8497L104.663 24.2056ZM104.584 23.7437C104.579 23.9052 104.604 24.0592 104.663 24.2056L105.496 23.8497C105.488 23.827 105.483 23.7992 105.483 23.7714L104.584 23.7437ZM104.584 23.2464V23.7588H105.475V23.2464H104.584ZM104.48 24.4024C104.82 24.1702 105.117 23.885 105.379 23.5468L104.688 22.9385C104.495 23.1909 104.259 23.4155 104.008 23.5897L104.48 24.4024ZM102.576 24.983C103.246 24.983 103.904 24.7861 104.475 24.4151L104.013 23.5897C103.579 23.8699 103.083 24.0238 102.576 24.0238V24.983ZM100.671 24.41C101.245 24.781 101.9 24.9754 102.571 24.9754V24.0163C102.063 24.0163 101.57 23.8699 101.133 23.5821L100.671 24.41ZM99.3459 22.8628C99.6506 23.4913 100.108 24.0238 100.666 24.4024L101.146 23.5897C100.725 23.2969 100.374 22.8905 100.138 22.4135L99.3459 22.8628ZM98.8661 20.6921C98.8508 21.4468 99.0209 22.1964 99.3459 22.8678L100.138 22.4211C99.8791 21.8961 99.7496 21.308 99.7623 20.7123L98.8661 20.6921ZM99.3993 18.5138C99.0463 19.1802 98.8661 19.9349 98.8711 20.6997L99.7623 20.6921C99.7547 20.0964 99.8995 19.5083 100.171 18.9909L99.3993 18.5138ZM100.821 16.9742C100.23 17.3452 99.737 17.8778 99.3993 18.5138L100.171 18.9909C100.433 18.5012 100.808 18.0873 101.263 17.8071L100.821 16.9742ZM102.837 16.4088C102.129 16.3937 101.433 16.5905 100.821 16.9742L101.271 17.8071C101.745 17.5143 102.284 17.3604 102.83 17.373L102.837 16.4088ZM104.805 16.954C104.201 16.583 103.52 16.3937 102.824 16.4088L102.837 17.3679C103.37 17.3604 103.904 17.4992 104.363 17.7869L104.805 16.954ZM106.255 18.5138C105.912 17.8652 105.412 17.325 104.805 16.954L104.363 17.7869C104.833 18.0747 105.216 18.4861 105.483 18.9909L106.255 18.5138ZM104.792 19.3821L105.188 19.1651V19.1524L104.792 19.3821ZM103.987 18.4583L104.221 18.0469H104.208L103.987 18.4583ZM100.862 19.3821L100.471 19.1524V19.1651L100.862 19.3821ZM100.862 22.0147L100.463 22.2318V22.2469L100.862 22.0147ZM103.987 22.9309L104.213 23.3449H104.229L103.987 22.9309ZM104.792 22.0147L105.188 22.2393V22.2242L104.792 22.0147ZM106.333 20.6997L105.884 20.6921V20.7072H106.333V20.6997ZM106.333 23.7588H105.884V23.7714L106.333 23.7588ZM105.683 24.458L105.696 23.9759H105.671L105.683 24.458ZM105.033 23.7588L105.483 23.7714V23.7588H105.033ZM105.033 23.2464H105.483V21.9112L104.688 22.9461L105.033 23.2464ZM104.241 24.0036L104.475 24.4151H104.488L104.241 24.0036ZM100.905 24.0036L100.666 24.41H100.679L100.905 24.0036ZM99.3129 20.6997L99.7623 20.7072V20.6921L99.3129 20.6997ZM102.83 16.8909L102.824 17.373H102.837L102.83 16.8909Z" fill="white"/>
<path d="M111.234 23.2691C111.645 23.2741 112.046 23.1555 112.392 22.9309C112.729 22.7087 113.009 22.3932 113.197 22.0146C113.4 21.6158 113.504 21.1615 113.496 20.7072C113.504 20.2428 113.4 19.7884 113.197 19.3821C113.009 19.006 112.729 18.6905 112.392 18.4658C112.041 18.2412 111.645 18.1301 111.234 18.1301C110.825 18.1301 110.429 18.2488 110.079 18.4658C109.738 18.6829 109.459 19.006 109.271 19.377C109.071 19.7809 108.972 20.2377 108.979 20.6996C108.972 21.1539 109.071 21.6083 109.271 22.0146C109.459 22.3932 109.738 22.7138 110.084 22.9309C110.434 23.1555 110.833 23.2741 111.234 23.2691ZM108.38 27.6559C108.296 27.6559 108.212 27.6432 108.129 27.6079C108.05 27.5726 107.979 27.5246 107.913 27.4539C107.854 27.3908 107.804 27.3075 107.771 27.2217C107.738 27.1384 107.725 27.0476 107.725 26.9491V20.6996C107.725 20.0206 107.887 19.3467 108.2 18.7536C108.499 18.1857 108.926 17.7162 109.446 17.3881C109.85 17.1357 110.292 16.9691 110.754 16.8984C111.216 16.8277 111.683 16.8555 112.133 16.9817C112.58 17.1079 113.004 17.3325 113.374 17.6329C113.742 17.9333 114.055 18.3194 114.283 18.746C114.596 19.3417 114.758 20.0131 114.745 20.692C114.758 21.3634 114.608 22.0348 114.316 22.6305C114.042 23.1833 113.638 23.6527 113.151 23.9884C112.696 24.2837 112.176 24.4579 111.645 24.4857C111.112 24.5134 110.579 24.4024 110.096 24.1575C109.68 23.9405 109.317 23.625 109.017 23.2464V26.9491C109.017 27.04 109.005 27.1309 108.972 27.2167C108.941 27.3 108.895 27.3782 108.837 27.4464C108.779 27.517 108.7 27.565 108.621 27.6003C108.558 27.6508 108.471 27.6634 108.38 27.6559Z" fill="white"/>
<path d="M111.241 22.7845L111.234 23.7436H111.241V22.7845ZM109.858 23.3448C110.272 23.6174 110.759 23.7587 111.247 23.7512L111.234 22.792C110.909 22.7996 110.591 22.7012 110.317 22.527L109.858 23.3448ZM108.883 22.2393C109.109 22.6936 109.441 23.0798 109.858 23.3448L110.317 22.5194C110.046 22.3427 109.825 22.0929 109.675 21.7849L108.883 22.2393ZM108.537 20.692C108.53 21.2322 108.647 21.7622 108.883 22.2393L109.667 21.79C109.505 21.4543 109.421 21.0832 109.429 20.7072L108.537 20.692ZM108.883 19.1524C108.647 19.6269 108.53 20.167 108.537 20.7072L109.429 20.692C109.421 20.3134 109.505 19.9348 109.667 19.5991L108.883 19.1524ZM109.85 18.0468C109.441 18.3119 109.104 18.6905 108.883 19.1448L109.667 19.5991C109.817 19.2988 110.038 19.0464 110.312 18.8722L109.85 18.0468ZM111.241 17.648C110.754 17.648 110.279 17.7869 109.863 18.0468L110.312 18.8798C110.591 18.7031 110.916 18.6072 111.241 18.6072V17.648ZM112.62 18.0468C112.204 17.7793 111.721 17.648 111.241 17.648V18.6072C111.566 18.6072 111.891 18.698 112.171 18.8798L112.62 18.0468ZM113.595 19.1524C113.367 18.698 113.034 18.3194 112.625 18.0519L112.158 18.8722C112.43 19.0539 112.651 19.3063 112.808 19.6067L113.595 19.1524ZM113.951 20.7122C113.958 20.167 113.841 19.6345 113.6 19.1524L112.813 19.6067C112.983 19.9424 113.067 20.3134 113.062 20.692L113.951 20.7122ZM113.595 22.2468C113.834 21.7698 113.958 21.2372 113.946 20.6996L113.054 20.7122C113.062 21.0832 112.976 21.4543 112.808 21.7849L113.595 22.2468ZM112.625 23.3448C113.034 23.0798 113.367 22.6936 113.595 22.2468L112.808 21.79C112.658 22.0929 112.43 22.3503 112.158 22.527L112.625 23.3448ZM111.229 23.7512C111.721 23.7587 112.204 23.6174 112.625 23.3448L112.163 22.5194C111.884 22.7012 111.566 22.792 111.241 22.7845L111.229 23.7512ZM108.471 27.1662C108.446 27.1738 108.426 27.1813 108.4 27.1813L108.362 28.1405C108.512 28.148 108.662 28.1177 108.796 28.0622L108.471 27.1662ZM108.537 27.1182C108.517 27.1384 108.499 27.1536 108.479 27.1611L108.804 28.0572C108.941 27.9991 109.071 27.9082 109.175 27.7896L108.537 27.1182ZM108.57 27.0551C108.563 27.0829 108.542 27.1031 108.53 27.1258L109.175 27.7896C109.271 27.6786 109.35 27.5448 109.401 27.3984L108.57 27.0551ZM108.583 26.9718C108.583 26.9996 108.575 27.0274 108.57 27.0551L109.401 27.3984C109.454 27.252 109.479 27.098 109.474 26.9441L108.583 26.9718ZM108.583 23.2539V26.9567H109.474V23.2539H108.583ZM110.305 23.736C109.947 23.5467 109.629 23.2817 109.375 22.946L108.687 23.5619C109.025 23.996 109.441 24.3519 109.908 24.5967L110.305 23.736ZM111.63 24.0162C111.17 24.0439 110.713 23.948 110.299 23.731L109.916 24.5967C110.462 24.8769 111.066 25.0107 111.671 24.9753L111.63 24.0162ZM112.925 23.5896C112.534 23.8496 112.087 23.9884 111.625 24.0162L111.671 24.9753C112.275 24.94 112.866 24.7532 113.387 24.4099L112.925 23.5896ZM113.933 22.421C113.699 22.9031 113.346 23.3019 112.925 23.5972L113.4 24.4099C113.958 24.0313 114.413 23.4988 114.725 22.8677L113.933 22.421ZM114.304 20.7122C114.309 21.3079 114.187 21.896 113.925 22.421L114.717 22.8677C115.042 22.1964 115.205 21.4543 115.192 20.6996L114.304 20.7122ZM113.9 18.9908C114.172 19.5082 114.316 20.0963 114.304 20.692L115.192 20.7072C115.205 19.9348 115.025 19.1801 114.674 18.5138L113.9 18.9908ZM113.108 18.0241C113.433 18.2917 113.699 18.6198 113.9 18.9984L114.674 18.5138C114.413 18.0241 114.062 17.5976 113.646 17.2543L113.108 18.0241ZM112.021 17.4512C112.412 17.5622 112.783 17.7515 113.108 18.0191L113.646 17.2543C113.23 16.911 112.755 16.6611 112.249 16.5198L112.021 17.4512ZM110.817 17.3729C111.221 17.3098 111.63 17.3401 112.021 17.4512L112.249 16.5198C111.742 16.381 111.216 16.3456 110.696 16.4214L110.817 17.3729ZM109.68 17.807C110.033 17.5849 110.416 17.436 110.817 17.3805L110.696 16.4289C110.175 16.5072 109.675 16.6939 109.225 16.9817L109.68 17.807ZM108.596 18.9908C108.855 18.5012 109.225 18.0872 109.68 17.807L109.233 16.9741C108.641 17.3451 108.154 17.8777 107.821 18.5138L108.596 18.9908ZM108.179 20.7072C108.179 20.1039 108.322 19.5158 108.596 18.9908L107.816 18.5214C107.471 19.1877 107.288 19.9424 107.288 20.7072H108.179ZM108.179 26.9567V20.7072H107.288V26.9567H108.179ZM108.192 27.0476C108.187 27.0198 108.179 26.9996 108.179 26.9718L107.288 26.9441C107.283 27.1031 107.308 27.257 107.367 27.406L108.192 27.0476ZM108.233 27.1182C108.212 27.098 108.2 27.0753 108.192 27.0476L107.362 27.406C107.413 27.5524 107.496 27.6861 107.6 27.7972L108.233 27.1182ZM108.296 27.1611C108.271 27.1536 108.25 27.1308 108.233 27.1182L107.6 27.7972C107.705 27.9082 107.829 27.9941 107.966 28.0572L108.296 27.1611ZM108.367 27.1738C108.342 27.1738 108.316 27.1662 108.296 27.1611L107.966 28.0572C108.101 28.1127 108.245 28.1405 108.395 28.1405L108.367 27.1738ZM111.241 23.2691L111.247 23.7512L111.241 22.792V23.2691ZM108.987 20.6996L109.434 20.7072V20.692L108.987 20.6996ZM112.392 18.4582L112.625 18.0468H112.613L112.392 18.4582ZM113.504 20.7072L113.054 20.6996V20.7122L113.504 20.7072ZM111.234 23.2691V22.7845L111.229 23.7436L111.234 23.2691ZM109.03 26.9567H108.583V26.9718L109.03 26.9567ZM109.03 23.2539L109.375 22.946L108.583 21.9162V23.2539H109.03ZM113.158 24.0036L113.392 24.415H113.405L113.158 24.0036ZM114.75 20.7072L114.304 20.6996V20.7122L114.75 20.7072ZM107.73 26.9567L108.179 26.9718V26.9567H107.73ZM108.38 27.6558L108.4 27.1738H108.375L108.38 27.6558Z" fill="white"/>
<path d="M82.4256 14.4199V23.7512C82.4332 23.933 82.3672 24.1147 82.2504 24.2485C82.1285 24.3747 81.966 24.4504 81.7883 24.4504C81.6207 24.4504 81.4506 24.3822 81.3287 24.2485C81.2703 24.1854 81.2246 24.1021 81.1916 24.0163C81.1586 23.933 81.1459 23.8421 81.1459 23.7512V14.4199C81.1383 14.329 81.1586 14.2381 81.184 14.1473C81.217 14.064 81.2627 13.9782 81.3211 13.9151C81.3795 13.8469 81.4506 13.7964 81.5293 13.7611C81.608 13.7283 81.6918 13.7056 81.7756 13.7056C81.8619 13.7056 81.9457 13.7283 82.0244 13.7611C82.1006 13.7964 82.1742 13.852 82.2326 13.9151C82.291 13.9857 82.3367 14.064 82.3672 14.1473C82.4205 14.2381 82.4332 14.329 82.4256 14.4199Z" fill="white"/>
<path d="M81.9711 14.3213C81.9787 14.3491 81.9838 14.3769 81.9838 14.4072L82.875 14.4475C82.8826 14.2936 82.8547 14.132 82.8039 13.9856L81.9711 14.3213ZM81.933 14.2532C81.9508 14.2734 81.966 14.2936 81.9711 14.3213L82.809 13.9781C82.7582 13.8317 82.6795 13.6979 82.5754 13.5868L81.933 14.2532ZM81.867 14.2027C81.8924 14.2179 81.9127 14.2305 81.933 14.2532L82.5754 13.5868C82.4713 13.4758 82.3545 13.3849 82.2174 13.3218L81.867 14.2027ZM81.7883 14.1901C81.8162 14.1901 81.8416 14.1951 81.867 14.2027L82.2174 13.3218C82.0828 13.2587 81.9381 13.231 81.7959 13.231V14.1901H81.7883ZM81.7172 14.2027C81.7451 14.1901 81.7705 14.1901 81.7959 14.1901V13.231C81.6537 13.231 81.5039 13.2638 81.3744 13.3218L81.7172 14.2027ZM81.6537 14.2532C81.6715 14.2305 81.6918 14.2179 81.7172 14.2027L81.3668 13.3218C81.2297 13.3849 81.1129 13.4758 81.0088 13.5868L81.6537 14.2532ZM81.6131 14.3213C81.6207 14.2936 81.641 14.2734 81.6537 14.2532L81.0088 13.5868C80.9047 13.6979 80.8285 13.8317 80.7752 13.9781L81.6131 14.3213ZM81.6004 14.3996C81.6004 14.3718 81.6004 14.3441 81.6131 14.3138L80.7752 13.973C80.7244 14.1194 80.6965 14.2734 80.7041 14.4349L81.6004 14.3996ZM81.6004 23.7511V14.4198H80.7117V23.7511H81.6004ZM81.6131 23.842C81.608 23.8142 81.6004 23.7865 81.6004 23.7587L80.7117 23.731C80.7041 23.8849 80.7295 24.0389 80.7828 24.1853L81.6131 23.842ZM81.6537 23.9127C81.6334 23.89 81.6207 23.8698 81.6131 23.842L80.7828 24.1853C80.8336 24.3317 80.9123 24.4655 81.0164 24.5765L81.6537 23.9127ZM81.7959 23.9682C81.7375 23.9682 81.6867 23.948 81.6461 23.9051L81.0215 24.5967C81.2297 24.8138 81.5039 24.9349 81.7959 24.9349V23.9682ZM81.9457 23.9051C81.9076 23.948 81.8543 23.9682 81.7959 23.9682V24.9274C82.0828 24.9274 82.3621 24.8087 82.5703 24.5917L81.9457 23.9051ZM81.9838 23.7587C81.9838 23.8142 81.966 23.8774 81.9254 23.9177L82.583 24.5689C82.7785 24.3392 82.8826 24.0439 82.875 23.731L81.9838 23.7587ZM81.9838 14.4198V23.7511H82.875V14.4198H81.9838ZM81.1535 14.4198H81.6004V14.4072L81.1535 14.4198ZM81.1535 23.7511L81.6004 23.7638V23.7511H81.1535ZM81.3338 24.2484L81.0164 24.5841L81.0215 24.5917L81.0291 24.5967L81.3338 24.2484ZM82.258 24.2484L82.5703 24.5917L82.5754 24.5841L82.583 24.5765L82.258 24.2484ZM82.4256 23.7511H81.9787V23.7638L82.4256 23.7511ZM82.4256 14.4198L81.9787 14.3996V14.4122H82.4256V14.4198Z" fill="white"/>
<path d="M85.8915 17.6481V23.7512C85.8915 23.8421 85.8788 23.9329 85.8458 24.0162C85.8128 24.102 85.7671 24.1778 85.7087 24.2484C85.6503 24.3191 85.5716 24.3671 85.4954 24.4024C85.4167 24.4377 85.3253 24.4504 85.2415 24.4428C85.1577 24.4428 85.0714 24.4302 84.9876 24.3948C84.9089 24.3595 84.8378 24.3115 84.7743 24.2409C84.7083 24.1702 84.6626 24.0945 84.6296 24.0112C84.5966 23.9254 84.5839 23.8345 84.5839 23.736V17.6329C84.5788 17.5421 84.5966 17.4436 84.6245 17.3603C84.655 17.277 84.7007 17.1912 84.7667 17.1281C84.8327 17.065 84.9038 17.0171 84.98 16.9817C85.0587 16.9464 85.1425 16.9338 85.2339 16.9388C85.3202 16.9338 85.4091 16.9464 85.4878 16.9817C85.5665 17.0171 85.6452 17.065 85.7036 17.1281C85.762 17.1912 85.8128 17.277 85.8458 17.3603C85.8839 17.4588 85.8966 17.5496 85.8915 17.6481Z" fill="white"/>
<path d="M85.4369 17.5421C85.442 17.5622 85.4496 17.59 85.4496 17.6178L86.3383 17.6809C86.3459 17.5219 86.3256 17.3603 86.2748 17.2064L85.4369 17.5421ZM85.3963 17.4789C85.4166 17.4991 85.4293 17.5219 85.4369 17.5421L86.2748 17.1988C86.2215 17.0448 86.1377 16.911 86.0336 16.7924L85.3963 17.4789ZM85.3379 17.436C85.3582 17.4436 85.3785 17.4588 85.3963 17.4789L86.0285 16.8C85.9244 16.6889 85.7924 16.5981 85.6502 16.54L85.3379 17.436ZM85.2668 17.4234C85.2922 17.4234 85.3125 17.4234 85.3379 17.436L85.6502 16.535C85.508 16.4769 85.3582 16.4491 85.2084 16.4643L85.2668 17.4234ZM85.15 17.436C85.1754 17.431 85.2008 17.4234 85.2287 17.4234L85.2541 16.4643C85.1119 16.4567 84.9672 16.4845 84.8326 16.54L85.15 17.436ZM85.0789 17.4865C85.0993 17.4638 85.117 17.4512 85.1424 17.4436L84.825 16.5476C84.6879 16.6031 84.566 16.6889 84.4619 16.7924L85.0789 17.4865ZM85.0459 17.5421C85.0535 17.5143 85.0662 17.4941 85.084 17.4789L84.4543 16.7924C84.3502 16.906 84.2664 17.0448 84.2131 17.1912L85.0459 17.5421ZM85.0383 17.6178C85.0383 17.59 85.0383 17.5622 85.0535 17.5421L84.2207 17.1912C84.1674 17.3401 84.142 17.4991 84.1496 17.6607L85.0383 17.6178ZM85.0383 23.7512V17.6481H84.1496V23.7512H85.0383ZM85.0535 23.8421C85.0459 23.8143 85.0383 23.7941 85.0383 23.7638L84.1496 23.736C84.142 23.8976 84.1674 24.0515 84.2258 24.1979L85.0535 23.8421ZM85.0916 23.9127C85.0713 23.89 85.0586 23.8698 85.0535 23.8421L84.2207 24.1979C84.2715 24.3469 84.3578 24.4781 84.4619 24.5917L85.0916 23.9127ZM85.1576 23.9531C85.1297 23.9481 85.1119 23.9253 85.0916 23.9127L84.4619 24.5917C84.566 24.7027 84.6879 24.7936 84.825 24.8491L85.1576 23.9531ZM85.2287 23.9683C85.2008 23.9683 85.1754 23.9607 85.1576 23.9531L84.825 24.8491C84.9621 24.9072 85.1043 24.935 85.2541 24.935L85.2287 23.9683ZM85.3328 23.9531C85.3125 23.9607 85.2871 23.9683 85.2618 23.9683L85.216 24.9274C85.3633 24.935 85.5131 24.9072 85.6578 24.8491L85.3328 23.9531ZM85.3912 23.9127C85.3709 23.9329 85.3506 23.9481 85.3328 23.9531L85.6629 24.8491C85.8076 24.786 85.9295 24.6952 86.0336 24.5841L85.3912 23.9127ZM85.4293 23.8421C85.4243 23.8698 85.4039 23.89 85.3912 23.9127L86.0336 24.5765C86.1326 24.4655 86.2088 24.3317 86.2621 24.1853L85.4293 23.8421ZM85.442 23.7638C85.442 23.7941 85.4369 23.8219 85.4293 23.8496L86.2621 24.1929C86.3129 24.044 86.3383 23.89 86.3332 23.736L85.442 23.7638ZM85.442 17.6481V23.7512H86.3332V17.6481H85.442ZM85.2414 16.9464L85.2287 17.431H85.2668L85.2414 16.9464ZM84.7743 17.1357L84.467 16.7848L84.4619 16.7924L84.4543 16.8L84.7743 17.1357ZM84.5914 17.6481H85.0383V17.6178L84.5914 17.6481ZM84.5914 23.7512L85.0383 23.7638V23.7512H84.5914ZM85.2414 24.4503L85.2618 23.9683H85.2211L85.2414 24.4503ZM85.8914 23.7512H85.442V23.7638L85.8914 23.7512ZM85.8914 17.6481L85.442 17.6178V17.6481H85.8914Z" fill="white"/>
<path d="M85.2414 15.7223C85.4369 15.7223 85.6248 15.6516 85.7797 15.5178C85.9371 15.3866 86.0412 15.1973 86.0793 14.9928C86.1174 14.7833 86.092 14.5739 86.0006 14.3845C85.9117 14.1952 85.7619 14.0489 85.5791 13.9731C85.3963 13.8873 85.1957 13.8823 85.0078 13.9378C84.8174 14.0009 84.6549 14.1271 84.5457 14.3013C84.434 14.4754 84.3883 14.6849 84.4086 14.8969C84.4289 15.1064 84.5127 15.3033 84.6549 15.4497C84.7336 15.533 84.825 15.6037 84.9291 15.6516C85.0332 15.7021 85.1297 15.7223 85.2414 15.7223Z" fill="white"/>
<path d="M84.7463 16.1008C84.9037 16.1689 85.0789 16.2042 85.2465 16.2042L85.2338 15.2451C85.183 15.2451 85.1373 15.2401 85.0916 15.2173L84.7463 16.1008ZM84.3248 15.7928C84.4416 15.9241 84.5838 16.0301 84.7463 16.1008L85.0916 15.2098C85.0459 15.1896 85.0078 15.1618 84.9672 15.1189L84.3248 15.7928ZM83.9617 14.9447C83.9871 15.2678 84.1242 15.5682 84.3299 15.7928L84.9621 15.1139C84.8961 15.0432 84.858 14.9523 84.8453 14.8463L83.9617 14.9447ZM84.1674 14.0361C83.9998 14.3011 83.9287 14.6217 83.9541 14.9447L84.8453 14.8539C84.8377 14.7554 84.858 14.657 84.9088 14.5737L84.1674 14.0361ZM84.8707 13.4758C84.5838 13.5666 84.3375 13.761 84.1674 14.0361L84.9088 14.5737C84.9621 14.4904 85.0383 14.4273 85.1246 14.3996L84.8707 13.4758ZM85.7416 13.5237C85.4623 13.3975 85.1576 13.3849 84.8707 13.4758L85.1297 14.3996C85.2211 14.3718 85.3125 14.3768 85.3963 14.4122L85.7416 13.5237ZM86.3916 14.1598C86.2494 13.8746 86.0209 13.6499 85.7492 13.5313L85.4039 14.4197C85.4877 14.4551 85.5588 14.5258 85.6045 14.6166L86.3916 14.1598ZM86.516 15.0911C86.5744 14.7782 86.5287 14.4475 86.3916 14.1598L85.6045 14.6091C85.6502 14.6999 85.6629 14.7984 85.6451 14.8968L86.516 15.0911ZM86.059 15.8887C86.2951 15.6868 86.45 15.3991 86.516 15.0861L85.6375 14.8968C85.6172 14.9927 85.5715 15.0785 85.4953 15.1416L86.059 15.8887ZM85.2338 16.2042C85.5334 16.2042 85.8254 16.1008 86.059 15.8963L85.4953 15.1467C85.4242 15.2098 85.3328 15.2451 85.2414 15.2451L85.2338 16.2042ZM85.2414 15.7222V15.2401H85.2287L85.2414 15.7222Z" fill="white"/>
<path d="M89.2912 14.4199V23.7513C89.2912 23.8422 89.2785 23.933 89.2506 24.0163C89.2201 24.1021 89.1744 24.1779 89.116 24.2485C89.0576 24.3192 88.984 24.3672 88.9078 24.4025C88.8291 24.4378 88.7453 24.4505 88.659 24.4505C88.5752 24.4505 88.4914 24.4378 88.4127 24.4025C88.334 24.3672 88.2629 24.3192 88.2045 24.2485C88.1461 24.1854 88.1004 24.1021 88.0674 24.0163C88.0369 23.933 88.0242 23.8422 88.0293 23.7513V14.4199C88.0293 14.2382 88.0953 14.064 88.2172 13.9378C88.334 13.8116 88.4965 13.7334 88.6666 13.7334C88.8367 13.7334 88.9992 13.8041 89.116 13.9378C89.2252 14.064 89.2912 14.2382 89.2912 14.4199Z" fill="white"/>
<path d="M88.7911 14.2735C88.8216 14.3088 88.8495 14.3643 88.8495 14.4199H89.7382C89.7382 14.1119 89.6214 13.8116 89.4208 13.5945L88.7911 14.2735ZM88.654 14.2179C88.7048 14.2179 88.7505 14.2381 88.7911 14.281L89.4208 13.6021C89.2202 13.385 88.9384 13.2588 88.654 13.2588V14.2179ZM88.5245 14.2735C88.555 14.2381 88.6083 14.2104 88.6591 14.2104V13.2512C88.3747 13.2512 88.0954 13.3774 87.8923 13.5945L88.5245 14.2735ZM88.4661 14.4199C88.4661 14.3643 88.4839 14.3138 88.5245 14.2735L87.8923 13.5945C87.6917 13.8116 87.5749 14.1119 87.5749 14.4199H88.4661ZM88.4661 23.7512V14.4199H87.5749V23.7512H88.4661ZM88.4788 23.8421C88.4712 23.8143 88.4661 23.7866 88.4661 23.7588L87.5749 23.731C87.5673 23.885 87.5952 24.039 87.646 24.1854L88.4788 23.8421ZM88.5169 23.9128C88.4966 23.89 88.4839 23.8698 88.4788 23.8421L87.646 24.1854C87.6993 24.3317 87.7755 24.4655 87.8745 24.5766L88.5169 23.9128ZM88.5753 23.9531C88.555 23.9481 88.5372 23.933 88.5245 23.9128L87.8796 24.5766C87.9837 24.6952 88.1081 24.7861 88.2452 24.8441L88.5753 23.9531ZM88.6413 23.9683C88.621 23.9683 88.5956 23.9683 88.5753 23.9531L88.2376 24.8441C88.3747 24.9072 88.5245 24.935 88.6743 24.9274L88.6413 23.9683ZM88.7378 23.9531C88.7175 23.9607 88.6997 23.9683 88.6794 23.9683L88.6337 24.9274C88.7835 24.935 88.9333 24.9072 89.0755 24.8492L88.7378 23.9531ZM88.7835 23.9178C88.7708 23.933 88.7505 23.9481 88.7327 23.9531L89.0704 24.8441C89.2126 24.781 89.337 24.6902 89.4411 24.569L88.7835 23.9178ZM88.8368 23.8421C88.8292 23.8698 88.8089 23.89 88.7962 23.9128L89.4411 24.5766C89.5376 24.4655 89.6163 24.3317 89.6671 24.1854L88.8368 23.8421ZM88.8419 23.7638C88.8419 23.7941 88.8368 23.8219 88.8292 23.8497L89.662 24.1929C89.7128 24.044 89.7382 23.89 89.7331 23.7361L88.8419 23.7638ZM88.8419 14.4199V23.7512H89.7331V14.4199H88.8419ZM88.0167 23.7512L88.4661 23.7638V23.7512H88.0167ZM88.654 24.4504L88.6794 23.9683H88.6413L88.654 24.4504ZM89.2913 23.7512H88.8419V23.7638L89.2913 23.7512Z" fill="white"/>
<path d="M52.3504 14.2179C53.0411 14.2027 53.7165 14.3996 54.3081 14.7782C54.854 15.1189 55.2881 15.6439 55.5547 16.2598C55.5877 16.3305 55.6004 16.4011 55.6004 16.4769C55.6004 16.6106 55.5497 16.7444 55.4583 16.8353C55.3668 16.9337 55.25 16.9817 55.1206 16.9892C55.0292 16.9892 54.9377 16.9539 54.859 16.8984C54.7829 16.8479 54.7168 16.7722 54.6788 16.6813C54.4883 16.232 54.1786 15.8686 53.7749 15.6313C53.3381 15.3638 52.8456 15.2325 52.3454 15.2451C52.0458 15.2451 51.7461 15.288 51.4618 15.3587C51.1622 15.4269 50.8752 15.5404 50.6086 15.6944C50.3624 15.8282 50.1465 16.0225 49.979 16.2598C49.8165 16.492 49.7327 16.7722 49.7377 17.0599C49.7327 17.2189 49.7581 17.3729 49.8165 17.5218C49.8749 17.6682 49.9536 17.802 50.0627 17.913C50.2963 18.1427 50.5756 18.3194 50.8829 18.4229C51.2206 18.5491 51.5709 18.64 51.929 18.7031C52.292 18.7662 52.6247 18.8217 52.9243 18.8646C53.2874 18.9201 53.6377 18.9984 53.9881 19.1019C54.3258 19.2079 54.6584 19.3543 54.9581 19.5587C55.2424 19.748 55.4836 20.0055 55.6588 20.3134C55.8417 20.6567 55.9381 21.0479 55.9254 21.4467C55.9381 21.9036 55.8213 22.3427 55.5954 22.7289C55.3745 23.0924 55.0799 23.4003 54.7372 23.6325C54.3791 23.8698 53.9881 24.0515 53.5793 24.1651C53.1833 24.2761 52.7668 24.3392 52.3581 24.3392C51.5786 24.3519 50.8042 24.1424 50.1211 23.736C49.4915 23.3725 48.9963 22.792 48.7043 22.0853C48.679 22.0146 48.6663 21.9439 48.6663 21.8758C48.6663 21.742 48.717 21.6082 48.8084 21.5098C48.8999 21.4139 49.0167 21.3634 49.1461 21.3558C49.2452 21.3558 49.334 21.3912 49.4127 21.4467C49.4915 21.5048 49.5549 21.5805 49.5879 21.6713C49.8038 22.1888 50.1745 22.6179 50.6417 22.8829C51.1672 23.1832 51.7588 23.3372 52.3504 23.3246C52.65 23.3246 52.9497 23.2817 53.2417 23.211C53.5413 23.1429 53.8256 23.0293 54.0922 22.8753C54.3461 22.7365 54.562 22.5396 54.7295 22.2948C54.892 22.0499 54.9834 21.7496 54.9758 21.4467C54.9834 21.2801 54.9581 21.111 54.8997 20.957C54.8413 20.8031 54.7499 20.6642 54.6331 20.5532C54.3868 20.3286 54.0999 20.1746 53.7875 20.0837C53.4625 19.9853 53.1299 19.9146 52.7922 19.8717C52.3581 19.8036 51.9036 19.7177 51.4338 19.6218C50.987 19.5234 50.5502 19.377 50.1338 19.1801C49.7504 19.006 49.4127 18.7258 49.1538 18.3749C48.9049 18.0317 48.7754 17.5849 48.7754 17.0372C48.7704 16.6031 48.8795 16.1765 49.0954 15.813C49.3163 15.4572 49.6006 15.1467 49.9383 14.9246C50.2963 14.6798 50.6874 14.498 51.0961 14.3844C51.5125 14.281 51.929 14.2179 52.3504 14.2179Z" fill="white"/>
<path d="M51.2536 14.9803C51.609 14.8743 51.9797 14.8187 52.3504 14.8187V13.6148C51.8833 13.6148 51.4161 13.6854 50.959 13.8192L51.2536 14.9803ZM50.2456 15.4497C50.5579 15.2402 50.8956 15.0787 51.2459 14.9803L50.959 13.8192C50.4995 13.9505 50.0577 14.1549 49.654 14.4351L50.2456 15.4497ZM49.5702 16.1565C49.7454 15.8687 49.9713 15.6315 50.2456 15.4497L49.659 14.4275C49.2502 14.7001 48.9049 15.0636 48.6383 15.4977L49.5702 16.1565ZM49.3417 17.0374C49.334 16.7219 49.4204 16.4139 49.5752 16.1489L48.6333 15.4977C48.354 15.9596 48.2118 16.5073 48.2245 17.0601L49.3417 17.0374ZM49.5956 18.0192C49.4381 17.8021 49.3417 17.4993 49.3417 17.0525H48.2245C48.2245 17.7037 48.3743 18.2842 48.717 18.7613L49.5956 18.0192ZM50.3547 18.6401C50.0577 18.5013 49.7961 18.2918 49.5956 18.0192L48.717 18.7663C49.037 19.1929 49.4458 19.5362 49.9129 19.7482L50.3547 18.6401ZM51.5456 19.0389C51.1368 18.9556 50.7381 18.8219 50.3624 18.6401L49.9129 19.7406C50.3674 19.9577 50.8422 20.1192 51.3374 20.2227L51.5456 19.0389ZM52.8709 19.2863C52.4418 19.2232 52.0077 19.1374 51.5456 19.0389L51.3247 20.2151C51.7995 20.3211 52.259 20.4044 52.7084 20.4751L52.8709 19.2863ZM53.9297 19.516C53.5793 19.41 53.2213 19.3342 52.8583 19.2863L52.7211 20.4751C53.0258 20.518 53.3331 20.5811 53.6327 20.672L53.9297 19.516ZM54.9911 20.1041C54.6788 19.8239 54.3208 19.627 53.9297 19.516L53.6454 20.677C53.879 20.7401 54.0922 20.8613 54.275 21.0279L54.9911 20.1041ZM55.4125 20.7351C55.3211 20.4953 55.179 20.2782 54.9961 20.1116L54.2547 21.0152C54.3081 21.0632 54.3538 21.1263 54.3792 21.197L55.4125 20.7351ZM55.5293 21.4898C55.542 21.2323 55.504 20.9723 55.4125 20.7351L54.3792 21.197C54.4045 21.2651 54.4172 21.3434 54.4122 21.4191L55.5293 21.4898ZM55.184 22.6584C55.4202 22.3101 55.542 21.881 55.537 21.4469L54.4172 21.4771C54.4249 21.6513 54.3715 21.8179 54.2827 21.9592L55.184 22.6584ZM54.3461 23.4232C54.6711 23.2389 54.9581 22.9815 55.179 22.666L54.2877 21.9441C54.1709 22.1132 54.0161 22.252 53.8383 22.358L54.3461 23.4232ZM53.3584 23.8144C53.7038 23.7311 54.0415 23.5973 54.3538 23.4156L53.8256 22.3505C53.5997 22.4767 53.3661 22.5751 53.1122 22.6306L53.3584 23.8144ZM52.3504 23.9406C52.6881 23.9406 53.0334 23.8977 53.3661 23.8144L53.1122 22.6458C52.8583 22.7089 52.6043 22.7442 52.3454 22.7442L52.3504 23.9406ZM50.375 23.4282C50.987 23.7791 51.6674 23.9532 52.3631 23.9406L52.3377 22.7366C51.8375 22.7493 51.3424 22.6231 50.9006 22.3656L50.375 23.4282ZM49.0674 21.9315C49.334 22.5751 49.7961 23.1077 50.375 23.4282L50.8956 22.3656C50.5375 22.1612 50.2506 21.8406 50.0881 21.4418L49.0674 21.9315ZM49.1131 21.9719C49.0954 21.9592 49.0827 21.939 49.0674 21.9163L50.0958 21.4544C50.017 21.2449 49.8749 21.0708 49.6997 20.9521L49.1131 21.9719ZM49.1334 21.9719C49.1131 21.9719 49.0954 21.9668 49.0827 21.9517L49.7327 20.9723C49.5625 20.8386 49.362 20.7679 49.1461 20.7628L49.1334 21.9719ZM49.1995 21.9441C49.1868 21.9592 49.1665 21.9668 49.1461 21.9719L49.1334 20.7679C48.8618 20.7679 48.6002 20.889 48.4047 21.0985L49.1995 21.9441ZM49.2249 21.8886C49.2249 21.9113 49.2172 21.9315 49.1995 21.9441L48.4124 21.0985C48.2168 21.308 48.1127 21.5882 48.1077 21.881L49.2249 21.8886ZM49.2249 21.8684L48.1077 21.8961C48.1127 22.035 48.1381 22.1839 48.1838 22.3101L49.2249 21.8684ZM50.3827 23.2112C49.8622 22.9108 49.4508 22.4287 49.2122 21.8482L48.1915 22.3303C48.5292 23.1556 49.1131 23.8422 49.8495 24.2687L50.3827 23.2112ZM52.3454 23.7437C51.6624 23.7589 50.987 23.5771 50.3954 23.2187L49.8545 24.2687C50.6213 24.7306 51.4922 24.9628 52.3708 24.9477L52.3454 23.7437ZM53.4295 23.5822C53.0791 23.6882 52.7161 23.7362 52.3504 23.7362L52.3581 24.9401C52.8202 24.9401 53.2797 24.872 53.7215 24.7458L53.4295 23.5822ZM54.4375 23.1203C54.1252 23.3323 53.7875 23.4863 53.4372 23.5822L53.7165 24.7458C54.1786 24.6196 54.6254 24.4101 55.0292 24.135L54.4375 23.1203ZM55.1256 22.4009C54.9504 22.6937 54.7168 22.9386 54.4452 23.1203L55.0292 24.1425C55.4456 23.8699 55.8036 23.4989 56.0702 23.0572L55.1256 22.4009ZM55.3668 21.4696C55.3745 21.8053 55.2881 22.1334 55.1256 22.4136L56.0702 23.0572C56.3545 22.5751 56.4993 22.0148 56.484 21.4418L55.3668 21.4696ZM55.1713 20.6215C55.3008 20.8663 55.3668 21.1465 55.3618 21.4342L56.479 21.4771C56.4916 20.9648 56.3749 20.46 56.1413 20.0208L55.1713 20.6215ZM54.6661 20.0763C54.8743 20.2151 55.0545 20.4044 55.184 20.6366L56.1336 20.0056C55.9127 19.622 55.6081 19.2913 55.25 19.0541L54.6661 20.0763ZM53.8383 19.6901C54.1329 19.7759 54.4045 19.9072 54.6661 20.0763L55.25 19.0541C54.9047 18.8219 54.529 18.6477 54.1379 18.5291L53.8383 19.6901ZM52.8456 19.468C53.1833 19.516 53.5133 19.5942 53.8383 19.6901L54.1456 18.5366C53.7672 18.4231 53.3838 18.3322 53.0004 18.2767L52.8456 19.468ZM51.8375 19.2989C52.2083 19.362 52.5383 19.4175 52.8506 19.468L53.0004 18.2767C52.7084 18.2363 52.3834 18.1782 52.0254 18.1151L51.8375 19.2989ZM50.7 18.9985C51.0708 19.1323 51.4465 19.2358 51.8375 19.3065L52.0204 18.1151C51.6954 18.0596 51.3754 17.9763 51.0631 17.8577L50.7 18.9985ZM49.687 18.3549C49.979 18.6477 50.3293 18.8648 50.7127 18.9985L51.0504 17.8501C50.8245 17.7719 50.6163 17.6406 50.4411 17.4639L49.687 18.3549ZM49.2959 17.7441C49.3797 17.9687 49.5118 18.1732 49.6743 18.3473L50.4461 17.4791C50.3954 17.4311 50.3547 17.368 50.3293 17.2973L49.2959 17.7441ZM49.1792 17.0374C49.1715 17.2822 49.2122 17.527 49.2959 17.7517L50.3293 17.2973C50.304 17.2267 50.2913 17.156 50.2963 17.0803L49.1792 17.0374ZM49.5372 15.8965C49.3036 16.2322 49.1715 16.6461 49.1792 17.0651L50.2963 17.0449C50.2963 16.891 50.342 16.7446 50.4258 16.6259L49.5372 15.8965ZM50.3624 15.162C50.0424 15.3362 49.7631 15.5886 49.5422 15.8965L50.4258 16.631C50.5452 16.4644 50.7 16.3306 50.8752 16.2322L50.3624 15.162ZM51.3424 14.7708C50.9997 14.8541 50.667 14.9803 50.3547 15.162L50.8752 16.2271C51.1038 16.1009 51.3374 16.0025 51.5836 15.947L51.3424 14.7708ZM52.3504 14.6446C52.0127 14.6446 51.675 14.685 51.3424 14.7708L51.5963 15.9394C51.8502 15.8763 52.1042 15.841 52.3581 15.841L52.3504 14.6446ZM54.0542 15.1065C53.5336 14.791 52.942 14.6294 52.3377 14.6446L52.3581 15.8485C52.7618 15.841 53.1579 15.947 53.5083 16.1565L54.0542 15.1065ZM55.1916 16.4366C54.9581 15.8687 54.5543 15.3993 54.0465 15.1065L53.5083 16.164C53.8002 16.3382 54.0338 16.6032 54.1709 16.9339L55.1916 16.4366ZM55.1536 16.3862C55.1663 16.3937 55.179 16.4089 55.184 16.4291L54.1709 16.9389C54.2547 17.1434 54.3995 17.3049 54.5747 17.4235L55.1536 16.3862ZM55.1383 16.3937C55.1536 16.3937 55.1663 16.4013 55.179 16.4089L54.5543 17.4033C54.7168 17.522 54.9124 17.5901 55.1129 17.5901L55.1383 16.3937ZM55.0672 16.4139C55.0799 16.4013 55.1002 16.3862 55.1256 16.3862L55.1333 17.5901C55.4049 17.5901 55.6665 17.4715 55.862 17.262L55.0672 16.4139ZM55.0418 16.477C55.0418 16.4568 55.0495 16.4366 55.0672 16.4139L55.8543 17.2696C56.0499 17.0601 56.154 16.7799 56.159 16.4846L55.0418 16.477ZM55.0545 16.5351C55.0495 16.5124 55.0418 16.4922 55.0418 16.472L56.159 16.4846C56.159 16.318 56.1286 16.1413 56.0549 15.9949L55.0545 16.5351ZM54.0288 15.2958C54.4756 15.5759 54.8336 16.0025 55.0495 16.5124L56.0625 16.0151C55.7502 15.2806 55.2374 14.6723 54.5924 14.2584L54.0288 15.2958ZM52.3631 14.8187C52.9497 14.8061 53.5209 14.9727 54.0211 15.2958L54.5924 14.266C53.912 13.8243 53.1299 13.6021 52.3377 13.6148L52.3631 14.8187ZM48.7831 17.0449H49.3417V17.0323L48.7831 17.0449ZM52.7922 19.8794L52.7161 20.4751H52.7288L52.7922 19.8794ZM54.6331 20.566L55.0038 20.1192L54.9961 20.1116L54.9911 20.1041L54.6331 20.566ZM54.9758 21.4544L54.4172 21.4191V21.4771L54.9758 21.4544ZM54.7295 22.3025L55.179 22.666V22.6533L54.7295 22.3025ZM52.3504 23.3374V22.7366H52.3377L52.3504 23.3374ZM49.5829 21.6866L49.0674 21.9163V21.9315L49.5829 21.6866ZM49.4077 21.462L49.0827 21.9517L49.0954 21.9668L49.1131 21.9794L49.4077 21.462ZM49.1411 21.3711L49.1461 20.7679H49.1334L49.1411 21.3711ZM48.6663 21.881L48.1077 21.8759V21.9037L48.6663 21.881ZM48.7043 22.093L48.1838 22.3151L48.1915 22.3227L48.1965 22.3303L48.7043 22.093ZM52.3504 24.347V23.7437H52.3377L52.3504 24.347ZM55.5954 22.7291L56.0625 23.0572V23.0446L55.5954 22.7291ZM55.9204 21.4469L55.3618 21.4267V21.4544L55.9204 21.4469ZM55.6588 20.3211L56.1413 20.0208L56.1336 20.0132L56.1286 20.0056L55.6588 20.3211ZM50.8829 18.4231L51.0631 17.8577H51.0504L50.8829 18.4231ZM50.0627 17.9132L49.6793 18.3473L49.692 18.36L50.0627 17.9132ZM49.7377 17.0601L50.2963 17.0803V17.0525L49.7377 17.0601ZM52.3504 15.2453V15.8485H52.3631L52.3504 15.2453ZM54.6838 16.6815L54.1786 16.9263V16.9389L54.6838 16.6815ZM54.8667 16.9061L55.179 16.4089L55.1536 16.3937L54.8667 16.9061ZM55.1256 16.997L55.1129 17.5977H55.1256V16.997ZM55.5547 16.2675L55.0495 16.5199L55.0545 16.5351L55.0622 16.5401L55.5547 16.2675ZM52.3504 14.218V14.8187H52.3631L52.3504 14.218Z" fill="white"/>
<mask id="mask0_23_1014" style="mask-type:luminance" maskUnits="userSpaceOnUse" x="20" y="9" width="21" height="19">
<path d="M20.8 9.69238H40.3V27.7847H20.8V9.69238Z" fill="white"/>
</mask>
<g mask="url(#mask0_23_1014)">
<mask id="mask1_23_1014" style="mask-type:luminance" maskUnits="userSpaceOnUse" x="21" y="10" width="20" height="18">
<path d="M23.6667 21.631C23.2173 21.2801 22.7374 20.9722 22.255 20.6719C22.0341 20.5381 21.8411 20.3639 21.6786 20.1595C21.2673 19.6572 21.0337 19.011 21.021 18.3396V13.7131C21.021 12.8019 21.1632 12.5646 21.28 12.292C21.7548 11.1941 22.7577 10.7019 23.2046 10.4848C23.621 10.2829 24.3624 9.93207 25.3501 10.0381C26.1169 10.1214 26.838 10.452 27.4296 10.9896L36.8419 17.9055C38.896 19.0539 39.8634 20.8889 40.1833 23.1202V27.5246H31.1163V27.3707C28.6331 25.4524 26.1499 23.5341 23.6667 21.631Z" fill="white"/>
</mask>
<g mask="url(#mask1_23_1014)">
<path d="M-1.50049 -25.8438L119.105 79.6257V114.023L-1.50049 8.55385" fill="url(#paint0_linear_23_1014)"/>
</g>
</g>
<mask id="mask2_23_1014" style="mask-type:luminance" maskUnits="userSpaceOnUse" x="20" y="9" width="21" height="19">
<path d="M20.8 9.69238H40.3V27.7847H20.8V9.69238Z" fill="white"/>
</mask>
<g mask="url(#mask2_23_1014)">
<mask id="mask3_23_1014" style="mask-type:luminance" maskUnits="userSpaceOnUse" x="21" y="10" width="20" height="18">
<path d="M23.6667 21.631C23.2173 21.2801 22.7374 20.9722 22.255 20.6719C22.0341 20.5381 21.8411 20.3639 21.6786 20.1595C21.2673 19.6572 21.0337 19.011 21.021 18.3396V13.7131C21.021 12.8019 21.1632 12.5646 21.28 12.292C21.7548 11.1941 22.7577 10.7019 23.2046 10.4848C23.621 10.2829 24.3624 9.93207 25.3501 10.0381C26.1169 10.1214 26.838 10.452 27.4296 10.9896L36.8419 17.9055C38.896 19.0539 39.8634 20.8889 40.1833 23.1202V27.5246H31.1163V27.3707C28.6331 25.4524 26.1499 23.5341 23.6667 21.631Z" fill="white"/>
</mask>
<g mask="url(#mask3_23_1014)">
<path fill-rule="evenodd" clip-rule="evenodd" d="M-1.50049 -25.6695L119.105 79.8076V-42.2019H-1.50049" fill="#4E01B0"/>
<path fill-rule="evenodd" clip-rule="evenodd" d="M-1.50049 8.42017L119.105 113.89V87.6825H-1.50049" fill="#B479FF"/>
</g>
</g>
<mask id="mask4_23_1014" style="mask-type:luminance" maskUnits="userSpaceOnUse" x="20" y="16" width="21" height="26">
<path d="M20.8 16.1538H40.3V41.3538H20.8V16.1538Z" fill="white"/>
</mask>
<g mask="url(#mask4_23_1014)">
<mask id="mask5_23_1014" style="mask-type:luminance" maskUnits="userSpaceOnUse" x="21" y="16" width="20" height="25">
<path d="M40.1883 27.5095C40.1045 28.8548 39.6424 30.1345 38.8629 31.1921C38.317 31.9266 37.629 32.5223 36.8495 32.9413L27.4372 39.8571C26.8456 40.3897 26.1245 40.7254 25.3577 40.8112C24.6163 40.8718 23.8749 40.7178 23.2122 40.3619C22.7627 40.1449 21.7624 39.6552 21.2875 38.5572C21.1708 38.2771 21.0286 38.0373 21.0286 37.1362V32.5021C21.0413 31.8282 21.2672 31.1845 21.6836 30.6823C21.8538 30.4778 22.0493 30.3036 22.2625 30.1623C23.2883 29.4909 23.6743 29.2032 23.6743 29.2032C24.954 28.4889 28.887 26.3889 31.0299 25.0612C33.8788 23.2893 35.3083 22.3731 35.712 20.7072C36.1334 18.9707 35.3286 17.2821 34.7624 16.3306L38.0377 18.7032C38.7868 19.4326 39.3708 20.3286 39.7618 21.3282C39.975 21.8961 40.1249 22.4842 40.2086 23.0925L40.1883 27.5095Z" fill="white"/>
</mask>
<g mask="url(#mask5_23_1014)">
<path d="M-1.50049 -675.627L119.105 1218.4V1655.19L-1.50049 -238.832" fill="url(#paint1_linear_23_1014)"/>
</g>
</g>
<mask id="mask6_23_1014" style="mask-type:luminance" maskUnits="userSpaceOnUse" x="20" y="16" width="21" height="26">
<path d="M20.8 16.1538H40.3V41.3538H20.8V16.1538Z" fill="white"/>
</mask>
<g mask="url(#mask6_23_1014)">
<mask id="mask7_23_1014" style="mask-type:luminance" maskUnits="userSpaceOnUse" x="21" y="16" width="20" height="25">
<path d="M40.1883 27.5095C40.1045 28.8548 39.6424 30.1345 38.8629 31.1921C38.317 31.9266 37.629 32.5223 36.8495 32.9413L27.4372 39.8571C26.8456 40.3897 26.1245 40.7254 25.3577 40.8112C24.6163 40.8718 23.8749 40.7178 23.2122 40.3619C22.7627 40.1449 21.7624 39.6552 21.2875 38.5572C21.1708 38.2771 21.0286 38.0373 21.0286 37.1362V32.5021C21.0413 31.8282 21.2672 31.1845 21.6836 30.6823C21.8538 30.4778 22.0493 30.3036 22.2625 30.1623C23.2883 29.4909 23.6743 29.2032 23.6743 29.2032C24.954 28.4889 28.887 26.3889 31.0299 25.0612C33.8788 23.2893 35.3083 22.3731 35.712 20.7072C36.1334 18.9707 35.3286 17.2821 34.7624 16.3306L38.0377 18.7032C38.7868 19.4326 39.3708 20.3286 39.7618 21.3282C39.975 21.8961 40.1249 22.4842 40.2086 23.0925L40.1883 27.5095Z" fill="white"/>
</mask>
<g mask="url(#mask7_23_1014)">
<path fill-rule="evenodd" clip-rule="evenodd" d="M-1.50049 -674.64L119.105 1219.38V-42.2019H-1.50049" fill="#FF00D6"/>
<path fill-rule="evenodd" clip-rule="evenodd" d="M-1.50049 -239.736L119.105 1654.28V87.6827H-1.50049" fill="#0036BF"/>
</g>
</g>
<mask id="mask8_23_1014" style="mask-type:luminance" maskUnits="userSpaceOnUse" x="0" y="0" width="21" height="19">
<path d="M0.650024 0H20.15V18.0923H0.650024V0Z" fill="white"/>
</mask>
<g mask="url(#mask8_23_1014)">
<mask id="mask9_23_1014" style="mask-type:luminance" maskUnits="userSpaceOnUse" x="0" y="0" width="20" height="19">
<path d="M17.1742 12.181C17.6211 11.8302 18.1035 11.5223 18.5834 11.2219C18.8043 11.0881 18.9998 10.914 19.1623 10.7095C19.5711 10.2072 19.8047 9.56109 19.8174 8.88969V4.25556C19.8174 3.34691 19.6752 3.10712 19.5584 2.83453C19.0836 1.73657 18.0832 1.24691 17.6338 1.02984C17.2174 0.825392 16.4785 0.477074 15.4883 0.58056C14.7215 0.663853 14.0004 1.00207 13.4088 1.53212L3.99143 8.44799C1.93733 9.59643 0.967407 11.4314 0.650024 13.6652V18.0671H9.72464V17.9207C12.2078 16.0024 14.691 14.0917 17.1742 12.181Z" fill="white"/>
</mask>
<g mask="url(#mask9_23_1014)">
<path d="M-1.50061 3.13491L119.105 -102.332V-68.0606L-1.50061 37.4139" fill="url(#paint2_linear_23_1014)"/>
</g>
</g>
<mask id="mask10_23_1014" style="mask-type:luminance" maskUnits="userSpaceOnUse" x="0" y="0" width="21" height="4">
<path d="M0.650024 0H20.15V3.23077H0.650024V0Z" fill="white"/>
</mask>
<g mask="url(#mask10_23_1014)">
<mask id="mask11_23_1014" style="mask-type:luminance" maskUnits="userSpaceOnUse" x="0" y="0" width="20" height="19">
<path d="M17.1742 12.181C17.6211 11.8302 18.1035 11.5223 18.5834 11.2219C18.8043 11.0881 18.9998 10.914 19.1623 10.7095C19.5711 10.2072 19.8047 9.56109 19.8174 8.88969V4.25556C19.8174 3.34691 19.6752 3.10712 19.5584 2.83453C19.0836 1.73657 18.0832 1.24691 17.6338 1.02984C17.2174 0.825392 16.4785 0.477074 15.4883 0.58056C14.7215 0.663853 14.0004 1.00207 13.4088 1.53212L3.99143 8.44799C1.93733 9.59643 0.967407 11.4314 0.650024 13.6652V18.0671H9.72464V17.9207C12.2078 16.0024 14.691 14.0917 17.1742 12.181Z" fill="white"/>
</mask>
<g mask="url(#mask11_23_1014)">
<path fill-rule="evenodd" clip-rule="evenodd" d="M-1.50061 3.22826L119.105 -102.249V-42.2019H-1.50061" fill="#4E01B0"/>
</g>
</g>
<mask id="mask12_23_1014" style="mask-type:luminance" maskUnits="userSpaceOnUse" x="0" y="0" width="21" height="19">
<path d="M0.650024 0H20.15V18.0923H0.650024V0Z" fill="white"/>
</mask>
<g mask="url(#mask12_23_1014)">
<mask id="mask13_23_1014" style="mask-type:luminance" maskUnits="userSpaceOnUse" x="0" y="0" width="20" height="19">
<path d="M17.1742 12.181C17.6211 11.8302 18.1035 11.5223 18.5834 11.2219C18.8043 11.0881 18.9998 10.914 19.1623 10.7095C19.5711 10.2072 19.8047 9.56109 19.8174 8.88969V4.25556C19.8174 3.34691 19.6752 3.10712 19.5584 2.83453C19.0836 1.73657 18.0832 1.24691 17.6338 1.02984C17.2174 0.825392 16.4785 0.477074 15.4883 0.58056C14.7215 0.663853 14.0004 1.00207 13.4088 1.53212L3.99143 8.44799C1.93733 9.59643 0.967407 11.4314 0.650024 13.6652V18.0671H9.72464V17.9207C12.2078 16.0024 14.691 14.0917 17.1742 12.181Z" fill="white"/>
</mask>
<g mask="url(#mask13_23_1014)">
<path fill-rule="evenodd" clip-rule="evenodd" d="M-1.50061 37.3179L119.105 -68.1516V87.6901H-1.50061" fill="#B00194"/>
</g>
</g>
<mask id="mask14_23_1014" style="mask-type:luminance" maskUnits="userSpaceOnUse" x="0" y="6" width="21" height="26">
<path d="M0.650024 6.46143H20.15V31.6614H0.650024V6.46143Z" fill="white"/>
</mask>
<g mask="url(#mask14_23_1014)">
<mask id="mask15_23_1014" style="mask-type:luminance" maskUnits="userSpaceOnUse" x="0" y="6" width="20" height="26">
<path d="M0.650024 18.0669C0.733813 19.4097 1.19592 20.6919 1.97541 21.7495C2.52131 22.484 3.21194 23.0796 3.99143 23.4986L13.4037 30.4145C13.9953 30.9471 14.7164 31.2828 15.4832 31.3661C16.2246 31.4367 16.966 31.2752 17.6287 30.9193C18.0756 30.7022 19.0785 30.2126 19.5508 29.1121C19.6625 28.8319 19.8123 28.5947 19.8123 27.6911V23.0569C19.7996 22.3855 19.5711 21.7419 19.1547 21.2371C18.9871 21.0352 18.7916 20.861 18.5758 20.7197C17.55 20.0483 17.1666 19.7605 17.1666 19.7605C15.8869 19.0462 11.9539 16.9462 9.81604 15.6161C6.96721 13.8467 5.53772 12.9229 5.13401 11.2621C4.72014 9.53313 5.52502 7.8395 6.09124 6.89551L2.82092 9.2681C2.07444 9.99503 1.48791 10.8911 1.09944 11.8931C0.87854 12.461 0.728736 13.0542 0.650024 13.6574V18.0669Z" fill="white"/>
</mask>
<g mask="url(#mask15_23_1014)">
<path d="M-1.50061 28.1529L119.105 -485.373V-398.427L-1.50061 115.227" fill="url(#paint3_linear_23_1014)"/>
</g>
</g>
<mask id="mask16_23_1014" style="mask-type:luminance" maskUnits="userSpaceOnUse" x="0" y="6" width="21" height="23">
<path d="M0.650024 6.46143H20.15V28.4307H0.650024V6.46143Z" fill="white"/>
</mask>
<g mask="url(#mask16_23_1014)">
<mask id="mask17_23_1014" style="mask-type:luminance" maskUnits="userSpaceOnUse" x="0" y="6" width="20" height="26">
<path d="M0.650024 18.0669C0.733813 19.4097 1.19592 20.6919 1.97541 21.7495C2.52131 22.484 3.21194 23.0796 3.99143 23.4986L13.4037 30.4145C13.9953 30.9471 14.7164 31.2828 15.4832 31.3661C16.2246 31.4367 16.966 31.2752 17.6287 30.9193C18.0756 30.7022 19.0785 30.2126 19.5508 29.1121C19.6625 28.8319 19.8123 28.5947 19.8123 27.6911V23.0569C19.7996 22.3855 19.5711 21.7419 19.1547 21.2371C18.9871 21.0352 18.7916 20.861 18.5758 20.7197C17.55 20.0483 17.1666 19.7605 17.1666 19.7605C15.8869 19.0462 11.9539 16.9462 9.81604 15.6161C6.96721 13.8467 5.53772 12.9229 5.13401 11.2621C4.72014 9.53313 5.52502 7.8395 6.09124 6.89551L2.82092 9.2681C2.07444 9.99503 1.48791 10.8911 1.09944 11.8931C0.87854 12.461 0.728736 13.0542 0.650024 13.6574V18.0669Z" fill="white"/>
</mask>
<g mask="url(#mask17_23_1014)">
<path fill-rule="evenodd" clip-rule="evenodd" d="M-1.50061 28.4281L119.105 -485.143V-42.2021H-1.50061" fill="#4D27D7"/>
</g>
</g>
<mask id="mask18_23_1014" style="mask-type:luminance" maskUnits="userSpaceOnUse" x="0" y="6" width="21" height="26">
<path d="M0.650024 6.46143H20.15V31.6614H0.650024V6.46143Z" fill="white"/>
</mask>
<g mask="url(#mask18_23_1014)">
<mask id="mask19_23_1014" style="mask-type:luminance" maskUnits="userSpaceOnUse" x="0" y="6" width="20" height="26">
<path d="M0.650024 18.0669C0.733813 19.4097 1.19592 20.6919 1.97541 21.7495C2.52131 22.484 3.21194 23.0796 3.99143 23.4986L13.4037 30.4145C13.9953 30.9471 14.7164 31.2828 15.4832 31.3661C16.2246 31.4367 16.966 31.2752 17.6287 30.9193C18.0756 30.7022 19.0785 30.2126 19.5508 29.1121C19.6625 28.8319 19.8123 28.5947 19.8123 27.6911V23.0569C19.7996 22.3855 19.5711 21.7419 19.1547 21.2371C18.9871 21.0352 18.7916 20.861 18.5758 20.7197C17.55 20.0483 17.1666 19.7605 17.1666 19.7605C15.8869 19.0462 11.9539 16.9462 9.81604 15.6161C6.96721 13.8467 5.53772 12.9229 5.13401 11.2621C4.72014 9.53313 5.52502 7.8395 6.09124 6.89551L2.82092 9.2681C2.07444 9.99503 1.48791 10.8911 1.09944 11.8931C0.87854 12.461 0.728736 13.0542 0.650024 13.6574V18.0669Z" fill="white"/>
</mask>
<g mask="url(#mask19_23_1014)">
<path fill-rule="evenodd" clip-rule="evenodd" d="M-1.50061 114.932L119.105 -398.637V87.6824H-1.50061" fill="#F105E3"/>
</g>
</g>
<path d="M114.629 14.1119H114.867C114.9 14.1119 114.926 14.1119 114.959 14.0968C114.984 14.0841 115.012 14.069 115.037 14.0488C115.075 14.0009 115.088 13.9378 115.088 13.8747C115.088 13.8116 115.07 13.7484 115.037 13.698C115.017 13.6778 114.992 13.6576 114.959 13.65C114.933 13.6349 114.9 13.6349 114.867 13.6349H114.629V14.1119ZM114.837 14.435H114.629V14.9171C114.629 14.9524 114.613 14.9802 114.596 15.0004C114.575 15.0231 114.542 15.0357 114.517 15.0357H114.354C114.321 15.0357 114.296 15.0231 114.276 15.0004C114.258 14.9802 114.245 14.9448 114.245 14.9171V13.4481C114.245 13.4128 114.258 13.385 114.276 13.3623C114.296 13.3421 114.329 13.3269 114.354 13.3269H114.867C115.025 13.3143 115.187 13.3623 115.317 13.4607C115.367 13.5036 115.413 13.5667 115.441 13.6298C115.466 13.6929 115.479 13.7686 115.479 13.8393C115.487 13.9428 115.459 14.0412 115.413 14.1321C115.362 14.2179 115.291 14.281 115.205 14.3214C115.375 14.6924 115.487 14.9247 115.512 14.965C115.512 14.965 115.53 15.0004 115.525 15.0155C115.517 15.0231 115.517 15.0231 115.512 15.0231C115.504 15.0231 115.499 15.0231 115.499 15.0231C115.35 15.0231 115.238 15.0231 115.2 15.0231C115.179 15.0231 115.162 15.0155 115.141 15.0079C115.121 14.9928 115.108 14.9802 115.101 14.96L114.837 14.435Z" fill="white"/>
<path d="M114.849 12.7615C115.616 12.7615 116.233 13.4328 116.233 14.2532H116.35C116.35 13.3622 115.68 12.6353 114.849 12.6353V12.7615ZM113.463 14.2582C113.463 13.4328 114.088 12.769 114.849 12.769V12.6479C114.024 12.6479 113.346 13.3697 113.346 14.2658H113.463V14.2582ZM114.849 15.7499C114.083 15.7499 113.463 15.0785 113.463 14.2582H113.354C113.354 15.1467 114.024 15.8761 114.855 15.8761V15.7499H114.849ZM116.238 14.2582C116.238 15.0861 115.616 15.7499 114.855 15.7499V15.8685C115.68 15.8685 116.358 15.1467 116.358 14.2532H116.238V14.2582Z" fill="white"/>
<defs>
<linearGradient id="paint0_linear_23_1014" x1="66.5888" y1="33.7584" x2="49.577" y2="53.2111" gradientUnits="userSpaceOnUse">
<stop stop-color="#4E01B0"/>
<stop offset="0.01" stop-color="#4F01B0"/>
<stop offset="0.02" stop-color="#5001B0"/>
<stop offset="0.03" stop-color="#5101B0"/>
<stop offset="0.04" stop-color="#5201B0"/>
<stop offset="0.05" stop-color="#5301B0"/>
<stop offset="0.06" stop-color="#5401B0"/>
<stop offset="0.07" stop-color="#5501B0"/>
<stop offset="0.08" stop-color="#5601B0"/>
<stop offset="0.09" stop-color="#5701B0"/>
<stop offset="0.1" stop-color="#5801B0"/>
<stop offset="0.11" stop-color="#5901B0"/>
<stop offset="0.12" stop-color="#5901B0"/>
<stop offset="0.13" stop-color="#5A01B0"/>
<stop offset="0.14" stop-color="#5B01B0"/>
<stop offset="0.15" stop-color="#5C01B0"/>
<stop offset="0.16" stop-color="#5D01B0"/>
<stop offset="0.17" stop-color="#5E01B0"/>
<stop offset="0.18" stop-color="#5F01B0"/>
<stop offset="0.19" stop-color="#6001B0"/>
<stop offset="0.2" stop-color="#6101B0"/>
<stop offset="0.21" stop-color="#6201B0"/>
<stop offset="0.22" stop-color="#6301B0"/>
<stop offset="0.23" stop-color="#6501B0"/>
<stop offset="0.24" stop-color="#6801B0"/>
<stop offset="0.25" stop-color="#6C01B0"/>
<stop offset="0.26" stop-color="#6F01B0"/>
<stop offset="0.27" stop-color="#7201B0"/>
<stop offset="0.28" stop-color="#7601B0"/>
<stop offset="0.29" stop-color="#7901B0"/>
<stop offset="0.3" stop-color="#7D01B0"/>
<stop offset="0.31" stop-color="#8001B0"/>
<stop offset="0.32" stop-color="#8301B0"/>
<stop offset="0.33" stop-color="#8701B0"/>
<stop offset="0.34" stop-color="#8A01B0"/>
<stop offset="0.35" stop-color="#8D01B0"/>
<stop offset="0.36" stop-color="#8D02B1"/>
<stop offset="0.37" stop-color="#8D04B3"/>
<stop offset="0.38" stop-color="#8D05B4"/>
<stop offset="0.39" stop-color="#8C06B5"/>
<stop offset="0.4" stop-color="#8C07B6"/>
<stop offset="0.41" stop-color="#8C09B8"/>
<stop offset="0.42" stop-color="#8C0AB9"/>
<stop offset="0.43" stop-color="#8C0BBA"/>
<stop offset="0.44" stop-color="#8C0CBB"/>
<stop offset="0.45" stop-color="#8C0EBD"/>
<stop offset="0.46" stop-color="#8B0FBE"/>
<stop offset="0.47" stop-color="#8B10BF"/>
<stop offset="0.48" stop-color="#8B11C0"/>
<stop offset="0.49" stop-color="#8B12C2"/>
<stop offset="0.5" stop-color="#8B14C3"/>
<stop offset="0.51" stop-color="#8B15C4"/>
<stop offset="0.52" stop-color="#8B16C5"/>
<stop offset="0.53" stop-color="#8A17C7"/>
<stop offset="0.54" stop-color="#8A19C8"/>
<stop offset="0.55" stop-color="#8A1AC9"/>
<stop offset="0.56" stop-color="#8A1BCA"/>
<stop offset="0.57" stop-color="#8A1CCC"/>
<stop offset="0.58" stop-color="#8A1ECD"/>
<stop offset="0.59" stop-color="#891FCE"/>
<stop offset="0.6" stop-color="#8920CF"/>
<stop offset="0.61" stop-color="#8921D1"/>
<stop offset="0.62" stop-color="#8923D2"/>
<stop offset="0.63" stop-color="#8924D3"/>
<stop offset="0.64" stop-color="#8925D4"/>
<stop offset="0.65" stop-color="#8926D6"/>
<stop offset="0.66" stop-color="#8828D7"/>
<stop offset="0.67" stop-color="#8829D8"/>
<stop offset="0.68" stop-color="#882AD9"/>
<stop offset="0.69" stop-color="#882BDB"/>
<stop offset="0.7" stop-color="#882DDC"/>
<stop offset="0.71" stop-color="#882EDD"/>
<stop offset="0.72" stop-color="#882FDE"/>
<stop offset="0.73" stop-color="#8730E0"/>
<stop offset="0.74" stop-color="#8732E1"/>
<stop offset="0.75" stop-color="#8733E2"/>
<stop offset="0.76" stop-color="#8734E3"/>
<stop offset="0.77" stop-color="#8735E5"/>
<stop offset="0.78" stop-color="#8736E6"/>
<stop offset="0.79" stop-color="#8738E7"/>
<stop offset="0.8" stop-color="#8639E8"/>
<stop offset="0.81" stop-color="#883CEA"/>
<stop offset="0.82" stop-color="#8B3FEB"/>
<stop offset="0.83" stop-color="#8D42EC"/>
<stop offset="0.84" stop-color="#8F45ED"/>
<stop offset="0.85" stop-color="#9149EE"/>
<stop offset="0.86" stop-color="#944CEF"/>
<stop offset="0.87" stop-color="#964FF0"/>
<stop offset="0.88" stop-color="#9852F1"/>
<stop offset="0.89" stop-color="#9B56F3"/>
<stop offset="0.9" stop-color="#9D59F4"/>
<stop offset="0.91" stop-color="#9F5CF5"/>
<stop offset="0.92" stop-color="#A25FF6"/>
<stop offset="0.93" stop-color="#A463F7"/>
<stop offset="0.94" stop-color="#A666F8"/>
<stop offset="0.95" stop-color="#A969F9"/>
<stop offset="0.96" stop-color="#AB6CFA"/>
<stop offset="0.97" stop-color="#AD6FFC"/>
<stop offset="0.98" stop-color="#AF73FD"/>
<stop offset="0.99" stop-color="#B276FE"/>
<stop offset="1" stop-color="#B479FF"/>
</linearGradient>
<linearGradient id="paint1_linear_23_1014" x1="72.6416" y1="488.762" x2="44.9394" y2="490.526" gradientUnits="userSpaceOnUse">
<stop stop-color="#FF00D6"/>
<stop offset="0.01" stop-color="#FE00D7"/>
<stop offset="0.02" stop-color="#FC01D9"/>
<stop offset="0.03" stop-color="#FB01DA"/>
<stop offset="0.04" stop-color="#F902DB"/>
<stop offset="0.05" stop-color="#F802DC"/>
<stop offset="0.06" stop-color="#F703DD"/>
<stop offset="0.07" stop-color="#F503DE"/>
<stop offset="0.08" stop-color="#F403E0"/>
<stop offset="0.09" stop-color="#F304E1"/>
<stop offset="0.1" stop-color="#F104E2"/>
<stop offset="0.11" stop-color="#F005E3"/>
<stop offset="0.12" stop-color="#EE05E4"/>
<stop offset="0.13" stop-color="#ED06E5"/>
<stop offset="0.14" stop-color="#EC06E7"/>
<stop offset="0.15" stop-color="#EA06E8"/>
<stop offset="0.16" stop-color="#E907E9"/>
<stop offset="0.17" stop-color="#E807EA"/>
<stop offset="0.18" stop-color="#E608EB"/>
<stop offset="0.19" stop-color="#E508EC"/>
<stop offset="0.2" stop-color="#E309EE"/>
<stop offset="0.21" stop-color="#E209EF"/>
<stop offset="0.22" stop-color="#E109F0"/>
<stop offset="0.23" stop-color="#DF0AF1"/>
<stop offset="0.24" stop-color="#DE0AF2"/>
<stop offset="0.25" stop-color="#DD0BF3"/>
<stop offset="0.26" stop-color="#DB0BF5"/>
<stop offset="0.27" stop-color="#DA0CF6"/>
<stop offset="0.28" stop-color="#D80CF7"/>
<stop offset="0.29" stop-color="#D70CF8"/>
<stop offset="0.3" stop-color="#D60DF9"/>
<stop offset="0.31" stop-color="#D40DFA"/>
<stop offset="0.32" stop-color="#D30EFC"/>
<stop offset="0.33" stop-color="#D20EFD"/>
<stop offset="0.34" stop-color="#D00EFE"/>
<stop offset="0.35" stop-color="#CF0FFF"/>
<stop offset="0.36" stop-color="#CB10FE"/>
<stop offset="0.37" stop-color="#C810FD"/>
<stop offset="0.38" stop-color="#C511FC"/>
<stop offset="0.39" stop-color="#C211FB"/>
<stop offset="0.4" stop-color="#BF12FA"/>
<stop offset="0.41" stop-color="#BC13F9"/>
<stop offset="0.42" stop-color="#B813F8"/>
<stop offset="0.43" stop-color="#B514F7"/>
<stop offset="0.44" stop-color="#B214F6"/>
<stop offset="0.45" stop-color="#AF15F5"/>
<stop offset="0.46" stop-color="#AC15F4"/>
<stop offset="0.47" stop-color="#A816F3"/>
<stop offset="0.48" stop-color="#A517F2"/>
<stop offset="0.49" stop-color="#A217F1"/>
<stop offset="0.5" stop-color="#9F18F0"/>
<stop offset="0.51" stop-color="#9C18EF"/>
<stop offset="0.52" stop-color="#9919EE"/>
<stop offset="0.53" stop-color="#951AED"/>
<stop offset="0.54" stop-color="#921AEC"/>
<stop offset="0.55" stop-color="#8F1BEB"/>
<stop offset="0.56" stop-color="#8C1BEA"/>
<stop offset="0.57" stop-color="#891CE9"/>
<stop offset="0.58" stop-color="#861DE8"/>
<stop offset="0.59" stop-color="#821DE7"/>
<stop offset="0.6" stop-color="#7F1EE6"/>
<stop offset="0.61" stop-color="#7C1EE5"/>
<stop offset="0.62" stop-color="#791FE4"/>
<stop offset="0.63" stop-color="#7620E3"/>
<stop offset="0.64" stop-color="#7220E3"/>
<stop offset="0.65" stop-color="#6F21E2"/>
<stop offset="0.66" stop-color="#6C21E1"/>
<stop offset="0.67" stop-color="#6922E0"/>
<stop offset="0.68" stop-color="#6623DF"/>
<stop offset="0.69" stop-color="#6323DE"/>
<stop offset="0.7" stop-color="#5F24DD"/>
<stop offset="0.71" stop-color="#5C24DC"/>
<stop offset="0.72" stop-color="#5925DB"/>
<stop offset="0.73" stop-color="#5626DA"/>
<stop offset="0.74" stop-color="#5326D9"/>
<stop offset="0.75" stop-color="#4F27D8"/>
<stop offset="0.76" stop-color="#4C27D7"/>
<stop offset="0.77" stop-color="#4928D6"/>
<stop offset="0.78" stop-color="#4628D5"/>
<stop offset="0.79" stop-color="#4329D4"/>
<stop offset="0.8" stop-color="#402AD3"/>
<stop offset="0.81" stop-color="#3C2AD2"/>
<stop offset="0.82" stop-color="#392BD1"/>
<stop offset="0.83" stop-color="#362BD0"/>
<stop offset="0.84" stop-color="#332CCF"/>
<stop offset="0.85" stop-color="#302DCE"/>
<stop offset="0.86" stop-color="#2D2DCD"/>
<stop offset="0.87" stop-color="#292ECC"/>
<stop offset="0.88" stop-color="#262ECB"/>
<stop offset="0.89" stop-color="#232FCA"/>
<stop offset="0.9" stop-color="#2030C9"/>
<stop offset="0.91" stop-color="#1D30C8"/>
<stop offset="0.92" stop-color="#1931C7"/>
<stop offset="0.93" stop-color="#1631C6"/>
<stop offset="0.94" stop-color="#1332C5"/>
<stop offset="0.95" stop-color="#1033C4"/>
<stop offset="0.96" stop-color="#0D33C3"/>
<stop offset="0.97" stop-color="#0A34C2"/>
<stop offset="0.98" stop-color="#0634C1"/>
<stop offset="0.99" stop-color="#0335C0"/>
<stop offset="1" stop-color="#0036BF"/>
</linearGradient>
<linearGradient id="paint2_linear_23_1014" x1="51.0113" y1="-42.7872" x2="68.0232" y2="-23.3344" gradientUnits="userSpaceOnUse">
<stop stop-color="#4E01B0"/>
<stop offset="0.01" stop-color="#4F01B0"/>
<stop offset="0.02" stop-color="#4F01B0"/>
<stop offset="0.03" stop-color="#5001B0"/>
<stop offset="0.04" stop-color="#5101B0"/>
<stop offset="0.05" stop-color="#5101B0"/>
<stop offset="0.06" stop-color="#5201B0"/>
<stop offset="0.07" stop-color="#5201B0"/>
<stop offset="0.08" stop-color="#5301B0"/>
<stop offset="0.09" stop-color="#5301B0"/>
<stop offset="0.1" stop-color="#5401B0"/>
<stop offset="0.11" stop-color="#5401B0"/>
<stop offset="0.12" stop-color="#5501B0"/>
<stop offset="0.13" stop-color="#5501B0"/>
<stop offset="0.14" stop-color="#5601B0"/>
<stop offset="0.15" stop-color="#5601B0"/>
<stop offset="0.16" stop-color="#5701B0"/>
<stop offset="0.17" stop-color="#5801B0"/>
<stop offset="0.18" stop-color="#5801B0"/>
<stop offset="0.19" stop-color="#5901B0"/>
<stop offset="0.2" stop-color="#5901B0"/>
<stop offset="0.21" stop-color="#5A01B0"/>
<stop offset="0.22" stop-color="#5A01B0"/>
<stop offset="0.23" stop-color="#5B01B0"/>
<stop offset="0.24" stop-color="#5B01B0"/>
<stop offset="0.25" stop-color="#5C01B0"/>
<stop offset="0.26" stop-color="#5C01B0"/>
<stop offset="0.27" stop-color="#5D01B0"/>
<stop offset="0.28" stop-color="#5D01B0"/>
<stop offset="0.29" stop-color="#5E01B0"/>
<stop offset="0.3" stop-color="#5E01B0"/>
<stop offset="0.31" stop-color="#5F01B0"/>
<stop offset="0.32" stop-color="#6001B0"/>
<stop offset="0.33" stop-color="#6001B0"/>
<stop offset="0.34" stop-color="#6101B0"/>
<stop offset="0.35" stop-color="#6101B0"/>
<stop offset="0.36" stop-color="#6201B0"/>
<stop offset="0.37" stop-color="#6201B0"/>
<stop offset="0.38" stop-color="#6301B0"/>
<stop offset="0.39" stop-color="#6401B0"/>
<stop offset="0.4" stop-color="#6501B0"/>
<stop offset="0.41" stop-color="#6701B0"/>
<stop offset="0.42" stop-color="#6801B0"/>
<stop offset="0.43" stop-color="#6901B0"/>
<stop offset="0.44" stop-color="#6B01B0"/>
<stop offset="0.45" stop-color="#6C01B0"/>
<stop offset="0.46" stop-color="#6E01B0"/>
<stop offset="0.47" stop-color="#6F01B0"/>
<stop offset="0.48" stop-color="#7101B0"/>
<stop offset="0.49" stop-color="#7201B0"/>
<stop offset="0.5" stop-color="#7301B0"/>
<stop offset="0.51" stop-color="#7501B0"/>
<stop offset="0.52" stop-color="#7601B0"/>
<stop offset="0.53" stop-color="#7801B0"/>
<stop offset="0.54" stop-color="#7901B0"/>
<stop offset="0.55" stop-color="#7B01B0"/>
<stop offset="0.56" stop-color="#7C01B0"/>
<stop offset="0.57" stop-color="#7E01B0"/>
<stop offset="0.58" stop-color="#7F01B0"/>
<stop offset="0.59" stop-color="#8001B0"/>
<stop offset="0.6" stop-color="#8201B0"/>
<stop offset="0.61" stop-color="#8301B0"/>
<stop offset="0.62" stop-color="#8501B0"/>
<stop offset="0.63" stop-color="#8601B0"/>
<stop offset="0.64" stop-color="#8801B0"/>
<stop offset="0.65" stop-color="#8901B0"/>
<stop offset="0.66" stop-color="#8B01B0"/>
<stop offset="0.67" stop-color="#8C01B0"/>
<stop offset="0.68" stop-color="#8D01B0"/>
<stop offset="0.69" stop-color="#8E01AF"/>
<stop offset="0.7" stop-color="#8F01AE"/>
<stop offset="0.71" stop-color="#9101AD"/>
<stop offset="0.72" stop-color="#9201AC"/>
<stop offset="0.73" stop-color="#9301AB"/>
<stop offset="0.74" stop-color="#9401AB"/>
<stop offset="0.75" stop-color="#9501AA"/>
<stop offset="0.76" stop-color="#9601A9"/>
<stop offset="0.77" stop-color="#9701A8"/>
<stop offset="0.78" stop-color="#9801A7"/>
<stop offset="0.79" stop-color="#9901A6"/>
<stop offset="0.8" stop-color="#9A01A5"/>
<stop offset="0.81" stop-color="#9B01A4"/>
<stop offset="0.82" stop-color="#9C01A4"/>
<stop offset="0.83" stop-color="#9E01A3"/>
<stop offset="0.84" stop-color="#9F01A2"/>
<stop offset="0.85" stop-color="#A001A1"/>
<stop offset="0.86" stop-color="#A101A0"/>
<stop offset="0.87" stop-color="#A2019F"/>
<stop offset="0.88" stop-color="#A3019E"/>
<stop offset="0.89" stop-color="#A4019E"/>
<stop offset="0.9" stop-color="#A5019D"/>
<stop offset="0.91" stop-color="#A6019C"/>
<stop offset="0.92" stop-color="#A7019B"/>
<stop offset="0.93" stop-color="#A8019A"/>
<stop offset="0.94" stop-color="#A90199"/>
<stop offset="0.95" stop-color="#AB0198"/>
<stop offset="0.96" stop-color="#AC0197"/>
<stop offset="0.97" stop-color="#AD0197"/>
<stop offset="0.98" stop-color="#AE0196"/>
<stop offset="0.99" stop-color="#AF0195"/>
<stop offset="1" stop-color="#B00194"/>
</linearGradient>
<linearGradient id="paint3_linear_23_1014" x1="49.1854" y1="-187.692" x2="68.5645" y2="-183.141" gradientUnits="userSpaceOnUse">
<stop stop-color="#4D27D7"/>
<stop offset="0.01" stop-color="#4F27D8"/>
<stop offset="0.02" stop-color="#5126D8"/>
<stop offset="0.03" stop-color="#5326D9"/>
<stop offset="0.04" stop-color="#5526D9"/>
<stop offset="0.05" stop-color="#5725DA"/>
<stop offset="0.06" stop-color="#5925DB"/>
<stop offset="0.07" stop-color="#5B24DB"/>
<stop offset="0.08" stop-color="#5D24DC"/>
<stop offset="0.09" stop-color="#5F24DC"/>
<stop offset="0.1" stop-color="#6123DD"/>
<stop offset="0.11" stop-color="#6323DE"/>
<stop offset="0.12" stop-color="#6623DE"/>
<stop offset="0.13" stop-color="#6822DF"/>
<stop offset="0.14" stop-color="#6A22E0"/>
<stop offset="0.15" stop-color="#6C21E0"/>
<stop offset="0.16" stop-color="#6E21E1"/>
<stop offset="0.17" stop-color="#7021E1"/>
<stop offset="0.18" stop-color="#7220E2"/>
<stop offset="0.19" stop-color="#7420E3"/>
<stop offset="0.2" stop-color="#7620E3"/>
<stop offset="0.21" stop-color="#781FE4"/>
<stop offset="0.22" stop-color="#7A1FE4"/>
<stop offset="0.23" stop-color="#7C1EE5"/>
<stop offset="0.24" stop-color="#7E1EE6"/>
<stop offset="0.25" stop-color="#801EE6"/>
<stop offset="0.26" stop-color="#821DE7"/>
<stop offset="0.27" stop-color="#841DE7"/>
<stop offset="0.28" stop-color="#861DE8"/>
<stop offset="0.29" stop-color="#881CE9"/>
<stop offset="0.3" stop-color="#8A1CE9"/>
<stop offset="0.31" stop-color="#8C1BEA"/>
<stop offset="0.32" stop-color="#8E1BEA"/>
<stop offset="0.33" stop-color="#901BEB"/>
<stop offset="0.34" stop-color="#931AEC"/>
<stop offset="0.35" stop-color="#951AEC"/>
<stop offset="0.36" stop-color="#971AED"/>
<stop offset="0.37" stop-color="#9919EE"/>
<stop offset="0.38" stop-color="#9B19EE"/>
<stop offset="0.39" stop-color="#9D18EF"/>
<stop offset="0.4" stop-color="#9F18EF"/>
<stop offset="0.41" stop-color="#A118F0"/>
<stop offset="0.42" stop-color="#A317F1"/>
<stop offset="0.43" stop-color="#A517F1"/>
<stop offset="0.44" stop-color="#A717F2"/>
<stop offset="0.45" stop-color="#A916F2"/>
<stop offset="0.46" stop-color="#AB16F3"/>
<stop offset="0.47" stop-color="#AD15F4"/>
<stop offset="0.48" stop-color="#AF15F4"/>
<stop offset="0.49" stop-color="#B115F5"/>
<stop offset="0.5" stop-color="#B314F5"/>
<stop offset="0.51" stop-color="#B514F6"/>
<stop offset="0.52" stop-color="#B714F7"/>
<stop offset="0.53" stop-color="#B913F7"/>
<stop offset="0.54" stop-color="#BB13F8"/>
<stop offset="0.55" stop-color="#BD12F8"/>
<stop offset="0.56" stop-color="#C012F9"/>
<stop offset="0.57" stop-color="#C212FA"/>
<stop offset="0.58" stop-color="#C411FA"/>
<stop offset="0.59" stop-color="#C611FB"/>
<stop offset="0.6" stop-color="#C811FC"/>
<stop offset="0.61" stop-color="#CA10FC"/>
<stop offset="0.62" stop-color="#CC10FD"/>
<stop offset="0.63" stop-color="#CE0FFD"/>
<stop offset="0.64" stop-color="#D00FFE"/>
<stop offset="0.65" stop-color="#D10FFD"/>
<stop offset="0.66" stop-color="#D20EFD"/>
<stop offset="0.67" stop-color="#D30EFC"/>
<stop offset="0.68" stop-color="#D40EFB"/>
<stop offset="0.69" stop-color="#D50EFA"/>
<stop offset="0.7" stop-color="#D50DFA"/>
<stop offset="0.71" stop-color="#D60DF9"/>
<stop offset="0.72" stop-color="#D70DF8"/>
<stop offset="0.73" stop-color="#D80DF7"/>
<stop offset="0.74" stop-color="#D90CF7"/>
<stop offset="0.75" stop-color="#DA0CF6"/>
<stop offset="0.76" stop-color="#DB0CF5"/>
<stop offset="0.77" stop-color="#DC0BF4"/>
<stop offset="0.78" stop-color="#DD0BF4"/>
<stop offset="0.79" stop-color="#DE0BF3"/>
<stop offset="0.8" stop-color="#DF0BF2"/>
<stop offset="0.81" stop-color="#E00AF1"/>
<stop offset="0.82" stop-color="#E00AF1"/>
<stop offset="0.83" stop-color="#E10AF0"/>
<stop offset="0.84" stop-color="#E209EF"/>
<stop offset="0.85" stop-color="#E309EE"/>
<stop offset="0.86" stop-color="#E409EE"/>
<stop offset="0.87" stop-color="#E509ED"/>
<stop offset="0.88" stop-color="#E608EC"/>
<stop offset="0.89" stop-color="#E708EB"/>
<stop offset="0.9" stop-color="#E808EB"/>
<stop offset="0.91" stop-color="#E908EA"/>
<stop offset="0.92" stop-color="#EA07E9"/>
<stop offset="0.93" stop-color="#EB07E8"/>
<stop offset="0.94" stop-color="#EB07E8"/>
<stop offset="0.95" stop-color="#EC06E7"/>
<stop offset="0.96" stop-color="#ED06E6"/>
<stop offset="0.97" stop-color="#EE06E5"/>
<stop offset="0.98" stop-color="#EF06E5"/>
<stop offset="0.99" stop-color="#F005E4"/>
<stop offset="1" stop-color="#F105E3"/>
</linearGradient>
</defs>
</svg>
