<svg width="63" height="63" viewBox="0 0 63 63" fill="none" xmlns="http://www.w3.org/2000/svg">
<ellipse cx="31.0945" cy="31.3487" rx="31.0945" ry="31.3487" fill="#D4C7FF"/>
<path d="M21 27.3333H27C28.1045 27.3333 29 26.4378 29 25.3333V19.3333" stroke="#5027D9" stroke-width="1.8125"/>
<path fill-rule="evenodd" clip-rule="evenodd" d="M26.1379 18.9763C26.763 18.3512 27.6109 18 28.4949 18H34.9998C36.8408 18 38.3332 19.4924 38.3332 21.3333V38.6667C38.3332 40.5076 36.8408 42 34.9998 42H22.9998C21.1589 42 19.6665 40.5076 19.6665 38.6667V26.8284C19.6665 25.9444 20.0177 25.0965 20.6428 24.4714L26.1379 18.9763ZM28.4949 20.6667C28.3181 20.6667 28.1485 20.7369 28.0236 20.8619L22.5284 26.357C22.4034 26.4821 22.3332 26.6516 22.3332 26.8284V38.6667C22.3332 39.0348 22.6317 39.3333 22.9998 39.3333H34.9998C35.368 39.3333 35.6665 39.0348 35.6665 38.6667V21.3333C35.6665 20.9651 35.368 20.6667 34.9998 20.6667H28.4949Z" fill="#5027D9"/>
<path d="M26.3335 33.3334H31.6668M29.0002 30.6667V36.0001" stroke="#5027D9" stroke-width="1.8125" stroke-linecap="round" stroke-linejoin="round"/>
</svg>
