<svg width="63" height="63" viewBox="0 0 63 63" fill="none" xmlns="http://www.w3.org/2000/svg">
<ellipse cx="31.0945" cy="31.3487" rx="31.0945" ry="31.3487" fill="#D4C7FF"/>
<path d="M39.7377 23.1398H38.5078V21.9169C38.5078 21.0518 37.8043 20.3484 36.9393 20.3484H21.2662C20.4012 20.3484 19.6978 21.0518 19.6978 21.9169V38.2888C19.6978 39.1538 20.4012 39.8573 21.2662 39.8573H22.4961V41.0856C22.4961 41.9491 23.198 42.651 24.0607 42.651H39.7377C40.6004 42.651 41.3023 41.9491 41.3023 41.0856V24.7129C41.3031 23.8456 40.6004 23.1398 39.7377 23.1398ZM20.3541 38.288V21.9169C20.3541 21.4144 20.763 21.0055 21.2662 21.0055H36.9393C37.4418 21.0055 37.8515 21.4144 37.8515 21.9169V38.2888C37.8515 38.7913 37.4426 39.201 36.9393 39.201H21.2662C20.763 39.2002 20.3541 38.7913 20.3541 38.288ZM40.646 41.0856C40.646 41.5865 40.2386 41.9939 39.7377 41.9939H24.0607C23.5606 41.9939 23.1524 41.5865 23.1524 41.0856V39.8573H36.9393C37.8043 39.8573 38.5078 39.1538 38.5078 38.2888V23.7969H39.7377C40.2378 23.7969 40.646 24.2081 40.646 24.7137V41.0856Z" fill="#5027D9"/>
<path d="M25.7822 25.4248L24.0924 26.7861L23.5312 26.0711C23.4199 25.9281 23.2127 25.9033 23.0704 26.0154C22.9282 26.1275 22.9027 26.3339 23.0148 26.4761L23.7809 27.4532C23.8342 27.522 23.9146 27.5669 24.0019 27.5769C24.0143 27.5785 24.0267 27.5785 24.039 27.5785C24.114 27.5785 24.1859 27.553 24.2454 27.5058L26.1942 25.9358C26.3357 25.8221 26.3581 25.615 26.2437 25.4735C26.1316 25.3328 25.9237 25.312 25.7822 25.4248Z" fill="#5027D9"/>
<path d="M34.9345 26.1385L28.2509 26.1377C28.07 26.1377 27.9224 26.2846 27.9224 26.4662C27.9224 26.6479 28.0692 26.7948 28.2509 26.7948L34.9345 26.7955C35.1154 26.7955 35.263 26.6487 35.263 26.467C35.263 26.2853 35.1161 26.1385 34.9345 26.1385Z" fill="#5027D9"/>
<path d="M25.7819 29.061L24.0913 30.4223L23.5301 29.7072C23.418 29.5642 23.2116 29.5387 23.0686 29.6516C22.9256 29.7637 22.9008 29.9701 23.0137 30.1131L23.7798 31.0902C23.8331 31.159 23.9135 31.2038 24.0008 31.2139C24.0132 31.2154 24.0256 31.2154 24.038 31.2154C24.1129 31.2154 24.1848 31.1899 24.2444 31.1427L26.1932 29.5727C26.3346 29.4591 26.357 29.2519 26.2426 29.1105C26.1313 28.9698 25.9234 28.9481 25.7819 29.061Z" fill="#5027D9"/>
<path d="M34.9345 29.7754L28.2509 29.7747C28.07 29.7747 27.9224 29.9215 27.9224 30.1032C27.9224 30.2849 28.0692 30.4317 28.2509 30.4317L34.9345 30.4325C35.1154 30.4325 35.263 30.2856 35.263 30.104C35.263 29.9223 35.1161 29.7754 34.9345 29.7754Z" fill="#5027D9"/>
<path d="M25.7819 32.6981L24.0913 34.0594L23.5301 33.3444C23.418 33.2006 23.2116 33.1758 23.0686 33.2887C22.9256 33.4008 22.9008 33.6072 23.0137 33.7502L23.7798 34.7273C23.8331 34.7961 23.9135 34.8409 24.0008 34.851C24.0132 34.8525 24.0256 34.8525 24.038 34.8525C24.1129 34.8525 24.1848 34.827 24.2444 34.7799L26.1932 33.2099C26.3346 33.0962 26.357 32.889 26.2426 32.7476C26.1313 32.6069 25.9234 32.586 25.7819 32.6981Z" fill="#5027D9"/>
<path d="M34.9345 33.4124L28.2509 33.4116C28.07 33.4116 27.9224 33.5585 27.9224 33.7402C27.9224 33.9218 28.0692 34.0687 28.2509 34.0687L34.9345 34.0695C35.1154 34.0695 35.263 33.9226 35.263 33.7409C35.263 33.5593 35.1161 33.4124 34.9345 33.4124Z" fill="#5027D9"/>
</svg>
