<svg width="25" height="25" viewBox="0 0 25 25" fill="none" xmlns="http://www.w3.org/2000/svg">
<path d="M21.6063 4.0082H20.3765V2.78527C20.3765 1.92025 19.673 1.2168 18.808 1.2168H3.13488C2.26986 1.2168 1.56641 1.92025 1.56641 2.78527V19.1572C1.56641 20.0222 2.26986 20.7257 3.13488 20.7257H4.36476V21.954C4.36476 22.8175 5.06667 23.5194 5.92937 23.5194H21.6063C22.469 23.5194 23.1709 22.8175 23.1709 21.954V5.5813C23.1717 4.71397 22.469 4.0082 21.6063 4.0082ZM2.22271 19.1564V2.78527C2.22271 2.2828 2.63164 1.87387 3.13488 1.87387H18.808C19.3105 1.87387 19.7202 2.2828 19.7202 2.78527V19.1572C19.7202 19.6597 19.3112 20.0694 18.808 20.0694H3.13488C2.63164 20.0686 2.22271 19.6597 2.22271 19.1564ZM22.5146 21.954C22.5146 22.4549 22.1073 22.8623 21.6063 22.8623H5.92937C5.42922 22.8623 5.02106 22.4549 5.02106 21.954V20.7257H18.808C19.673 20.7257 20.3765 20.0222 20.3765 19.1572V4.66527H21.6063C22.1065 4.66527 22.5146 5.07652 22.5146 5.58208V21.954Z" fill="#5027D9"/>
<path d="M7.65087 6.29322L5.96104 7.65452L5.39982 6.93947C5.2885 6.79646 5.08133 6.77172 4.9391 6.88381C4.79686 6.9959 4.77135 7.2023 4.88344 7.34454L5.64951 8.32164C5.70285 8.39044 5.78324 8.43528 5.87059 8.44533C5.88296 8.44687 5.89533 8.44687 5.9077 8.44687C5.98268 8.44687 6.05457 8.42136 6.1141 8.37421L8.0629 6.80419C8.20436 6.69056 8.22678 6.48339 8.11237 6.34192C8.00028 6.20123 7.79234 6.18036 7.65087 6.29322Z" fill="#5027D9"/>
<path d="M16.8031 7.00675L10.1196 7.00598C9.93866 7.00598 9.79102 7.15286 9.79102 7.33452C9.79102 7.51618 9.93789 7.66305 10.1196 7.66305L16.8031 7.66383C16.984 7.66383 17.1317 7.51695 17.1317 7.33529C17.1317 7.15363 16.9848 7.00675 16.8031 7.00675Z" fill="#5027D9"/>
<path d="M7.65055 9.92951L5.95995 11.2908L5.39873 10.5758C5.28664 10.4327 5.08024 10.4072 4.93723 10.5201C4.79422 10.6322 4.76948 10.8386 4.88235 10.9816L5.64842 11.9587C5.70175 12.0275 5.78215 12.0723 5.8695 12.0824C5.88187 12.0839 5.89424 12.0839 5.90661 12.0839C5.98159 12.0839 6.05348 12.0584 6.113 12.0113L8.0618 10.4413C8.20327 10.3276 8.22569 10.1204 8.11128 9.97898C7.99996 9.83829 7.79202 9.81665 7.65055 9.92951Z" fill="#5027D9"/>
<path d="M16.8031 10.6437L10.1196 10.6429C9.93866 10.6429 9.79102 10.7898 9.79102 10.9715C9.79102 11.1531 9.93789 11.3 10.1196 11.3L16.8031 11.3008C16.984 11.3008 17.1317 11.1539 17.1317 10.9723C17.1317 10.7906 16.9848 10.6437 16.8031 10.6437Z" fill="#5027D9"/>
<path d="M7.65055 13.5666L5.95995 14.9279L5.39873 14.2129C5.28664 14.0691 5.08024 14.0444 4.93723 14.1572C4.79422 14.2693 4.76948 14.4757 4.88235 14.6187L5.64842 15.5958C5.70175 15.6646 5.78215 15.7095 5.8695 15.7195C5.88187 15.7211 5.89424 15.7211 5.90661 15.7211C5.98159 15.7211 6.05348 15.6956 6.113 15.6484L8.0618 14.0784C8.20327 13.9647 8.22569 13.7576 8.11128 13.6161C7.99996 13.4754 7.79202 13.4545 7.65055 13.5666Z" fill="#5027D9"/>
<path d="M16.8031 14.2809L10.1196 14.2802C9.93866 14.2802 9.79102 14.427 9.79102 14.6087C9.79102 14.7903 9.93789 14.9372 10.1196 14.9372L16.8031 14.938C16.984 14.938 17.1317 14.7911 17.1317 14.6095C17.1317 14.4278 16.9848 14.2809 16.8031 14.2809Z" fill="#5027D9"/>
</svg>
