<svg width="18" height="20" viewBox="0 0 18 20" fill="none" xmlns="http://www.w3.org/2000/svg">
<g clip-path="url(#clip0_4_2303)">
<path fill-rule="evenodd" clip-rule="evenodd" d="M9.00009 0C6.74075 0 4.90918 1.86548 4.90918 4.16667C4.90918 6.46785 6.74075 8.33333 9.00009 8.33333C11.2594 8.33333 13.091 6.46785 13.091 4.16667C13.091 1.86548 11.2594 0 9.00009 0ZM6.54554 4.16667C6.54554 2.78596 7.64448 1.66667 9.00009 1.66667C10.3557 1.66667 11.4546 2.78596 11.4546 4.16667C11.4546 5.54737 10.3557 6.66667 9.00009 6.66667C7.64448 6.66667 6.54554 5.54737 6.54554 4.16667Z" fill="white"/>
<path fill-rule="evenodd" clip-rule="evenodd" d="M8.6364 10C3.86663 10 0 13.9382 0 18.7963C0 19.4611 0.529118 20 1.18181 20H16.8182C17.4709 20 18 19.4611 18 18.7963C18 13.9382 14.1334 10 9.3636 10H8.6364ZM9.3636 11.6667C13.0769 11.6667 16.1149 14.6115 16.3492 18.3333H1.65089C1.88509 14.6115 4.92307 11.6667 8.6364 11.6667H9.3636Z" fill="white"/>
</g>
<defs>
<clipPath id="clip0_4_2303">
<rect width="18" height="20" fill="white"/>
</clipPath>
</defs>
</svg>
