<svg width="556" height="556" viewBox="0 0 556 556" fill="none" xmlns="http://www.w3.org/2000/svg">
<g clip-path="url(#clip0_23_537)">
<path d="M500.29 443.125H463.458V443.403H500.29V443.125Z" fill="#EBEBEB"/>
<path d="M368.316 446.143H358.649V446.421H368.316V446.143Z" fill="#EBEBEB"/>
<path d="M462.345 432.799H441.004V433.077H462.345V432.799Z" fill="#EBEBEB"/>
<path d="M106.365 434.667H58.334V434.945H106.365V434.667Z" fill="#EBEBEB"/>
<path d="M123.309 434.667H116.267V434.945H123.309V434.667Z" fill="#EBEBEB"/>
<path d="M250.364 439.363H146.196V439.641H250.364V439.363Z" fill="#EBEBEB"/>
<path d="M265.102 375.634H50.3756C46.8761 375.634 44.0283 372.786 44.0283 369.286V67.4539C44.0283 63.9545 46.8761 61.1066 50.3756 61.1066H265.102C268.6 61.1066 271.448 63.9545 271.448 67.4539V369.286C271.448 372.786 268.6 375.634 265.102 375.634ZM50.3756 61.3857C47.0285 61.3857 44.3063 64.1079 44.3063 67.455V369.287C44.3063 372.635 47.0285 375.357 50.3756 375.357H265.102C268.448 375.357 271.17 372.635 271.17 369.287V67.4539C271.17 64.1079 268.448 61.3846 265.102 61.3846L50.3756 61.3857Z" fill="#EBEBEB"/>
<path d="M505.624 375.634H290.898C287.4 375.634 284.552 372.786 284.552 369.286V67.4539C284.552 63.9545 287.4 61.1066 290.898 61.1066H505.624C509.125 61.1066 511.971 63.9545 511.971 67.4539V369.286C511.971 372.786 509.123 375.634 505.624 375.634ZM290.898 61.3857C287.552 61.3857 284.83 64.1079 284.83 67.455V369.287C284.83 372.635 287.552 375.357 290.898 375.357H505.624C508.971 375.357 511.693 372.635 511.693 369.287V67.4539C511.693 64.1079 508.971 61.3846 505.624 61.3846L290.898 61.3857Z" fill="#EBEBEB"/>
<path d="M556 425.227H0V425.505H556V425.227Z" fill="#EBEBEB"/>
<path d="M132.697 350.002C131.757 339.262 120.794 335.242 107.802 336.379C94.812 337.515 84.7128 343.379 85.6524 354.119L132.697 350.002Z" fill="#F0F0F0"/>
<path d="M107.374 331.471C113.403 330.943 115.328 325.85 114.8 319.821C114.273 313.792 111.493 309.11 105.463 309.639C99.4341 310.166 97.5092 315.259 98.0374 321.288C98.5645 327.317 101.345 331.999 107.374 331.471Z" fill="#F0F0F0"/>
<path d="M378.191 121.176C378.482 124.501 376.023 127.432 372.698 127.722C369.373 128.013 366.442 125.554 366.151 122.229C365.86 118.904 368.32 115.973 371.645 115.681C374.97 115.391 377.901 117.851 378.191 121.176Z" fill="#F5F5F5"/>
<path d="M411.633 118.25C411.924 121.575 409.464 124.506 406.139 124.796C402.814 125.088 399.883 122.628 399.592 119.303C399.3 115.978 401.76 113.047 405.085 112.756C408.411 112.465 411.341 114.925 411.633 118.25Z" fill="#F5F5F5"/>
<path d="M445.073 115.324C445.364 118.649 442.905 121.581 439.58 121.872C436.255 122.163 433.324 119.703 433.032 116.379C432.741 113.054 435.201 110.122 438.525 109.831C441.85 109.54 444.782 112 445.073 115.324Z" fill="#F5F5F5"/>
<path d="M381.174 155.262C381.465 158.587 379.005 161.518 375.68 161.809C372.355 162.101 369.424 159.641 369.133 156.316C368.841 152.991 371.301 150.06 374.626 149.77C377.952 149.477 380.883 151.936 381.174 155.262Z" fill="#F5F5F5"/>
<path d="M414.615 152.335C414.906 155.66 412.447 158.591 409.122 158.883C405.797 159.174 402.866 156.714 402.574 153.389C402.283 150.064 404.743 147.133 408.067 146.842C411.392 146.552 414.324 149.011 414.615 152.335Z" fill="#F5F5F5"/>
<path d="M448.056 149.409C448.348 152.734 445.888 155.666 442.563 155.956C439.238 156.247 436.307 153.787 436.016 150.462C435.724 147.138 438.184 144.206 441.509 143.915C444.834 143.626 447.765 146.086 448.056 149.409Z" fill="#F5F5F5"/>
<path d="M384.156 189.347C384.447 192.672 381.987 195.603 378.663 195.894C375.338 196.186 372.406 193.726 372.116 190.401C371.825 187.076 374.285 184.145 377.609 183.854C380.933 183.562 383.864 186.022 384.156 189.347Z" fill="#F5F5F5"/>
<path d="M417.597 186.421C417.889 189.746 415.429 192.677 412.104 192.969C408.779 193.26 405.848 190.8 405.557 187.475C405.265 184.151 407.725 181.219 411.05 180.929C414.375 180.637 417.306 183.096 417.597 186.421Z" fill="#F5F5F5"/>
<path d="M451.037 183.496C451.328 186.82 448.868 189.752 445.544 190.042C442.219 190.332 439.287 187.874 438.996 184.549C438.705 181.224 441.164 178.293 444.489 178.002C447.815 177.711 450.747 180.171 451.037 183.496Z" fill="#F5F5F5"/>
<path d="M443.813 185.458L375.107 191.47L436.024 117.447L373.608 122.908C372.878 122.972 372.235 122.432 372.172 121.703C372.109 120.973 372.648 120.331 373.377 120.267L442.083 114.256L381.166 188.278L443.582 182.817C444.312 182.754 444.955 183.293 445.018 184.022C445.081 184.751 444.542 185.395 443.813 185.458Z" fill="#E6E6E6"/>
<path d="M444.866 317.594C444.639 316.939 444.053 316.453 443.362 316.407C440.21 316.196 437.548 315.017 435.441 312.901C432.693 310.142 431.077 305.943 430.816 300.958C430.767 300.03 429.989 299.306 429.059 299.3C428.029 299.294 427.209 300.163 427.264 301.191C427.581 307.038 429.558 312.038 432.919 315.413C435.544 318.05 438.93 319.594 442.789 319.931C442.856 319.937 442.942 319.945 443.043 319.952C444.322 320.054 445.287 318.806 444.866 317.594Z" fill="#F0F0F0"/>
<path d="M441.313 338.938C426.575 337.648 415.947 327.603 412.584 311.928C412.369 310.929 413.006 309.944 414.014 309.77C414.944 309.609 415.854 310.198 416.051 311.122C419.064 325.219 428.525 334.246 441.622 335.393C455.986 336.649 471.413 327.199 474.176 303.376C474.288 302.411 475.13 301.698 476.098 301.782C477.088 301.869 477.831 302.753 477.715 303.741C475.067 326.202 460.298 340.599 441.313 338.938Z" fill="#F0F0F0"/>
<path d="M413.509 296.306C412.518 296.219 411.775 295.335 411.892 294.348C414.541 271.885 429.31 257.489 448.294 259.149C464.929 260.605 476.144 273.058 477.891 291.818C477.984 292.809 477.215 293.671 476.222 293.73H476.219C475.25 293.788 474.433 293.056 474.341 292.091C472.737 275.19 462.756 263.987 447.983 262.694C433.619 261.438 418.193 270.887 415.429 294.711C415.318 295.677 414.476 296.39 413.509 296.306Z" fill="#F0F0F0"/>
<path d="M442.037 329.41C439.297 329.17 436.728 328.53 434.369 327.5C433.409 327.08 433.013 325.925 433.515 325.005C433.952 324.204 434.927 323.857 435.762 324.225C437.98 325.199 440.431 325.772 443.072 325.916C453.966 326.54 465.464 318.824 466.59 300.18C467.284 288.697 463.351 279.422 456.007 274.986C455.22 274.511 454.928 273.515 455.334 272.69C455.795 271.753 456.965 271.407 457.859 271.946C466.357 277.077 470.92 287.545 470.143 300.395C469.057 318.372 457.84 330.328 442.867 329.471C442.59 329.453 442.312 329.433 442.037 329.41Z" fill="#F0F0F0"/>
<path d="M426.192 318.319C425.332 318.907 424.155 318.632 423.632 317.73C420.48 312.276 419.005 305.245 419.462 297.694C420.502 280.496 430.813 268.808 444.814 268.578C445.852 268.561 446.692 269.43 446.633 270.467V270.472C446.58 271.396 445.827 272.123 444.902 272.141C434.519 272.345 424.087 280.194 423.016 297.908C422.6 304.785 423.916 311.131 426.736 315.984C427.199 316.781 426.954 317.798 426.192 318.319Z" fill="#F0F0F0"/>
<path d="M450.505 316.864C450.142 316.04 450.459 315.089 451.231 314.624C455.907 311.808 458.779 305.899 458.828 298.777C458.867 293.071 457.211 288.245 454.166 285.187C451.817 282.827 448.78 281.64 445.141 281.646C439.658 281.661 435.219 284.664 432.76 289.95C432.373 290.781 431.41 291.175 430.548 290.858C429.568 290.498 429.102 289.369 429.545 288.424C432.587 281.931 438.295 278.105 445.131 278.086C449.689 278.079 453.686 279.661 456.688 282.675C460.408 286.411 462.432 292.137 462.387 298.8C462.33 307.206 458.789 314.251 453.023 317.7C452.115 318.242 450.931 317.833 450.505 316.864Z" fill="#F0F0F0"/>
<path d="M437.693 303.791C436.683 304.196 435.552 303.609 435.293 302.551C435.175 302.069 435.077 301.573 435 301.063C433.994 294.409 437.571 288.614 443.321 287.587C446.289 287.054 448.936 287.752 450.958 289.558C451.779 290.292 451.716 291.601 450.821 292.243L450.709 292.321C450.035 292.804 449.147 292.695 448.519 292.155C447.312 291.119 445.78 290.761 443.947 291.089C439.565 291.873 437.899 296.432 438.52 300.53C438.58 300.929 438.655 301.316 438.746 301.688C438.958 302.561 438.526 303.455 437.693 303.791Z" fill="#F0F0F0"/>
<path d="M443.574 310.637C443.57 310.637 443.564 310.636 443.559 310.636C442.333 310.527 441.656 309.153 442.31 308.109L442.461 307.867C442.789 307.345 443.375 307.057 443.991 307.1C444.518 307.136 445.076 307.102 445.66 306.998C449.486 306.313 451.242 302.75 451.212 299.129C451.204 298.225 451.831 297.444 452.723 297.31C453.768 297.152 454.754 297.928 454.774 298.985C454.88 304.787 451.464 309.576 446.286 310.502C445.352 310.668 444.444 310.714 443.574 310.637Z" fill="#F0F0F0"/>
<path d="M444.364 304.067C442.469 303.902 441.057 302.625 440.544 300.803C440.247 299.746 441.134 298.723 442.226 298.819L442.634 298.854C443.268 298.91 443.79 299.344 444.002 299.944C444.105 300.238 444.303 300.489 444.673 300.521C445.528 300.596 445.678 299.369 445.701 299.122C445.716 298.947 445.753 298.265 445.462 297.864C445.176 297.47 444.98 297.02 445.022 296.535C445.161 294.952 447.161 294.316 448.169 295.544C448.971 296.52 449.382 297.887 449.247 299.433C448.992 302.343 446.938 304.293 444.364 304.067Z" fill="#F0F0F0"/>
<path d="M410.923 264.27C409.943 264.185 409.219 263.322 409.305 262.342L410.654 246.923L426.073 248.272C427.052 248.357 427.776 249.22 427.691 250.2C427.605 251.18 426.742 251.904 425.762 251.818L413.889 250.779L412.851 262.652C412.765 263.632 411.901 264.356 410.923 264.27Z" fill="#F0F0F0"/>
<path d="M484.234 270.684C483.255 270.599 482.531 269.736 482.616 268.756L483.655 256.883L471.782 255.845C470.802 255.759 470.078 254.896 470.164 253.916C470.25 252.937 471.113 252.213 472.092 252.298L487.511 253.647L486.162 269.066C486.077 270.046 485.214 270.77 484.234 270.684Z" fill="#F0F0F0"/>
<path d="M478.768 353.583L463.349 352.234C462.37 352.148 461.646 351.285 461.731 350.306C461.817 349.326 462.68 348.602 463.66 348.688L475.532 349.726L476.571 337.853C476.657 336.874 477.52 336.15 478.499 336.235C479.479 336.321 480.203 337.184 480.117 338.164L478.768 353.583Z" fill="#F0F0F0"/>
<path d="M417.328 348.207L401.909 346.858L403.258 331.439C403.344 330.46 404.207 329.736 405.186 329.821C406.166 329.907 406.89 330.77 406.804 331.75L405.766 343.622L417.638 344.661C418.618 344.747 419.342 345.61 419.256 346.589C419.171 347.569 418.308 348.293 417.328 348.207Z" fill="#F0F0F0"/>
<path d="M83.0999 314.836C82.4983 314.888 81.9668 314.444 81.9145 313.841L81.085 304.361L90.5648 303.532C91.1675 303.479 91.6979 303.924 91.7502 304.527C91.8024 305.128 91.3576 305.66 90.7549 305.712L83.4546 306.35L84.0929 313.651C84.1474 314.253 83.7015 314.784 83.0999 314.836Z" fill="#E0E0E0"/>
<path d="M128.176 310.893C127.574 310.945 127.043 310.5 126.99 309.898L126.352 302.597L119.052 303.236C118.45 303.288 117.919 302.843 117.866 302.24C117.814 301.639 118.259 301.107 118.862 301.055L128.342 300.226L129.171 309.705C129.223 310.309 128.779 310.841 128.176 310.893Z" fill="#E0E0E0"/>
<path d="M132.846 351.714L123.366 352.544C122.765 352.596 122.233 352.151 122.181 351.549C122.129 350.947 122.573 350.416 123.176 350.363L130.476 349.725L129.838 342.425C129.786 341.822 130.231 341.292 130.833 341.239C131.435 341.187 131.967 341.632 132.019 342.235L132.846 351.714Z" fill="#E0E0E0"/>
<path d="M95.0694 355.019L85.5896 355.849L84.76 346.368C84.7078 345.766 85.1526 345.235 85.7553 345.183C86.3569 345.13 86.8884 345.575 86.9407 346.178L87.579 353.478L94.8792 352.84C95.4808 352.788 96.0124 353.232 96.0646 353.835C96.1169 354.436 95.671 354.966 95.0694 355.019Z" fill="#E0E0E0"/>
<path d="M127.416 156.734L91.1306 159.909L90.3878 151.418C89.6172 142.608 96.1568 134.816 104.965 134.045C113.774 133.274 121.567 139.814 122.338 148.622L122.769 153.556L128.005 153.098L127.573 148.164C126.55 136.468 116.203 127.787 104.507 128.81C92.8108 129.833 84.1294 140.18 85.1525 151.876L85.8997 160.416C81.6775 161.239 78.6717 165.133 79.0543 169.513L81.6463 199.14C82.0567 203.825 86.1866 207.29 90.8715 206.881L131.493 203.327C136.178 202.918 139.643 198.788 139.233 194.103L136.641 164.476C136.231 159.79 132.101 156.324 127.416 156.734ZM112.003 179.564L112.896 189.765C113.043 191.44 111.804 192.915 110.129 193.062C108.454 193.209 106.979 191.97 106.832 190.295L105.939 180.094C104.607 179.273 103.656 177.869 103.509 176.19C103.263 173.371 105.349 170.885 108.168 170.639C110.986 170.392 113.472 172.478 113.719 175.297C113.864 176.975 113.172 178.524 112.003 179.564Z" fill="#EBEBEB"/>
<path d="M189.535 173.909L185.866 167.929C183.879 168.203 182.253 168.203 180.266 167.929L176.598 173.909L175.894 173.722C173.53 173.094 171.249 172.147 169.116 170.909L168.486 170.543L170.041 164.051C170.167 163.525 170.695 163.202 171.221 163.327C171.747 163.453 172.071 163.981 171.944 164.507L170.73 169.571C172.314 170.434 173.98 171.126 175.697 171.635L179.28 165.793L179.928 165.898C182.005 166.237 184.125 166.237 186.202 165.898L186.85 165.793L190.433 171.635C192.15 171.125 193.816 170.434 195.4 169.571L193.806 162.916L194.34 162.533C195.794 161.488 197.091 160.253 198.204 158.855C198.534 158.439 199.122 158.341 199.553 158.651C200 158.973 200.104 159.606 199.763 160.038C198.669 161.419 197.412 162.656 196.013 163.728L197.647 170.543L197.017 170.909C194.884 172.147 192.604 173.094 190.24 173.722L189.535 173.909ZM167.05 160.853C166.742 160.501 166.444 160.138 166.158 159.765L159.342 161.398L158.976 160.769C157.738 158.636 156.791 156.355 156.162 153.991L155.976 153.287L161.956 149.618C161.818 148.622 161.751 147.701 161.751 146.818C161.751 145.937 161.819 145.015 161.956 144.018L155.976 140.351L156.162 139.647C156.791 137.283 157.738 135.002 158.976 132.87L159.342 132.24L166.157 133.873C167.299 132.382 168.628 131.055 170.118 129.912L168.881 124.754C168.756 124.229 169.079 123.702 169.603 123.577L169.606 123.575C170.131 123.45 170.658 123.773 170.784 124.297L172.323 130.722L171.785 131.109C170.077 132.339 168.579 133.837 167.35 135.545L166.967 136.078L160.311 134.483C159.449 136.068 158.759 137.733 158.249 139.45L164.089 143.032L163.983 143.68C163.796 144.827 163.705 145.853 163.705 146.817C163.705 147.784 163.796 148.809 163.983 149.954L164.089 150.601L158.247 154.185C158.757 155.904 159.448 157.568 160.31 159.153L166.965 157.558L167.349 158.091C167.711 158.593 168.099 159.082 168.508 159.55C168.848 159.939 168.839 160.521 168.467 160.88L168.431 160.914C168.04 161.296 167.41 161.264 167.05 160.853ZM206.79 161.399L204.276 160.797C203.75 160.672 203.427 160.144 203.552 159.618C203.678 159.093 204.206 158.768 204.732 158.894L205.818 159.154C206.679 157.569 207.37 155.904 207.88 154.187L202.039 150.603L202.145 149.955C202.332 148.81 202.423 147.784 202.423 146.818C202.423 145.853 202.332 144.828 202.145 143.682L202.039 143.033L207.879 139.451C207.37 137.733 206.678 136.069 205.817 134.484L199.161 136.079L198.778 135.546C197.549 133.838 196.051 132.34 194.343 131.11L193.805 130.723L195.399 124.068C193.815 123.206 192.149 122.515 190.432 122.004L186.849 127.846L186.201 127.741C184.123 127.404 182.003 127.404 179.925 127.741L179.278 127.846L175.695 122.005C175.472 122.071 175.25 122.141 175.027 122.213C174.532 122.376 173.998 122.109 173.819 121.619C173.63 121.105 173.898 120.524 174.418 120.354C174.906 120.194 175.399 120.048 175.889 119.918L176.594 119.73L180.263 125.712C182.259 125.435 183.866 125.435 185.862 125.712L189.53 119.73L190.235 119.917C192.599 120.546 194.88 121.494 197.013 122.73L197.642 123.096L196.009 129.913C197.499 131.056 198.828 132.384 199.97 133.874L206.785 132.241L207.151 132.871C208.389 135.003 209.336 137.284 209.964 139.648L210.151 140.352L204.171 144.02C204.309 145.016 204.375 145.938 204.375 146.82C204.375 147.703 204.308 148.623 204.171 149.62L210.151 153.288L209.964 153.992C209.336 156.356 208.389 158.637 207.151 160.77L206.79 161.399ZM182.791 156.347C177.823 156.207 173.68 152.066 173.537 147.098C173.394 142.09 177.136 137.908 181.965 137.351C182.549 137.283 183.066 137.74 183.066 138.328C183.066 138.822 182.698 139.237 182.208 139.292C177.949 139.775 174.749 143.803 175.641 148.344C176.221 151.293 178.597 153.67 181.547 154.246C186.388 155.192 190.642 151.493 190.642 146.818C190.642 145.254 190.16 143.739 189.271 142.471C188.991 142.07 189.066 141.523 189.433 141.2C189.873 140.811 190.558 140.893 190.892 141.374C191.999 142.964 192.599 144.86 192.599 146.818C192.597 152.166 188.172 156.498 182.791 156.347Z" fill="#F0F0F0"/>
<path d="M120.445 255.306L118.076 251.443C116.792 251.621 115.741 251.621 114.458 251.443L112.089 255.306L111.634 255.185C110.106 254.779 108.632 254.168 107.255 253.367L106.848 253.13L107.853 248.936C107.934 248.597 108.275 248.386 108.615 248.469C108.954 248.55 109.163 248.891 109.082 249.23L108.298 252.502C109.322 253.059 110.397 253.506 111.507 253.835L113.821 250.061L114.24 250.13C115.582 250.349 116.951 250.349 118.293 250.13L118.713 250.061L121.028 253.835C122.138 253.506 123.213 253.059 124.237 252.502L123.206 248.203L123.551 247.955C124.491 247.28 125.328 246.481 126.047 245.579C126.261 245.311 126.641 245.247 126.919 245.447C127.207 245.655 127.275 246.064 127.055 246.344C126.348 247.235 125.536 248.035 124.632 248.728L125.687 253.13L125.28 253.367C123.902 254.167 122.429 254.778 120.901 255.185L120.445 255.306ZM105.919 246.873C105.72 246.645 105.528 246.411 105.343 246.17L100.94 247.225L100.704 246.818C99.9043 245.441 99.2927 243.967 98.8868 242.439L98.7656 241.985L102.629 239.615C102.54 238.971 102.496 238.376 102.496 237.806C102.496 237.236 102.54 236.64 102.629 235.996L98.7656 233.627L98.8868 233.172C99.2927 231.644 99.9043 230.172 100.704 228.793L100.94 228.386L105.343 229.441C106.08 228.478 106.939 227.621 107.902 226.882L107.103 223.551C107.022 223.212 107.231 222.871 107.569 222.79L107.572 222.789C107.911 222.708 108.251 222.917 108.332 223.256L109.326 227.407L108.978 227.658C107.875 228.451 106.908 229.419 106.114 230.523L105.866 230.868L101.566 229.838C101.01 230.862 100.563 231.938 100.233 233.047L104.006 235.361L103.939 235.781C103.817 236.521 103.76 237.184 103.76 237.808C103.76 238.432 103.819 239.094 103.939 239.835L104.008 240.253L100.235 242.568C100.564 243.678 101.011 244.753 101.567 245.778L105.867 244.748L106.115 245.093C106.348 245.417 106.599 245.733 106.863 246.036C107.083 246.287 107.077 246.663 106.837 246.894L106.813 246.916C106.559 247.158 106.153 247.138 105.919 246.873ZM131.592 247.224L129.968 246.836C129.629 246.755 129.419 246.414 129.5 246.074C129.581 245.735 129.923 245.526 130.262 245.607L130.964 245.775C131.52 244.751 131.967 243.676 132.296 242.566L128.523 240.251L128.592 239.833C128.712 239.093 128.771 238.429 128.771 237.806C128.771 237.182 128.712 236.519 128.592 235.778L128.524 235.359L132.297 233.045C131.968 231.935 131.521 230.86 130.965 229.836L126.665 230.866L126.417 230.521C125.623 229.418 124.655 228.449 123.552 227.655L123.204 227.405L124.235 223.105C123.211 222.548 122.135 222.102 121.026 221.772L118.712 225.545L118.293 225.477C116.951 225.259 115.582 225.259 114.239 225.477L113.821 225.545L111.507 221.772C111.363 221.814 111.219 221.86 111.077 221.906C110.756 222.011 110.412 221.838 110.296 221.523C110.174 221.19 110.347 220.815 110.683 220.705C110.999 220.602 111.317 220.507 111.633 220.424L112.089 220.303L114.458 224.167C115.748 223.988 116.786 223.988 118.076 224.167L120.445 220.303L120.9 220.424C122.427 220.831 123.9 221.443 125.279 222.241L125.686 222.478L124.631 226.881C125.594 227.62 126.451 228.477 127.189 229.44L131.593 228.385L131.829 228.792C132.628 230.17 133.24 231.643 133.646 233.171L133.767 233.626L129.904 235.995C129.993 236.639 130.036 237.234 130.036 237.805C130.036 238.375 129.993 238.97 129.904 239.614L133.767 241.983L133.646 242.438C133.24 243.966 132.628 245.44 131.829 246.817L131.592 247.224ZM116.089 243.961C112.879 243.871 110.204 241.195 110.111 237.985C110.018 234.75 112.435 232.048 115.556 231.687C115.933 231.644 116.266 231.94 116.266 232.319C116.266 232.638 116.028 232.906 115.711 232.942C112.96 233.253 110.893 235.855 111.469 238.79C111.843 240.695 113.378 242.23 115.284 242.603C118.411 243.214 121.16 240.825 121.16 237.805C121.16 236.794 120.849 235.815 120.275 234.996C120.094 234.738 120.143 234.383 120.38 234.174C120.664 233.923 121.106 233.976 121.323 234.287C122.038 235.315 122.426 236.539 122.426 237.805C122.423 241.26 119.564 244.06 116.089 243.961Z" fill="#E6E6E6"/>
<path d="M278 474.842C397.075 474.842 493.605 469.205 493.605 462.251C493.605 455.297 397.075 449.659 278 449.659C158.925 449.659 62.3955 455.297 62.3955 462.251C62.3955 469.205 158.925 474.842 278 474.842Z" fill="#F5F5F5"/>
<path d="M404.156 162.16H367.948L342.338 454.893H378.546C388.843 454.893 397.952 446.516 398.853 436.219L421.196 180.833C422.097 170.536 414.453 162.16 404.156 162.16Z" fill="#407BFF"/>
<path d="M396.768 162.16H274.227C263.93 162.16 254.82 170.536 253.919 180.833L231.576 436.219C230.675 446.516 238.319 454.893 248.616 454.893H371.158C381.455 454.893 390.564 446.516 391.465 436.219L413.808 180.833C414.709 170.536 407.065 162.16 396.768 162.16Z" fill="#407BFF"/>
<path opacity="0.3" d="M396.768 162.16H274.227C263.93 162.16 254.82 170.536 253.919 180.833L231.576 436.219C230.675 446.516 238.319 454.893 248.616 454.893H371.158C381.455 454.893 390.564 446.516 391.465 436.219L413.808 180.833C414.709 170.536 407.065 162.16 396.768 162.16Z" fill="white"/>
<path opacity="0.4" d="M396.244 168.142H363.936C362.03 168.142 360.24 169.393 359.534 171.219C356.922 177.969 350.308 182.592 343.262 182.592H324.157C317.112 182.592 311.305 177.968 309.874 171.219C309.487 169.393 307.916 168.143 306.01 168.143H273.702C266.693 168.143 260.515 173.824 259.901 180.833L237.558 436.219C236.945 443.228 242.129 448.909 249.138 448.909H371.68C378.689 448.909 384.867 443.228 385.481 436.219L407.824 180.833C408.437 173.824 403.253 168.142 396.244 168.142Z" fill="white"/>
<path d="M365.718 306.865H279.956C277.413 306.865 275.533 304.804 275.755 302.262L276.184 297.354C276.407 294.811 278.649 292.751 281.192 292.751H366.954C369.497 292.751 371.377 294.812 371.155 297.354L370.726 302.262C370.503 304.804 368.261 306.865 365.718 306.865Z" fill="white"/>
<path d="M363.866 328.038H278.104C275.561 328.038 273.68 325.976 273.903 323.434L274.332 318.527C274.554 315.984 276.796 313.923 279.339 313.923H365.101C367.644 313.923 369.525 315.985 369.302 318.527L368.873 323.434C368.651 325.976 366.409 328.038 363.866 328.038Z" fill="white"/>
<path opacity="0.1" d="M339.66 172.926C339.413 175.746 336.928 178.031 334.108 178.031C331.288 178.031 329.203 175.746 329.45 172.926C329.696 170.106 332.182 167.821 335.002 167.821C337.821 167.821 339.907 170.106 339.66 172.926Z" fill="black"/>
<path opacity="0.1" d="M337.345 172.926C337.21 174.466 335.852 175.715 334.311 175.715C332.771 175.715 331.631 174.466 331.766 172.926C331.9 171.386 333.258 170.137 334.799 170.137C336.34 170.137 337.479 171.386 337.345 172.926Z" fill="black"/>
<g opacity="0.8">
<path d="M381.158 181.442C380.332 181.442 379.721 180.772 379.793 179.946L380.032 177.212C380.104 176.385 380.833 175.716 381.659 175.716C382.485 175.716 383.097 176.385 383.024 177.212L382.785 179.946C382.713 180.772 381.985 181.442 381.158 181.442Z" fill="white"/>
<path d="M393.126 181.442C392.3 181.442 391.688 180.772 391.761 179.946L392.322 173.529C392.395 172.702 393.123 172.033 393.949 172.033C394.775 172.033 395.387 172.702 395.315 173.529L394.753 179.946C394.681 180.772 393.952 181.442 393.126 181.442Z" fill="white"/>
<path d="M387.142 181.442C386.316 181.442 385.704 180.772 385.776 179.946L386.177 175.37C386.249 174.544 386.977 173.875 387.803 173.875C388.63 173.875 389.241 174.544 389.169 175.37L388.769 179.946C388.696 180.772 387.968 181.442 387.142 181.442Z" fill="white"/>
</g>
<g opacity="0.8">
<path d="M278.706 181.442H271.194C270.726 181.442 270.38 181.063 270.421 180.594L270.774 176.561C270.815 176.093 271.227 175.714 271.695 175.714H279.206C279.674 175.714 280.02 176.093 279.979 176.561L279.626 180.594C279.585 181.063 279.174 181.442 278.706 181.442Z" fill="white"/>
<path d="M282.188 180.347C281.72 180.347 281.374 179.968 281.415 179.5L281.577 177.655C281.618 177.187 282.03 176.808 282.497 176.808C282.966 176.808 283.311 177.187 283.27 177.655L283.109 179.5C283.069 179.968 282.656 180.347 282.188 180.347Z" fill="white"/>
</g>
<path d="M351.601 274.61C366.564 260.286 368.055 237.56 354.931 223.849C341.807 210.138 319.037 210.635 304.073 224.959C289.11 239.282 287.619 262.009 300.743 275.719C313.867 289.43 336.637 288.933 351.601 274.61Z" fill="white"/>
<path d="M327.952 248.397C318.516 248.397 310.552 251.987 309.871 259.788L309.113 268.445H343.284L344.041 259.788C344.723 251.987 337.388 248.397 327.952 248.397Z" fill="#407BFF"/>
<path d="M328.264 244.832C332.643 244.832 334.663 241.283 335.045 236.904C335.429 232.525 334.03 228.975 329.651 228.975C325.272 228.975 323.252 232.525 322.869 236.904C322.486 241.283 323.885 244.832 328.264 244.832Z" fill="#407BFF"/>
<path d="M361.803 299.555C359.472 299.555 357.505 300.441 357.337 302.368L357.15 304.507H365.591L365.777 302.368C365.945 300.441 364.134 299.555 361.803 299.555Z" fill="#407BFF"/>
<path d="M361.879 298.674C362.961 298.674 363.459 297.797 363.554 296.716C363.648 295.634 363.304 294.758 362.222 294.758C361.14 294.758 360.642 295.635 360.547 296.716C360.453 297.798 360.798 298.674 361.879 298.674Z" fill="#407BFF"/>
<path d="M335.817 349.21H302.447C298.549 349.21 295.666 346.051 296.007 342.152C296.348 338.255 299.784 335.095 303.682 335.095H337.052C340.95 335.095 343.833 338.255 343.492 342.152C343.15 346.051 339.714 349.21 335.817 349.21Z" fill="#407BFF"/>
<path d="M331.792 427.918H296.078C291.959 427.918 288.912 424.578 289.272 420.459L291.551 394.411C291.911 390.292 295.542 386.953 299.66 386.953H335.375C339.493 386.953 342.54 390.292 342.18 394.411L339.901 420.459C339.541 424.578 335.91 427.918 331.792 427.918Z" fill="#407BFF"/>
<g opacity="0.6">
<path d="M320.777 400.991C320.994 398.512 319.161 396.502 316.682 396.502C314.203 396.502 312.018 398.512 311.801 400.991C311.672 402.466 312.281 403.765 313.309 404.582L312.524 413.552C312.395 415.024 313.484 416.217 314.956 416.217C316.428 416.217 317.726 415.024 317.855 413.552L318.64 404.582C319.813 403.765 320.648 402.467 320.777 400.991Z" fill="white"/>
</g>
<path d="M335.691 392.375H331.088L332.216 379.487C332.893 371.742 327.144 365.441 319.399 365.441C311.654 365.441 304.802 371.742 304.125 379.487L302.997 392.375H298.395L299.522 379.487C300.422 369.204 309.519 360.838 319.802 360.838C330.084 360.838 337.718 369.204 336.819 379.487L335.691 392.375Z" fill="#407BFF"/>
<path d="M362.368 319.293L362.476 318.056C362.587 316.792 361.649 315.765 360.384 315.765C359.12 315.765 358.003 316.793 357.893 318.056L357.785 319.293C357.28 319.293 356.835 319.702 356.792 320.207L356.504 323.494C356.459 323.999 356.833 324.408 357.338 324.408H361.919C362.424 324.408 362.869 323.999 362.913 323.494L363.201 320.207C363.246 319.702 362.873 319.293 362.368 319.293ZM360.336 316.33C361.287 316.33 361.994 317.103 361.911 318.055L361.803 319.292H358.351L358.459 318.055C358.542 317.103 359.384 316.33 360.336 316.33Z" fill="#407BFF"/>
<path d="M293.398 320.61L291.799 320.279C291.61 320.24 291.512 320.041 291.591 319.855L292.257 318.28C292.401 317.942 291.989 317.692 291.73 317.96L290.522 319.205C290.378 319.353 290.148 319.353 290.031 319.205L289.04 317.96C288.828 317.693 288.373 317.942 288.457 318.28L288.847 319.855C288.894 320.041 288.761 320.24 288.564 320.279L286.908 320.61C286.552 320.681 286.508 321.18 286.852 321.251L288.451 321.581C288.64 321.62 288.738 321.819 288.659 322.006L287.993 323.581C287.849 323.919 288.261 324.169 288.52 323.901L289.729 322.656C289.872 322.508 290.102 322.508 290.219 322.656L291.21 323.901C291.422 324.169 291.877 323.919 291.794 323.581L291.403 322.006C291.357 321.819 291.489 321.62 291.686 321.581L293.343 321.251C293.699 321.18 293.742 320.68 293.398 320.61Z" fill="#263238"/>
<path d="M303.921 320.61L302.322 320.279C302.133 320.24 302.035 320.041 302.114 319.855L302.78 318.28C302.924 317.942 302.512 317.692 302.253 317.96L301.044 319.205C300.901 319.353 300.672 319.353 300.554 319.205L299.563 317.96C299.351 317.693 298.896 317.942 298.979 318.28L299.37 319.855C299.416 320.041 299.283 320.24 299.087 320.279L297.43 320.61C297.074 320.681 297.031 321.18 297.374 321.251L298.973 321.581C299.162 321.62 299.259 321.819 299.181 322.006L298.514 323.581C298.371 323.919 298.782 324.169 299.042 323.901L300.25 322.656C300.394 322.508 300.623 322.508 300.741 322.656L301.731 323.901C301.944 324.169 302.399 323.919 302.315 323.581L301.925 322.006C301.878 321.819 302.012 321.62 302.207 321.581L303.864 321.251C304.221 321.18 304.265 320.68 303.921 320.61Z" fill="#263238"/>
<path d="M314.444 320.61L312.845 320.279C312.656 320.24 312.558 320.041 312.637 319.855L313.304 318.28C313.447 317.942 313.036 317.692 312.776 317.96L311.568 319.205C311.424 319.353 311.194 319.353 311.077 319.205L310.086 317.96C309.874 317.693 309.419 317.942 309.503 318.28L309.893 319.855C309.94 320.041 309.807 320.24 309.611 320.279L307.954 320.61C307.598 320.681 307.554 321.18 307.897 321.251L309.496 321.581C309.685 321.62 309.783 321.819 309.704 322.006L309.038 323.581C308.894 323.919 309.306 324.169 309.565 323.901L310.774 322.656C310.917 322.508 311.147 322.508 311.264 322.656L312.255 323.901C312.467 324.169 312.922 323.919 312.839 323.581L312.448 322.006C312.402 321.819 312.534 321.62 312.731 321.581L314.388 321.251C314.745 321.18 314.788 320.68 314.444 320.61Z" fill="#263238"/>
<path d="M324.969 320.61L323.37 320.279C323.181 320.24 323.083 320.041 323.162 319.855L323.828 318.28C323.971 317.942 323.56 317.692 323.301 317.96L322.092 319.205C321.948 319.353 321.718 319.353 321.602 319.205L320.611 317.96C320.398 317.693 319.944 317.942 320.027 318.28L320.417 319.855C320.464 320.041 320.332 320.24 320.135 320.279L318.478 320.61C318.122 320.681 318.079 321.18 318.422 321.251L320.021 321.581C320.21 321.62 320.308 321.819 320.229 322.006L319.563 323.581C319.42 323.919 319.831 324.169 320.09 323.901L321.299 322.656C321.443 322.508 321.673 322.508 321.789 322.656L322.78 323.901C322.993 324.169 323.447 323.919 323.364 323.581L322.974 322.006C322.927 321.819 323.059 321.62 323.256 321.581L324.913 321.251C325.268 321.18 325.312 320.68 324.969 320.61Z" fill="#263238"/>
<path d="M335.491 320.61L333.892 320.279C333.703 320.24 333.605 320.041 333.684 319.855L334.35 318.28C334.494 317.942 334.082 317.692 333.823 317.96L332.615 319.205C332.471 319.353 332.241 319.353 332.124 319.205L331.133 317.96C330.921 317.693 330.466 317.942 330.55 318.28L330.94 319.855C330.987 320.041 330.854 320.24 330.657 320.279L329.001 320.61C328.645 320.681 328.601 321.18 328.944 321.251L330.543 321.581C330.732 321.62 330.83 321.819 330.751 322.006L330.085 323.581C329.942 323.919 330.353 324.169 330.612 323.901L331.821 322.656C331.964 322.508 332.193 322.508 332.311 322.656L333.302 323.901C333.514 324.169 333.969 323.919 333.886 323.581L333.495 322.006C333.449 321.819 333.582 321.62 333.778 321.581L335.435 321.251C335.79 321.18 335.835 320.68 335.491 320.61Z" fill="#263238"/>
<path d="M346.014 320.61L344.415 320.279C344.226 320.24 344.128 320.041 344.207 319.855L344.873 318.28C345.015 317.942 344.605 317.692 344.346 317.96L343.137 319.205C342.994 319.353 342.765 319.353 342.647 319.205L341.656 317.96C341.443 317.693 340.989 317.942 341.072 318.28L341.462 319.855C341.509 320.041 341.376 320.24 341.18 320.279L339.523 320.61C339.167 320.681 339.124 321.18 339.466 321.251L341.065 321.581C341.254 321.62 341.352 321.819 341.273 322.006L340.607 323.581C340.464 323.919 340.875 324.169 341.134 323.901L342.343 322.656C342.487 322.508 342.717 322.508 342.833 322.656L343.824 323.901C344.037 324.169 344.491 323.919 344.408 323.581L344.018 322.006C343.971 321.819 344.103 321.62 344.3 321.581L345.957 321.251C346.313 321.18 346.357 320.68 346.014 320.61Z" fill="#263238"/>
<path d="M320.648 297.585H300.89C299.662 297.585 298.58 298.58 298.473 299.807C298.365 301.035 299.273 302.03 300.501 302.03H320.259C321.486 302.03 322.568 301.035 322.676 299.807C322.784 298.58 321.876 297.585 320.648 297.585Z" fill="#263238"/>
<path d="M340.705 297.585H329.241C328.013 297.585 326.931 298.58 326.823 299.807C326.715 301.035 327.624 302.03 328.851 302.03H340.316C341.544 302.03 342.626 301.035 342.734 299.807C342.841 298.58 341.933 297.585 340.705 297.585Z" fill="#263238"/>
<path d="M355.841 398.39C348.391 401.364 341.861 405.703 337.39 410.637C334.769 408.406 331.043 406.857 326.576 406.149L326.052 406.066L325.823 408.689L326.116 408.799C330.525 410.465 334.113 413.42 336.494 417.345L336.868 417.962L337.281 417.3C341.863 409.965 348.544 403.821 356.092 399.998L356.348 399.867L356.5 398.124L355.841 398.39Z" fill="#263238"/>
<path opacity="0.2" d="M256.477 179.448C255.088 181.891 254.172 184.616 253.918 187.504L237.358 376.79H288.596L298.891 337.322L295.503 297.854L305.798 258.385L302.409 218.917L312.704 179.449H256.477V179.448Z" fill="black"/>
<path d="M297.961 207.797L308.255 168.328H178.68L168.385 207.797L171.775 247.265L161.48 286.734L164.868 326.203L154.573 365.671H284.148L294.443 326.203L291.055 286.734L301.348 247.265L297.961 207.797Z" fill="#407BFF"/>
<path opacity="0.7" d="M297.961 207.797L308.255 168.328H178.68L168.385 207.797L171.775 247.265L161.48 286.734L164.868 326.203L154.573 365.671H284.148L294.443 326.203L291.055 286.734L301.348 247.265L297.961 207.797Z" fill="white"/>
<path opacity="0.5" d="M297.96 207.797H168.386L178.681 168.328H308.255L297.96 207.797Z" fill="white"/>
<path opacity="0.5" d="M291.055 286.734H161.48L171.775 247.265H301.35L291.055 286.734Z" fill="white"/>
<path opacity="0.5" d="M284.148 365.671H154.573L164.868 326.203H294.443L284.148 365.671Z" fill="white"/>
<path opacity="0.2" d="M280.622 224.29C279.509 224.638 278.083 224.848 276.53 224.848C274.242 224.848 272.232 224.395 271.089 223.713C270.775 223.525 270.43 223.432 270.086 223.432C269.765 223.432 269.446 223.522 269.15 223.683C269.128 223.695 269.104 223.7 269.083 223.713C269.07 223.721 269.055 223.727 269.043 223.734C268.619 223.981 268.085 224.198 267.462 224.373C266.394 224.672 265.073 224.849 263.643 224.849C263.255 224.849 262.873 224.835 262.504 224.811C261.395 224.735 260.385 224.553 259.551 224.293C259.405 224.247 259.258 224.22 259.115 224.21C258.106 224.144 257.2 224.918 257.2 225.987V227.193H206.836C202.939 227.193 199.778 230.352 199.778 234.251V241.363C199.778 245.26 202.939 248.421 206.836 248.421H264.134C264.261 248.421 264.383 248.409 264.509 248.402C265.127 248.913 265.771 249.424 266.453 249.941C267.269 250.559 268.129 251.186 269.029 251.84C269.656 252.295 270.517 252.295 271.144 251.84C278.349 246.615 282.975 243.011 282.975 233.109V225.988C282.974 224.764 281.789 223.926 280.622 224.29Z" fill="black"/>
<path d="M263.039 244.501H205.741C201.844 244.501 198.684 241.342 198.684 237.443V230.331C198.684 226.433 201.843 223.273 205.741 223.273H263.039C266.937 223.273 270.097 226.432 270.097 230.331V237.443C270.097 241.341 266.937 244.501 263.039 244.501Z" fill="#407BFF"/>
<path d="M275.437 220.929C273.149 220.929 271.14 220.476 269.996 219.795C269.367 219.42 268.618 219.42 267.99 219.795C266.846 220.476 264.837 220.929 262.549 220.929C260.994 220.929 259.569 220.72 258.456 220.373C257.29 220.008 256.104 220.845 256.104 222.069V229.189C256.104 239.091 260.73 242.695 267.935 247.92C268.562 248.375 269.423 248.375 270.05 247.92C277.255 242.695 281.881 239.091 281.881 229.189V222.069C281.881 220.845 280.696 220.008 279.529 220.373C278.416 220.72 276.991 220.929 275.437 220.929Z" fill="#407BFF"/>
<path opacity="0.3" d="M275.437 220.929C273.149 220.929 271.14 220.476 269.996 219.795C269.367 219.42 268.618 219.42 267.99 219.795C266.846 220.476 264.837 220.929 262.549 220.929C260.994 220.929 259.569 220.72 258.456 220.373C257.29 220.008 256.104 220.845 256.104 222.069V229.189C256.104 239.091 260.73 242.695 267.935 247.92C268.562 248.375 269.423 248.375 270.05 247.92C277.255 242.695 281.881 239.091 281.881 229.189V222.069C281.881 220.845 280.696 220.008 279.529 220.373C278.416 220.72 276.991 220.929 275.437 220.929Z" fill="white"/>
<path opacity="0.2" d="M267.99 219.795C266.846 220.476 264.837 220.929 262.549 220.929C260.994 220.929 259.569 220.72 258.456 220.373C257.29 220.008 256.104 220.845 256.104 222.068V229.189C256.104 239.091 260.73 242.695 267.935 247.92C268.249 248.147 268.62 248.262 268.993 248.262V219.513C268.648 219.513 268.303 219.607 267.99 219.795Z" fill="white"/>
<path d="M279.32 227.245C274.664 229.171 270.68 231.981 268.065 235.177C266.242 233.732 263.741 232.729 260.807 232.27L260.464 232.217V233.916L260.66 233.987C263.61 235.066 266.101 236.981 267.865 239.521L268.142 239.921L268.372 239.493C270.924 234.742 274.903 230.762 279.575 228.287L279.734 228.202V227.074L279.32 227.245Z" fill="#263238"/>
<path d="M305.967 179.427H301.051C298.325 179.427 296.308 177.217 296.546 174.491L296.977 169.574C297.216 166.848 299.619 164.638 302.346 164.638H307.262C309.988 164.638 312.004 166.849 311.766 169.574L311.336 174.491C311.097 177.217 308.694 179.427 305.967 179.427Z" fill="#407BFF"/>
<path d="M308.01 169.564L306.944 168.395L304.258 170.863L302.005 168.395L300.733 169.564L302.986 172.033L300.302 174.502L301.369 175.672L304.054 173.203L306.307 175.672L307.579 174.502L305.326 172.033L308.01 169.564Z" fill="white"/>
<path d="M196.126 221.837C198.976 224.936 201.699 228.147 204.388 231.387C207.08 234.624 209.705 237.919 212.299 241.243C212.412 241.387 212.367 241.328 212.393 241.372C212.405 241.391 212.408 241.422 212.423 241.437C212.452 241.47 212.468 241.523 212.502 241.552C212.553 241.634 212.628 241.693 212.702 241.771C212.86 241.912 213.076 242.02 213.316 242.065C213.435 242.082 213.561 242.1 213.689 242.087C213.758 242.096 213.819 242.075 213.891 242.072C213.929 242.073 213.957 242.053 213.993 242.049C214.05 242.025 214.014 242.075 214.168 241.983L216.954 240.473C220.69 238.495 224.456 236.561 228.352 234.825L231.607 238.858C228.469 241.745 225.201 245.357 221.903 248.004L219.412 249.962C219.349 250.02 219.081 250.196 218.913 250.308C218.72 250.431 218.533 250.565 218.329 250.674C217.925 250.896 217.518 251.119 217.086 251.29C216.232 251.659 215.32 251.894 214.396 252.036C212.542 252.312 210.616 252.125 208.818 251.481C207.922 251.159 207.053 250.728 206.263 250.179C205.858 249.916 205.488 249.608 205.118 249.298C204.933 249.144 204.767 248.971 204.594 248.803L204.151 248.355C201.209 245.337 198.299 242.29 195.454 239.186C192.607 236.083 189.794 232.953 187.107 229.71L196.126 221.837Z" fill="#B55B52"/>
<path d="M226.837 237.281L229.429 228.955L236.252 232.356C236.252 232.356 235.258 238.431 230.291 239.484L226.837 237.281Z" fill="#B55B52"/>
<path d="M232.167 226.646L238.321 228.34L236.254 232.355L229.431 228.954L232.167 226.646Z" fill="#B55B52"/>
<path d="M160.232 224.106C159.489 227.643 158.582 231.14 157.631 234.628C156.685 238.116 155.652 241.583 154.578 245.04L154.177 246.337L153.977 246.985C153.935 247.126 153.907 247.162 153.869 247.257C153.747 247.585 153.674 247.94 153.659 248.314C153.64 249.055 153.816 249.879 154.301 250.595C154.341 250.71 154.724 251.113 155.024 251.438L155.947 252.441L157.767 254.479C158.966 255.855 160.16 257.235 161.294 258.686L157.419 263.171C155.819 262.261 154.28 261.279 152.744 260.293L150.463 258.788L149.336 258.02C148.952 257.753 148.644 257.574 148.03 257.065C145.915 255.272 144.335 252.725 143.756 249.898C143.46 248.486 143.388 247.015 143.552 245.559C143.596 245.209 143.661 244.802 143.715 244.503L143.832 243.835L144.068 242.498C144.692 238.932 145.357 235.376 146.108 231.84C146.855 228.304 147.645 224.777 148.6 221.291L160.232 224.106Z" fill="#B55B52"/>
<path d="M157.486 258.369L162.074 256.022L164.098 263.821C164.098 263.821 160.416 265.232 157.566 263.419L157.486 258.369Z" fill="#B55B52"/>
<path d="M168.415 253.528L168.623 260.682L163.5 264.032L161.723 256.174L168.415 253.528Z" fill="#B55B52"/>
<path d="M183.415 187.338C183.528 187.889 183.91 188.276 184.271 188.203C184.631 188.129 184.832 187.623 184.72 187.072C184.607 186.52 184.225 186.133 183.865 186.207C183.505 186.28 183.304 186.786 183.415 187.338Z" fill="#263238"/>
<path d="M183.859 188.286C183.859 188.286 185.759 191.211 187.45 192.464C186.659 193.573 184.918 193.494 184.918 193.494L183.859 188.286Z" fill="#A02724"/>
<path d="M180.776 184.687C180.696 184.687 180.615 184.658 180.551 184.599C180.418 184.475 180.409 184.266 180.533 184.132C181.773 182.789 183.278 183.029 183.343 183.039C183.524 183.07 183.644 183.24 183.614 183.42C183.583 183.599 183.41 183.719 183.234 183.69C183.184 183.682 182.008 183.51 181.019 184.58C180.954 184.651 180.865 184.687 180.776 184.687Z" fill="#263238"/>
<path d="M167.379 195.089C168.606 200.19 169.83 209.536 165.452 212.939C165.452 212.939 167.162 218.113 178.791 218.113C191.576 218.113 184.901 214.781 184.901 214.781C177.923 213.423 178.102 207.361 179.318 203.398L167.379 195.089Z" fill="#B55B52"/>
<path d="M164.089 213.885C163.328 212.468 162.488 210.846 164.224 210.338C166.133 209.779 178.4 208.742 182.002 209.792C180.895 211.761 182.77 214.182 182.77 214.182L164.089 213.885Z" fill="#263238"/>
<path d="M174.245 452.494H182.268L183.067 436.347H175.045L174.245 452.494Z" fill="#B55B52"/>
<path d="M123.335 450.27L131.46 450.699L136.399 434.792L128.272 434.362L123.335 450.27Z" fill="#B55B52"/>
<path d="M131.212 450.056L123.556 448.398C123.278 448.338 122.995 448.48 122.876 448.739L120.218 454.504C119.942 455.103 120.307 455.804 120.953 455.932C123.635 456.465 124.968 456.589 128.334 457.318C130.406 457.766 135.081 458.906 137.942 459.525C140.74 460.131 141.789 457.397 140.673 456.887C135.671 454.602 133.582 452.59 132.228 450.715C131.984 450.378 131.62 450.145 131.212 450.056Z" fill="#263238"/>
<path d="M181.844 451.687H174.23C173.945 451.687 173.698 451.885 173.636 452.163L172.258 458.36C172.116 459.002 172.603 459.611 173.261 459.6C176.008 459.553 179.977 459.392 183.429 459.392C187.466 459.392 190.952 459.612 195.686 459.612C198.548 459.612 199.342 456.718 198.145 456.456C192.69 455.263 188.237 455.135 183.523 452.229C183.011 451.913 182.445 451.687 181.844 451.687Z" fill="#263238"/>
<path d="M150.925 215.297C144.87 218.176 143.225 235.628 143.225 235.628L158.203 242.549C158.203 242.549 161.921 237.073 162.205 228.462C162.503 219.44 157.116 212.353 150.925 215.297Z" fill="#263238"/>
<path opacity="0.4" d="M159.051 226.06C156.347 230.257 156.603 236.753 157.539 242.241L158.201 242.552C158.201 242.552 161.923 237.068 162.208 228.459C162.225 227.921 162.223 227.386 162.204 226.866L159.051 226.06Z" fill="black"/>
<path d="M192.723 214.875C192.723 214.875 200.145 223.257 193.136 275.14C181.899 275.14 161.311 275.14 155.843 275.14C155.586 269.415 159.183 241.49 153.661 214.516C153.661 214.516 160.054 213.233 166.146 212.939C170.91 212.71 177.809 212.558 181.998 212.939C187.522 213.444 192.723 214.875 192.723 214.875Z" fill="#407BFF"/>
<path opacity="0.6" d="M192.723 214.875C192.723 214.875 200.145 223.257 193.136 275.14C181.899 275.14 161.311 275.14 155.843 275.14C155.586 269.415 159.183 241.49 153.661 214.516C153.661 214.516 160.054 213.233 166.146 212.939C170.91 212.71 177.809 212.558 181.998 212.939C187.522 213.444 192.723 214.875 192.723 214.875Z" fill="#FAFAFA"/>
<path opacity="0.2" d="M195.983 230.732L195.841 230.609L188.424 226.646C187.67 238.066 192.775 245.225 195.812 248.356C196.23 241.039 196.22 235.268 195.983 230.732Z" fill="black"/>
<path opacity="0.2" d="M183.066 436.351L182.655 444.674H174.629L175.039 436.351H183.066Z" fill="black"/>
<path opacity="0.2" d="M128.27 434.366L136.398 434.796L133.848 442.995L125.72 442.566L128.27 434.366Z" fill="black"/>
<path d="M164.797 189.905C166.588 196.589 167.297 200.593 171.422 203.371C177.626 207.551 185.351 202.754 185.593 195.67C185.81 189.294 182.844 179.435 175.671 178.087C168.605 176.76 163.006 183.221 164.797 189.905Z" fill="#B55B52"/>
<path d="M179.907 275.14C179.907 275.14 171.994 328.424 167.651 348.386C162.893 370.246 137.386 442.57 137.386 442.57L124.905 439.868C124.905 439.868 140.9 380.929 144.892 350.368C146.45 338.442 148.331 319.217 150.71 303.189C153.014 287.667 155.843 275.14 155.843 275.14H179.907Z" fill="#263238"/>
<path d="M140.375 438.403C140.428 438.414 138.048 442.916 138.048 442.916L124.006 439.876L125.19 435.655L140.375 438.403Z" fill="#407BFF"/>
<path opacity="0.6" d="M140.375 438.403C140.428 438.414 138.048 442.916 138.048 442.916L124.006 439.876L125.19 435.655L140.375 438.403Z" fill="white"/>
<path opacity="0.6" d="M174.906 294.124C165.756 295.918 166.725 330.037 167.826 347.587C170.464 335.182 174.326 311.312 176.965 294.371C176.358 294.067 175.674 293.973 174.906 294.124Z" fill="black"/>
<path d="M193.136 275.14C193.136 275.14 196.858 327.27 196.099 348.533C195.311 370.648 184.825 443.063 184.825 443.063H173.013C173.013 443.063 172.58 371.941 172.055 350.221C171.482 326.542 168.623 275.14 168.623 275.14H193.136Z" fill="#263238"/>
<path d="M187.096 438.358C187.151 438.358 186.43 443.262 186.43 443.262H172.062L171.674 438.885L187.096 438.358Z" fill="#407BFF"/>
<path opacity="0.6" d="M187.096 438.358C187.151 438.358 186.43 443.262 186.43 443.262H172.062L171.674 438.885L187.096 438.358Z" fill="white"/>
<path d="M188.371 224.641C188.371 238.631 195.816 244.391 195.816 244.391L207.917 232.561C207.917 232.561 203.802 225.472 198.144 218.965C191.153 210.925 188.371 215.645 188.371 224.641Z" fill="#263238"/>
<path opacity="0.2" d="M185.169 198.202C184.862 199.059 184.055 200.513 182.03 201.092C179.077 201.937 179.038 204.44 179.038 204.44L179.075 204.487C181.893 203.556 184.239 201.228 185.169 198.202Z" fill="black"/>
<path d="M182.031 176.62C184.525 173.476 180.689 173.326 180.689 173.326C181.686 169.573 177.2 171.594 177.2 171.594C174.507 167.882 172.988 172.399 172.988 172.399C170.194 169.254 169.68 174.394 169.68 174.394C166.879 170.405 165.453 176.159 165.453 176.159C162.873 172.016 161.294 177.413 161.294 177.413C155.967 175.506 158.499 181.041 158.499 181.041C153.952 181.169 157.6 184.687 157.6 184.687C152.153 184.7 156.956 187.819 156.956 187.819C152.63 190.657 158.06 191.421 158.06 191.421C154.531 196.94 160.591 194.892 160.591 194.892C158.136 200.355 163.58 197.948 163.58 197.948C163.226 203.219 166.271 201.785 167.734 200.808C168.017 201.87 168.544 202.994 169.523 203.122C171.422 203.37 171.791 199.785 171.791 199.785C171.791 199.785 173.554 201.156 175.031 200.414C176.509 199.671 175.952 197.79 175.952 197.79C175.952 197.79 177.083 198.634 178.119 197.829C178.753 197.337 178.757 193.797 177.948 192.553L180.843 191.42C180.843 191.42 182.991 191.117 182.031 188.285C181.073 185.454 181.886 183.218 181.886 183.218C185.153 181.686 182.473 179.845 182.473 179.845C186.25 177.397 182.031 176.62 182.031 176.62Z" fill="#263238"/>
<path d="M176.168 190.185C176.623 191.94 177.776 193.448 178.981 194.345C180.796 195.695 182.15 194.366 182.022 192.314C181.906 190.466 180.822 187.537 178.82 186.988C176.85 186.448 175.649 188.179 176.168 190.185Z" fill="#B55B52"/>
</g>
<defs>
<clipPath id="clip0_23_537">
<rect width="556" height="556" fill="white"/>
</clipPath>
</defs>
</svg>
