<svg width="19" height="19" viewBox="0 0 19 19" fill="none" xmlns="http://www.w3.org/2000/svg">
<path d="M8.15496 10.8418L15.9142 3.08549M8.37552 11.1906L10.1349 14.7095C10.5601 15.5598 10.7727 15.9851 11.0405 16.0991C11.2729 16.198 11.5386 16.18 11.7557 16.0508C12.0058 15.9019 12.1594 15.452 12.4666 14.5523L15.7909 4.8168C16.0586 4.03286 16.1924 3.64088 16.1008 3.38157C16.0211 3.156 15.8437 2.97855 15.6182 2.89886C15.3588 2.80724 14.9669 2.94109 14.1829 3.20878L4.44737 6.53311C3.54765 6.84033 3.09779 6.99394 2.94887 7.24404C2.81963 7.46107 2.80172 7.72676 2.90066 7.95913C3.01468 8.22696 3.43986 8.4396 4.29022 8.86472L7.80906 10.6242C7.94921 10.6943 8.01927 10.7293 8.07991 10.776C8.13382 10.8176 8.18212 10.8659 8.2236 10.9197C8.27047 10.9805 8.30546 11.0505 8.37552 11.1906Z" stroke="white" stroke-width="1.58333" stroke-linecap="round" stroke-linejoin="round"/>
</svg>
