<svg width="24" height="24" viewBox="0 0 24 24" fill="none" xmlns="http://www.w3.org/2000/svg">
<path d="M12 15C13.6569 15 15 13.6569 15 12C15 10.3431 13.6569 9 12 9C10.3431 9 9 10.3431 9 12C9 13.6569 10.3431 15 12 15Z" stroke="white" stroke-width="1.5"/>
<path d="M13.7649 2.15224C13.3973 2 12.9314 2 11.9995 2C11.0676 2 10.6017 2 10.2341 2.15224C9.74408 2.35523 9.35473 2.74458 9.15174 3.23463C9.05908 3.45834 9.02281 3.7185 9.00862 4.09799C8.98777 4.65568 8.70177 5.17189 8.21845 5.45093C7.73515 5.72996 7.1451 5.71954 6.6517 5.45876C6.31596 5.2813 6.07252 5.18262 5.83245 5.15102C5.30655 5.08178 4.77469 5.22429 4.35387 5.5472C4.03825 5.78938 3.80528 6.1929 3.33934 6.99993C2.8734 7.80697 2.64043 8.21048 2.5885 8.60491C2.51927 9.1308 2.66178 9.66266 2.98469 10.0835C3.13207 10.2756 3.33921 10.437 3.6607 10.639C4.13331 10.936 4.4374 11.4419 4.43737 12C4.43734 12.5581 4.13326 13.0639 3.66069 13.3608C3.33916 13.5629 3.13199 13.7244 2.98459 13.9165C2.66168 14.3373 2.51917 14.8691 2.58841 15.395C2.64033 15.7894 2.8733 16.193 3.33924 17C3.80519 17.807 4.03816 18.2106 4.35377 18.4527C4.77459 18.7756 5.30645 18.9181 5.83235 18.8489C6.0724 18.8173 6.31583 18.7186 6.65155 18.5412C7.14498 18.2804 7.73507 18.27 8.21841 18.549C8.70175 18.8281 8.98777 19.3443 9.00862 19.9021C9.02282 20.2815 9.05908 20.5417 9.15174 20.7654C9.35473 21.2554 9.74408 21.6448 10.2341 21.8478C10.6017 22 11.0676 22 11.9995 22C12.9314 22 13.3973 22 13.7649 21.8478C14.2549 21.6448 14.6443 21.2554 14.8472 20.7654C14.9399 20.5417 14.9762 20.2815 14.9904 19.902C15.0112 19.3443 15.2972 18.8281 15.7805 18.549C16.2638 18.2699 16.8539 18.2804 17.3474 18.5412C17.6831 18.7186 17.9265 18.8172 18.1665 18.8488C18.6924 18.9181 19.2243 18.7756 19.6451 18.4527C19.9607 18.2105 20.1937 17.807 20.6596 16.9999C21.1256 16.1929 21.3586 15.7894 21.4105 15.395C21.4797 14.8691 21.3372 14.3372 21.0143 13.9164C20.8669 13.7243 20.6597 13.5628 20.3382 13.3608C19.8657 13.0639 19.5616 12.558 19.5616 11.9999C19.5616 11.4418 19.8657 10.9361 20.3382 10.6392C20.6598 10.4371 20.867 10.2757 21.0144 10.0835C21.3373 9.66273 21.4798 9.13087 21.4106 8.60497C21.3587 8.21055 21.1257 7.80703 20.6597 7C20.1938 6.19297 19.9608 5.78945 19.6452 5.54727C19.2244 5.22436 18.6925 5.08185 18.1666 5.15109C17.9266 5.18269 17.6832 5.28136 17.3474 5.4588C16.854 5.71959 16.2639 5.73002 15.7806 5.45096C15.2972 5.17191 15.0112 4.65566 14.9904 4.09794C14.9762 3.71848 14.9399 3.45833 14.8472 3.23463C14.6443 2.74458 14.2549 2.35523 13.7649 2.15224Z" stroke="white" stroke-width="1.5"/>
</svg>