<svg width="117" height="42" viewBox="0 0 117 42" fill="none" xmlns="http://www.w3.org/2000/svg">
<path d="M58.3501 24.4504C58.2663 24.4504 58.1825 24.4378 58.0962 24.4025C58.0124 24.3671 57.9464 24.3192 57.8829 24.2485C57.8169 24.1778 57.7712 24.1021 57.7382 24.0163C57.7077 23.933 57.695 23.8421 57.695 23.7437V17.6406C57.6874 17.5497 57.7077 17.4513 57.7382 17.368C57.7712 17.2821 57.8169 17.1989 57.8829 17.1357C58.0124 17.0095 58.1749 16.9464 58.3501 16.9464C58.5253 16.9464 58.6878 17.0171 58.8173 17.1357C58.8757 17.2064 58.929 17.2821 58.9544 17.368C58.9874 17.4513 59.0001 17.5497 58.995 17.6406V23.7437C58.995 23.8345 58.9798 23.9254 58.9493 24.0163C58.9163 24.1021 58.8706 24.1778 58.8122 24.2485C58.7538 24.3192 58.6751 24.3671 58.5964 24.4025C58.5253 24.4378 58.4415 24.4504 58.3501 24.4504ZM58.3501 15.7223C58.1546 15.7223 57.9616 15.6516 57.8118 15.5178C57.6544 15.3866 57.5503 15.1973 57.5122 14.9928C57.4741 14.7833 57.4995 14.5739 57.5909 14.3845C57.6798 14.1952 57.8296 14.0489 58.0124 13.9731C58.1952 13.8873 58.3958 13.8823 58.5837 13.9378C58.7741 14.0009 58.9366 14.1271 59.0458 14.3013C59.1575 14.4754 59.2007 14.6849 59.1829 14.8969C59.1626 15.1064 59.0788 15.3033 58.9366 15.4573C58.8579 15.5406 58.7665 15.6112 58.6624 15.6516C58.571 15.7021 58.4618 15.7223 58.3501 15.7223Z" fill="white"/>
<path d="M58.4416 23.9532C58.4162 23.9607 58.3959 23.9683 58.3705 23.9683L58.3299 24.9274C58.4797 24.935 58.6295 24.9073 58.7666 24.8492L58.4416 23.9532ZM58.5076 23.9128C58.4873 23.933 58.467 23.9481 58.4492 23.9532L58.7742 24.8492C58.9088 24.7937 59.0383 24.7028 59.1424 24.5842L58.5076 23.9128ZM58.5457 23.8421C58.5381 23.8699 58.5203 23.8901 58.5076 23.9128L59.15 24.5766C59.2465 24.4655 59.3328 24.3318 59.3836 24.1854L58.5457 23.8421ZM58.5584 23.7639C58.5584 23.7942 58.5508 23.8219 58.5457 23.8497L59.3785 24.1929C59.4293 24.044 59.4547 23.8901 59.4496 23.7361L58.5584 23.7639ZM58.5584 17.6481V23.7512H59.4496V17.6481H58.5584ZM58.5457 17.5421C58.5508 17.5699 58.5584 17.5976 58.5584 17.6254L59.4496 17.6683C59.4547 17.5068 59.4293 17.3528 59.3785 17.1988L58.5457 17.5421ZM58.5 17.4714C58.5203 17.4942 58.533 17.5143 58.5381 17.5421L59.3785 17.1988C59.3252 17.0524 59.2465 16.9111 59.1424 16.8L58.5 17.4714ZM58.3578 17.4235C58.4213 17.4235 58.4797 17.4512 58.5254 17.4941L59.1246 16.7723C58.9164 16.5678 58.6422 16.4568 58.3578 16.4568V17.4235ZM58.1877 17.4941C58.2334 17.4512 58.2994 17.4235 58.3578 17.4235V16.4643C58.0785 16.4643 57.8043 16.5754 57.591 16.7798L58.1877 17.4941ZM58.1623 17.5421C58.1674 17.5143 58.1877 17.4942 58.2004 17.479L57.5758 16.7925C57.4742 16.906 57.3879 17.0449 57.3295 17.1913L58.1623 17.5421ZM58.1496 17.6254C58.1496 17.5976 58.1496 17.5699 58.1623 17.5497L57.3295 17.1988C57.2787 17.3452 57.2508 17.5068 57.2584 17.6683L58.1496 17.6254ZM58.1496 23.7512V17.6481H57.2584V23.7512H58.1496ZM58.1623 23.8421C58.1547 23.8143 58.1496 23.7942 58.1496 23.7639L57.2584 23.7361C57.2508 23.8976 57.2787 24.0516 57.3371 24.198L58.1623 23.8421ZM58.2004 23.9128C58.1826 23.8901 58.1674 23.8699 58.1623 23.8421L57.3295 24.198C57.3828 24.3469 57.4666 24.4782 57.5707 24.5917L58.2004 23.9128ZM58.2664 23.9532C58.241 23.9481 58.2207 23.9254 58.2004 23.9128L57.5707 24.5917C57.6748 24.7028 57.7992 24.7861 57.9338 24.8492L58.2664 23.9532ZM58.3375 23.9683C58.3121 23.9683 58.2867 23.9607 58.2664 23.9532L57.9338 24.8492C58.0709 24.9073 58.2131 24.935 58.3629 24.935L58.3375 23.9683ZM58.5 15.2099C58.4543 15.2326 58.4035 15.2402 58.3578 15.2402L58.3451 16.1968C58.5127 16.1968 58.6828 16.164 58.8453 16.0933L58.5 15.2099ZM58.6244 15.119C58.5914 15.1544 58.5457 15.1897 58.5 15.2099L58.8453 16.1009C59.0002 16.0302 59.1424 15.9242 59.2668 15.7929L58.6244 15.119ZM58.7463 14.854C58.7412 14.9524 58.6955 15.0509 58.6295 15.119L59.2617 15.798C59.475 15.5683 59.6045 15.2679 59.6375 14.9449L58.7463 14.854ZM58.6828 14.5663C58.7336 14.6521 58.759 14.748 58.7463 14.8464L59.6375 14.9373C59.6705 14.6167 59.5918 14.2937 59.4242 14.0286L58.6828 14.5663ZM58.4619 14.3921C58.5508 14.4199 58.6295 14.483 58.6828 14.5663L59.4242 14.0286C59.2541 13.7611 59.0078 13.5592 58.7209 13.4683L58.4619 14.3921ZM58.1877 14.4123C58.2715 14.3719 58.3705 14.3719 58.4619 14.3997L58.7209 13.4759C58.434 13.385 58.1242 13.3976 57.85 13.5238L58.1877 14.4123ZM57.9871 14.6092C58.0328 14.5183 58.1039 14.4476 58.1877 14.4123L57.8424 13.5238C57.5631 13.65 57.3371 13.8747 57.2 14.1599L57.9871 14.6092ZM57.9541 14.8969C57.9338 14.7985 57.9465 14.6925 57.9922 14.6092L57.2 14.1599C57.0578 14.4476 57.0172 14.7783 57.0756 15.0913L57.9541 14.8969ZM58.0912 15.1468C58.0201 15.0862 57.9668 14.9928 57.9465 14.8969L57.0705 15.0913C57.1289 15.4068 57.2914 15.6945 57.525 15.8964L58.0912 15.1468ZM58.3502 15.2402C58.2588 15.2402 58.1674 15.2048 58.0963 15.1417L57.5377 15.8889C57.7713 16.0933 58.0633 16.2044 58.3629 16.1968L58.3502 15.2402ZM59.0002 23.7512H58.5508V23.7639L59.0002 23.7512ZM59.0002 17.6481L58.5508 17.6254V17.6532H59.0002V17.6481ZM58.825 17.1357L59.1424 16.8L59.1297 16.7849L59.117 16.7723L58.825 17.1357ZM57.8881 17.1357L57.591 16.7798L57.5834 16.7849L57.5758 16.7925L57.8881 17.1357ZM57.7002 17.6481H58.1496V17.6254L57.7002 17.6481ZM57.7002 23.7512L58.1496 23.7639V23.7512H57.7002ZM58.3502 24.4504L58.3705 23.9683H58.3451L58.3502 24.4504ZM58.9418 15.4573L58.6244 15.114V15.119L58.9418 15.4573ZM58.3502 15.7223L58.3578 15.2402H58.3451L58.3502 15.7223Z" fill="white"/>
<path d="M70.6798 19.8389V23.7638C70.6798 23.8572 70.6671 23.9481 70.6367 24.0389C70.6037 24.1222 70.558 24.198 70.4996 24.2686C70.4412 24.3393 70.3625 24.3873 70.2838 24.4226C70.2076 24.4579 70.1162 24.4731 70.0298 24.4655C69.9461 24.4655 69.8623 24.4504 69.7785 24.415C69.6998 24.3822 69.6287 24.3317 69.5627 24.2611C69.5043 24.198 69.4535 24.1147 69.4205 24.0314C69.3875 23.9481 69.3748 23.8572 69.3748 23.7588V19.8314C69.3748 19.2559 69.2453 18.8293 68.9787 18.5492C68.8416 18.4103 68.6791 18.2967 68.5039 18.2286C68.3287 18.1579 68.1382 18.1226 67.9504 18.1302C67.7498 18.1226 67.5416 18.1655 67.3537 18.2488C67.1632 18.3321 66.9957 18.4659 66.8586 18.6274C66.5666 18.9707 66.4168 19.425 66.4371 19.8869V23.7588C66.4371 23.8496 66.4244 23.9405 66.3914 24.0314C66.3584 24.1147 66.3127 24.1929 66.2543 24.2611C66.1298 24.3873 65.9623 24.4579 65.7871 24.4579C65.6119 24.4579 65.4494 24.3873 65.3173 24.2611C65.2589 24.198 65.2082 24.1222 65.1752 24.0314C65.1421 23.9481 65.1295 23.8572 65.1295 23.7588V19.8314C65.1295 19.2559 65 18.8293 64.7334 18.5492C64.5963 18.4103 64.4338 18.2967 64.2586 18.2286C64.0834 18.1579 63.8955 18.1226 63.7076 18.1302C63.4994 18.1226 63.2963 18.1655 63.1084 18.2488C62.9205 18.3321 62.7504 18.4659 62.6082 18.6274C62.466 18.794 62.3492 18.9909 62.2755 19.2079C62.2045 19.425 62.1664 19.6572 62.1791 19.8869V23.7588C62.1867 23.9405 62.1207 24.1222 62.0039 24.256C61.9455 24.3242 61.8668 24.3746 61.788 24.41C61.7119 24.4428 61.6205 24.4579 61.5367 24.4504C61.4504 24.4504 61.3666 24.4377 61.2828 24.4024C61.2041 24.3671 61.1254 24.3191 61.067 24.2484C61.0086 24.1853 60.9578 24.1071 60.9248 24.0162C60.8918 23.9329 60.8791 23.8421 60.8791 23.7436V17.6405C60.8714 17.5496 60.8918 17.4512 60.9171 17.3679C60.9502 17.277 60.9959 17.1988 61.0619 17.1357C61.1838 17.0095 61.3539 16.9388 61.5291 16.9464C61.6129 16.9388 61.7043 16.9615 61.783 16.9893C61.8617 17.0171 61.9379 17.0726 62.0039 17.1357C62.1207 17.2695 62.1867 17.4436 62.1791 17.6254C62.3162 17.479 62.466 17.3528 62.6285 17.2467C63.0296 16.9893 63.4994 16.8555 63.9666 16.8631C64.416 16.8555 64.8578 16.9691 65.2539 17.2064C65.5459 17.3805 65.7921 17.6329 65.975 17.9333C66.1832 17.6531 66.4421 17.4234 66.7367 17.2467C67.1836 16.9817 67.6914 16.848 68.2043 16.8631C68.6537 16.8555 69.1005 16.9691 69.4916 17.2064C69.8673 17.4361 70.1746 17.7945 70.3625 18.2135C70.591 18.7309 70.7002 19.2862 70.6798 19.8389Z" fill="white"/>
<path d="M69.9661 18.4306C70.154 18.8647 70.2454 19.3417 70.2327 19.8163L71.1239 19.844C71.1417 19.2155 71.0198 18.5845 70.7709 18.0191L69.9661 18.4306ZM69.2754 17.633C69.5751 17.8147 69.8163 18.0949 69.9711 18.4306L70.7786 18.0116C70.5501 17.4992 70.1793 17.0726 69.7249 16.7925L69.2754 17.633ZM68.2243 17.3604C68.595 17.3528 68.9581 17.4512 69.2831 17.6405L69.7122 16.8C69.2501 16.5274 68.7295 16.3861 68.1989 16.4012L68.2243 17.3604ZM66.9573 17.6809C67.3407 17.4588 67.7698 17.3452 68.204 17.3528L68.2243 16.3937C67.6327 16.381 67.0461 16.535 66.5333 16.8354L66.9573 17.6809ZM66.3251 18.2488C66.5002 18.0191 66.7161 17.8223 66.9573 17.6809L66.5282 16.8429C66.1829 17.0449 65.8833 17.3175 65.637 17.6481L66.3251 18.2488ZM65.0377 17.633C65.2663 17.7718 65.4618 17.9687 65.604 18.2059L66.3504 17.6809C66.1295 17.3175 65.8325 17.0171 65.4795 16.8L65.0377 17.633ZM63.979 17.3604C64.3497 17.3528 64.7127 17.4512 65.0377 17.6405L65.4668 16.8C65.0073 16.5274 64.4868 16.3861 63.9536 16.4012L63.979 17.3604ZM62.8618 17.6759C63.1918 17.4588 63.5752 17.3528 63.9586 17.3604L63.979 16.4012C63.4204 16.3861 62.8745 16.5476 62.3997 16.8556L62.8618 17.6759ZM62.4961 17.9762C62.6079 17.8576 62.7323 17.7592 62.8618 17.6683L62.3997 16.848C62.2042 16.9742 62.029 17.1231 61.8665 17.2973L62.4961 17.9762ZM61.6836 17.479C61.7167 17.5219 61.737 17.5699 61.737 17.6254L62.6282 17.6481C62.6333 17.3402 62.5241 17.0373 62.3286 16.8202L61.6836 17.479ZM61.6329 17.4512C61.6583 17.4588 61.6786 17.479 61.6989 17.4941L62.3159 16.7925C62.2118 16.6814 62.0823 16.5981 61.9452 16.5401L61.6329 17.4512ZM61.5542 17.4361C61.5795 17.4361 61.6075 17.4361 61.6329 17.4512L61.9452 16.5476C61.8081 16.4921 61.6583 16.4719 61.5161 16.477L61.5542 17.4361ZM61.3739 17.4992C61.412 17.4588 61.4627 17.4361 61.5211 17.4361L61.5491 16.477C61.2545 16.4719 60.9752 16.583 60.767 16.8L61.3739 17.4992ZM61.3459 17.5572C61.3536 17.527 61.3663 17.5068 61.3866 17.4941L60.7543 16.8076C60.6502 16.9187 60.5665 17.06 60.5081 17.2064L61.3459 17.5572ZM61.3333 17.633C61.3333 17.6052 61.3333 17.5774 61.3459 17.5572L60.5157 17.2064C60.4624 17.3528 60.437 17.5219 60.442 17.6809L61.3333 17.633ZM61.3333 23.7588V17.6532H60.442V23.7588H61.3333ZM61.3459 23.8572C61.3409 23.8345 61.3333 23.8068 61.3333 23.779L60.442 23.7437C60.437 23.9052 60.4624 24.0592 60.5208 24.2056L61.3459 23.8572ZM61.3866 23.9178C61.3663 23.8976 61.3536 23.8774 61.3459 23.8572L60.5157 24.2131C60.5665 24.3595 60.6502 24.4933 60.7543 24.6044L61.3866 23.9178ZM61.4501 23.9683C61.4247 23.9607 61.4043 23.9405 61.3866 23.9254L60.7543 24.6044C60.8584 24.7179 60.9829 24.8088 61.12 24.8643L61.4501 23.9683ZM61.5211 23.9809C61.4958 23.9809 61.4704 23.9759 61.4501 23.9683L61.12 24.8643C61.2545 24.9199 61.4043 24.9476 61.5491 24.9476L61.5211 23.9809ZM61.6329 23.9683C61.6126 23.9759 61.5872 23.9809 61.5618 23.9809L61.5161 24.9401C61.6659 24.9476 61.8157 24.9199 61.9579 24.8643L61.6329 23.9683ZM61.6913 23.9254C61.6709 23.9481 61.6532 23.9607 61.6329 23.9683L61.9579 24.8643C62.1001 24.8088 62.2245 24.7179 62.3286 24.5968L61.6913 23.9254ZM61.737 23.779C61.737 23.8345 61.7167 23.8901 61.6836 23.933L62.3336 24.5917C62.5368 24.3595 62.6409 24.0592 62.6333 23.7437L61.737 23.779ZM61.737 19.8945V23.7639H62.6282V19.8945H61.737ZM61.8665 19.0464C61.77 19.319 61.7293 19.6143 61.737 19.9071L62.6282 19.8718C62.6206 19.7052 62.6459 19.5361 62.6993 19.3821L61.8665 19.0464ZM62.2879 18.3044C62.1 18.5214 61.9579 18.7738 61.8665 19.0464L62.7043 19.3821C62.7577 19.2282 62.8415 19.0818 62.9456 18.9556L62.2879 18.3044ZM62.9456 17.8147C62.6993 17.9283 62.4708 18.0949 62.2879 18.3119L62.9456 18.9631C63.042 18.8521 63.1614 18.7612 63.2909 18.7032L62.9456 17.8147ZM63.7327 17.6532C63.4661 17.6481 63.1918 17.6961 62.9456 17.8071L63.2909 18.6981C63.4204 18.6401 63.5626 18.6123 63.6997 18.6123L63.7327 17.6532ZM64.4284 17.7794C64.1948 17.6809 63.9459 17.6405 63.692 17.6532L63.7327 18.6123C63.8622 18.6072 63.9917 18.6274 64.1084 18.6754L64.4284 17.7794ZM65.0581 18.2059C64.8752 18.0191 64.662 17.8778 64.4334 17.7794L64.1161 18.683C64.2379 18.7309 64.3497 18.8092 64.4411 18.9L65.0581 18.2059ZM65.5913 19.839C65.5913 19.1928 65.4415 18.6199 65.0581 18.2135L64.4334 18.9C64.5833 19.054 64.695 19.3342 64.695 19.839H65.5913ZM65.5913 23.7588V19.8314H64.7001V23.7588H65.5913ZM65.604 23.8572C65.5989 23.827 65.5913 23.8068 65.5913 23.779L64.7001 23.7437C64.695 23.9052 64.7204 24.0592 64.7788 24.2056L65.604 23.8572ZM65.642 23.9178C65.6243 23.8976 65.6116 23.8774 65.604 23.8572L64.7711 24.2131C64.8245 24.3595 64.9083 24.4933 65.0124 24.6044L65.642 23.9178ZM65.7918 23.9809C65.7334 23.9809 65.6751 23.9532 65.6293 23.9128L65.02 24.6119C65.2282 24.8214 65.5075 24.9401 65.7918 24.9401V23.9809ZM65.9543 23.9128C65.9086 23.9532 65.8502 23.9809 65.7918 23.9809V24.9401C66.0788 24.9401 66.3581 24.8214 66.5663 24.6119L65.9543 23.9128ZM65.9823 23.8572C65.9747 23.885 65.9543 23.9052 65.9417 23.9254L66.579 24.5968C66.6831 24.4857 66.7618 24.352 66.8126 24.2056L65.9823 23.8572ZM65.995 23.779C65.995 23.8068 65.9874 23.8345 65.9823 23.8572L66.8126 24.2056C66.8659 24.0592 66.8913 23.9052 66.8836 23.7437L65.995 23.779ZM65.995 19.8945V23.7639H66.8836V19.8945H65.995ZM66.5333 18.3119C66.1625 18.7461 65.967 19.3266 65.995 19.9147L66.8836 19.8718C66.8709 19.5361 66.9827 19.208 67.1959 18.9556L66.5333 18.3119ZM67.1833 17.8147C66.937 17.9283 66.7161 18.0949 66.5333 18.3119L67.1909 18.9631C67.2874 18.8521 67.3991 18.7663 67.5286 18.7032L67.1833 17.8147ZM67.9704 17.6532C67.7038 17.6481 67.4372 17.6961 67.1909 17.8147L67.5413 18.7032C67.6708 18.6476 67.8079 18.6199 67.9501 18.6199L67.9704 17.6532ZM68.6711 17.7794C68.4376 17.6809 68.1913 17.6405 67.9374 17.6532L67.9754 18.6123C68.1075 18.6072 68.237 18.6274 68.3538 18.6754L68.6711 17.7794ZM69.2958 18.2135C69.1129 18.0242 68.8997 17.8778 68.6661 17.7869L68.3461 18.6905C68.4706 18.7385 68.5747 18.8167 68.6711 18.9076L69.2958 18.2135ZM69.829 19.839C69.829 19.1928 69.6792 18.6199 69.2958 18.2135L68.6711 18.9C68.8209 19.054 68.9327 19.3342 68.9327 19.839H69.829ZM69.829 23.7588V19.8314H68.9377V23.7588H69.829ZM69.8417 23.8572C69.8366 23.827 69.829 23.8068 69.829 23.779L68.9377 23.7512C68.9327 23.9128 68.9581 24.0667 69.0165 24.2131L69.8417 23.8572ZM69.8823 23.9178C69.862 23.8976 69.8493 23.8774 69.8417 23.8497L69.0114 24.2056C69.0622 24.352 69.1459 24.4857 69.2501 24.5968L69.8823 23.9178ZM69.9458 23.9683C69.9204 23.9607 69.9001 23.9405 69.8823 23.9254L69.2501 24.6044C69.3542 24.7179 69.4786 24.8088 69.6157 24.8643L69.9458 23.9683ZM70.0168 23.9809C69.9915 23.9809 69.9661 23.9759 69.9458 23.9683L69.6157 24.8643C69.7502 24.9199 69.9001 24.9476 70.0448 24.9476L70.0168 23.9809ZM70.1209 23.9683C70.1032 23.9759 70.0752 23.9809 70.0575 23.9809L70.0118 24.9401C70.1616 24.9476 70.3114 24.9274 70.4536 24.8643L70.1209 23.9683ZM70.1793 23.9254C70.1667 23.9481 70.1489 23.9607 70.1209 23.9683L70.4459 24.8643C70.5907 24.8088 70.7126 24.7104 70.8167 24.5968L70.1793 23.9254ZM70.2251 23.8572C70.22 23.885 70.1997 23.9052 70.187 23.9254L70.8243 24.5968C70.9284 24.4857 71.0045 24.352 71.0579 24.2056L70.2251 23.8572ZM70.2377 23.779C70.2377 23.8068 70.2327 23.8345 70.2251 23.8572L71.0579 24.2056C71.1086 24.0592 71.1366 23.9052 71.129 23.7437L70.2377 23.779ZM70.2327 19.839V23.7639H71.1239V19.839H70.2327ZM68.2116 16.8783L68.204 17.3604H68.2167L68.2116 16.8783ZM65.9823 17.9485L65.6116 18.2135L65.9493 18.7663L66.3327 18.2564L65.9823 17.9485ZM63.9739 16.8783L63.9586 17.3604H63.9739V16.8783ZM62.1864 17.633L61.737 17.6254L61.7167 18.8167L62.4961 17.9838L62.1864 17.633ZM62.0086 17.1509L62.3336 16.8152L62.3286 16.8076L62.3159 16.8L62.0086 17.1509ZM61.5364 16.9616L61.5211 17.4437H61.5491L61.5364 16.9616ZM61.0667 17.1509L60.767 16.8H60.762L60.7543 16.8076L61.0667 17.1509ZM60.8864 17.6607H61.3333V17.633L60.8864 17.6607ZM60.8864 23.7588L61.3333 23.7714V23.7588H60.8864ZM61.5364 24.458L61.5542 23.9759H61.5161L61.5364 24.458ZM62.0086 24.2611L62.3286 24.5968L62.3413 24.5842L62.0086 24.2611ZM62.1864 23.7588H61.737V23.7714L62.1864 23.7588ZM62.1864 19.8945H62.6333V19.8794L62.1864 19.8945ZM63.7124 18.1378L63.6997 18.6199H63.7251L63.7124 18.1378ZM65.1418 23.7588L65.5913 23.7714V23.7588H65.1418ZM65.3247 24.2611L65.0124 24.6044L65.02 24.6119L65.0251 24.6195L65.3247 24.2611ZM66.2616 24.2611L66.5663 24.6119L66.5739 24.6044L66.579 24.5968L66.2616 24.2611ZM66.4418 23.7588H65.995V23.7714L66.4418 23.7588ZM66.4418 19.8945H66.8913V19.8794L66.4418 19.8945ZM67.9577 18.1378L67.945 18.6199H67.9831L67.9577 18.1378ZM69.3795 23.7588L69.829 23.7714V23.7588H69.3795ZM70.0295 24.458L70.0575 23.9759H70.0168L70.0295 24.458ZM70.6795 23.7588H70.2327V23.7714L70.6795 23.7588ZM70.6795 19.839L70.2327 19.8238V19.839H70.6795Z" fill="white"/>
<path d="M75.8035 23.2691C76.2123 23.2741 76.616 23.1555 76.9588 22.9309C77.299 22.7087 77.5783 22.3932 77.7662 22.0146C77.9668 21.6158 78.0709 21.1615 78.0658 20.7072C78.0709 20.2428 77.9668 19.7884 77.7662 19.3821C77.5783 19.006 77.299 18.6905 76.9588 18.4658C76.6998 18.2967 76.4129 18.1857 76.1158 18.1428C75.8162 18.1024 75.5115 18.115 75.217 18.2059C74.925 18.2917 74.6533 18.4381 74.4172 18.64C74.1836 18.8444 73.983 19.0968 73.8408 19.3821C73.6377 19.7884 73.5412 20.2428 73.5463 20.7072C73.5412 21.1615 73.6377 21.6158 73.8408 22.0146C74.0287 22.3932 74.308 22.7138 74.6457 22.9309C74.9961 23.1555 75.3998 23.2741 75.8035 23.2691ZM72.9496 27.6559C72.8658 27.6559 72.7795 27.6432 72.6957 27.6079C72.617 27.5726 72.5459 27.5246 72.4824 27.4539C72.424 27.3908 72.3707 27.3075 72.3377 27.2217C72.3047 27.1384 72.292 27.0476 72.292 26.9491V20.6996C72.292 20.0206 72.4545 19.3467 72.7668 18.7536C73.0664 18.1857 73.4955 17.7162 74.016 17.3881C74.4172 17.1357 74.8615 16.9691 75.316 16.8984C75.7756 16.8277 76.2453 16.8555 76.6922 16.9817C77.1416 17.1079 77.5631 17.3325 77.9338 17.6329C78.3045 17.9333 78.6117 18.3194 78.8453 18.746C79.1576 19.3417 79.3201 20.0131 79.3125 20.692C79.3252 21.3634 79.1754 22.0348 78.8834 22.6305C78.6117 23.1833 78.208 23.6527 77.7205 23.9884C77.266 24.2837 76.7455 24.4579 76.2123 24.4857C75.6791 24.5134 75.1459 24.4024 74.666 24.1575C74.2496 23.9405 73.8865 23.625 73.5869 23.2464V26.9491C73.5869 27.04 73.5742 27.1309 73.5412 27.2217C73.5082 27.3075 73.4625 27.3833 73.4041 27.4539C73.3457 27.5246 73.267 27.5726 73.1908 27.6079C73.1248 27.6508 73.041 27.6634 72.9496 27.6559Z" fill="white"/>
<path d="M74.4171 23.3372C74.8335 23.6098 75.316 23.7587 75.8085 23.7512L75.8035 22.792C75.4785 22.792 75.1585 22.7012 74.8869 22.5194L74.4171 23.3372ZM73.4498 22.2317C73.6783 22.686 74.0083 23.0722 74.4248 23.3372L74.8869 22.5119C74.6126 22.3377 74.3917 22.0853 74.2419 21.7774L73.4498 22.2317ZM73.1044 20.692C73.0994 21.2322 73.2162 21.7622 73.4498 22.2317L74.2369 21.7849C74.0744 21.4543 73.988 21.0832 73.9957 20.7072L73.1044 20.692ZM73.4498 19.1524C73.2162 19.6269 73.0994 20.167 73.1044 20.7072L73.9957 20.692C73.988 20.3134 74.0744 19.9348 74.2369 19.5991L73.4498 19.1524ZM74.1455 18.2563C73.8585 18.5012 73.6249 18.8015 73.4498 19.1448L74.2369 19.5991C74.3537 19.3694 74.5085 19.165 74.699 19.006L74.1455 18.2563ZM75.1078 17.7313C74.7574 17.8348 74.4324 18.0115 74.1455 18.2563L74.699 19.011C74.8869 18.852 75.1078 18.7308 75.3414 18.6627L75.1078 17.7313ZM76.1792 17.6607C75.8212 17.6051 75.4505 17.6329 75.1078 17.7313L75.3414 18.6627C75.5749 18.592 75.8162 18.5769 76.0574 18.6122L76.1792 17.6607ZM77.1949 18.0519C76.8826 17.85 76.5373 17.7162 76.1792 17.6607L76.0574 18.6122C76.296 18.6476 76.5246 18.7384 76.7328 18.8722L77.1949 18.0519ZM78.1623 19.1524C77.9337 18.7031 77.6037 18.3194 77.1949 18.0519L76.7251 18.8722C76.9994 19.0539 77.2203 19.3063 77.3751 19.6143L78.1623 19.1524ZM78.5203 20.7122C78.5253 20.167 78.4085 19.6345 78.1699 19.1524L77.3828 19.6067C77.5503 19.9424 77.6367 20.3134 77.629 20.692L78.5203 20.7122ZM78.1623 22.2393C78.4035 21.7622 78.5203 21.2322 78.5126 20.692L77.624 20.7072C77.629 21.0832 77.5453 21.4467 77.3751 21.7774L78.1623 22.2393ZM77.1999 23.3372C77.6037 23.0722 77.9414 22.686 78.1699 22.2393L77.3828 21.7774C77.2253 22.0777 77.0044 22.3377 76.7328 22.5194L77.1999 23.3372ZM75.7958 23.7512C76.291 23.7587 76.7708 23.6174 77.1949 23.3448L76.7328 22.5194C76.4535 22.7012 76.1335 22.792 75.8085 22.7845L75.7958 23.7512ZM73.041 27.1662C73.0207 27.1738 72.9953 27.1813 72.9699 27.1813L72.9292 28.1405C73.079 28.148 73.2289 28.1177 73.366 28.0622L73.041 27.1662ZM73.1044 27.1258C73.0867 27.146 73.0664 27.1611 73.046 27.1662L73.371 28.0622C73.5082 28.0067 73.6376 27.9158 73.7417 27.7972L73.1044 27.1258ZM73.1374 27.0551C73.1324 27.0829 73.1121 27.1031 73.0994 27.1258L73.7417 27.7896C73.8408 27.6786 73.9246 27.5448 73.9753 27.3984L73.1374 27.0551ZM73.1501 26.9769C73.1501 27.0072 73.1451 27.0349 73.1374 27.0627L73.9703 27.406C74.021 27.257 74.049 27.1031 74.0414 26.9491L73.1501 26.9769ZM73.1501 23.2539V26.9567H74.0414V23.2539H73.1501ZM74.8742 23.736C74.5162 23.5467 74.1962 23.2817 73.9449 22.946L73.2542 23.5619C73.5919 23.996 74.0083 24.3519 74.4755 24.5967L74.8742 23.736ZM76.1996 24.0162C75.7374 24.0439 75.283 23.948 74.8665 23.731L74.4832 24.5967C75.029 24.8769 75.6333 25.0107 76.2453 24.9753L76.1996 24.0162ZM77.4996 23.5896C77.1085 23.8496 76.6617 23.9884 76.1996 24.0162L76.2453 24.9753C76.8496 24.94 77.4412 24.7532 77.9617 24.4099L77.4996 23.5896ZM78.4999 22.421C78.2664 22.9031 77.916 23.3019 77.4919 23.5972L77.9667 24.4099C78.5253 24.0313 78.9824 23.4988 79.2921 22.8677L78.4999 22.421ZM78.8707 20.7122C78.8783 21.3079 78.7539 21.896 78.4949 22.421L79.2871 22.8677C79.6121 22.1964 79.7746 21.4543 79.7619 20.6996L78.8707 20.7122ZM78.4669 18.9984C78.7412 19.5158 78.8833 20.1039 78.8783 20.6996L79.7669 20.7122C79.7796 19.9424 79.5994 19.1877 79.2414 18.5214L78.4669 18.9984ZM77.6748 18.0241C77.9998 18.2917 78.2664 18.6198 78.4669 18.9984L79.2414 18.5138C78.9824 18.0241 78.6294 17.5976 78.213 17.2543L77.6748 18.0241ZM76.588 17.4512C76.979 17.5622 77.3498 17.7515 77.6748 18.0191L78.213 17.2543C77.7992 16.911 77.3244 16.6611 76.8165 16.5198L76.588 17.4512ZM75.3871 17.3729C75.7908 17.3098 76.1996 17.3401 76.588 17.4512L76.8165 16.5198C76.3087 16.381 75.7832 16.3456 75.2626 16.4214L75.3871 17.3729ZM74.2496 17.807C74.5999 17.5849 74.9833 17.436 75.3871 17.3805L75.2626 16.4289C74.7421 16.5072 74.2419 16.6939 73.7951 16.9817L74.2496 17.807ZM73.1628 18.9908C73.4244 18.5012 73.7951 18.0872 74.2496 17.807L73.8001 16.9741C73.2085 17.3451 72.721 17.8777 72.391 18.5214L73.1628 18.9908ZM72.749 20.7072C72.749 20.1039 72.8912 19.5158 73.1628 18.9984L72.3833 18.5289C72.033 19.1927 71.8501 19.95 71.8578 20.7122L72.749 20.7072ZM72.749 26.9567V20.7072H71.8578V26.9567H72.749ZM72.7617 27.0476C72.754 27.0198 72.749 26.9996 72.749 26.9718L71.8578 26.9441C71.8501 27.1031 71.8755 27.257 71.9365 27.406L72.7617 27.0476ZM72.7998 27.1182C72.7794 27.098 72.7667 27.0753 72.7617 27.0476L71.9289 27.406C71.9796 27.5524 72.066 27.6861 72.1701 27.7972L72.7998 27.1182ZM72.8658 27.1611C72.8378 27.1536 72.8201 27.1308 72.7998 27.1182L72.1701 27.7972C72.2742 27.9082 72.396 27.9991 72.5332 28.0572L72.8658 27.1611ZM72.9369 27.1738C72.9115 27.1738 72.8835 27.1662 72.8658 27.1611L72.5332 28.0572C72.6703 28.1127 72.8124 28.1405 72.9623 28.1405L72.9369 27.1738ZM73.5462 20.6996L73.9957 20.7072V20.692L73.5462 20.6996ZM78.0708 20.7072L77.624 20.6996V20.7122L78.0708 20.7072ZM75.8035 23.2691L75.8085 22.7845H75.7958L75.8035 23.2691ZM73.5996 26.9567H73.1501V26.9718L73.5996 26.9567ZM73.5996 23.2539L73.9449 22.946L73.1501 21.9162V23.2464H73.5996V23.2539ZM77.7255 24.0036L77.9617 24.415H77.9744L77.7255 24.0036ZM79.3201 20.7072L78.8707 20.6996V20.7122L79.3201 20.7072ZM72.2996 26.9567L72.749 26.9718V26.9567H72.2996ZM72.9496 27.6558L72.9699 27.1738H72.9292L72.9496 27.6558Z" fill="white"/>
<path d="M92.1499 20.629C92.1042 20.2024 92.1753 19.7683 92.3505 19.3897C92.5536 18.9782 92.8583 18.6274 93.2366 18.3952C93.5413 18.1731 93.9044 18.0519 94.27 18.0469C94.6407 18.0469 95.0038 18.1655 95.3085 18.3826C95.5421 18.5441 95.7452 18.7385 95.9204 18.9707L92.32 21.3862C92.2337 21.1388 92.1702 20.8889 92.1499 20.629ZM98.0659 21.2448C98.0126 21.1742 97.9542 21.1111 97.8831 21.0707C97.812 21.0278 97.7333 21 97.6495 20.9849C97.5073 20.9647 97.3626 21 97.2458 21.0833C97.1239 21.1742 97.0249 21.3079 96.9741 21.4543C96.8751 21.7067 96.7456 21.9389 96.5831 22.1409C96.413 22.3781 96.2073 22.5826 95.9712 22.7441C95.5954 23.0091 95.1587 23.1555 94.7118 23.1833C94.2954 23.206 93.879 23.1 93.5083 22.8905C93.2544 22.7441 93.0284 22.5548 92.838 22.3226L96.9538 19.5638C97.0909 19.4805 97.1874 19.3417 97.2255 19.1802C97.2458 19.1019 97.2458 19.0186 97.2331 18.9429C97.2204 18.8647 97.195 18.7889 97.1544 18.7258C96.8421 18.1579 96.413 17.6683 95.9001 17.3099C95.4329 16.9893 94.8921 16.8202 94.3335 16.8202C93.7368 16.8429 93.1503 17.0373 92.6501 17.3881C92.1169 17.7314 91.6751 18.2286 91.3755 18.8167C91.0962 19.377 90.9667 20.0131 91.0073 20.6492C91.0505 21.3357 91.2536 22.0071 91.604 22.5826C91.9366 23.1707 92.4114 23.6528 92.9751 23.9809C93.5159 24.2888 94.1202 24.4302 94.7245 24.3948C95.2577 24.3519 95.7833 24.198 96.2581 23.9254C96.7329 23.6603 97.1544 23.2893 97.4921 22.84C97.7587 22.5043 97.9669 22.1282 98.1116 21.7219C98.1421 21.6436 98.1573 21.5603 98.1497 21.477C98.137 21.3988 98.1116 21.3155 98.0659 21.2448Z" fill="white"/>
<path d="M92.7368 21.1969C92.6581 21 92.6124 20.7981 92.5921 20.581L91.7009 20.677C91.7288 20.9849 91.7999 21.2878 91.9091 21.5679L92.7368 21.1969ZM95.6872 18.5568L92.0868 20.9723L92.5591 21.7901L96.162 19.3771L95.6872 18.5568ZM95.0753 18.7814C95.2632 18.9152 95.4333 19.0742 95.5755 19.2635L96.2712 18.6628C96.0706 18.3902 95.8294 18.158 95.5577 17.9687L95.0753 18.7814ZM94.2755 18.5214C94.5548 18.5214 94.829 18.6123 95.0626 18.7814L95.5577 17.9838C95.1743 17.7112 94.7249 17.5623 94.2704 17.5623L94.2755 18.5214ZM93.4884 18.789C93.7245 18.6199 93.9962 18.529 94.2755 18.5214L94.2704 17.5623C93.8083 17.5623 93.3589 17.7163 92.9831 17.9889L93.4884 18.789ZM92.7495 19.6068C92.912 19.2711 93.1583 18.9909 93.463 18.8016L93.0161 17.9687C92.5667 18.2488 92.196 18.6628 91.9548 19.16L92.7495 19.6068ZM92.5921 20.5735C92.554 20.2378 92.6124 19.9021 92.7546 19.5992L91.9548 19.1651C91.7339 19.6345 91.6501 20.1595 91.7085 20.677L92.5921 20.5735ZM98.5868 21.4417C98.5716 21.2802 98.5208 21.1187 98.437 20.9798L97.688 21.5099V21.5175L98.5868 21.4417ZM98.5132 21.9163C98.5792 21.7623 98.6046 21.6033 98.5919 21.4342L97.7007 21.5099V21.5175L98.5132 21.9163ZM97.8251 23.1556C98.1247 22.777 98.3583 22.3504 98.5208 21.8885L97.6829 21.5452C97.5585 21.9036 97.3757 22.2318 97.1421 22.5271L97.8251 23.1556ZM96.4591 24.3595C96.9923 24.0592 97.462 23.6528 97.8327 23.148L97.137 22.5473C96.8374 22.9461 96.4667 23.2742 96.0452 23.514L96.4591 24.3595ZM94.7503 24.877C95.3495 24.8366 95.9259 24.6548 96.4591 24.3595L96.0452 23.5064C95.6212 23.7437 95.1591 23.885 94.6868 23.9178L94.7503 24.877ZM92.7622 24.4151C93.3716 24.7659 94.0546 24.9199 94.7452 24.877L94.6919 23.9178C94.1663 23.9532 93.6382 23.827 93.1786 23.5619L92.7622 24.4151ZM91.221 22.8401C91.5993 23.5064 92.1249 24.044 92.7622 24.4151L93.1837 23.5695C92.6911 23.2818 92.2747 22.8552 91.9827 22.3428L91.221 22.8401ZM90.5583 20.6845C90.604 21.4544 90.8376 22.204 91.2286 22.8476L91.9751 22.3226C91.6704 21.8128 91.4876 21.2247 91.4495 20.6214L90.5583 20.6845ZM90.9798 18.5921C90.6624 19.2357 90.5202 19.9576 90.5583 20.677L91.4495 20.6214C91.4165 20.0762 91.5333 19.531 91.7669 19.0389L90.9798 18.5921ZM92.4245 16.9818C91.8202 17.373 91.3251 17.9283 90.9874 18.5921L91.7745 19.054C92.0335 18.5366 92.4169 18.11 92.8841 17.8071L92.4245 16.9818ZM94.3212 16.3381C93.6382 16.3583 92.9755 16.583 92.4042 16.9893L92.8917 17.7945C93.3259 17.4866 93.8286 17.3175 94.3415 17.3048L94.3212 16.3381ZM96.1417 16.9111C95.6009 16.5401 94.9788 16.3457 94.3339 16.3457V17.3048C94.8036 17.3048 95.2632 17.4437 95.6542 17.7163L96.1417 16.9111ZM97.5382 18.481C97.1954 17.8425 96.713 17.3048 96.1417 16.906L95.6618 17.7163C96.1163 18.0318 96.4997 18.4659 96.7714 18.9707L97.5382 18.481ZM97.6753 18.8647C97.6499 18.7183 97.6042 18.5845 97.5255 18.4583L96.779 18.9909C96.7841 19.006 96.7917 19.0111 96.7917 19.0262L97.6753 18.8647ZM97.6626 19.2988C97.6956 19.16 97.7007 19.0111 97.6753 18.8647L96.7993 19.0262C96.7993 19.0389 96.7993 19.054 96.7993 19.0691L97.6626 19.2988ZM97.1827 19.9854C97.4163 19.839 97.5915 19.5941 97.6626 19.3064L96.7993 19.0616C96.7917 19.102 96.7663 19.1322 96.7333 19.1524L97.1827 19.9854ZM93.0745 22.7366L97.1878 19.9778L96.713 19.16L92.5997 21.9163L93.0745 22.7366ZM93.7245 22.469C93.5163 22.3504 93.3335 22.1964 93.1786 22.0071L92.5083 22.6457C92.7368 22.9183 93.0009 23.148 93.3005 23.3247L93.7245 22.469ZM94.6919 22.7088C94.3542 22.7214 94.0165 22.6457 93.7245 22.469L93.3005 23.3171C93.7423 23.5695 94.2374 23.6957 94.7376 23.6679L94.6919 22.7088ZM95.7329 22.3428C95.4206 22.5599 95.0626 22.6861 94.6919 22.7088L94.7376 23.6679C95.2632 23.6402 95.7786 23.4559 96.2204 23.148L95.7329 22.3428ZM96.2331 21.8532C96.0884 22.05 95.9208 22.2116 95.7329 22.3428L96.2204 23.148C96.4921 22.9612 96.7384 22.7139 96.9415 22.4413L96.2331 21.8532ZM96.5632 21.2726C96.487 21.4771 96.3753 21.6639 96.2458 21.833L96.9288 22.4564C97.1167 22.2116 97.2716 21.939 97.3884 21.6437L96.5632 21.2726ZM96.9999 20.6921C96.7993 20.8385 96.6495 21.0429 96.5581 21.2878L97.3884 21.6361C97.4087 21.573 97.4493 21.525 97.5001 21.4897L96.9999 20.6921ZM97.7134 20.5179C97.4671 20.4826 97.2132 20.5381 97.005 20.6921L97.5001 21.4897C97.5255 21.4695 97.5585 21.4619 97.5915 21.4695L97.7134 20.5179ZM98.1044 20.6492C97.98 20.5735 97.8454 20.523 97.7007 20.5104L97.6042 21.4695C97.6245 21.4695 97.6499 21.4771 97.6702 21.4897L98.1044 20.6492ZM98.4243 20.9571C98.338 20.8309 98.2288 20.735 98.1044 20.6568L97.6626 21.4973C97.6829 21.5099 97.7007 21.525 97.7134 21.5452L98.4243 20.9571ZM92.1503 20.629V20.1469H91.6577L91.7085 20.677L92.1503 20.629ZM92.3255 21.3786L91.9167 21.5679L92.1173 22.0854L92.5591 21.785L92.3255 21.3786ZM95.9259 18.9631L96.162 19.3695L96.5911 19.0818L96.2712 18.6628L95.9259 18.9631ZM95.3165 18.3826L95.0702 18.7814H95.0829L95.3165 18.3826ZM93.2421 18.3902L93.4706 18.8016L93.4833 18.794L93.496 18.789L93.2421 18.3902ZM92.1503 20.629V21.1111H92.6505L92.5921 20.5735L92.1503 20.629ZM98.1044 21.7219L97.6956 21.525L97.688 21.5402L97.6829 21.5528L98.1044 21.7219ZM97.4874 22.8476L97.1497 22.5321L97.1421 22.5397L97.137 22.5473L97.4874 22.8476ZM91.6044 22.5902L91.9878 22.3378L91.9827 22.3302L91.9751 22.3226L91.6044 22.5902ZM92.6505 17.3957L92.879 17.8071L92.8917 17.7945L92.6505 17.3957ZM94.3339 16.8202V16.3381H94.3212L94.3339 16.8202ZM97.1548 18.7259L96.7714 18.9707L96.779 18.9833L96.7841 18.9985L97.1548 18.7259ZM96.9542 19.5639L96.7257 19.1524L96.7206 19.16L96.713 19.1651L96.9542 19.5639ZM92.8384 22.3226L92.6048 21.9163L92.1579 22.2191L92.5083 22.6457L92.8384 22.3226ZM96.5835 22.1485L96.2382 21.8405L96.2331 21.8481L96.2255 21.8532L96.5835 22.1485ZM96.9745 21.4619L97.3833 21.6437V21.631L96.9745 21.4619ZM97.6499 20.9925L97.5839 21.4695H97.5966L97.6499 20.9925ZM98.0663 21.2449L98.437 20.9798L98.4294 20.9647L98.4243 20.9521L98.0663 21.2449Z" fill="white"/>
<path d="M104.792 22.0146C104.604 22.3932 104.325 22.7087 103.987 22.9308C103.637 23.1555 103.238 23.269 102.829 23.269C102.426 23.269 102.024 23.1479 101.674 22.9308C101.329 22.7087 101.049 22.3932 100.854 22.0146C100.658 21.6082 100.554 21.1539 100.554 20.6996C100.554 20.2427 100.658 19.7884 100.854 19.382C101.049 19.0059 101.329 18.6904 101.674 18.4658C102.024 18.2412 102.421 18.1301 102.829 18.1301C103.233 18.1301 103.637 18.2487 103.987 18.4658C104.325 18.6904 104.604 19.0059 104.792 19.382C104.988 19.7884 105.087 20.2427 105.087 20.6996C105.087 21.1539 104.988 21.6032 104.792 22.0146ZM105.866 18.7535C105.559 18.1781 105.117 17.7035 104.584 17.3729C104.051 17.0448 103.441 16.8782 102.829 16.8908C102.205 16.8832 101.588 17.0523 101.042 17.3956C100.516 17.7237 100.08 18.1932 99.7825 18.7611C99.4702 19.3467 99.3077 20.0206 99.3128 20.6996C99.3001 21.3785 99.4499 22.0424 99.7419 22.638C100.016 23.1908 100.412 23.6603 100.905 23.996C101.407 24.3241 101.984 24.4932 102.575 24.4932C103.162 24.4932 103.741 24.319 104.246 23.996C104.546 23.794 104.812 23.5416 105.033 23.2463V23.7587C105.033 23.8496 105.046 23.9404 105.079 24.0313C105.112 24.1146 105.158 24.1928 105.221 24.261C105.28 24.3241 105.358 24.3822 105.437 24.415C105.513 24.4503 105.605 24.4654 105.691 24.4654C105.775 24.4654 105.858 24.4503 105.942 24.415C106.029 24.3822 106.092 24.3317 106.158 24.261C106.216 24.1979 106.267 24.1146 106.3 24.0313C106.333 23.948 106.346 23.8572 106.346 23.7587V20.6996C106.341 20.0206 106.183 19.3467 105.866 18.7535Z" fill="white"/>
<path d="M104.637 20.6997C104.637 21.0833 104.553 21.4544 104.391 21.7976L105.188 22.2318C105.411 21.7572 105.528 21.2322 105.528 20.6997H104.637ZM104.396 19.5992C104.558 19.9425 104.642 20.3135 104.642 20.6997H105.533C105.533 20.1671 105.416 19.6421 105.196 19.1651L104.396 19.5992ZM103.753 18.8723C104.025 19.0464 104.246 19.3064 104.396 19.6068L105.183 19.1524C104.954 18.6981 104.624 18.3195 104.213 18.0469L103.753 18.8723ZM102.829 18.6072C103.154 18.6072 103.479 18.6981 103.758 18.8798L104.208 18.0469C103.791 17.7794 103.312 17.6405 102.829 17.6405V18.6072ZM101.907 18.8798C102.187 18.7032 102.512 18.6072 102.837 18.6072V17.6481C102.349 17.6481 101.874 17.7869 101.458 18.052L101.907 18.8798ZM101.25 19.6143C101.407 19.314 101.633 19.054 101.907 18.8798L101.445 18.052C101.037 18.3195 100.699 18.6981 100.463 19.1524L101.25 19.6143ZM101.009 20.6997C101.009 20.3211 101.095 19.9425 101.257 19.5992L100.463 19.16C100.237 19.6345 100.12 20.1595 100.12 20.6921H101.009V20.6997ZM101.257 21.7901C101.095 21.4544 101.009 21.0783 101.009 20.6921H100.12C100.12 21.2247 100.237 21.7572 100.463 22.2242L101.257 21.7901ZM101.907 22.5195C101.633 22.3378 101.407 22.0854 101.25 21.7774L100.463 22.2393C100.691 22.6937 101.029 23.0723 101.438 23.3373L101.907 22.5195ZM102.829 22.7921C102.504 22.7921 102.179 22.7012 101.9 22.5195L101.45 23.3524C101.867 23.6175 102.349 23.7588 102.829 23.7588V22.7921ZM103.758 22.5195C103.479 22.6937 103.154 22.7921 102.829 22.7921V23.7512C103.317 23.7512 103.791 23.6099 104.208 23.3449L103.758 22.5195ZM104.396 21.785C104.246 22.0854 104.025 22.3428 103.753 22.5195L104.221 23.3373C104.629 23.0723 104.962 22.6861 105.188 22.2318L104.396 21.785ZM106.775 20.7072C106.788 19.9349 106.607 19.1802 106.249 18.5138L105.475 18.9909C105.749 19.5083 105.891 20.0888 105.879 20.6845L106.775 20.7072ZM106.775 23.7588V20.6997H105.884V23.7588H106.775ZM106.704 24.2056C106.755 24.0592 106.782 23.8976 106.782 23.7437L105.891 23.7714C105.891 23.7992 105.884 23.827 105.879 23.8497L106.704 24.2056ZM106.463 24.5968C106.567 24.4857 106.65 24.3519 106.704 24.2056L105.871 23.8497C105.866 23.8774 105.846 23.8976 105.833 23.9178L106.463 24.5968ZM106.099 24.8568C106.237 24.8012 106.358 24.7104 106.463 24.5968L105.833 23.9178C105.813 23.9405 105.795 23.9532 105.767 23.9607L106.099 24.8568ZM105.67 24.935C105.82 24.9401 105.962 24.9123 106.099 24.8492L105.767 23.9532C105.741 23.9607 105.721 23.9683 105.696 23.9683L105.67 24.935ZM105.267 24.8568C105.404 24.9123 105.554 24.9401 105.696 24.9401L105.67 23.9809C105.645 23.9809 105.617 23.9759 105.599 23.9683L105.267 24.8568ZM104.904 24.5968C105.008 24.7104 105.13 24.8012 105.267 24.8568L105.599 23.9607C105.574 23.9532 105.554 23.933 105.533 23.9178L104.904 24.5968ZM104.662 24.2056C104.716 24.3519 104.799 24.4857 104.904 24.5968L105.533 23.9128C105.513 23.8901 105.5 23.8699 105.495 23.8497L104.662 24.2056ZM104.584 23.7437C104.579 23.9052 104.604 24.0592 104.662 24.2056L105.495 23.8497C105.488 23.827 105.482 23.7992 105.482 23.7714L104.584 23.7437ZM104.584 23.2464V23.7588H105.475V23.2464H104.584ZM104.48 24.4024C104.82 24.1702 105.117 23.885 105.378 23.5468L104.688 22.9385C104.495 23.1909 104.259 23.4155 104.007 23.5897L104.48 24.4024ZM102.575 24.983C103.246 24.983 103.903 24.7861 104.474 24.4151L104.012 23.5897C103.578 23.8699 103.083 24.0238 102.575 24.0238V24.983ZM100.671 24.41C101.245 24.781 101.9 24.9754 102.57 24.9754V24.0163C102.062 24.0163 101.57 23.8699 101.133 23.5821L100.671 24.41ZM99.3456 22.8628C99.6503 23.4913 100.107 24.0238 100.666 24.4024L101.146 23.5897C100.724 23.2969 100.374 22.8905 100.138 22.4135L99.3456 22.8628ZM98.8657 20.6921C98.8505 21.4468 99.0206 22.1964 99.3456 22.8678L100.138 22.4211C99.8788 21.8961 99.7493 21.308 99.762 20.7123L98.8657 20.6921ZM99.3989 18.5138C99.046 19.1802 98.8657 19.9349 98.8708 20.6997L99.762 20.6921C99.7544 20.0964 99.8991 19.5083 100.171 18.9909L99.3989 18.5138ZM100.821 16.9742C100.229 17.3452 99.7366 17.8778 99.3989 18.5138L100.171 18.9909C100.432 18.5012 100.808 18.0873 101.263 17.8071L100.821 16.9742ZM102.837 16.4088C102.128 16.3937 101.433 16.5905 100.821 16.9742L101.27 17.8071C101.745 17.5143 102.283 17.3604 102.829 17.373L102.837 16.4088ZM104.805 16.954C104.2 16.583 103.52 16.3937 102.824 16.4088L102.837 17.3679C103.37 17.3604 103.903 17.4992 104.363 17.7869L104.805 16.954ZM106.254 18.5138C105.912 17.8652 105.411 17.325 104.805 16.954L104.363 17.7869C104.832 18.0747 105.216 18.4861 105.482 18.9909L106.254 18.5138ZM104.792 19.3821L105.188 19.1651V19.1524L104.792 19.3821ZM103.987 18.4583L104.221 18.0469H104.208L103.987 18.4583ZM100.861 19.3821L100.47 19.1524V19.1651L100.861 19.3821ZM100.861 22.0147L100.463 22.2318V22.2469L100.861 22.0147ZM103.987 22.9309L104.213 23.3449H104.228L103.987 22.9309ZM104.792 22.0147L105.188 22.2393V22.2242L104.792 22.0147ZM106.333 20.6997L105.884 20.6921V20.7072H106.333V20.6997ZM106.333 23.7588H105.884V23.7714L106.333 23.7588ZM105.683 24.458L105.696 23.9759H105.67L105.683 24.458ZM105.033 23.7588L105.482 23.7714V23.7588H105.033ZM105.033 23.2464H105.482V21.9112L104.688 22.9461L105.033 23.2464ZM104.241 24.0036L104.474 24.4151H104.487L104.241 24.0036ZM100.905 24.0036L100.666 24.41H100.679L100.905 24.0036ZM99.3126 20.6997L99.762 20.7072V20.6921L99.3126 20.6997ZM102.829 16.8909L102.824 17.373H102.837L102.829 16.8909Z" fill="white"/>
<path d="M111.234 23.2691C111.645 23.2741 112.046 23.1555 112.391 22.9309C112.729 22.7087 113.008 22.3932 113.196 22.0146C113.399 21.6158 113.504 21.1615 113.496 20.7072C113.504 20.2428 113.399 19.7884 113.196 19.3821C113.008 19.006 112.729 18.6905 112.391 18.4658C112.041 18.2412 111.645 18.1301 111.234 18.1301C110.825 18.1301 110.429 18.2488 110.078 18.4658C109.738 18.6829 109.459 19.006 109.271 19.377C109.07 19.7809 108.971 20.2377 108.979 20.6996C108.971 21.1539 109.07 21.6083 109.271 22.0146C109.459 22.3932 109.738 22.7138 110.083 22.9309C110.434 23.1555 110.832 23.2741 111.234 23.2691ZM108.38 27.6559C108.296 27.6559 108.212 27.6432 108.128 27.6079C108.05 27.5726 107.979 27.5246 107.913 27.4539C107.854 27.3908 107.803 27.3075 107.77 27.2217C107.737 27.1384 107.725 27.0476 107.725 26.9491V20.6996C107.725 20.0206 107.887 19.3467 108.199 18.7536C108.499 18.1857 108.926 17.7162 109.446 17.3881C109.85 17.1357 110.292 16.9691 110.754 16.8984C111.216 16.8277 111.683 16.8555 112.132 16.9817C112.579 17.1079 113.003 17.3325 113.374 17.6329C113.742 17.9333 114.054 18.3194 114.283 18.746C114.595 19.3417 114.758 20.0131 114.745 20.692C114.758 21.3634 114.608 22.0348 114.316 22.6305C114.042 23.1833 113.638 23.6527 113.151 23.9884C112.696 24.2837 112.176 24.4579 111.645 24.4857C111.112 24.5134 110.579 24.4024 110.096 24.1575C109.68 23.9405 109.317 23.625 109.017 23.2464V26.9491C109.017 27.04 109.004 27.1309 108.971 27.2167C108.941 27.3 108.895 27.3782 108.837 27.4464C108.778 27.517 108.7 27.565 108.621 27.6003C108.557 27.6508 108.471 27.6634 108.38 27.6559Z" fill="white"/>
<path d="M111.241 22.7845L111.233 23.7436H111.241V22.7845ZM109.857 23.3448C110.271 23.6174 110.759 23.7587 111.246 23.7512L111.233 22.792C110.908 22.7996 110.591 22.7012 110.317 22.527L109.857 23.3448ZM108.882 22.2393C109.108 22.6936 109.441 23.0798 109.857 23.3448L110.317 22.5194C110.045 22.3427 109.824 22.0929 109.674 21.7849L108.882 22.2393ZM108.537 20.692C108.529 21.2322 108.646 21.7622 108.882 22.2393L109.667 21.79C109.504 21.4543 109.421 21.0832 109.428 20.7072L108.537 20.692ZM108.882 19.1524C108.646 19.6269 108.529 20.167 108.537 20.7072L109.428 20.692C109.421 20.3134 109.504 19.9348 109.667 19.5991L108.882 19.1524ZM109.85 18.0468C109.441 18.3119 109.103 18.6905 108.882 19.1448L109.667 19.5991C109.817 19.2988 110.038 19.0464 110.312 18.8722L109.85 18.0468ZM111.241 17.648C110.754 17.648 110.279 17.7869 109.862 18.0468L110.312 18.8798C110.591 18.7031 110.916 18.6072 111.241 18.6072V17.648ZM112.62 18.0468C112.203 17.7793 111.721 17.648 111.241 17.648V18.6072C111.566 18.6072 111.891 18.698 112.17 18.8798L112.62 18.0468ZM113.595 19.1524C113.366 18.698 113.034 18.3194 112.625 18.0519L112.158 18.8722C112.429 19.0539 112.65 19.3063 112.808 19.6067L113.595 19.1524ZM113.95 20.7122C113.958 20.167 113.841 19.6345 113.6 19.1524L112.813 19.6067C112.983 19.9424 113.067 20.3134 113.062 20.692L113.95 20.7122ZM113.595 22.2468C113.833 21.7698 113.958 21.2372 113.945 20.6996L113.054 20.7122C113.062 21.0832 112.975 21.4543 112.808 21.7849L113.595 22.2468ZM112.625 23.3448C113.034 23.0798 113.366 22.6936 113.595 22.2468L112.808 21.79C112.658 22.0929 112.429 22.3503 112.158 22.527L112.625 23.3448ZM111.228 23.7512C111.721 23.7587 112.203 23.6174 112.625 23.3448L112.163 22.5194C111.883 22.7012 111.566 22.792 111.241 22.7845L111.228 23.7512ZM108.471 27.1662C108.446 27.1738 108.425 27.1813 108.4 27.1813L108.362 28.1405C108.512 28.148 108.661 28.1177 108.796 28.0622L108.471 27.1662ZM108.537 27.1182C108.517 27.1384 108.499 27.1536 108.479 27.1611L108.804 28.0572C108.941 27.9991 109.07 27.9082 109.174 27.7896L108.537 27.1182ZM108.57 27.0551C108.562 27.0829 108.542 27.1031 108.529 27.1258L109.174 27.7896C109.271 27.6786 109.349 27.5448 109.4 27.3984L108.57 27.0551ZM108.583 26.9718C108.583 26.9996 108.575 27.0274 108.57 27.0551L109.4 27.3984C109.454 27.252 109.479 27.098 109.474 26.9441L108.583 26.9718ZM108.583 23.2539V26.9567H109.474V23.2539H108.583ZM110.304 23.736C109.946 23.5467 109.629 23.2817 109.375 22.946L108.687 23.5619C109.024 23.996 109.441 24.3519 109.908 24.5967L110.304 23.736ZM111.63 24.0162C111.17 24.0439 110.713 23.948 110.299 23.731L109.916 24.5967C110.462 24.8769 111.066 25.0107 111.67 24.9753L111.63 24.0162ZM112.924 23.5896C112.533 23.8496 112.087 23.9884 111.624 24.0162L111.67 24.9753C112.274 24.94 112.866 24.7532 113.387 24.4099L112.924 23.5896ZM113.932 22.421C113.699 22.9031 113.346 23.3019 112.924 23.5972L113.399 24.4099C113.958 24.0313 114.412 23.4988 114.725 22.8677L113.932 22.421ZM114.303 20.7122C114.308 21.3079 114.186 21.896 113.925 22.421L114.717 22.8677C115.042 22.1964 115.205 21.4543 115.192 20.6996L114.303 20.7122ZM113.899 18.9908C114.171 19.5082 114.316 20.0963 114.303 20.692L115.192 20.7072C115.205 19.9348 115.024 19.1801 114.674 18.5138L113.899 18.9908ZM113.107 18.0241C113.432 18.2917 113.699 18.6198 113.899 18.9984L114.674 18.5138C114.412 18.0241 114.062 17.5976 113.646 17.2543L113.107 18.0241ZM112.021 17.4512C112.412 17.5622 112.782 17.7515 113.107 18.0191L113.646 17.2543C113.229 16.911 112.754 16.6611 112.249 16.5198L112.021 17.4512ZM110.817 17.3729C111.221 17.3098 111.63 17.3401 112.021 17.4512L112.249 16.5198C111.741 16.381 111.216 16.3456 110.695 16.4214L110.817 17.3729ZM109.68 17.807C110.032 17.5849 110.416 17.436 110.817 17.3805L110.695 16.4289C110.175 16.5072 109.674 16.6939 109.225 16.9817L109.68 17.807ZM108.595 18.9908C108.854 18.5012 109.225 18.0872 109.68 17.807L109.233 16.9741C108.641 17.3451 108.154 17.8777 107.821 18.5138L108.595 18.9908ZM108.179 20.7072C108.179 20.1039 108.321 19.5158 108.595 18.9908L107.816 18.5214C107.471 19.1877 107.288 19.9424 107.288 20.7072H108.179ZM108.179 26.9567V20.7072H107.288V26.9567H108.179ZM108.192 27.0476C108.187 27.0198 108.179 26.9996 108.179 26.9718L107.288 26.9441C107.283 27.1031 107.308 27.257 107.366 27.406L108.192 27.0476ZM108.232 27.1182C108.212 27.098 108.199 27.0753 108.192 27.0476L107.361 27.406C107.412 27.5524 107.496 27.6861 107.6 27.7972L108.232 27.1182ZM108.296 27.1611C108.27 27.1536 108.25 27.1308 108.232 27.1182L107.6 27.7972C107.704 27.9082 107.829 27.9941 107.966 28.0572L108.296 27.1611ZM108.367 27.1738C108.341 27.1738 108.316 27.1662 108.296 27.1611L107.966 28.0572C108.1 28.1127 108.245 28.1405 108.395 28.1405L108.367 27.1738ZM111.241 23.2691L111.246 23.7512L111.241 22.792V23.2691ZM108.986 20.6996L109.433 20.7072V20.692L108.986 20.6996ZM112.391 18.4582L112.625 18.0468H112.612L112.391 18.4582ZM113.503 20.7072L113.054 20.6996V20.7122L113.503 20.7072ZM111.233 23.2691V22.7845L111.228 23.7436L111.233 23.2691ZM109.03 26.9567H108.583V26.9718L109.03 26.9567ZM109.03 23.2539L109.375 22.946L108.583 21.9162V23.2539H109.03ZM113.158 24.0036L113.392 24.415H113.404L113.158 24.0036ZM114.75 20.7072L114.303 20.6996V20.7122L114.75 20.7072ZM107.73 26.9567L108.179 26.9718V26.9567H107.73ZM108.38 27.6558L108.4 27.1738H108.374L108.38 27.6558Z" fill="white"/>
<path d="M82.4254 14.4199V23.7512C82.433 23.933 82.367 24.1147 82.2502 24.2485C82.1283 24.3747 81.9658 24.4504 81.788 24.4504C81.6205 24.4504 81.4504 24.3822 81.3285 24.2485C81.2701 24.1854 81.2244 24.1021 81.1914 24.0163C81.1584 23.933 81.1457 23.8421 81.1457 23.7512V14.4199C81.138 14.329 81.1584 14.2381 81.1838 14.1473C81.2168 14.064 81.2625 13.9782 81.3209 13.9151C81.3793 13.8469 81.4504 13.7964 81.5291 13.7611C81.6078 13.7283 81.6916 13.7056 81.7754 13.7056C81.8617 13.7056 81.9455 13.7283 82.0242 13.7611C82.1004 13.7964 82.174 13.852 82.2324 13.9151C82.2908 13.9857 82.3365 14.064 82.367 14.1473C82.4203 14.2381 82.433 14.329 82.4254 14.4199Z" fill="white"/>
<path d="M81.9709 14.3213C81.9785 14.3491 81.9836 14.3769 81.9836 14.4072L82.8748 14.4475C82.8824 14.2936 82.8545 14.132 82.8037 13.9856L81.9709 14.3213ZM81.9328 14.2532C81.9506 14.2734 81.9658 14.2936 81.9709 14.3213L82.8088 13.9781C82.758 13.8317 82.6793 13.6979 82.5752 13.5868L81.9328 14.2532ZM81.8668 14.2027C81.8922 14.2179 81.9125 14.2305 81.9328 14.2532L82.5752 13.5868C82.4711 13.4758 82.3543 13.3849 82.2172 13.3218L81.8668 14.2027ZM81.7881 14.1901C81.816 14.1901 81.8414 14.1951 81.8668 14.2027L82.2172 13.3218C82.0826 13.2587 81.9379 13.231 81.7957 13.231V14.1901H81.7881ZM81.717 14.2027C81.7449 14.1901 81.7703 14.1901 81.7957 14.1901V13.231C81.6535 13.231 81.5037 13.2638 81.3742 13.3218L81.717 14.2027ZM81.6535 14.2532C81.6713 14.2305 81.6916 14.2179 81.717 14.2027L81.3666 13.3218C81.2295 13.3849 81.1127 13.4758 81.0086 13.5868L81.6535 14.2532ZM81.6129 14.3213C81.6205 14.2936 81.6408 14.2734 81.6535 14.2532L81.0086 13.5868C80.9045 13.6979 80.8283 13.8317 80.775 13.9781L81.6129 14.3213ZM81.6002 14.3996C81.6002 14.3718 81.6002 14.3441 81.6129 14.3138L80.775 13.973C80.7242 14.1194 80.6963 14.2734 80.7039 14.4349L81.6002 14.3996ZM81.6002 23.7511V14.4198H80.7115V23.7511H81.6002ZM81.6129 23.842C81.6078 23.8142 81.6002 23.7865 81.6002 23.7587L80.7115 23.731C80.7039 23.8849 80.7293 24.0389 80.7826 24.1853L81.6129 23.842ZM81.6535 23.9127C81.6332 23.89 81.6205 23.8698 81.6129 23.842L80.7826 24.1853C80.8334 24.3317 80.9121 24.4655 81.0162 24.5765L81.6535 23.9127ZM81.7957 23.9682C81.7373 23.9682 81.6865 23.948 81.6459 23.9051L81.0213 24.5967C81.2295 24.8138 81.5037 24.9349 81.7957 24.9349V23.9682ZM81.9455 23.9051C81.9074 23.948 81.8541 23.9682 81.7957 23.9682V24.9274C82.0826 24.9274 82.3619 24.8087 82.5701 24.5917L81.9455 23.9051ZM81.9836 23.7587C81.9836 23.8142 81.9658 23.8774 81.9252 23.9177L82.5828 24.5689C82.7783 24.3392 82.8824 24.0439 82.8748 23.731L81.9836 23.7587ZM81.9836 14.4198V23.7511H82.8748V14.4198H81.9836ZM81.1533 14.4198H81.6002V14.4072L81.1533 14.4198ZM81.1533 23.7511L81.6002 23.7638V23.7511H81.1533ZM81.3336 24.2484L81.0162 24.5841L81.0213 24.5917L81.0289 24.5967L81.3336 24.2484ZM82.2578 24.2484L82.5701 24.5917L82.5752 24.5841L82.5828 24.5765L82.2578 24.2484ZM82.4254 23.7511H81.9785V23.7638L82.4254 23.7511ZM82.4254 14.4198L81.9785 14.3996V14.4122H82.4254V14.4198Z" fill="white"/>
<path d="M85.8915 17.6481V23.7512C85.8915 23.8421 85.8788 23.9329 85.8458 24.0162C85.8128 24.102 85.7671 24.1778 85.7087 24.2484C85.6503 24.3191 85.5716 24.3671 85.4954 24.4024C85.4167 24.4377 85.3253 24.4504 85.2415 24.4428C85.1577 24.4428 85.0714 24.4302 84.9876 24.3948C84.9089 24.3595 84.8378 24.3115 84.7743 24.2409C84.7083 24.1702 84.6626 24.0945 84.6296 24.0112C84.5966 23.9254 84.5839 23.8345 84.5839 23.736V17.6329C84.5788 17.5421 84.5966 17.4436 84.6245 17.3603C84.655 17.277 84.7007 17.1912 84.7667 17.1281C84.8327 17.065 84.9038 17.0171 84.98 16.9817C85.0587 16.9464 85.1425 16.9338 85.2339 16.9388C85.3202 16.9338 85.4091 16.9464 85.4878 16.9817C85.5665 17.0171 85.6452 17.065 85.7036 17.1281C85.762 17.1912 85.8128 17.277 85.8458 17.3603C85.8839 17.4588 85.8966 17.5496 85.8915 17.6481Z" fill="white"/>
<path d="M85.4366 17.5421C85.4417 17.5622 85.4493 17.59 85.4493 17.6178L86.3379 17.6809C86.3456 17.5219 86.3253 17.3603 86.2745 17.2064L85.4366 17.5421ZM85.396 17.4789C85.4163 17.4991 85.429 17.5219 85.4366 17.5421L86.2745 17.1988C86.2212 17.0448 86.1374 16.911 86.0333 16.7924L85.396 17.4789ZM85.3376 17.436C85.3579 17.4436 85.3782 17.4588 85.396 17.4789L86.0282 16.8C85.9241 16.6889 85.792 16.5981 85.6499 16.54L85.3376 17.436ZM85.2665 17.4234C85.2919 17.4234 85.3122 17.4234 85.3376 17.436L85.6499 16.535C85.5077 16.4769 85.3579 16.4491 85.2081 16.4643L85.2665 17.4234ZM85.1497 17.436C85.1751 17.431 85.2004 17.4234 85.2284 17.4234L85.2538 16.4643C85.1116 16.4567 84.9669 16.4845 84.8323 16.54L85.1497 17.436ZM85.0786 17.4865C85.0989 17.4638 85.1167 17.4512 85.142 17.4436L84.8247 16.5476C84.6876 16.6031 84.5657 16.6889 84.4616 16.7924L85.0786 17.4865ZM85.0456 17.5421C85.0532 17.5143 85.0659 17.4941 85.0837 17.4789L84.454 16.7924C84.3499 16.906 84.2661 17.0448 84.2128 17.1912L85.0456 17.5421ZM85.0379 17.6178C85.0379 17.59 85.0379 17.5622 85.0532 17.5421L84.2204 17.1912C84.167 17.3401 84.1417 17.4991 84.1493 17.6607L85.0379 17.6178ZM85.0379 23.7512V17.6481H84.1493V23.7512H85.0379ZM85.0532 23.8421C85.0456 23.8143 85.0379 23.7941 85.0379 23.7638L84.1493 23.736C84.1417 23.8976 84.167 24.0515 84.2254 24.1979L85.0532 23.8421ZM85.0913 23.9127C85.071 23.89 85.0583 23.8698 85.0532 23.8421L84.2204 24.1979C84.2712 24.3469 84.3575 24.4781 84.4616 24.5917L85.0913 23.9127ZM85.1573 23.9531C85.1294 23.9481 85.1116 23.9253 85.0913 23.9127L84.4616 24.5917C84.5657 24.7027 84.6876 24.7936 84.8247 24.8491L85.1573 23.9531ZM85.2284 23.9683C85.2004 23.9683 85.1751 23.9607 85.1573 23.9531L84.8247 24.8491C84.9618 24.9072 85.104 24.935 85.2538 24.935L85.2284 23.9683ZM85.3325 23.9531C85.3122 23.9607 85.2868 23.9683 85.2614 23.9683L85.2157 24.9274C85.3629 24.935 85.5128 24.9072 85.6575 24.8491L85.3325 23.9531ZM85.3909 23.9127C85.3706 23.9329 85.3503 23.9481 85.3325 23.9531L85.6626 24.8491C85.8073 24.786 85.9292 24.6952 86.0333 24.5841L85.3909 23.9127ZM85.429 23.8421C85.4239 23.8698 85.4036 23.89 85.3909 23.9127L86.0333 24.5765C86.1323 24.4655 86.2085 24.3317 86.2618 24.1853L85.429 23.8421ZM85.4417 23.7638C85.4417 23.7941 85.4366 23.8219 85.429 23.8496L86.2618 24.1929C86.3126 24.044 86.3379 23.89 86.3329 23.736L85.4417 23.7638ZM85.4417 17.6481V23.7512H86.3329V17.6481H85.4417ZM85.2411 16.9464L85.2284 17.431H85.2665L85.2411 16.9464ZM84.7739 17.1357L84.4667 16.7848L84.4616 16.7924L84.454 16.8L84.7739 17.1357ZM84.5911 17.6481H85.0379V17.6178L84.5911 17.6481ZM84.5911 23.7512L85.0379 23.7638V23.7512H84.5911ZM85.2411 24.4503L85.2614 23.9683H85.2208L85.2411 24.4503ZM85.8911 23.7512H85.4417V23.7638L85.8911 23.7512ZM85.8911 17.6481L85.4417 17.6178V17.6481H85.8911Z" fill="white"/>
<path d="M85.2413 15.7223C85.4368 15.7223 85.6247 15.6516 85.7796 15.5178C85.937 15.3866 86.0411 15.1973 86.0792 14.9928C86.1173 14.7833 86.0919 14.5739 86.0005 14.3845C85.9116 14.1952 85.7618 14.0489 85.579 13.9731C85.3962 13.8873 85.1956 13.8823 85.0077 13.9378C84.8173 14.0009 84.6548 14.1271 84.5456 14.3013C84.4339 14.4754 84.3882 14.6849 84.4085 14.8969C84.4288 15.1064 84.5126 15.3033 84.6548 15.4497C84.7335 15.533 84.8249 15.6037 84.929 15.6516C85.0331 15.7021 85.1296 15.7223 85.2413 15.7223Z" fill="white"/>
<path d="M84.7464 16.1009C84.9038 16.169 85.079 16.2044 85.2466 16.2044L85.2339 15.2452C85.1831 15.2452 85.1374 15.2402 85.0917 15.2175L84.7464 16.1009ZM84.3249 15.7929C84.4417 15.9242 84.5839 16.0302 84.7464 16.1009L85.0917 15.2099C85.046 15.1897 85.0079 15.1619 84.9673 15.119L84.3249 15.7929ZM83.9618 14.9449C83.9872 15.2679 84.1243 15.5683 84.33 15.7929L84.9622 15.114C84.8962 15.0433 84.8581 14.9524 84.8454 14.8464L83.9618 14.9449ZM84.1675 14.0362C83.9999 14.3012 83.9288 14.6218 83.9542 14.9449L84.8454 14.854C84.8378 14.7556 84.8581 14.6571 84.9089 14.5738L84.1675 14.0362ZM84.8708 13.4759C84.5839 13.5667 84.3376 13.7611 84.1675 14.0362L84.9089 14.5738C84.9622 14.4905 85.0384 14.4274 85.1247 14.3997L84.8708 13.4759ZM85.7417 13.5238C85.4624 13.3976 85.1577 13.385 84.8708 13.4759L85.1298 14.3997C85.2212 14.3719 85.3126 14.377 85.3964 14.4123L85.7417 13.5238ZM86.3917 14.1599C86.2495 13.8747 86.021 13.65 85.7493 13.5314L85.404 14.4199C85.4878 14.4552 85.5589 14.5259 85.6046 14.6167L86.3917 14.1599ZM86.5161 15.0913C86.5745 14.7783 86.5288 14.4476 86.3917 14.1599L85.6046 14.6092C85.6503 14.7 85.663 14.7985 85.6452 14.8969L86.5161 15.0913ZM86.0591 15.8889C86.2952 15.6869 86.4501 15.3992 86.5161 15.0862L85.6376 14.8969C85.6173 14.9928 85.5716 15.0786 85.4954 15.1417L86.0591 15.8889ZM85.2339 16.2044C85.5335 16.2044 85.8255 16.1009 86.0591 15.8964L85.4954 15.1468C85.4243 15.2099 85.3329 15.2452 85.2415 15.2452L85.2339 16.2044ZM85.2415 15.7223V15.2402H85.2288L85.2415 15.7223Z" fill="white"/>
<path d="M89.2913 14.4198V23.7512C89.2913 23.8421 89.2786 23.9329 89.2507 24.0162C89.2202 24.102 89.1745 24.1777 89.1161 24.2484C89.0577 24.3191 88.9841 24.3671 88.9079 24.4024C88.8292 24.4377 88.7454 24.4503 88.6591 24.4503C88.5753 24.4503 88.4915 24.4377 88.4128 24.4024C88.3341 24.3671 88.263 24.3191 88.2046 24.2484C88.1462 24.1853 88.1005 24.102 88.0675 24.0162C88.037 23.9329 88.0243 23.8421 88.0294 23.7512V14.4198C88.0294 14.2381 88.0954 14.0639 88.2173 13.9377C88.3341 13.8115 88.4966 13.7333 88.6667 13.7333C88.8368 13.7333 88.9993 13.8039 89.1161 13.9377C89.2253 14.0639 89.2913 14.2381 89.2913 14.4198Z" fill="white"/>
<path d="M88.7907 14.2735C88.8212 14.3088 88.8491 14.3643 88.8491 14.4199H89.7378C89.7378 14.1119 89.621 13.8116 89.4204 13.5945L88.7907 14.2735ZM88.6536 14.2179C88.7044 14.2179 88.7501 14.2381 88.7907 14.281L89.4204 13.6021C89.2198 13.385 88.938 13.2588 88.6536 13.2588V14.2179ZM88.5241 14.2735C88.5546 14.2381 88.6079 14.2104 88.6587 14.2104V13.2512C88.3743 13.2512 88.095 13.3774 87.8919 13.5945L88.5241 14.2735ZM88.4657 14.4199C88.4657 14.3643 88.4835 14.3138 88.5241 14.2735L87.8919 13.5945C87.6913 13.8116 87.5745 14.1119 87.5745 14.4199H88.4657ZM88.4657 23.7512V14.4199H87.5745V23.7512H88.4657ZM88.4784 23.8421C88.4708 23.8143 88.4657 23.7866 88.4657 23.7588L87.5745 23.731C87.5669 23.885 87.5948 24.039 87.6456 24.1854L88.4784 23.8421ZM88.5165 23.9128C88.4962 23.89 88.4835 23.8698 88.4784 23.8421L87.6456 24.1854C87.6989 24.3317 87.7751 24.4655 87.8741 24.5766L88.5165 23.9128ZM88.5749 23.9531C88.5546 23.9481 88.5368 23.933 88.5241 23.9128L87.8792 24.5766C87.9833 24.6952 88.1077 24.7861 88.2448 24.8441L88.5749 23.9531ZM88.6409 23.9683C88.6206 23.9683 88.5952 23.9683 88.5749 23.9531L88.2372 24.8441C88.3743 24.9072 88.5241 24.935 88.6739 24.9274L88.6409 23.9683ZM88.7374 23.9531C88.7171 23.9607 88.6993 23.9683 88.679 23.9683L88.6333 24.9274C88.7831 24.935 88.9329 24.9072 89.0751 24.8492L88.7374 23.9531ZM88.7831 23.9178C88.7704 23.933 88.7501 23.9481 88.7323 23.9531L89.07 24.8441C89.2122 24.781 89.3366 24.6902 89.4407 24.569L88.7831 23.9178ZM88.8364 23.8421C88.8288 23.8698 88.8085 23.89 88.7958 23.9128L89.4407 24.5766C89.5372 24.4655 89.6159 24.3317 89.6667 24.1854L88.8364 23.8421ZM88.8415 23.7638C88.8415 23.7941 88.8364 23.8219 88.8288 23.8497L89.6616 24.1929C89.7124 24.044 89.7378 23.89 89.7327 23.7361L88.8415 23.7638ZM88.8415 14.4199V23.7512H89.7327V14.4199H88.8415ZM88.0163 23.7512L88.4657 23.7638V23.7512H88.0163ZM88.6536 24.4504L88.679 23.9683H88.6409L88.6536 24.4504ZM89.2909 23.7512H88.8415V23.7638L89.2909 23.7512Z" fill="white"/>
<path d="M52.3502 14.2179C53.0408 14.2027 53.7162 14.3996 54.3078 14.7782C54.8537 15.1189 55.2879 15.6439 55.5545 16.2598C55.5875 16.3305 55.6002 16.4011 55.6002 16.4769C55.6002 16.6106 55.5494 16.7444 55.458 16.8353C55.3666 16.9337 55.2498 16.9817 55.1203 16.9892C55.0289 16.9892 54.9375 16.9539 54.8588 16.8984C54.7826 16.8479 54.7166 16.7722 54.6785 16.6813C54.4881 16.232 54.1783 15.8686 53.7746 15.6313C53.3379 15.3638 52.8453 15.2325 52.3451 15.2451C52.0455 15.2451 51.7459 15.288 51.4615 15.3587C51.1619 15.4269 50.875 15.5404 50.6084 15.6944C50.3621 15.8282 50.1463 16.0225 49.9787 16.2598C49.8162 16.492 49.7324 16.7722 49.7375 17.0599C49.7324 17.2189 49.7578 17.3729 49.8162 17.5218C49.8746 17.6682 49.9533 17.802 50.0625 17.913C50.2961 18.1427 50.5754 18.3194 50.8826 18.4229C51.2203 18.5491 51.5707 18.64 51.9287 18.7031C52.2918 18.7662 52.6244 18.8217 52.924 18.8646C53.2871 18.9201 53.6375 18.9984 53.9879 19.1019C54.3256 19.2079 54.6582 19.3543 54.9578 19.5587C55.2422 19.748 55.4834 20.0055 55.6586 20.3134C55.8414 20.6567 55.9379 21.0479 55.9252 21.4467C55.9379 21.9036 55.8211 22.3427 55.5951 22.7289C55.3742 23.0924 55.0797 23.4003 54.7369 23.6325C54.3789 23.8698 53.9879 24.0515 53.5791 24.1651C53.183 24.2761 52.7666 24.3392 52.3578 24.3392C51.5783 24.3519 50.8039 24.1424 50.1209 23.736C49.4912 23.3725 48.9961 22.792 48.7041 22.0853C48.6787 22.0146 48.666 21.9439 48.666 21.8758C48.666 21.742 48.7168 21.6082 48.8082 21.5098C48.8996 21.4139 49.0164 21.3634 49.1459 21.3558C49.2449 21.3558 49.3338 21.3912 49.4125 21.4467C49.4912 21.5048 49.5547 21.5805 49.5877 21.6713C49.8035 22.1888 50.1742 22.6179 50.6414 22.8829C51.167 23.1832 51.7586 23.3372 52.3502 23.3246C52.6498 23.3246 52.9494 23.2817 53.2414 23.211C53.541 23.1429 53.8254 23.0293 54.092 22.8753C54.3459 22.7365 54.5617 22.5396 54.7293 22.2948C54.8918 22.0499 54.9832 21.7496 54.9756 21.4467C54.9832 21.2801 54.9578 21.111 54.8994 20.957C54.841 20.8031 54.7496 20.6642 54.6328 20.5532C54.3865 20.3286 54.0996 20.1746 53.7873 20.0837C53.4623 19.9853 53.1297 19.9146 52.792 19.8717C52.3578 19.8036 51.9033 19.7177 51.4336 19.6218C50.9867 19.5234 50.55 19.377 50.1336 19.1801C49.7502 19.006 49.4125 18.7258 49.1535 18.3749C48.9047 18.0317 48.7752 17.5849 48.7752 17.0372C48.7701 16.6031 48.8793 16.1765 49.0951 15.813C49.316 15.4572 49.6004 15.1467 49.9381 14.9246C50.2961 14.6798 50.6871 14.498 51.0959 14.3844C51.5123 14.281 51.9287 14.2179 52.3502 14.2179Z" fill="white"/>
<path d="M51.2533 14.9801C51.6088 14.8741 51.9795 14.8186 52.3502 14.8186V13.6146C51.883 13.6146 51.4158 13.6853 50.9588 13.8191L51.2533 14.9801ZM50.2453 15.4496C50.5576 15.2401 50.8953 15.0786 51.2457 14.9801L50.9588 13.8191C50.4992 13.9503 50.0574 14.1548 49.6537 14.435L50.2453 15.4496ZM49.5699 16.1564C49.7451 15.8686 49.9711 15.6314 50.2453 15.4496L49.6588 14.4274C49.25 14.7 48.9047 15.0634 48.6381 15.4976L49.5699 16.1564ZM49.3414 17.0372C49.3338 16.7217 49.4201 16.4138 49.575 16.1488L48.633 15.4976C48.3537 15.9595 48.2115 16.5072 48.2242 17.06L49.3414 17.0372ZM49.5953 18.0191C49.4379 17.802 49.3414 17.4991 49.3414 17.0524H48.2242C48.2242 17.7036 48.374 18.2841 48.7168 18.7612L49.5953 18.0191ZM50.3545 18.64C50.0574 18.5012 49.7959 18.2917 49.5953 18.0191L48.7168 18.7662C49.0367 19.1928 49.4455 19.536 49.9127 19.7481L50.3545 18.64ZM51.5453 19.0388C51.1365 18.9555 50.7379 18.8217 50.3621 18.64L49.9127 19.7405C50.3672 19.9576 50.842 20.1191 51.3371 20.2226L51.5453 19.0388ZM52.8707 19.2862C52.4416 19.2231 52.0074 19.1372 51.5453 19.0388L51.3244 20.215C51.7992 20.321 52.2588 20.4043 52.7082 20.475L52.8707 19.2862ZM53.9295 19.5158C53.5791 19.4098 53.2211 19.3341 52.858 19.2862L52.7209 20.475C53.0256 20.5179 53.3328 20.581 53.6324 20.6719L53.9295 19.5158ZM54.9908 20.1039C54.6785 19.8238 54.3205 19.6269 53.9295 19.5158L53.6451 20.6769C53.8787 20.74 54.092 20.8612 54.2748 21.0277L54.9908 20.1039ZM55.4123 20.735C55.3209 20.4952 55.1787 20.2781 54.9959 20.1115L54.2545 21.0151C54.3078 21.0631 54.3535 21.1262 54.3789 21.1969L55.4123 20.735ZM55.5291 21.4896C55.5418 21.2322 55.5037 20.9722 55.4123 20.735L54.3789 21.1969C54.4043 21.265 54.417 21.3433 54.4119 21.419L55.5291 21.4896ZM55.1838 22.6583C55.4199 22.31 55.5418 21.8809 55.5367 21.4467L54.417 21.477C54.4246 21.6512 54.3713 21.8178 54.2824 21.9591L55.1838 22.6583ZM54.3459 23.4231C54.6709 23.2388 54.9578 22.9814 55.1787 22.6658L54.2875 21.944C54.1707 22.1131 54.0158 22.2519 53.8381 22.3579L54.3459 23.4231ZM53.3582 23.8143C53.7035 23.731 54.0412 23.5972 54.3535 23.4155L53.8254 22.3503C53.5994 22.4765 53.3658 22.575 53.1119 22.6305L53.3582 23.8143ZM52.3502 23.9405C52.6879 23.9405 53.0332 23.8976 53.3658 23.8143L53.1119 22.6457C52.858 22.7088 52.6041 22.7441 52.3451 22.7441L52.3502 23.9405ZM50.3748 23.4281C50.9867 23.7789 51.6672 23.9531 52.3629 23.9405L52.3375 22.7365C51.8373 22.7491 51.3422 22.6229 50.9004 22.3655L50.3748 23.4281ZM49.0672 21.9314C49.3338 22.575 49.7959 23.1076 50.3748 23.4281L50.8953 22.3655C50.5373 22.161 50.2504 21.8405 50.0879 21.4417L49.0672 21.9314ZM49.1129 21.9717C49.0951 21.9591 49.0824 21.9389 49.0672 21.9162L50.0955 21.4543C50.0168 21.2448 49.8746 21.0707 49.6994 20.952L49.1129 21.9717ZM49.1332 21.9717C49.1129 21.9717 49.0951 21.9667 49.0824 21.9515L49.7324 20.9722C49.5623 20.8384 49.3617 20.7678 49.1459 20.7627L49.1332 21.9717ZM49.1992 21.944C49.1865 21.9591 49.1662 21.9667 49.1459 21.9717L49.1332 20.7678C48.8615 20.7678 48.6 20.8889 48.4045 21.0984L49.1992 21.944ZM49.2246 21.8884C49.2246 21.9112 49.217 21.9314 49.1992 21.944L48.4121 21.0984C48.2166 21.3079 48.1125 21.5881 48.1074 21.8809L49.2246 21.8884ZM49.2246 21.8683L48.1074 21.896C48.1125 22.0348 48.1379 22.1838 48.1836 22.31L49.2246 21.8683ZM50.3824 23.211C49.8619 22.9107 49.4506 22.4286 49.2119 21.8481L48.1912 22.3301C48.5289 23.1555 49.1129 23.842 49.8492 24.2686L50.3824 23.211ZM52.3451 23.7436C51.6621 23.7588 50.9867 23.577 50.3951 23.2186L49.8543 24.2686C50.6211 24.7305 51.492 24.9627 52.3705 24.9476L52.3451 23.7436ZM53.4293 23.5821C53.0789 23.6881 52.7158 23.736 52.3502 23.736L52.3578 24.94C52.8199 24.94 53.2795 24.8719 53.7213 24.7457L53.4293 23.5821ZM54.4373 23.1202C54.125 23.3322 53.7873 23.4862 53.4369 23.5821L53.7162 24.7457C54.1783 24.6195 54.6252 24.41 55.0289 24.1348L54.4373 23.1202ZM55.1254 22.4008C54.9502 22.6936 54.7166 22.9384 54.4449 23.1202L55.0289 24.1424C55.4453 23.8698 55.8033 23.4988 56.0699 23.0571L55.1254 22.4008ZM55.3666 21.4695C55.3742 21.8052 55.2879 22.1333 55.1254 22.4134L56.0699 23.0571C56.3543 22.575 56.499 22.0146 56.4838 21.4417L55.3666 21.4695ZM55.1711 20.6214C55.3006 20.8662 55.3666 21.1464 55.3615 21.4341L56.4787 21.477C56.4914 20.9646 56.3746 20.4598 56.141 20.0207L55.1711 20.6214ZM54.6658 20.0762C54.874 20.215 55.0543 20.4043 55.1838 20.6365L56.1334 20.0055C55.9125 19.6219 55.6078 19.2912 55.2498 19.0539L54.6658 20.0762ZM53.8381 19.69C54.1326 19.7758 54.4043 19.9071 54.6658 20.0762L55.2498 19.0539C54.9045 18.8217 54.5287 18.6476 54.1377 18.5289L53.8381 19.69ZM52.8453 19.4679C53.183 19.5158 53.5131 19.5941 53.8381 19.69L54.1453 18.5365C53.767 18.4229 53.3836 18.3321 53.0002 18.2765L52.8453 19.4679ZM51.8373 19.2988C52.208 19.3619 52.5381 19.4174 52.8504 19.4679L53.0002 18.2765C52.7082 18.2362 52.3832 18.1781 52.0252 18.115L51.8373 19.2988ZM50.6998 18.9984C51.0705 19.1322 51.4463 19.2357 51.8373 19.3064L52.0201 18.115C51.6951 18.0595 51.3752 17.9762 51.0629 17.8576L50.6998 18.9984ZM49.6867 18.3548C49.9787 18.6476 50.3291 18.8646 50.7125 18.9984L51.0502 17.85C50.8242 17.7717 50.616 17.6405 50.4408 17.4638L49.6867 18.3548ZM49.2957 17.744C49.3795 17.9686 49.5115 18.1731 49.674 18.3472L50.4459 17.4789C50.3951 17.431 50.3545 17.3679 50.3291 17.2972L49.2957 17.744ZM49.1789 17.0372C49.1713 17.2821 49.2119 17.5269 49.2957 17.7515L50.3291 17.2972C50.3037 17.2265 50.291 17.1559 50.2961 17.0801L49.1789 17.0372ZM49.5369 15.8964C49.3033 16.2321 49.1713 16.646 49.1789 17.065L50.2961 17.0448C50.2961 16.8908 50.3418 16.7445 50.4256 16.6258L49.5369 15.8964ZM50.3621 15.1619C50.0422 15.336 49.7629 15.5884 49.542 15.8964L50.4256 16.6309C50.5449 16.4643 50.6998 16.3305 50.875 16.2321L50.3621 15.1619ZM51.3422 14.7707C50.9994 14.8539 50.6668 14.9801 50.3545 15.1619L50.875 16.227C51.1035 16.1008 51.3371 16.0024 51.5834 15.9469L51.3422 14.7707ZM52.3502 14.6445C52.0125 14.6445 51.6748 14.6848 51.3422 14.7707L51.5961 15.9393C51.85 15.8762 52.1039 15.8408 52.3578 15.8408L52.3502 14.6445ZM54.0539 15.1064C53.5334 14.7908 52.9418 14.6293 52.3375 14.6445L52.3578 15.8484C52.7615 15.8408 53.1576 15.9469 53.508 16.1564L54.0539 15.1064ZM55.1914 16.4365C54.9578 15.8686 54.5541 15.3991 54.0463 15.1064L53.508 16.1639C53.8 16.3381 54.0336 16.6031 54.1707 16.9338L55.1914 16.4365ZM55.1533 16.386C55.166 16.3936 55.1787 16.4088 55.1838 16.4289L54.1707 16.9388C54.2545 17.1433 54.3992 17.3048 54.5744 17.4234L55.1533 16.386ZM55.1381 16.3936C55.1533 16.3936 55.166 16.4012 55.1787 16.4088L54.5541 17.4032C54.7166 17.5219 54.9121 17.59 55.1127 17.59L55.1381 16.3936ZM55.067 16.4138C55.0797 16.4012 55.1 16.386 55.1254 16.386L55.133 17.59C55.4047 17.59 55.6662 17.4714 55.8617 17.2619L55.067 16.4138ZM55.0416 16.4769C55.0416 16.4567 55.0492 16.4365 55.067 16.4138L55.8541 17.2695C56.0496 17.06 56.1537 16.7798 56.1588 16.4845L55.0416 16.4769ZM55.0543 16.535C55.0492 16.5122 55.0416 16.492 55.0416 16.4719L56.1588 16.4845C56.1588 16.3179 56.1283 16.1412 56.0547 15.9948L55.0543 16.535ZM54.0285 15.2957C54.4754 15.5758 54.8334 16.0024 55.0492 16.5122L56.0623 16.015C55.75 15.2805 55.2371 14.6722 54.5922 14.2583L54.0285 15.2957ZM52.3629 14.8186C52.9494 14.806 53.5207 14.9726 54.0209 15.2957L54.5922 14.2658C53.9117 13.8241 53.1297 13.602 52.3375 13.6146L52.3629 14.8186ZM48.7828 17.0448H49.3414V17.0322L48.7828 17.0448ZM52.792 19.8793L52.7158 20.475H52.7285L52.792 19.8793ZM54.6328 20.5658L55.0035 20.1191L54.9959 20.1115L54.9908 20.1039L54.6328 20.5658ZM54.9756 21.4543L54.417 21.419V21.477L54.9756 21.4543ZM54.7293 22.3024L55.1787 22.6658V22.6532L54.7293 22.3024ZM52.3502 23.3372V22.7365H52.3375L52.3502 23.3372ZM49.5826 21.6865L49.0672 21.9162V21.9314L49.5826 21.6865ZM49.4074 21.4619L49.0824 21.9515L49.0951 21.9667L49.1129 21.9793L49.4074 21.4619ZM49.1408 21.371L49.1459 20.7678H49.1332L49.1408 21.371ZM48.666 21.8809L48.1074 21.8758V21.9036L48.666 21.8809ZM48.7041 22.0929L48.1836 22.315L48.1912 22.3226L48.1963 22.3301L48.7041 22.0929ZM52.3502 24.3469V23.7436H52.3375L52.3502 24.3469ZM55.5951 22.7289L56.0623 23.0571V23.0445L55.5951 22.7289ZM55.9201 21.4467L55.3615 21.4265V21.4543L55.9201 21.4467ZM55.6586 20.321L56.141 20.0207L56.1334 20.0131L56.1283 20.0055L55.6586 20.321ZM50.8826 18.4229L51.0629 17.8576H51.0502L50.8826 18.4229ZM50.0625 17.9131L49.6791 18.3472L49.6918 18.3598L50.0625 17.9131ZM49.7375 17.06L50.2961 17.0801V17.0524L49.7375 17.06ZM52.3502 15.2452V15.8484H52.3629L52.3502 15.2452ZM54.6836 16.6814L54.1783 16.9262V16.9388L54.6836 16.6814ZM54.8664 16.906L55.1787 16.4088L55.1533 16.3936L54.8664 16.906ZM55.1254 16.9969L55.1127 17.5976H55.1254V16.9969ZM55.5545 16.2674L55.0492 16.5198L55.0543 16.535L55.0619 16.54L55.5545 16.2674ZM52.3502 14.2179V14.8186H52.3629L52.3502 14.2179Z" fill="white"/>
<mask id="mask0_4_2308" style="mask-type:luminance" maskUnits="userSpaceOnUse" x="20" y="9" width="21" height="19">
<path d="M20.7998 9.69226H40.2998V27.7846H20.7998V9.69226Z" fill="white"/>
</mask>
<g mask="url(#mask0_4_2308)">
<mask id="mask1_4_2308" style="mask-type:luminance" maskUnits="userSpaceOnUse" x="21" y="10" width="20" height="18">
<path d="M23.6662 21.631C23.2168 21.2801 22.7369 20.9722 22.2545 20.6719C22.0336 20.5381 21.8406 20.3639 21.6781 20.1595C21.2668 19.6572 21.0332 19.011 21.0205 18.3396V13.7131C21.0205 12.8019 21.1627 12.5646 21.2795 12.292C21.7543 11.1941 22.7572 10.7019 23.2041 10.4848C23.6205 10.2829 24.3619 9.93207 25.3496 10.0381C26.1164 10.1214 26.8375 10.452 27.4291 10.9896L36.8414 17.9055C38.8955 19.0539 39.8629 20.8889 40.1828 23.1202V27.5246H31.1158V27.3707C28.6326 25.4524 26.1494 23.5341 23.6662 21.631Z" fill="white"/>
</mask>
<g mask="url(#mask1_4_2308)">
<path d="M-1.50098 -25.8436L119.104 79.6258V114.023L-1.50098 8.55397" fill="url(#paint0_linear_4_2308)"/>
</g>
</g>
<mask id="mask2_4_2308" style="mask-type:luminance" maskUnits="userSpaceOnUse" x="20" y="9" width="21" height="19">
<path d="M20.7998 9.69226H40.2998V27.7846H20.7998V9.69226Z" fill="white"/>
</mask>
<g mask="url(#mask2_4_2308)">
<mask id="mask3_4_2308" style="mask-type:luminance" maskUnits="userSpaceOnUse" x="21" y="10" width="20" height="18">
<path d="M23.6662 21.631C23.2168 21.2801 22.7369 20.9722 22.2545 20.6719C22.0336 20.5381 21.8406 20.3639 21.6781 20.1595C21.2668 19.6572 21.0332 19.011 21.0205 18.3396V13.7131C21.0205 12.8019 21.1627 12.5646 21.2795 12.292C21.7543 11.1941 22.7572 10.7019 23.2041 10.4848C23.6205 10.2829 24.3619 9.93207 25.3496 10.0381C26.1164 10.1214 26.8375 10.452 27.4291 10.9896L36.8414 17.9055C38.8955 19.0539 39.8629 20.8889 40.1828 23.1202V27.5246H31.1158V27.3707C28.6326 25.4524 26.1494 23.5341 23.6662 21.631Z" fill="white"/>
</mask>
<g mask="url(#mask3_4_2308)">
<path fill-rule="evenodd" clip-rule="evenodd" d="M-1.50098 -25.6695L119.104 79.8076V-42.2019H-1.50098" fill="#4E01B0"/>
<path fill-rule="evenodd" clip-rule="evenodd" d="M-1.50098 8.42017L119.104 113.89V87.6825H-1.50098" fill="#B479FF"/>
</g>
</g>
<mask id="mask4_4_2308" style="mask-type:luminance" maskUnits="userSpaceOnUse" x="20" y="16" width="21" height="26">
<path d="M20.7998 16.1538H40.2998V41.3538H20.7998V16.1538Z" fill="white"/>
</mask>
<g mask="url(#mask4_4_2308)">
<mask id="mask5_4_2308" style="mask-type:luminance" maskUnits="userSpaceOnUse" x="21" y="16" width="20" height="25">
<path d="M40.1881 27.5094C40.1043 28.8547 39.6422 30.1344 38.8627 31.192C38.3168 31.9265 37.6287 32.5222 36.8492 32.9411L27.4369 39.857C26.8453 40.3896 26.1242 40.7253 25.3574 40.8111C24.616 40.8717 23.8746 40.7177 23.2119 40.3618C22.7625 40.1447 21.7621 39.6551 21.2873 38.5571C21.1705 38.277 21.0283 38.0372 21.0283 37.1361V32.502C21.041 31.828 21.267 31.1844 21.6834 30.6821C21.8535 30.4777 22.049 30.3035 22.2623 30.1622C23.2881 29.4908 23.674 29.203 23.674 29.203C24.9537 28.4887 28.8867 26.3887 31.0297 25.0611C33.8785 23.2892 35.308 22.373 35.7117 20.7071C36.1332 18.9706 35.3283 17.282 34.7621 16.3304L38.0375 18.703C38.7865 19.4325 39.3705 20.3285 39.7615 21.328C39.9748 21.8959 40.1246 22.4841 40.2084 23.0923L40.1881 27.5094Z" fill="white"/>
</mask>
<g mask="url(#mask5_4_2308)">
<path d="M-1.50098 -675.627L119.104 1218.4V1655.19L-1.50098 -238.832" fill="url(#paint1_linear_4_2308)"/>
</g>
</g>
<mask id="mask6_4_2308" style="mask-type:luminance" maskUnits="userSpaceOnUse" x="20" y="16" width="21" height="26">
<path d="M20.7998 16.1538H40.2998V41.3538H20.7998V16.1538Z" fill="white"/>
</mask>
<g mask="url(#mask6_4_2308)">
<mask id="mask7_4_2308" style="mask-type:luminance" maskUnits="userSpaceOnUse" x="21" y="16" width="20" height="25">
<path d="M40.1881 27.5094C40.1043 28.8547 39.6422 30.1344 38.8627 31.192C38.3168 31.9265 37.6287 32.5222 36.8492 32.9411L27.4369 39.857C26.8453 40.3896 26.1242 40.7253 25.3574 40.8111C24.616 40.8717 23.8746 40.7177 23.2119 40.3618C22.7625 40.1447 21.7621 39.6551 21.2873 38.5571C21.1705 38.277 21.0283 38.0372 21.0283 37.1361V32.502C21.041 31.828 21.267 31.1844 21.6834 30.6821C21.8535 30.4777 22.049 30.3035 22.2623 30.1622C23.2881 29.4908 23.674 29.203 23.674 29.203C24.9537 28.4887 28.8867 26.3887 31.0297 25.0611C33.8785 23.2892 35.308 22.373 35.7117 20.7071C36.1332 18.9706 35.3283 17.282 34.7621 16.3304L38.0375 18.703C38.7865 19.4325 39.3705 20.3285 39.7615 21.328C39.9748 21.8959 40.1246 22.4841 40.2084 23.0923L40.1881 27.5094Z" fill="white"/>
</mask>
<g mask="url(#mask7_4_2308)">
<path fill-rule="evenodd" clip-rule="evenodd" d="M-1.50098 -674.64L119.104 1219.38V-42.2019H-1.50098" fill="#FF00D6"/>
<path fill-rule="evenodd" clip-rule="evenodd" d="M-1.50098 -239.736L119.104 1654.28V87.6827H-1.50098" fill="#0036BF"/>
</g>
</g>
<mask id="mask8_4_2308" style="mask-type:luminance" maskUnits="userSpaceOnUse" x="0" y="0" width="21" height="19">
<path d="M0.649902 0H20.1499V18.0923H0.649902V0Z" fill="white"/>
</mask>
<g mask="url(#mask8_4_2308)">
<mask id="mask9_4_2308" style="mask-type:luminance" maskUnits="userSpaceOnUse" x="0" y="0" width="20" height="19">
<path d="M17.1741 12.181C17.621 11.8302 18.1034 11.5223 18.5833 11.2219C18.8042 11.0881 18.9997 10.914 19.1622 10.7095C19.571 10.2072 19.8046 9.56109 19.8173 8.88969V4.25556C19.8173 3.34691 19.6751 3.10712 19.5583 2.83453C19.0835 1.73657 18.0831 1.24691 17.6337 1.02984C17.2173 0.825392 16.4784 0.477074 15.4882 0.58056C14.7214 0.663853 14.0003 1.00207 13.4087 1.53212L3.99131 8.44799C1.93721 9.59643 0.967285 11.4314 0.649902 13.6652V18.0671H9.72451V17.9207C12.2077 16.0024 14.6909 14.0917 17.1741 12.181Z" fill="white"/>
</mask>
<g mask="url(#mask9_4_2308)">
<path d="M-1.50049 3.13491L119.105 -102.332V-68.0606L-1.50049 37.4139" fill="url(#paint2_linear_4_2308)"/>
</g>
</g>
<mask id="mask10_4_2308" style="mask-type:luminance" maskUnits="userSpaceOnUse" x="0" y="0" width="21" height="4">
<path d="M0.649902 0H20.1499V3.23077H0.649902V0Z" fill="white"/>
</mask>
<g mask="url(#mask10_4_2308)">
<mask id="mask11_4_2308" style="mask-type:luminance" maskUnits="userSpaceOnUse" x="0" y="0" width="20" height="19">
<path d="M17.1741 12.181C17.621 11.8302 18.1034 11.5223 18.5833 11.2219C18.8042 11.0881 18.9997 10.914 19.1622 10.7095C19.571 10.2072 19.8046 9.56109 19.8173 8.88969V4.25556C19.8173 3.34691 19.6751 3.10712 19.5583 2.83453C19.0835 1.73657 18.0831 1.24691 17.6337 1.02984C17.2173 0.825392 16.4784 0.477074 15.4882 0.58056C14.7214 0.663853 14.0003 1.00207 13.4087 1.53212L3.99131 8.44799C1.93721 9.59643 0.967285 11.4314 0.649902 13.6652V18.0671H9.72451V17.9207C12.2077 16.0024 14.6909 14.0917 17.1741 12.181Z" fill="white"/>
</mask>
<g mask="url(#mask11_4_2308)">
<path fill-rule="evenodd" clip-rule="evenodd" d="M-1.50049 3.22826L119.105 -102.249V-42.2019H-1.50049" fill="#4E01B0"/>
</g>
</g>
<mask id="mask12_4_2308" style="mask-type:luminance" maskUnits="userSpaceOnUse" x="0" y="0" width="21" height="19">
<path d="M0.649902 0H20.1499V18.0923H0.649902V0Z" fill="white"/>
</mask>
<g mask="url(#mask12_4_2308)">
<mask id="mask13_4_2308" style="mask-type:luminance" maskUnits="userSpaceOnUse" x="0" y="0" width="20" height="19">
<path d="M17.1741 12.181C17.621 11.8302 18.1034 11.5223 18.5833 11.2219C18.8042 11.0881 18.9997 10.914 19.1622 10.7095C19.571 10.2072 19.8046 9.56109 19.8173 8.88969V4.25556C19.8173 3.34691 19.6751 3.10712 19.5583 2.83453C19.0835 1.73657 18.0831 1.24691 17.6337 1.02984C17.2173 0.825392 16.4784 0.477074 15.4882 0.58056C14.7214 0.663853 14.0003 1.00207 13.4087 1.53212L3.99131 8.44799C1.93721 9.59643 0.967285 11.4314 0.649902 13.6652V18.0671H9.72451V17.9207C12.2077 16.0024 14.6909 14.0917 17.1741 12.181Z" fill="white"/>
</mask>
<g mask="url(#mask13_4_2308)">
<path fill-rule="evenodd" clip-rule="evenodd" d="M-1.50049 37.318L119.105 -68.1515V87.6902H-1.50049" fill="#B00194"/>
</g>
</g>
<mask id="mask14_4_2308" style="mask-type:luminance" maskUnits="userSpaceOnUse" x="0" y="6" width="21" height="26">
<path d="M0.649902 6.46155H20.1499V31.6615H0.649902V6.46155Z" fill="white"/>
</mask>
<g mask="url(#mask14_4_2308)">
<mask id="mask15_4_2308" style="mask-type:luminance" maskUnits="userSpaceOnUse" x="0" y="6" width="20" height="26">
<path d="M0.649902 18.067C0.733691 19.4098 1.1958 20.692 1.97529 21.7496C2.52119 22.4841 3.21182 23.0798 3.99131 23.4988L13.4036 30.4146C13.9952 30.9472 14.7163 31.2829 15.4831 31.3662C16.2245 31.4369 16.9659 31.2753 17.6286 30.9194C18.0755 30.7024 19.0784 30.2127 19.5507 29.1122C19.6624 28.832 19.8122 28.5948 19.8122 27.6912V23.057C19.7995 22.3857 19.571 21.742 19.1546 21.2372C18.987 21.0353 18.7915 20.8611 18.5757 20.7198C17.5499 20.0484 17.1665 19.7607 17.1665 19.7607C15.8868 19.0464 11.9538 16.9464 9.81592 15.6162C6.96709 13.8468 5.5376 12.923 5.13389 11.2622C4.72002 9.53325 5.5249 7.83962 6.09111 6.89563L2.8208 9.26823C2.07432 9.99515 1.48779 10.8912 1.09932 11.8932C0.878418 12.4611 0.728613 13.0543 0.649902 13.6575V18.067Z" fill="white"/>
</mask>
<g mask="url(#mask15_4_2308)">
<path d="M-1.50049 28.153L119.105 -485.373V-398.427L-1.50049 115.227" fill="url(#paint3_linear_4_2308)"/>
</g>
</g>
<mask id="mask16_4_2308" style="mask-type:luminance" maskUnits="userSpaceOnUse" x="0" y="6" width="21" height="23">
<path d="M0.649902 6.46155H20.1499V28.4308H0.649902V6.46155Z" fill="white"/>
</mask>
<g mask="url(#mask16_4_2308)">
<mask id="mask17_4_2308" style="mask-type:luminance" maskUnits="userSpaceOnUse" x="0" y="6" width="20" height="26">
<path d="M0.649902 18.067C0.733691 19.4098 1.1958 20.692 1.97529 21.7496C2.52119 22.4841 3.21182 23.0798 3.99131 23.4988L13.4036 30.4146C13.9952 30.9472 14.7163 31.2829 15.4831 31.3662C16.2245 31.4369 16.9659 31.2753 17.6286 30.9194C18.0755 30.7024 19.0784 30.2127 19.5507 29.1122C19.6624 28.832 19.8122 28.5948 19.8122 27.6912V23.057C19.7995 22.3857 19.571 21.742 19.1546 21.2372C18.987 21.0353 18.7915 20.8611 18.5757 20.7198C17.5499 20.0484 17.1665 19.7607 17.1665 19.7607C15.8868 19.0464 11.9538 16.9464 9.81592 15.6162C6.96709 13.8468 5.5376 12.923 5.13389 11.2622C4.72002 9.53325 5.5249 7.83962 6.09111 6.89563L2.8208 9.26823C2.07432 9.99515 1.48779 10.8912 1.09932 11.8932C0.878418 12.4611 0.728613 13.0543 0.649902 13.6575V18.067Z" fill="white"/>
</mask>
<g mask="url(#mask17_4_2308)">
<path fill-rule="evenodd" clip-rule="evenodd" d="M-1.50049 28.4282L119.105 -485.143V-42.2019H-1.50049" fill="#4D27D7"/>
</g>
</g>
<mask id="mask18_4_2308" style="mask-type:luminance" maskUnits="userSpaceOnUse" x="0" y="6" width="21" height="26">
<path d="M0.649902 6.46155H20.1499V31.6615H0.649902V6.46155Z" fill="white"/>
</mask>
<g mask="url(#mask18_4_2308)">
<mask id="mask19_4_2308" style="mask-type:luminance" maskUnits="userSpaceOnUse" x="0" y="6" width="20" height="26">
<path d="M0.649902 18.067C0.733691 19.4098 1.1958 20.692 1.97529 21.7496C2.52119 22.4841 3.21182 23.0798 3.99131 23.4988L13.4036 30.4146C13.9952 30.9472 14.7163 31.2829 15.4831 31.3662C16.2245 31.4369 16.9659 31.2753 17.6286 30.9194C18.0755 30.7024 19.0784 30.2127 19.5507 29.1122C19.6624 28.832 19.8122 28.5948 19.8122 27.6912V23.057C19.7995 22.3857 19.571 21.742 19.1546 21.2372C18.987 21.0353 18.7915 20.8611 18.5757 20.7198C17.5499 20.0484 17.1665 19.7607 17.1665 19.7607C15.8868 19.0464 11.9538 16.9464 9.81592 15.6162C6.96709 13.8468 5.5376 12.923 5.13389 11.2622C4.72002 9.53325 5.5249 7.83962 6.09111 6.89563L2.8208 9.26823C2.07432 9.99515 1.48779 10.8912 1.09932 11.8932C0.878418 12.4611 0.728613 13.0543 0.649902 13.6575V18.067Z" fill="white"/>
</mask>
<g mask="url(#mask19_4_2308)">
<path fill-rule="evenodd" clip-rule="evenodd" d="M-1.50049 114.932L119.105 -398.637V87.6825H-1.50049" fill="#F105E3"/>
</g>
</g>
<path d="M114.629 14.1119H114.867C114.9 14.1119 114.926 14.1119 114.959 14.0968C114.984 14.0841 115.012 14.069 115.037 14.0488C115.075 14.0009 115.088 13.9378 115.088 13.8747C115.088 13.8116 115.07 13.7484 115.037 13.698C115.017 13.6778 114.992 13.6576 114.959 13.65C114.933 13.6349 114.9 13.6349 114.867 13.6349H114.629V14.1119ZM114.837 14.435H114.629V14.9171C114.629 14.9524 114.613 14.9802 114.596 15.0004C114.575 15.0231 114.542 15.0357 114.517 15.0357H114.354C114.321 15.0357 114.296 15.0231 114.276 15.0004C114.258 14.9802 114.245 14.9448 114.245 14.9171V13.4481C114.245 13.4128 114.258 13.385 114.276 13.3623C114.296 13.3421 114.329 13.3269 114.354 13.3269H114.867C115.025 13.3143 115.187 13.3623 115.317 13.4607C115.367 13.5036 115.413 13.5667 115.441 13.6298C115.466 13.6929 115.479 13.7686 115.479 13.8393C115.487 13.9428 115.459 14.0412 115.413 14.1321C115.362 14.2179 115.291 14.281 115.205 14.3214C115.375 14.6924 115.487 14.9247 115.512 14.965C115.512 14.965 115.53 15.0004 115.525 15.0155C115.517 15.0231 115.517 15.0231 115.512 15.0231C115.504 15.0231 115.499 15.0231 115.499 15.0231C115.35 15.0231 115.238 15.0231 115.2 15.0231C115.179 15.0231 115.162 15.0155 115.141 15.0079C115.121 14.9928 115.108 14.9802 115.101 14.96L114.837 14.435Z" fill="white"/>
<path d="M114.849 12.7616C115.616 12.7616 116.233 13.433 116.233 14.2533H116.35C116.35 13.3623 115.68 12.6354 114.849 12.6354V12.7616ZM113.463 14.2583C113.463 13.433 114.088 12.7692 114.849 12.7692V12.648C114.024 12.648 113.346 13.3699 113.346 14.2659H113.463V14.2583ZM114.849 15.75C114.083 15.75 113.463 15.0786 113.463 14.2583H113.354C113.354 15.1468 114.024 15.8762 114.854 15.8762V15.75H114.849ZM116.238 14.2583C116.238 15.0862 115.616 15.75 114.854 15.75V15.8687C115.68 15.8687 116.358 15.1468 116.358 14.2533H116.238V14.2583Z" fill="white"/>
<defs>
<linearGradient id="paint0_linear_4_2308" x1="66.5883" y1="33.7585" x2="49.5765" y2="53.2112" gradientUnits="userSpaceOnUse">
<stop stop-color="#4E01B0"/>
<stop offset="0.01" stop-color="#4F01B0"/>
<stop offset="0.02" stop-color="#5001B0"/>
<stop offset="0.03" stop-color="#5101B0"/>
<stop offset="0.04" stop-color="#5201B0"/>
<stop offset="0.05" stop-color="#5301B0"/>
<stop offset="0.06" stop-color="#5401B0"/>
<stop offset="0.07" stop-color="#5501B0"/>
<stop offset="0.08" stop-color="#5601B0"/>
<stop offset="0.09" stop-color="#5701B0"/>
<stop offset="0.1" stop-color="#5801B0"/>
<stop offset="0.11" stop-color="#5901B0"/>
<stop offset="0.12" stop-color="#5901B0"/>
<stop offset="0.13" stop-color="#5A01B0"/>
<stop offset="0.14" stop-color="#5B01B0"/>
<stop offset="0.15" stop-color="#5C01B0"/>
<stop offset="0.16" stop-color="#5D01B0"/>
<stop offset="0.17" stop-color="#5E01B0"/>
<stop offset="0.18" stop-color="#5F01B0"/>
<stop offset="0.19" stop-color="#6001B0"/>
<stop offset="0.2" stop-color="#6101B0"/>
<stop offset="0.21" stop-color="#6201B0"/>
<stop offset="0.22" stop-color="#6301B0"/>
<stop offset="0.23" stop-color="#6501B0"/>
<stop offset="0.24" stop-color="#6801B0"/>
<stop offset="0.25" stop-color="#6C01B0"/>
<stop offset="0.26" stop-color="#6F01B0"/>
<stop offset="0.27" stop-color="#7201B0"/>
<stop offset="0.28" stop-color="#7601B0"/>
<stop offset="0.29" stop-color="#7901B0"/>
<stop offset="0.3" stop-color="#7D01B0"/>
<stop offset="0.31" stop-color="#8001B0"/>
<stop offset="0.32" stop-color="#8301B0"/>
<stop offset="0.33" stop-color="#8701B0"/>
<stop offset="0.34" stop-color="#8A01B0"/>
<stop offset="0.35" stop-color="#8D01B0"/>
<stop offset="0.36" stop-color="#8D02B1"/>
<stop offset="0.37" stop-color="#8D04B3"/>
<stop offset="0.38" stop-color="#8D05B4"/>
<stop offset="0.39" stop-color="#8C06B5"/>
<stop offset="0.4" stop-color="#8C07B6"/>
<stop offset="0.41" stop-color="#8C09B8"/>
<stop offset="0.42" stop-color="#8C0AB9"/>
<stop offset="0.43" stop-color="#8C0BBA"/>
<stop offset="0.44" stop-color="#8C0CBB"/>
<stop offset="0.45" stop-color="#8C0EBD"/>
<stop offset="0.46" stop-color="#8B0FBE"/>
<stop offset="0.47" stop-color="#8B10BF"/>
<stop offset="0.48" stop-color="#8B11C0"/>
<stop offset="0.49" stop-color="#8B12C2"/>
<stop offset="0.5" stop-color="#8B14C3"/>
<stop offset="0.51" stop-color="#8B15C4"/>
<stop offset="0.52" stop-color="#8B16C5"/>
<stop offset="0.53" stop-color="#8A17C7"/>
<stop offset="0.54" stop-color="#8A19C8"/>
<stop offset="0.55" stop-color="#8A1AC9"/>
<stop offset="0.56" stop-color="#8A1BCA"/>
<stop offset="0.57" stop-color="#8A1CCC"/>
<stop offset="0.58" stop-color="#8A1ECD"/>
<stop offset="0.59" stop-color="#891FCE"/>
<stop offset="0.6" stop-color="#8920CF"/>
<stop offset="0.61" stop-color="#8921D1"/>
<stop offset="0.62" stop-color="#8923D2"/>
<stop offset="0.63" stop-color="#8924D3"/>
<stop offset="0.64" stop-color="#8925D4"/>
<stop offset="0.65" stop-color="#8926D6"/>
<stop offset="0.66" stop-color="#8828D7"/>
<stop offset="0.67" stop-color="#8829D8"/>
<stop offset="0.68" stop-color="#882AD9"/>
<stop offset="0.69" stop-color="#882BDB"/>
<stop offset="0.7" stop-color="#882DDC"/>
<stop offset="0.71" stop-color="#882EDD"/>
<stop offset="0.72" stop-color="#882FDE"/>
<stop offset="0.73" stop-color="#8730E0"/>
<stop offset="0.74" stop-color="#8732E1"/>
<stop offset="0.75" stop-color="#8733E2"/>
<stop offset="0.76" stop-color="#8734E3"/>
<stop offset="0.77" stop-color="#8735E5"/>
<stop offset="0.78" stop-color="#8736E6"/>
<stop offset="0.79" stop-color="#8738E7"/>
<stop offset="0.8" stop-color="#8639E8"/>
<stop offset="0.81" stop-color="#883CEA"/>
<stop offset="0.82" stop-color="#8B3FEB"/>
<stop offset="0.83" stop-color="#8D42EC"/>
<stop offset="0.84" stop-color="#8F45ED"/>
<stop offset="0.85" stop-color="#9149EE"/>
<stop offset="0.86" stop-color="#944CEF"/>
<stop offset="0.87" stop-color="#964FF0"/>
<stop offset="0.88" stop-color="#9852F1"/>
<stop offset="0.89" stop-color="#9B56F3"/>
<stop offset="0.9" stop-color="#9D59F4"/>
<stop offset="0.91" stop-color="#9F5CF5"/>
<stop offset="0.92" stop-color="#A25FF6"/>
<stop offset="0.93" stop-color="#A463F7"/>
<stop offset="0.94" stop-color="#A666F8"/>
<stop offset="0.95" stop-color="#A969F9"/>
<stop offset="0.96" stop-color="#AB6CFA"/>
<stop offset="0.97" stop-color="#AD6FFC"/>
<stop offset="0.98" stop-color="#AF73FD"/>
<stop offset="0.99" stop-color="#B276FE"/>
<stop offset="1" stop-color="#B479FF"/>
</linearGradient>
<linearGradient id="paint1_linear_4_2308" x1="72.6411" y1="488.762" x2="44.9389" y2="490.526" gradientUnits="userSpaceOnUse">
<stop stop-color="#FF00D6"/>
<stop offset="0.01" stop-color="#FE00D7"/>
<stop offset="0.02" stop-color="#FC01D9"/>
<stop offset="0.03" stop-color="#FB01DA"/>
<stop offset="0.04" stop-color="#F902DB"/>
<stop offset="0.05" stop-color="#F802DC"/>
<stop offset="0.06" stop-color="#F703DD"/>
<stop offset="0.07" stop-color="#F503DE"/>
<stop offset="0.08" stop-color="#F403E0"/>
<stop offset="0.09" stop-color="#F304E1"/>
<stop offset="0.1" stop-color="#F104E2"/>
<stop offset="0.11" stop-color="#F005E3"/>
<stop offset="0.12" stop-color="#EE05E4"/>
<stop offset="0.13" stop-color="#ED06E5"/>
<stop offset="0.14" stop-color="#EC06E7"/>
<stop offset="0.15" stop-color="#EA06E8"/>
<stop offset="0.16" stop-color="#E907E9"/>
<stop offset="0.17" stop-color="#E807EA"/>
<stop offset="0.18" stop-color="#E608EB"/>
<stop offset="0.19" stop-color="#E508EC"/>
<stop offset="0.2" stop-color="#E309EE"/>
<stop offset="0.21" stop-color="#E209EF"/>
<stop offset="0.22" stop-color="#E109F0"/>
<stop offset="0.23" stop-color="#DF0AF1"/>
<stop offset="0.24" stop-color="#DE0AF2"/>
<stop offset="0.25" stop-color="#DD0BF3"/>
<stop offset="0.26" stop-color="#DB0BF5"/>
<stop offset="0.27" stop-color="#DA0CF6"/>
<stop offset="0.28" stop-color="#D80CF7"/>
<stop offset="0.29" stop-color="#D70CF8"/>
<stop offset="0.3" stop-color="#D60DF9"/>
<stop offset="0.31" stop-color="#D40DFA"/>
<stop offset="0.32" stop-color="#D30EFC"/>
<stop offset="0.33" stop-color="#D20EFD"/>
<stop offset="0.34" stop-color="#D00EFE"/>
<stop offset="0.35" stop-color="#CF0FFF"/>
<stop offset="0.36" stop-color="#CB10FE"/>
<stop offset="0.37" stop-color="#C810FD"/>
<stop offset="0.38" stop-color="#C511FC"/>
<stop offset="0.39" stop-color="#C211FB"/>
<stop offset="0.4" stop-color="#BF12FA"/>
<stop offset="0.41" stop-color="#BC13F9"/>
<stop offset="0.42" stop-color="#B813F8"/>
<stop offset="0.43" stop-color="#B514F7"/>
<stop offset="0.44" stop-color="#B214F6"/>
<stop offset="0.45" stop-color="#AF15F5"/>
<stop offset="0.46" stop-color="#AC15F4"/>
<stop offset="0.47" stop-color="#A816F3"/>
<stop offset="0.48" stop-color="#A517F2"/>
<stop offset="0.49" stop-color="#A217F1"/>
<stop offset="0.5" stop-color="#9F18F0"/>
<stop offset="0.51" stop-color="#9C18EF"/>
<stop offset="0.52" stop-color="#9919EE"/>
<stop offset="0.53" stop-color="#951AED"/>
<stop offset="0.54" stop-color="#921AEC"/>
<stop offset="0.55" stop-color="#8F1BEB"/>
<stop offset="0.56" stop-color="#8C1BEA"/>
<stop offset="0.57" stop-color="#891CE9"/>
<stop offset="0.58" stop-color="#861DE8"/>
<stop offset="0.59" stop-color="#821DE7"/>
<stop offset="0.6" stop-color="#7F1EE6"/>
<stop offset="0.61" stop-color="#7C1EE5"/>
<stop offset="0.62" stop-color="#791FE4"/>
<stop offset="0.63" stop-color="#7620E3"/>
<stop offset="0.64" stop-color="#7220E3"/>
<stop offset="0.65" stop-color="#6F21E2"/>
<stop offset="0.66" stop-color="#6C21E1"/>
<stop offset="0.67" stop-color="#6922E0"/>
<stop offset="0.68" stop-color="#6623DF"/>
<stop offset="0.69" stop-color="#6323DE"/>
<stop offset="0.7" stop-color="#5F24DD"/>
<stop offset="0.71" stop-color="#5C24DC"/>
<stop offset="0.72" stop-color="#5925DB"/>
<stop offset="0.73" stop-color="#5626DA"/>
<stop offset="0.74" stop-color="#5326D9"/>
<stop offset="0.75" stop-color="#4F27D8"/>
<stop offset="0.76" stop-color="#4C27D7"/>
<stop offset="0.77" stop-color="#4928D6"/>
<stop offset="0.78" stop-color="#4628D5"/>
<stop offset="0.79" stop-color="#4329D4"/>
<stop offset="0.8" stop-color="#402AD3"/>
<stop offset="0.81" stop-color="#3C2AD2"/>
<stop offset="0.82" stop-color="#392BD1"/>
<stop offset="0.83" stop-color="#362BD0"/>
<stop offset="0.84" stop-color="#332CCF"/>
<stop offset="0.85" stop-color="#302DCE"/>
<stop offset="0.86" stop-color="#2D2DCD"/>
<stop offset="0.87" stop-color="#292ECC"/>
<stop offset="0.88" stop-color="#262ECB"/>
<stop offset="0.89" stop-color="#232FCA"/>
<stop offset="0.9" stop-color="#2030C9"/>
<stop offset="0.91" stop-color="#1D30C8"/>
<stop offset="0.92" stop-color="#1931C7"/>
<stop offset="0.93" stop-color="#1631C6"/>
<stop offset="0.94" stop-color="#1332C5"/>
<stop offset="0.95" stop-color="#1033C4"/>
<stop offset="0.96" stop-color="#0D33C3"/>
<stop offset="0.97" stop-color="#0A34C2"/>
<stop offset="0.98" stop-color="#0634C1"/>
<stop offset="0.99" stop-color="#0335C0"/>
<stop offset="1" stop-color="#0036BF"/>
</linearGradient>
<linearGradient id="paint2_linear_4_2308" x1="51.0114" y1="-42.7872" x2="68.0233" y2="-23.3344" gradientUnits="userSpaceOnUse">
<stop stop-color="#4E01B0"/>
<stop offset="0.01" stop-color="#4F01B0"/>
<stop offset="0.02" stop-color="#4F01B0"/>
<stop offset="0.03" stop-color="#5001B0"/>
<stop offset="0.04" stop-color="#5101B0"/>
<stop offset="0.05" stop-color="#5101B0"/>
<stop offset="0.06" stop-color="#5201B0"/>
<stop offset="0.07" stop-color="#5201B0"/>
<stop offset="0.08" stop-color="#5301B0"/>
<stop offset="0.09" stop-color="#5301B0"/>
<stop offset="0.1" stop-color="#5401B0"/>
<stop offset="0.11" stop-color="#5401B0"/>
<stop offset="0.12" stop-color="#5501B0"/>
<stop offset="0.13" stop-color="#5501B0"/>
<stop offset="0.14" stop-color="#5601B0"/>
<stop offset="0.15" stop-color="#5601B0"/>
<stop offset="0.16" stop-color="#5701B0"/>
<stop offset="0.17" stop-color="#5801B0"/>
<stop offset="0.18" stop-color="#5801B0"/>
<stop offset="0.19" stop-color="#5901B0"/>
<stop offset="0.2" stop-color="#5901B0"/>
<stop offset="0.21" stop-color="#5A01B0"/>
<stop offset="0.22" stop-color="#5A01B0"/>
<stop offset="0.23" stop-color="#5B01B0"/>
<stop offset="0.24" stop-color="#5B01B0"/>
<stop offset="0.25" stop-color="#5C01B0"/>
<stop offset="0.26" stop-color="#5C01B0"/>
<stop offset="0.27" stop-color="#5D01B0"/>
<stop offset="0.28" stop-color="#5D01B0"/>
<stop offset="0.29" stop-color="#5E01B0"/>
<stop offset="0.3" stop-color="#5E01B0"/>
<stop offset="0.31" stop-color="#5F01B0"/>
<stop offset="0.32" stop-color="#6001B0"/>
<stop offset="0.33" stop-color="#6001B0"/>
<stop offset="0.34" stop-color="#6101B0"/>
<stop offset="0.35" stop-color="#6101B0"/>
<stop offset="0.36" stop-color="#6201B0"/>
<stop offset="0.37" stop-color="#6201B0"/>
<stop offset="0.38" stop-color="#6301B0"/>
<stop offset="0.39" stop-color="#6401B0"/>
<stop offset="0.4" stop-color="#6501B0"/>
<stop offset="0.41" stop-color="#6701B0"/>
<stop offset="0.42" stop-color="#6801B0"/>
<stop offset="0.43" stop-color="#6901B0"/>
<stop offset="0.44" stop-color="#6B01B0"/>
<stop offset="0.45" stop-color="#6C01B0"/>
<stop offset="0.46" stop-color="#6E01B0"/>
<stop offset="0.47" stop-color="#6F01B0"/>
<stop offset="0.48" stop-color="#7101B0"/>
<stop offset="0.49" stop-color="#7201B0"/>
<stop offset="0.5" stop-color="#7301B0"/>
<stop offset="0.51" stop-color="#7501B0"/>
<stop offset="0.52" stop-color="#7601B0"/>
<stop offset="0.53" stop-color="#7801B0"/>
<stop offset="0.54" stop-color="#7901B0"/>
<stop offset="0.55" stop-color="#7B01B0"/>
<stop offset="0.56" stop-color="#7C01B0"/>
<stop offset="0.57" stop-color="#7E01B0"/>
<stop offset="0.58" stop-color="#7F01B0"/>
<stop offset="0.59" stop-color="#8001B0"/>
<stop offset="0.6" stop-color="#8201B0"/>
<stop offset="0.61" stop-color="#8301B0"/>
<stop offset="0.62" stop-color="#8501B0"/>
<stop offset="0.63" stop-color="#8601B0"/>
<stop offset="0.64" stop-color="#8801B0"/>
<stop offset="0.65" stop-color="#8901B0"/>
<stop offset="0.66" stop-color="#8B01B0"/>
<stop offset="0.67" stop-color="#8C01B0"/>
<stop offset="0.68" stop-color="#8D01B0"/>
<stop offset="0.69" stop-color="#8E01AF"/>
<stop offset="0.7" stop-color="#8F01AE"/>
<stop offset="0.71" stop-color="#9101AD"/>
<stop offset="0.72" stop-color="#9201AC"/>
<stop offset="0.73" stop-color="#9301AB"/>
<stop offset="0.74" stop-color="#9401AB"/>
<stop offset="0.75" stop-color="#9501AA"/>
<stop offset="0.76" stop-color="#9601A9"/>
<stop offset="0.77" stop-color="#9701A8"/>
<stop offset="0.78" stop-color="#9801A7"/>
<stop offset="0.79" stop-color="#9901A6"/>
<stop offset="0.8" stop-color="#9A01A5"/>
<stop offset="0.81" stop-color="#9B01A4"/>
<stop offset="0.82" stop-color="#9C01A4"/>
<stop offset="0.83" stop-color="#9E01A3"/>
<stop offset="0.84" stop-color="#9F01A2"/>
<stop offset="0.85" stop-color="#A001A1"/>
<stop offset="0.86" stop-color="#A101A0"/>
<stop offset="0.87" stop-color="#A2019F"/>
<stop offset="0.88" stop-color="#A3019E"/>
<stop offset="0.89" stop-color="#A4019E"/>
<stop offset="0.9" stop-color="#A5019D"/>
<stop offset="0.91" stop-color="#A6019C"/>
<stop offset="0.92" stop-color="#A7019B"/>
<stop offset="0.93" stop-color="#A8019A"/>
<stop offset="0.94" stop-color="#A90199"/>
<stop offset="0.95" stop-color="#AB0198"/>
<stop offset="0.96" stop-color="#AC0197"/>
<stop offset="0.97" stop-color="#AD0197"/>
<stop offset="0.98" stop-color="#AE0196"/>
<stop offset="0.99" stop-color="#AF0195"/>
<stop offset="1" stop-color="#B00194"/>
</linearGradient>
<linearGradient id="paint3_linear_4_2308" x1="49.1855" y1="-187.692" x2="68.5646" y2="-183.141" gradientUnits="userSpaceOnUse">
<stop stop-color="#4D27D7"/>
<stop offset="0.01" stop-color="#4F27D8"/>
<stop offset="0.02" stop-color="#5126D8"/>
<stop offset="0.03" stop-color="#5326D9"/>
<stop offset="0.04" stop-color="#5526D9"/>
<stop offset="0.05" stop-color="#5725DA"/>
<stop offset="0.06" stop-color="#5925DB"/>
<stop offset="0.07" stop-color="#5B24DB"/>
<stop offset="0.08" stop-color="#5D24DC"/>
<stop offset="0.09" stop-color="#5F24DC"/>
<stop offset="0.1" stop-color="#6123DD"/>
<stop offset="0.11" stop-color="#6323DE"/>
<stop offset="0.12" stop-color="#6623DE"/>
<stop offset="0.13" stop-color="#6822DF"/>
<stop offset="0.14" stop-color="#6A22E0"/>
<stop offset="0.15" stop-color="#6C21E0"/>
<stop offset="0.16" stop-color="#6E21E1"/>
<stop offset="0.17" stop-color="#7021E1"/>
<stop offset="0.18" stop-color="#7220E2"/>
<stop offset="0.19" stop-color="#7420E3"/>
<stop offset="0.2" stop-color="#7620E3"/>
<stop offset="0.21" stop-color="#781FE4"/>
<stop offset="0.22" stop-color="#7A1FE4"/>
<stop offset="0.23" stop-color="#7C1EE5"/>
<stop offset="0.24" stop-color="#7E1EE6"/>
<stop offset="0.25" stop-color="#801EE6"/>
<stop offset="0.26" stop-color="#821DE7"/>
<stop offset="0.27" stop-color="#841DE7"/>
<stop offset="0.28" stop-color="#861DE8"/>
<stop offset="0.29" stop-color="#881CE9"/>
<stop offset="0.3" stop-color="#8A1CE9"/>
<stop offset="0.31" stop-color="#8C1BEA"/>
<stop offset="0.32" stop-color="#8E1BEA"/>
<stop offset="0.33" stop-color="#901BEB"/>
<stop offset="0.34" stop-color="#931AEC"/>
<stop offset="0.35" stop-color="#951AEC"/>
<stop offset="0.36" stop-color="#971AED"/>
<stop offset="0.37" stop-color="#9919EE"/>
<stop offset="0.38" stop-color="#9B19EE"/>
<stop offset="0.39" stop-color="#9D18EF"/>
<stop offset="0.4" stop-color="#9F18EF"/>
<stop offset="0.41" stop-color="#A118F0"/>
<stop offset="0.42" stop-color="#A317F1"/>
<stop offset="0.43" stop-color="#A517F1"/>
<stop offset="0.44" stop-color="#A717F2"/>
<stop offset="0.45" stop-color="#A916F2"/>
<stop offset="0.46" stop-color="#AB16F3"/>
<stop offset="0.47" stop-color="#AD15F4"/>
<stop offset="0.48" stop-color="#AF15F4"/>
<stop offset="0.49" stop-color="#B115F5"/>
<stop offset="0.5" stop-color="#B314F5"/>
<stop offset="0.51" stop-color="#B514F6"/>
<stop offset="0.52" stop-color="#B714F7"/>
<stop offset="0.53" stop-color="#B913F7"/>
<stop offset="0.54" stop-color="#BB13F8"/>
<stop offset="0.55" stop-color="#BD12F8"/>
<stop offset="0.56" stop-color="#C012F9"/>
<stop offset="0.57" stop-color="#C212FA"/>
<stop offset="0.58" stop-color="#C411FA"/>
<stop offset="0.59" stop-color="#C611FB"/>
<stop offset="0.6" stop-color="#C811FC"/>
<stop offset="0.61" stop-color="#CA10FC"/>
<stop offset="0.62" stop-color="#CC10FD"/>
<stop offset="0.63" stop-color="#CE0FFD"/>
<stop offset="0.64" stop-color="#D00FFE"/>
<stop offset="0.65" stop-color="#D10FFD"/>
<stop offset="0.66" stop-color="#D20EFD"/>
<stop offset="0.67" stop-color="#D30EFC"/>
<stop offset="0.68" stop-color="#D40EFB"/>
<stop offset="0.69" stop-color="#D50EFA"/>
<stop offset="0.7" stop-color="#D50DFA"/>
<stop offset="0.71" stop-color="#D60DF9"/>
<stop offset="0.72" stop-color="#D70DF8"/>
<stop offset="0.73" stop-color="#D80DF7"/>
<stop offset="0.74" stop-color="#D90CF7"/>
<stop offset="0.75" stop-color="#DA0CF6"/>
<stop offset="0.76" stop-color="#DB0CF5"/>
<stop offset="0.77" stop-color="#DC0BF4"/>
<stop offset="0.78" stop-color="#DD0BF4"/>
<stop offset="0.79" stop-color="#DE0BF3"/>
<stop offset="0.8" stop-color="#DF0BF2"/>
<stop offset="0.81" stop-color="#E00AF1"/>
<stop offset="0.82" stop-color="#E00AF1"/>
<stop offset="0.83" stop-color="#E10AF0"/>
<stop offset="0.84" stop-color="#E209EF"/>
<stop offset="0.85" stop-color="#E309EE"/>
<stop offset="0.86" stop-color="#E409EE"/>
<stop offset="0.87" stop-color="#E509ED"/>
<stop offset="0.88" stop-color="#E608EC"/>
<stop offset="0.89" stop-color="#E708EB"/>
<stop offset="0.9" stop-color="#E808EB"/>
<stop offset="0.91" stop-color="#E908EA"/>
<stop offset="0.92" stop-color="#EA07E9"/>
<stop offset="0.93" stop-color="#EB07E8"/>
<stop offset="0.94" stop-color="#EB07E8"/>
<stop offset="0.95" stop-color="#EC06E7"/>
<stop offset="0.96" stop-color="#ED06E6"/>
<stop offset="0.97" stop-color="#EE06E5"/>
<stop offset="0.98" stop-color="#EF06E5"/>
<stop offset="0.99" stop-color="#F005E4"/>
<stop offset="1" stop-color="#F105E3"/>
</linearGradient>
</defs>
</svg>
