<svg width="150" height="54" viewBox="0 0 150 54" fill="none" xmlns="http://www.w3.org/2000/svg">
<path d="M74.8095 31.4361C74.7028 31.4361 74.5961 31.4199 74.4861 31.3744C74.3794 31.329 74.2954 31.2674 74.2145 31.1765C74.1305 31.0856 74.0723 30.9883 74.0302 30.8779C73.9914 30.7708 73.9753 30.654 73.9753 30.5275V22.6806C73.9656 22.5637 73.9914 22.4372 74.0302 22.3301C74.0723 22.2198 74.1305 22.1127 74.2145 22.0315C74.3794 21.8693 74.5864 21.7881 74.8095 21.7881C75.0326 21.7881 75.2396 21.879 75.4045 22.0315C75.4788 22.1224 75.5467 22.2198 75.5791 22.3301C75.6211 22.4372 75.6373 22.5637 75.6308 22.6806V30.5275C75.6308 30.6443 75.6114 30.7611 75.5726 30.8779C75.5306 30.9883 75.4724 31.0856 75.398 31.1765C75.3236 31.2674 75.2234 31.329 75.1232 31.3744C75.0326 31.4199 74.9259 31.4361 74.8095 31.4361ZM74.8095 20.2142C74.5605 20.2142 74.3148 20.1234 74.124 19.9514C73.9235 19.7826 73.7909 19.5392 73.7424 19.2764C73.6939 19.007 73.7263 18.7377 73.8427 18.4943C73.9559 18.2509 74.1466 18.0627 74.3794 17.9653C74.6123 17.855 74.8677 17.8485 75.107 17.9199C75.3495 18.001 75.5564 18.1633 75.6955 18.3872C75.8378 18.6111 75.8927 18.8805 75.8701 19.1531C75.8442 19.4224 75.7375 19.6755 75.5564 19.8735C75.4562 19.9806 75.3398 20.0714 75.2072 20.1234C75.0908 20.1883 74.9518 20.2142 74.8095 20.2142Z" fill="#231F20"/>
<path d="M74.9258 30.7969C74.8934 30.8066 74.8676 30.8164 74.8352 30.8164L74.7835 32.0496C74.9743 32.0593 75.165 32.0236 75.3396 31.949L74.9258 30.7969ZM75.0098 30.745C74.984 30.7709 74.9581 30.7904 74.9355 30.7969L75.3493 31.949C75.5207 31.8776 75.6856 31.7607 75.8182 31.6082L75.0098 30.745ZM75.0583 30.6541C75.0486 30.6898 75.026 30.7158 75.0098 30.745L75.8279 31.5985C75.9508 31.4557 76.0607 31.2837 76.1254 31.0955L75.0583 30.6541ZM75.0745 30.5535C75.0745 30.5925 75.0648 30.6282 75.0583 30.6639L76.1189 31.1052C76.1836 30.9137 76.2159 30.7158 76.2095 30.5178L75.0745 30.5535ZM75.0745 22.6904V30.5373H76.2095V22.6904H75.0745ZM75.0583 22.5541C75.0648 22.5898 75.0745 22.6255 75.0745 22.6612L76.2095 22.7164C76.2159 22.5087 76.1836 22.3107 76.1189 22.1128L75.0583 22.5541ZM75.0001 22.4633C75.026 22.4925 75.0422 22.5184 75.0486 22.5541L76.1189 22.1128C76.051 21.9246 75.9508 21.7428 75.8182 21.6L75.0001 22.4633ZM74.8191 22.4016C74.8999 22.4016 74.9743 22.4373 75.0325 22.4925L75.7956 21.5643C75.5304 21.3015 75.1812 21.1587 74.8191 21.1587V22.4016ZM74.6024 22.4925C74.6606 22.4373 74.7447 22.4016 74.8191 22.4016V21.1684C74.4634 21.1684 74.1142 21.3112 73.8425 21.5741L74.6024 22.4925ZM74.5701 22.5541C74.5765 22.5184 74.6024 22.4925 74.6186 22.473L73.8231 21.5903C73.6938 21.7363 73.5839 21.9148 73.5095 22.103L74.5701 22.5541ZM74.5539 22.6612C74.5539 22.6255 74.5539 22.5898 74.5701 22.5639L73.5095 22.1128C73.4448 22.301 73.4092 22.5087 73.4189 22.7164L74.5539 22.6612ZM74.5539 30.5373V22.6904H73.4189V30.5373H74.5539ZM74.5701 30.6541C74.5604 30.6184 74.5539 30.5925 74.5539 30.5535L73.4189 30.5178C73.4092 30.7255 73.4448 30.9235 73.5192 31.1117L74.5701 30.6541ZM74.6186 30.745C74.5959 30.7158 74.5765 30.6898 74.5701 30.6541L73.5095 31.1117C73.5774 31.3032 73.6841 31.4719 73.8167 31.6179L74.6186 30.745ZM74.7026 30.7969C74.6703 30.7904 74.6444 30.7612 74.6186 30.745L73.8167 31.6179C73.9492 31.7607 74.1077 31.8678 74.2791 31.949L74.7026 30.7969ZM74.7932 30.8164C74.7609 30.8164 74.7285 30.8066 74.7026 30.7969L74.2791 31.949C74.4537 32.0236 74.6347 32.0593 74.8255 32.0593L74.7932 30.8164ZM75.0001 19.5556C74.9419 19.5848 74.8773 19.5945 74.8191 19.5945L74.8029 20.8244C75.0163 20.8244 75.2329 20.7822 75.4399 20.6914L75.0001 19.5556ZM75.1586 19.4387C75.1165 19.4842 75.0583 19.5296 75.0001 19.5556L75.4399 20.7011C75.6371 20.6102 75.8182 20.474 75.9766 20.3052L75.1586 19.4387ZM75.3138 19.098C75.3073 19.2246 75.2491 19.3511 75.165 19.4387L75.9702 20.3117C76.2418 20.0164 76.4067 19.6302 76.4487 19.2148L75.3138 19.098ZM75.2329 18.728C75.2976 18.8384 75.3299 18.9617 75.3138 19.0883L76.4487 19.2051C76.4908 18.7929 76.3905 18.3776 76.1771 18.0368L75.2329 18.728ZM74.9516 18.5041C75.0648 18.5398 75.165 18.6209 75.2329 18.728L76.1771 18.0368C75.9605 17.6928 75.6468 17.4332 75.2814 17.3164L74.9516 18.5041ZM74.6024 18.5301C74.7091 18.4782 74.8352 18.4782 74.9516 18.5139L75.2814 17.3261C74.9161 17.2093 74.5216 17.2255 74.1724 17.3878L74.6024 18.5301ZM74.347 18.7832C74.4052 18.6664 74.4957 18.5755 74.6024 18.5301L74.1627 17.3878C73.807 17.55 73.5192 17.8389 73.3446 18.2056L74.347 18.7832ZM74.3049 19.1532C74.2791 19.0266 74.2952 18.8903 74.3534 18.7832L73.3446 18.2056C73.1635 18.5755 73.1118 19.0006 73.1861 19.403L74.3049 19.1532ZM74.4795 19.4744C74.389 19.3965 74.3211 19.2765 74.2952 19.1532L73.1797 19.403C73.254 19.8087 73.461 20.1786 73.7585 20.4383L74.4795 19.4744ZM74.8094 19.5945C74.6929 19.5945 74.5765 19.5491 74.486 19.4679L73.7746 20.4285C74.0721 20.6914 74.444 20.8342 74.8255 20.8244L74.8094 19.5945ZM75.6371 30.5373H75.0648V30.5535L75.6371 30.5373ZM75.6371 22.6904L75.0648 22.6612V22.6969H75.6371V22.6904ZM75.414 22.0316L75.8182 21.6L75.802 21.5806L75.7859 21.5643L75.414 22.0316ZM74.2209 22.0316L73.8425 21.5741L73.8328 21.5806L73.8231 21.5903L74.2209 22.0316ZM73.9816 22.6904H74.5539V22.6612L73.9816 22.6904ZM73.9816 30.5373L74.5539 30.5535V30.5373H73.9816ZM74.8094 31.4362L74.8352 30.8164H74.8029L74.8094 31.4362ZM75.5628 19.8736L75.1586 19.4322V19.4387L75.5628 19.8736ZM74.8094 20.2143L74.8191 19.5945H74.8029L74.8094 20.2143Z" fill="#231F20"/>
<path d="M90.5117 25.5073V30.5535C90.5117 30.6736 90.4956 30.7904 90.4568 30.9073C90.4147 31.0143 90.3565 31.1117 90.2821 31.2026C90.2078 31.2934 90.1075 31.3551 90.0073 31.4005C89.9103 31.446 89.7939 31.4654 89.6839 31.4557C89.5772 31.4557 89.4705 31.4362 89.3638 31.3908C89.2636 31.3486 89.173 31.2837 89.089 31.1928C89.0146 31.1117 88.9499 31.0046 88.9079 30.8975C88.8659 30.7904 88.8497 30.6736 88.8497 30.547V25.4975C88.8497 24.7576 88.6848 24.2092 88.3453 23.849C88.1707 23.6705 87.9637 23.5244 87.7406 23.4368C87.5175 23.346 87.275 23.3005 87.0357 23.3103C86.7803 23.3005 86.5151 23.3557 86.2758 23.4628C86.0333 23.5699 85.8199 23.7419 85.6453 23.9496C85.2734 24.3909 85.0827 24.975 85.1085 25.5689V30.547C85.1085 30.6639 85.0924 30.7807 85.0503 30.8975C85.0083 31.0046 84.9501 31.1052 84.8757 31.1928C84.7173 31.3551 84.5039 31.446 84.2808 31.446C84.0576 31.446 83.8507 31.3551 83.6826 31.1928C83.6082 31.1117 83.5435 31.0143 83.5015 30.8975C83.4594 30.7904 83.4433 30.6736 83.4433 30.547V25.4975C83.4433 24.7576 83.2784 24.2092 82.9388 23.849C82.7642 23.6705 82.5573 23.5244 82.3342 23.4368C82.1111 23.346 81.8718 23.3005 81.6325 23.3103C81.3674 23.3005 81.1087 23.3557 80.8694 23.4628C80.6301 23.5699 80.4135 23.7419 80.2324 23.9496C80.0513 24.1637 79.9026 24.4169 79.8088 24.696C79.7183 24.975 79.6698 25.2736 79.6859 25.5689V30.547C79.6956 30.7807 79.6116 31.0143 79.4628 31.1863C79.3885 31.274 79.2882 31.3389 79.188 31.3843C79.091 31.4265 78.9746 31.446 78.8679 31.4362C78.7579 31.4362 78.6512 31.42 78.5445 31.3746C78.4443 31.3291 78.344 31.2675 78.2697 31.1766C78.1953 31.0955 78.1306 30.9949 78.0886 30.8781C78.0466 30.771 78.0304 30.6541 78.0304 30.5276V22.6807C78.0207 22.5639 78.0466 22.4373 78.0789 22.3302C78.1209 22.2134 78.1791 22.1128 78.2632 22.0317C78.4184 21.8694 78.6351 21.7785 78.8582 21.7883C78.9649 21.7785 79.0813 21.8077 79.1815 21.8434C79.2818 21.8791 79.3788 21.9505 79.4628 22.0317C79.6116 22.2037 79.6956 22.4276 79.6859 22.6612C79.8606 22.473 80.0513 22.3107 80.2583 22.1744C80.7692 21.8434 81.3674 21.6714 81.9623 21.6812C82.5347 21.6714 83.0973 21.8175 83.6017 22.1225C83.9736 22.3464 84.2872 22.671 84.52 23.0571C84.7852 22.6969 85.115 22.4016 85.4901 22.1744C86.0592 21.8337 86.7059 21.6617 87.3591 21.6812C87.9314 21.6714 88.5005 21.8175 88.9984 22.1225C89.477 22.4178 89.8683 22.8787 90.1075 23.4174C90.3985 24.0826 90.5376 24.7966 90.5117 25.5073Z" fill="#231F20"/>
<path d="M89.6033 23.6965C89.8426 24.2546 89.959 24.868 89.9428 25.4781L91.0778 25.5138C91.1004 24.7057 90.9452 23.8944 90.6284 23.1675L89.6033 23.6965ZM88.7238 22.671C89.1054 22.9046 89.4126 23.2648 89.6098 23.6965L90.6381 23.1578C90.347 22.499 89.8749 21.9505 89.2961 21.5903L88.7238 22.671ZM87.3851 22.3205C87.8572 22.3108 88.3196 22.4373 88.7335 22.6807L89.28 21.6001C88.6915 21.2496 88.0286 21.0678 87.3528 21.0873L87.3851 22.3205ZM85.7716 22.7326C86.2599 22.4471 86.8063 22.301 87.3593 22.3108L87.3851 21.0776C86.6317 21.0614 85.8848 21.2593 85.2316 21.6455L85.7716 22.7326ZM84.9665 23.4628C85.1896 23.1675 85.4644 22.9144 85.7716 22.7326L85.2252 21.6552C84.7854 21.9148 84.4038 22.2653 84.0902 22.6904L84.9665 23.4628ZM83.3271 22.671C83.6181 22.8495 83.8671 23.1026 84.0482 23.4076L84.9988 22.7326C84.7175 22.2653 84.3392 21.8791 83.8897 21.6001L83.3271 22.671ZM81.9787 22.3205C82.4508 22.3108 82.9132 22.4373 83.3271 22.6807L83.8736 21.6001C83.2883 21.2496 82.6254 21.0678 81.9464 21.0873L81.9787 22.3205ZM80.556 22.7261C80.9763 22.4471 81.4646 22.3108 81.9529 22.3205L81.9787 21.0873C81.2673 21.0678 80.5721 21.2755 79.9675 21.6715L80.556 22.7261ZM80.0904 23.1123C80.2326 22.9598 80.3911 22.8332 80.556 22.7164L79.9675 21.6617C79.7185 21.824 79.4954 22.0154 79.2884 22.2394L80.0904 23.1123ZM79.0556 22.473C79.0977 22.5282 79.1235 22.5898 79.1235 22.6612L80.2585 22.6904C80.265 22.2945 80.1259 21.9051 79.8769 21.626L79.0556 22.473ZM78.991 22.4373C79.0233 22.4471 79.0492 22.473 79.075 22.4925L79.8608 21.5903C79.7282 21.4475 79.5633 21.3404 79.3887 21.2658L78.991 22.4373ZM78.8907 22.4178C78.9231 22.4178 78.9586 22.4178 78.991 22.4373L79.3887 21.2755C79.2141 21.2041 79.0233 21.1782 78.8422 21.1847L78.8907 22.4178ZM78.6611 22.499C78.7096 22.4471 78.7743 22.4178 78.8487 22.4178L78.8843 21.1847C78.5092 21.1782 78.1535 21.321 77.8883 21.6001L78.6611 22.499ZM78.6256 22.5736C78.6353 22.5347 78.6514 22.5087 78.6773 22.4925L77.8722 21.6098C77.7396 21.7526 77.6329 21.9343 77.5585 22.1225L78.6256 22.5736ZM78.6094 22.671C78.6094 22.6353 78.6094 22.5996 78.6256 22.5736L77.5682 22.1225C77.5003 22.3108 77.468 22.5282 77.4744 22.7326L78.6094 22.671ZM78.6094 30.5471V22.6969H77.4744V30.5471H78.6094ZM78.6256 30.6736C78.6191 30.6444 78.6094 30.6087 78.6094 30.573L77.4744 30.5276C77.468 30.7353 77.5003 30.9332 77.5747 31.1215L78.6256 30.6736ZM78.6773 30.7515C78.6514 30.7255 78.6353 30.6996 78.6256 30.6736L77.5682 31.1312C77.6329 31.3194 77.7396 31.4914 77.8722 31.6342L78.6773 30.7515ZM78.7581 30.8164C78.7258 30.8067 78.6999 30.7807 78.6773 30.7612L77.8722 31.6342C78.0047 31.7802 78.1632 31.8971 78.3378 31.9684L78.7581 30.8164ZM78.8487 30.8326C78.8163 30.8326 78.784 30.8261 78.7581 30.8164L78.3378 31.9684C78.5092 32.0398 78.6999 32.0755 78.8843 32.0755L78.8487 30.8326ZM78.991 30.8164C78.9651 30.8261 78.9328 30.8326 78.9004 30.8326L78.8422 32.0658C79.033 32.0755 79.2238 32.0398 79.4048 31.9684L78.991 30.8164ZM79.0653 30.7612C79.0395 30.7904 79.0168 30.8067 78.991 30.8164L79.4048 31.9684C79.5859 31.8971 79.7444 31.7802 79.8769 31.6245L79.0653 30.7612ZM79.1235 30.573C79.1235 30.6444 79.0977 30.7158 79.0556 30.771L79.8834 31.618C80.1421 31.3194 80.2747 30.9332 80.265 30.5276L79.1235 30.573ZM79.1235 25.5787V30.5535H80.2585V25.5787H79.1235ZM79.2884 24.4883C79.1656 24.8388 79.1138 25.2184 79.1235 25.5949L80.2585 25.5495C80.2488 25.3353 80.2811 25.1178 80.349 24.9199L79.2884 24.4883ZM79.8252 23.5342C79.5859 23.8133 79.4048 24.1378 79.2884 24.4883L80.3555 24.9199C80.4234 24.7219 80.5301 24.5337 80.6627 24.3715L79.8252 23.5342ZM80.6627 22.9046C80.349 23.0507 80.058 23.2648 79.8252 23.5439L80.6627 24.3812C80.7856 24.2384 80.9375 24.1216 81.1024 24.0469L80.6627 22.9046ZM81.6651 22.6969C81.3256 22.6904 80.9763 22.7521 80.6627 22.8949L81.1024 24.0404C81.2673 23.9658 81.4484 23.9301 81.623 23.9301L81.6651 22.6969ZM82.551 22.8592C82.2536 22.7326 81.9367 22.6807 81.6133 22.6969L81.6651 23.9301C81.83 23.9236 81.9949 23.9496 82.1436 24.0112L82.551 22.8592ZM83.353 23.4076C83.1201 23.1675 82.8485 22.9858 82.5575 22.8592L82.1533 24.021C82.3085 24.0826 82.4508 24.1832 82.5672 24.3001L83.353 23.4076ZM84.032 25.5073C84.032 24.6765 83.8412 23.9398 83.353 23.4174L82.5575 24.3001C82.7483 24.498 82.8906 24.8582 82.8906 25.5073H84.032ZM84.032 30.5471V25.4975H82.897V30.5471H84.032ZM84.0482 30.6736C84.0417 30.6347 84.032 30.6087 84.032 30.573L82.897 30.5276C82.8906 30.7353 82.9229 30.9332 82.9973 31.1215L84.0482 30.6736ZM84.0967 30.7515C84.074 30.7255 84.0579 30.6996 84.0482 30.6736L82.9876 31.1312C83.0555 31.3194 83.1622 31.4914 83.2948 31.6342L84.0967 30.7515ZM84.2874 30.8326C84.2131 30.8326 84.1387 30.7969 84.0805 30.745L83.3045 31.6439C83.5696 31.9133 83.9253 32.0658 84.2874 32.0658V30.8326ZM84.4944 30.745C84.4362 30.7969 84.3618 30.8326 84.2874 30.8326V32.0658C84.6528 32.0658 85.0085 31.9133 85.2737 31.6439L84.4944 30.745ZM84.53 30.6736C84.5203 30.7093 84.4944 30.7353 84.4782 30.7612L85.2898 31.6245C85.4224 31.4817 85.5226 31.3097 85.5873 31.1215L84.53 30.6736ZM84.5461 30.573C84.5461 30.6087 84.5364 30.6444 84.53 30.6736L85.5873 31.1215C85.6552 30.9332 85.6876 30.7353 85.6779 30.5276L84.5461 30.573ZM84.5461 25.5787V30.5535H85.6779V25.5787H84.5461ZM85.2316 23.5439C84.7595 24.1021 84.5106 24.8485 84.5461 25.6046L85.6779 25.5495C85.6617 25.1178 85.804 24.696 86.0756 24.3715L85.2316 23.5439ZM86.0594 22.9046C85.7458 23.0507 85.4644 23.2648 85.2316 23.5439L86.0691 24.3812C86.192 24.2384 86.3343 24.1281 86.4992 24.0469L86.0594 22.9046ZM87.0618 22.6969C86.7223 22.6904 86.3828 22.7521 86.0691 22.9046L86.5153 24.0469C86.6802 23.9755 86.8548 23.9398 87.0359 23.9398L87.0618 22.6969ZM87.9542 22.8592C87.6568 22.7326 87.3431 22.6807 87.0198 22.6969L87.0683 23.9301C87.2364 23.9236 87.4013 23.9496 87.5501 24.0112L87.9542 22.8592ZM88.7497 23.4174C88.5169 23.174 88.2453 22.9858 87.9478 22.8689L87.5404 24.0307C87.6988 24.0924 87.8314 24.193 87.9542 24.3098L88.7497 23.4174ZM89.4287 25.5073C89.4287 24.6765 89.2379 23.9398 88.7497 23.4174L87.9542 24.3001C88.145 24.498 88.2873 24.8582 88.2873 25.5073H89.4287ZM89.4287 30.5471V25.4975H88.2938V30.5471H89.4287ZM89.4449 30.6736C89.4384 30.6347 89.4287 30.6087 89.4287 30.573L88.2938 30.5373C88.2873 30.745 88.3196 30.943 88.394 31.1312L89.4449 30.6736ZM89.4966 30.7515C89.4708 30.7255 89.4546 30.6996 89.4449 30.6639L88.3875 31.1215C88.4522 31.3097 88.5589 31.4817 88.6915 31.6245L89.4966 30.7515ZM89.5775 30.8164C89.5451 30.8067 89.5193 30.7807 89.4966 30.7612L88.6915 31.6342C88.8241 31.7802 88.9825 31.8971 89.1571 31.9684L89.5775 30.8164ZM89.668 30.8326C89.6357 30.8326 89.6033 30.8261 89.5775 30.8164L89.1571 31.9684C89.3285 32.0398 89.5193 32.0755 89.7036 32.0755L89.668 30.8326ZM89.8006 30.8164C89.7779 30.8261 89.7424 30.8326 89.7197 30.8326L89.6615 32.0658C89.8523 32.0755 90.0431 32.0496 90.2242 31.9684L89.8006 30.8164ZM89.8749 30.7612C89.8588 30.7904 89.8361 30.8067 89.8006 30.8164L90.2145 31.9684C90.3988 31.8971 90.554 31.7705 90.6866 31.6245L89.8749 30.7612ZM89.9331 30.6736C89.9267 30.7093 89.9008 30.7353 89.8846 30.7612L90.6963 31.6245C90.8288 31.4817 90.9258 31.3097 90.9937 31.1215L89.9331 30.6736ZM89.9493 30.573C89.9493 30.6087 89.9428 30.6444 89.9331 30.6736L90.9937 31.1215C91.0584 30.9332 91.094 30.7353 91.0843 30.5276L89.9493 30.573ZM89.9428 25.5073V30.5535H91.0778V25.5073H89.9428ZM87.369 21.7007L87.3593 22.3205H87.3754L87.369 21.7007ZM84.53 23.0766L84.0579 23.4174L84.4879 24.1281L84.9762 23.4725L84.53 23.0766ZM81.9723 21.7007L81.9529 22.3205H81.9723V21.7007ZM79.6959 22.671L79.1235 22.6612L79.0977 24.193L80.0904 23.1221L79.6959 22.671ZM79.4695 22.0511L79.8834 21.6195L79.8769 21.6098L79.8608 21.6001L79.4695 22.0511ZM78.8681 21.8078L78.8487 22.4276H78.8843L78.8681 21.8078ZM78.2699 22.0511L77.8883 21.6001H77.8819L77.8722 21.6098L78.2699 22.0511ZM78.0403 22.7067H78.6094V22.671L78.0403 22.7067ZM78.0403 30.5471L78.6094 30.5633V30.5471H78.0403ZM78.8681 31.446L78.8907 30.8261H78.8422L78.8681 31.446ZM79.4695 31.1928L79.8769 31.6245L79.8931 31.6082L79.4695 31.1928ZM79.6959 30.5471H79.1235V30.5633L79.6959 30.5471ZM79.6959 25.5787H80.265V25.5592L79.6959 25.5787ZM81.6392 23.32L81.623 23.9398H81.6554L81.6392 23.32ZM83.4597 30.5471L84.032 30.5633V30.5471H83.4597ZM83.6925 31.1928L83.2948 31.6342L83.3045 31.6439L83.3109 31.6537L83.6925 31.1928ZM84.8856 31.1928L85.2737 31.6439L85.2834 31.6342L85.2898 31.6245L84.8856 31.1928ZM85.1152 30.5471H84.5461V30.5633L85.1152 30.5471ZM85.1152 25.5787H85.6876V25.5592L85.1152 25.5787ZM87.0456 23.32L87.0295 23.9398H87.078L87.0456 23.32ZM88.8564 30.5471L89.4287 30.5633V30.5471H88.8564ZM89.6842 31.446L89.7197 30.8261H89.668L89.6842 31.446ZM90.5119 30.5471H89.9428V30.5633L90.5119 30.5471ZM90.5119 25.5073L89.9428 25.4878V25.5073H90.5119Z" fill="#231F20"/>
<path d="M97.0364 29.9175C97.557 29.924 98.0711 29.7715 98.5076 29.4827C98.9409 29.1971 99.2966 28.7914 99.5359 28.3047C99.7913 27.7919 99.9239 27.2078 99.9174 26.6237C99.9239 26.0265 99.7913 25.4424 99.5359 24.9199C99.2966 24.4364 98.9409 24.0307 98.5076 23.7419C98.1778 23.5245 97.8124 23.3817 97.4341 23.3265C97.0526 23.2746 96.6645 23.2908 96.2895 23.4077C95.9176 23.518 95.5716 23.7062 95.2709 23.9658C94.9734 24.2287 94.718 24.5532 94.5369 24.9199C94.2782 25.4424 94.1553 26.0265 94.1618 26.6237C94.1553 27.2078 94.2782 27.7919 94.5369 28.3047C94.7762 28.7914 95.1319 29.2036 95.5619 29.4827C96.0081 29.7715 96.5223 29.924 97.0364 29.9175ZM93.4019 35.5577C93.2952 35.5577 93.1853 35.5414 93.0786 35.496C92.9783 35.4506 92.8878 35.3889 92.807 35.2981C92.7326 35.2169 92.6647 35.1098 92.6227 34.9995C92.5806 34.8924 92.5645 34.7756 92.5645 34.649V26.6139C92.5645 25.741 92.7714 24.8745 93.1691 24.1119C93.5507 23.3817 94.0971 22.7781 94.76 22.3562C95.2709 22.0317 95.8368 21.8175 96.4156 21.7267C97.0008 21.6358 97.599 21.6715 98.1681 21.8338C98.7405 21.996 99.2772 22.2848 99.7493 22.671C100.221 23.0572 100.613 23.5537 100.91 24.1021C101.308 24.868 101.515 25.7312 101.505 26.6042C101.521 27.4674 101.33 28.3306 100.959 29.0965C100.613 29.8072 100.099 30.4108 99.4777 30.8424C98.8989 31.2221 98.236 31.446 97.557 31.4817C96.878 31.5174 96.1989 31.3746 95.5878 31.0598C95.0575 30.7807 94.5951 30.3751 94.2135 29.8883V34.649C94.2135 34.7658 94.1974 34.8827 94.1553 34.9995C94.1133 35.1098 94.0551 35.2072 93.9807 35.2981C93.9064 35.3889 93.8061 35.4506 93.7091 35.496C93.625 35.5512 93.5183 35.5674 93.4019 35.5577Z" fill="#231F20"/>
<path d="M95.2708 30.005C95.8011 30.3555 96.4155 30.5469 97.0428 30.5372L97.0363 29.304C96.6224 29.304 96.215 29.1872 95.869 28.9535L95.2708 30.005ZM94.0388 28.5836C94.3299 29.1677 94.7502 29.6642 95.2805 30.005L95.869 28.9438C95.5198 28.7199 95.2385 28.3954 95.0477 27.9995L94.0388 28.5836ZM93.5991 26.604C93.5926 27.2985 93.7414 27.98 94.0388 28.5836L95.0412 28.0092C94.8343 27.5841 94.7244 27.107 94.7341 26.6235L93.5991 26.604ZM94.0388 24.6245C93.7414 25.2346 93.5926 25.929 93.5991 26.6235L94.7341 26.604C94.7244 26.1173 94.8343 25.6305 95.0412 25.1989L94.0388 24.6245ZM94.9248 23.4724C94.5594 23.7872 94.262 24.1734 94.0388 24.6147L95.0412 25.1989C95.19 24.9035 95.3872 24.6407 95.6297 24.4362L94.9248 23.4724ZM96.1503 22.7974C95.7041 22.9305 95.2902 23.1576 94.9248 23.4724L95.6297 24.4427C95.869 24.2383 96.1503 24.0825 96.4478 23.9949L96.1503 22.7974ZM97.5149 22.7066C97.0589 22.6352 96.5869 22.6709 96.1503 22.7974L96.4478 23.9949C96.7453 23.904 97.0525 23.8846 97.3597 23.93L97.5149 22.7066ZM98.8083 23.2096C98.4105 22.9499 97.9708 22.7779 97.5149 22.7066L97.3597 23.93C97.6636 23.9754 97.9546 24.0923 98.2198 24.2642L98.8083 23.2096ZM100.04 24.6245C99.7492 24.0468 99.3289 23.5535 98.8083 23.2096L98.2101 24.2642C98.5593 24.4979 98.8406 24.8224 99.0379 25.2183L100.04 24.6245ZM100.496 26.63C100.503 25.929 100.354 25.2443 100.05 24.6245L99.0476 25.2086C99.261 25.6402 99.3709 26.1173 99.3612 26.604L100.496 26.63ZM100.04 28.5933C100.347 27.98 100.496 27.2985 100.486 26.604L99.3547 26.6235C99.3612 27.107 99.2545 27.5743 99.0379 27.9995L100.04 28.5933ZM98.8147 30.005C99.3289 29.6642 99.7589 29.1677 100.05 28.5933L99.0476 27.9995C98.8471 28.3856 98.5658 28.7199 98.2198 28.9535L98.8147 30.005ZM97.0266 30.5372C97.6571 30.5469 98.2683 30.3652 98.8083 30.0147L98.2198 28.9535C97.8641 29.1872 97.4567 29.304 97.0428 29.2943L97.0266 30.5372ZM93.5183 34.9279C93.4924 34.9377 93.4601 34.9474 93.4277 34.9474L93.376 36.1806C93.5668 36.1903 93.7575 36.1514 93.9321 36.08L93.5183 34.9279ZM93.5991 34.876C93.5765 34.902 93.5506 34.9215 93.5247 34.9279L93.9386 36.08C94.1132 36.0086 94.2781 35.8918 94.4107 35.7392L93.5991 34.876ZM93.6411 34.7852C93.6347 34.8209 93.6088 34.8468 93.5926 34.876L94.4107 35.7295C94.5368 35.5867 94.6435 35.4147 94.7082 35.2265L93.6411 34.7852ZM93.6573 34.6846C93.6573 34.7235 93.6508 34.7592 93.6411 34.7949L94.7017 35.2362C94.7664 35.0448 94.802 34.8468 94.7923 34.6489L93.6573 34.6846ZM93.6573 29.8979V34.6586H94.7923V29.8979H93.6573ZM95.8528 30.5177C95.3969 30.2743 94.9895 29.9336 94.6694 29.502L93.7899 30.2938C94.2199 30.852 94.7502 31.3096 95.3452 31.6243L95.8528 30.5177ZM97.5407 30.8779C96.9522 30.9136 96.3734 30.7903 95.8431 30.5112L95.3549 31.6243C96.0501 31.9846 96.8197 32.1566 97.5989 32.1111L97.5407 30.8779ZM99.1963 30.3295C98.6983 30.6638 98.1292 30.8423 97.5407 30.8779L97.5989 32.1111C98.3685 32.0657 99.1219 31.8255 99.7848 31.3842L99.1963 30.3295ZM100.47 28.827C100.173 29.4468 99.7266 29.9596 99.1866 30.3392L99.7913 31.3842C100.503 30.8974 101.085 30.2127 101.479 29.4014L100.47 28.827ZM100.942 26.63C100.952 27.3959 100.794 28.152 100.464 28.827L101.473 29.4014C101.887 28.5382 102.094 27.5841 102.077 26.6138L100.942 26.63ZM100.428 24.4265C100.777 25.0918 100.959 25.8479 100.952 26.6138L102.084 26.63C102.1 25.6402 101.87 24.6699 101.414 23.8132L100.428 24.4265ZM99.4194 23.1739C99.8333 23.5179 100.173 23.9397 100.428 24.4265L101.414 23.8034C101.085 23.1739 100.635 22.6254 100.105 22.1841L99.4194 23.1739ZM98.0355 22.4372C98.5334 22.58 99.0055 22.8234 99.4194 23.1674L100.105 22.1841C99.5778 21.7427 98.9732 21.4215 98.3265 21.2397L98.0355 22.4372ZM96.506 22.3366C97.0201 22.2555 97.5407 22.2944 98.0355 22.4372L98.3265 21.2397C97.6798 21.0612 97.0104 21.0158 96.3476 21.1132L96.506 22.3366ZM95.0574 22.8948C95.5036 22.6092 95.9919 22.4177 96.506 22.3463L96.3476 21.1229C95.6847 21.2235 95.0477 21.4636 94.4786 21.8336L95.0574 22.8948ZM93.6735 24.4168C94.0065 23.7872 94.4786 23.255 95.0574 22.8948L94.4851 21.8239C93.7317 22.3009 93.1108 22.9856 92.6905 23.8132L93.6735 24.4168ZM93.1464 26.6235C93.1464 25.8479 93.3275 25.0918 93.6735 24.4265L92.6808 23.8229C92.2346 24.6764 92.0017 25.6499 92.0114 26.63L93.1464 26.6235ZM93.1464 34.6586V26.6235H92.0114V34.6586H93.1464ZM93.1626 34.7754C93.1529 34.7397 93.1464 34.7138 93.1464 34.6781L92.0114 34.6424C92.0017 34.8468 92.0341 35.0448 92.1117 35.2362L93.1626 34.7754ZM93.2111 34.8663C93.1852 34.8403 93.169 34.8111 93.1626 34.7754L92.102 35.2362C92.1666 35.4245 92.2766 35.5965 92.4092 35.7392L93.2111 34.8663ZM93.2951 34.9215C93.2596 34.9117 93.2369 34.8825 93.2111 34.8663L92.4092 35.7392C92.5417 35.882 92.6969 35.9989 92.8716 36.0735L93.2951 34.9215ZM93.3857 34.9377C93.3533 34.9377 93.3178 34.9279 93.2951 34.9215L92.8716 36.0735C93.0462 36.1449 93.2272 36.1806 93.418 36.1806L93.3857 34.9377ZM94.1617 26.6138L94.7341 26.6235V26.604L94.1617 26.6138ZM99.9238 26.6235L99.3547 26.6138V26.63L99.9238 26.6235ZM97.0363 29.9174L97.0428 29.2943H97.0266L97.0363 29.9174ZM94.2296 34.6586H93.6573V34.6781L94.2296 34.6586ZM94.2296 29.8979L94.6694 29.502L93.6573 28.1779V29.8882H94.2296V29.8979ZM99.4841 30.8617L99.7848 31.3907H99.801L99.4841 30.8617ZM101.515 26.6235L100.942 26.6138V26.63L101.515 26.6235ZM92.5741 34.6586L93.1464 34.6781V34.6586H92.5741ZM93.4018 35.5575L93.4277 34.9377H93.376L93.4018 35.5575Z" fill="#231F20"/>
<path d="M117.854 26.523C117.796 25.9745 117.886 25.4164 118.109 24.9296C118.368 24.4006 118.756 23.9495 119.238 23.651C119.626 23.3654 120.088 23.2096 120.554 23.2031C121.026 23.2031 121.488 23.3557 121.877 23.6348C122.174 23.8424 122.433 24.0923 122.656 24.3909L118.071 27.4965C117.961 27.1785 117.88 26.8572 117.854 26.523ZM125.388 27.3148C125.32 27.2239 125.246 27.1428 125.155 27.0909C125.065 27.0357 124.965 27 124.858 26.9805C124.677 26.9546 124.492 27 124.344 27.1071C124.188 27.2239 124.062 27.3959 123.998 27.5841C123.872 27.9087 123.707 28.2072 123.5 28.4668C123.283 28.7719 123.021 29.0347 122.72 29.2424C122.242 29.5832 121.686 29.7714 121.117 29.8071C120.586 29.8363 120.056 29.7 119.584 29.4307C119.261 29.2424 118.973 28.9991 118.73 28.7005L123.972 25.1535C124.146 25.0464 124.269 24.8679 124.318 24.6602C124.344 24.5596 124.344 24.4525 124.328 24.3552C124.311 24.2546 124.279 24.1572 124.227 24.0761C123.83 23.3459 123.283 22.7164 122.63 22.2555C122.035 21.8434 121.346 21.626 120.635 21.626C119.875 21.6552 119.128 21.9051 118.491 22.3561C117.812 22.7975 117.249 23.4368 116.868 24.1929C116.512 24.9134 116.347 25.7311 116.399 26.5489C116.454 27.4316 116.713 28.2948 117.159 29.0347C117.582 29.7909 118.187 30.4107 118.905 30.8326C119.594 31.2285 120.363 31.4102 121.133 31.3648C121.812 31.3096 122.481 31.1117 123.086 30.7612C123.691 30.4204 124.227 29.9434 124.657 29.3658C124.997 28.9341 125.262 28.4506 125.446 27.9281C125.485 27.8275 125.505 27.7204 125.495 27.6134C125.479 27.5128 125.446 27.4057 125.388 27.3148Z" fill="#231F20"/>
<path d="M118.601 27.2531C118.501 27 118.443 26.7404 118.417 26.4613L117.282 26.5846C117.318 26.9805 117.408 27.3699 117.547 27.7301L118.601 27.2531ZM122.359 23.8586L117.774 26.9643L118.375 28.0157L122.963 24.9133L122.359 23.8586ZM121.579 24.1474C121.819 24.3194 122.035 24.5239 122.216 24.7673L123.102 23.9949C122.847 23.6444 122.54 23.3459 122.194 23.1025L121.579 24.1474ZM120.561 23.8132C120.917 23.8132 121.266 23.93 121.563 24.1474L122.194 23.122C121.706 22.7715 121.133 22.58 120.554 22.58L120.561 23.8132ZM119.558 24.1572C119.859 23.9398 120.205 23.8229 120.561 23.8132L120.554 22.58C119.966 22.58 119.394 22.778 118.915 23.1285L119.558 24.1572ZM118.618 25.2086C118.824 24.777 119.138 24.4168 119.526 24.1734L118.957 23.1025C118.385 23.4627 117.913 23.9949 117.605 24.6342L118.618 25.2086ZM118.417 26.4515C118.369 26.0199 118.443 25.5883 118.624 25.1989L117.605 24.6407C117.324 25.2443 117.217 25.9193 117.292 26.5846L118.417 26.4515ZM126.051 27.5679C126.032 27.3602 125.967 27.1525 125.861 26.974L124.907 27.6555V27.6652L126.051 27.5679ZM125.958 28.178C126.042 27.98 126.074 27.7756 126.058 27.5581L124.923 27.6555V27.6652L125.958 28.178ZM125.081 29.7714C125.463 29.2846 125.76 28.7362 125.967 28.1423L124.9 27.7009C124.742 28.1618 124.509 28.5836 124.212 28.9633L125.081 29.7714ZM123.342 31.3193C124.021 30.9331 124.619 30.4107 125.091 29.7616L124.205 28.9893C123.823 29.502 123.351 29.9239 122.815 30.2322L123.342 31.3193ZM121.166 31.9846C121.929 31.9327 122.663 31.699 123.342 31.3193L122.815 30.2224C122.275 30.5275 121.686 30.7092 121.085 30.7514L121.166 31.9846ZM118.634 31.3907C119.41 31.8418 120.28 32.0398 121.159 31.9846L121.091 30.7514C120.422 30.7968 119.749 30.6346 119.164 30.2938L118.634 31.3907ZM116.671 29.3657C117.153 30.2224 117.822 30.9137 118.634 31.3907L119.17 30.3036C118.543 29.9336 118.013 29.3852 117.641 28.7264L116.671 29.3657ZM115.827 26.5943C115.885 27.5841 116.183 28.5479 116.681 29.3755L117.631 28.7005C117.243 28.0449 117.01 27.2888 116.962 26.5132L115.827 26.5943ZM116.364 23.9041C115.96 24.7316 115.779 25.6597 115.827 26.5846L116.962 26.5132C116.92 25.8122 117.069 25.1113 117.366 24.4785L116.364 23.9041ZM118.204 21.8336C117.434 22.3366 116.804 23.0506 116.373 23.9041L117.376 24.4979C117.706 23.8327 118.194 23.2842 118.789 22.8948L118.204 21.8336ZM120.619 21.0061C119.749 21.0321 118.905 21.3209 118.178 21.8434L118.799 22.8786C119.352 22.4827 119.992 22.2652 120.645 22.249L120.619 21.0061ZM122.938 21.7428C122.249 21.2657 121.457 21.0158 120.635 21.0158V22.249C121.233 22.249 121.819 22.4275 122.317 22.778L122.938 21.7428ZM124.716 23.7613C124.279 22.9402 123.665 22.249 122.938 21.7363L122.326 22.778C122.905 23.1836 123.393 23.7418 123.739 24.3908L124.716 23.7613ZM124.891 24.2545C124.858 24.0663 124.8 23.8943 124.7 23.7321L123.749 24.4168C123.756 24.4363 123.765 24.4428 123.765 24.4622L124.891 24.2545ZM124.874 24.8127C124.916 24.6342 124.923 24.4428 124.891 24.2545L123.775 24.4622C123.775 24.4785 123.775 24.4979 123.775 24.5174L124.874 24.8127ZM124.263 25.6954C124.561 25.5072 124.784 25.1924 124.874 24.8224L123.775 24.5077C123.765 24.5596 123.733 24.5985 123.691 24.6245L124.263 25.6954ZM119.031 29.2327L124.27 25.6857L123.665 24.6342L118.427 28.178L119.031 29.2327ZM119.859 28.8887C119.594 28.7362 119.361 28.5382 119.164 28.2948L118.31 29.1158C118.601 29.4663 118.938 29.7616 119.319 29.9888L119.859 28.8887ZM121.091 29.197C120.661 29.2132 120.231 29.1158 119.859 28.8887L119.319 29.9791C119.882 30.3036 120.512 30.4658 121.149 30.4301L121.091 29.197ZM122.417 28.7264C122.019 29.0055 121.563 29.1678 121.091 29.197L121.149 30.4301C121.819 30.3944 122.475 30.1575 123.038 29.7616L122.417 28.7264ZM123.054 28.0968C122.87 28.35 122.656 28.5577 122.417 28.7264L123.038 29.7616C123.384 29.5215 123.697 29.2035 123.956 28.853L123.054 28.0968ZM123.474 27.3505C123.377 27.6133 123.235 27.8535 123.07 28.0709L123.94 28.8724C124.179 28.5577 124.376 28.2072 124.525 27.8275L123.474 27.3505ZM124.03 26.6041C123.775 26.7923 123.584 27.0551 123.468 27.3699L124.525 27.8178C124.551 27.7366 124.603 27.675 124.667 27.6295L124.03 26.6041ZM124.939 26.3801C124.625 26.3347 124.302 26.4061 124.037 26.6041L124.667 27.6295C124.7 27.6036 124.742 27.5938 124.784 27.6036L124.939 26.3801ZM125.437 26.5489C125.279 26.4515 125.107 26.3866 124.923 26.3704L124.8 27.6036C124.826 27.6036 124.858 27.6133 124.884 27.6295L125.437 26.5489ZM125.844 26.9448C125.734 26.7825 125.595 26.6592 125.437 26.5586L124.874 27.6393C124.9 27.6555 124.923 27.675 124.939 27.7009L125.844 26.9448ZM117.854 26.5229V25.9031H117.227L117.292 26.5846L117.854 26.5229ZM118.078 27.4868L117.557 27.7301L117.812 28.3954L118.375 28.0092L118.078 27.4868ZM122.663 24.3811L122.963 24.9036L123.51 24.5336L123.102 23.9949L122.663 24.3811ZM121.887 23.6347L121.573 24.1474H121.589L121.887 23.6347ZM119.245 23.6444L119.536 24.1734L119.552 24.1637L119.568 24.1572L119.245 23.6444ZM117.854 26.5229V27.1428H118.491L118.417 26.4515L117.854 26.5229ZM125.437 27.9281L124.916 27.675L124.907 27.6944L124.9 27.7107L125.437 27.9281ZM124.651 29.3755L124.221 28.9698L124.212 28.9795L124.205 28.9893L124.651 29.3755ZM117.159 29.0444L117.647 28.7199L117.641 28.7102L117.631 28.7005L117.159 29.0444ZM118.491 22.3658L118.782 22.8948L118.799 22.8786L118.491 22.3658ZM120.635 21.6259V21.0061H120.619L120.635 21.6259ZM124.228 24.0761L123.739 24.3908L123.749 24.4071L123.756 24.4265L124.228 24.0761ZM123.972 25.1535L123.681 24.6245L123.675 24.6342L123.665 24.6407L123.972 25.1535ZM118.731 28.7005L118.433 28.178L117.864 28.5674L118.31 29.1158L118.731 28.7005ZM123.5 28.4765L123.06 28.0806L123.054 28.0904L123.044 28.0968L123.5 28.4765ZM123.998 27.5938L124.519 27.8275V27.8113L123.998 27.5938ZM124.858 26.9902L124.774 27.6036H124.79L124.858 26.9902ZM125.389 27.3148L125.861 26.974L125.851 26.9545L125.844 26.9383L125.389 27.3148Z" fill="#231F20"/>
<path d="M133.953 28.3047C133.714 28.7914 133.359 29.1971 132.928 29.4827C132.482 29.7715 131.975 29.9175 131.454 29.9175C130.94 29.9175 130.429 29.7618 129.983 29.4827C129.543 29.1971 129.187 28.7914 128.938 28.3047C128.689 27.7822 128.557 27.1981 128.557 26.6139C128.557 26.0265 128.689 25.4424 128.938 24.9199C129.187 24.4364 129.543 24.0307 129.983 23.7419C130.429 23.4531 130.933 23.3103 131.454 23.3103C131.968 23.3103 132.482 23.4628 132.928 23.7419C133.359 24.0307 133.714 24.4364 133.953 24.9199C134.202 25.4424 134.329 26.0265 134.329 26.6139C134.329 27.1981 134.202 27.7757 133.953 28.3047ZM135.321 24.1119C134.93 23.372 134.367 22.7619 133.688 22.3368C133.009 21.9149 132.233 21.7007 131.454 21.7169C130.659 21.7072 129.873 21.9246 129.178 22.366C128.508 22.7878 127.952 23.3914 127.574 24.1216C127.176 24.8745 126.969 25.741 126.976 26.6139C126.959 27.4869 127.15 28.3404 127.522 29.1062C127.871 29.8169 128.376 30.4205 129.003 30.8521C129.643 31.274 130.377 31.4914 131.131 31.4914C131.878 31.4914 132.615 31.2675 133.258 30.8521C133.64 30.5925 133.979 30.268 134.261 29.8883V30.5471C134.261 30.6639 134.277 30.7807 134.319 30.8976C134.361 31.0047 134.419 31.1053 134.5 31.1929C134.574 31.274 134.675 31.3487 134.775 31.3908C134.872 31.4363 134.988 31.4557 135.098 31.4557C135.205 31.4557 135.312 31.4363 135.418 31.3908C135.528 31.3487 135.609 31.2837 135.693 31.1929C135.767 31.1118 135.832 31.0047 135.874 30.8976C135.916 30.7905 135.932 30.6737 135.932 30.5471V26.6139C135.926 25.741 135.725 24.8745 135.321 24.1119Z" fill="#231F20"/>
<path d="M133.756 26.6139C133.756 27.1071 133.65 27.5842 133.443 28.0255L134.458 28.5837C134.742 27.9736 134.891 27.2986 134.891 26.6139H133.756ZM133.449 25.199C133.656 25.6403 133.763 26.1173 133.763 26.6139H134.898C134.898 25.9291 134.749 25.2541 134.468 24.6408L133.449 25.199ZM132.631 24.2643C132.977 24.4883 133.258 24.8225 133.449 25.2087L134.451 24.6246C134.16 24.0404 133.74 23.5536 133.216 23.2032L132.631 24.2643ZM131.454 23.9236C131.868 23.9236 132.282 24.0404 132.637 24.2741L133.21 23.2032C132.679 22.8592 132.068 22.6807 131.454 22.6807V23.9236ZM130.28 24.2741C130.636 24.0469 131.05 23.9236 131.464 23.9236V22.6904C130.843 22.6904 130.238 22.8689 129.708 23.2097L130.28 24.2741ZM129.443 25.2184C129.643 24.8322 129.931 24.498 130.28 24.2741L129.692 23.2097C129.171 23.5536 128.741 24.0404 128.44 24.6246L129.443 25.2184ZM129.136 26.6139C129.136 26.1271 129.245 25.6403 129.452 25.199L128.44 24.6343C128.153 25.2444 128.004 25.9194 128.004 26.6041H129.136V26.6139ZM129.452 28.0158C129.245 27.5842 129.136 27.1006 129.136 26.6041H128.004C128.004 27.2889 128.153 27.9736 128.44 28.574L129.452 28.0158ZM130.28 28.9536C129.931 28.72 129.643 28.3955 129.443 27.9996L128.44 28.5934C128.731 29.1776 129.161 29.6643 129.682 30.0051L130.28 28.9536ZM131.454 29.3041C131.04 29.3041 130.626 29.1873 130.271 28.9536L129.698 30.0246C130.228 30.3653 130.843 30.547 131.454 30.547V29.3041ZM132.637 28.9536C132.282 29.1776 131.868 29.3041 131.454 29.3041V30.5373C132.075 30.5373 132.679 30.3556 133.21 30.0148L132.637 28.9536ZM133.449 28.0093C133.258 28.3955 132.977 28.7265 132.631 28.9536L133.226 30.0051C133.747 29.6643 134.17 29.1678 134.458 28.5837L133.449 28.0093ZM136.479 26.6236C136.495 25.6306 136.265 24.6603 135.81 23.8035L134.823 24.4169C135.173 25.0821 135.354 25.8285 135.337 26.5944L136.479 26.6236ZM136.479 30.547V26.6139H135.344V30.547H136.479ZM136.388 31.1214C136.453 30.9332 136.489 30.7255 136.489 30.5276L135.354 30.5633C135.354 30.599 135.344 30.6347 135.337 30.6639L136.388 31.1214ZM136.081 31.6244C136.214 31.4816 136.32 31.3097 136.388 31.1214L135.328 30.6639C135.321 30.6996 135.295 30.7255 135.279 30.7515L136.081 31.6244ZM135.619 31.9587C135.793 31.8873 135.949 31.7705 136.081 31.6244L135.279 30.7515C135.253 30.7807 135.231 30.7969 135.195 30.8066L135.619 31.9587ZM135.072 32.0593C135.263 32.0658 135.444 32.0301 135.619 31.949L135.195 30.7969C135.163 30.8066 135.137 30.8164 135.105 30.8164L135.072 32.0593ZM134.558 31.9587C134.733 32.0301 134.924 32.0658 135.105 32.0658L135.072 30.8326C135.04 30.8326 135.004 30.8261 134.982 30.8164L134.558 31.9587ZM134.096 31.6244C134.228 31.7705 134.384 31.8873 134.558 31.9587L134.982 30.8066C134.949 30.7969 134.924 30.7709 134.898 30.7515L134.096 31.6244ZM133.789 31.1214C133.856 31.3097 133.963 31.4816 134.096 31.6244L134.898 30.745C134.872 30.7158 134.856 30.6898 134.849 30.6639L133.789 31.1214ZM133.688 30.5276C133.682 30.7353 133.714 30.9332 133.789 31.1214L134.849 30.6639C134.839 30.6347 134.833 30.599 134.833 30.5633L133.688 30.5276ZM133.688 29.8883V30.547H134.823V29.8883H133.688ZM133.556 31.3746C133.989 31.076 134.367 30.7093 134.7 30.2744L133.821 29.4923C133.575 29.8169 133.274 30.1057 132.954 30.3296L133.556 31.3746ZM131.131 32.1209C131.984 32.1209 132.822 31.8678 133.549 31.3908L132.961 30.3296C132.408 30.6898 131.777 30.8878 131.131 30.8878V32.1209ZM128.705 31.3843C129.436 31.8613 130.271 32.1112 131.124 32.1112V30.878C130.477 30.878 129.85 30.6898 129.294 30.3199L128.705 31.3843ZM127.018 29.395C127.406 30.203 127.988 30.8878 128.699 31.3746L129.31 30.3296C128.773 29.9532 128.327 29.4307 128.026 28.8173L127.018 29.395ZM126.406 26.6041C126.387 27.5744 126.604 28.5383 127.018 29.4015L128.026 28.8271C127.697 28.1521 127.532 27.3959 127.548 26.6301L126.406 26.6041ZM127.086 23.8035C126.636 24.6603 126.406 25.6306 126.413 26.6139L127.548 26.6041C127.538 25.8383 127.723 25.0821 128.068 24.4169L127.086 23.8035ZM128.896 21.824C128.143 22.301 127.516 22.9857 127.086 23.8035L128.068 24.4169C128.402 23.7873 128.88 23.2551 129.459 22.8949L128.896 21.824ZM131.464 21.097C130.562 21.0776 129.676 21.3307 128.896 21.824L129.469 22.8949C130.073 22.5184 130.759 22.3205 131.454 22.3367L131.464 21.097ZM133.97 21.798C133.2 21.3209 132.333 21.0776 131.448 21.097L131.464 22.3302C132.143 22.3205 132.822 22.499 133.407 22.8689L133.97 21.798ZM135.816 23.8035C135.379 22.9695 134.742 22.275 133.97 21.798L133.407 22.8689C134.005 23.2389 134.493 23.7678 134.833 24.4169L135.816 23.8035ZM133.953 24.9199L134.458 24.6408V24.6246L133.953 24.9199ZM132.928 23.7321L133.226 23.2032H133.21L132.928 23.7321ZM128.948 24.9199L128.45 24.6246V24.6408L128.948 24.9199ZM128.948 28.3046L128.44 28.5837V28.6032L128.948 28.3046ZM132.928 29.4826L133.216 30.0148H133.236L132.928 29.4826ZM133.953 28.3046L134.458 28.5934V28.574L133.953 28.3046ZM135.916 26.6139L135.344 26.6041V26.6236H135.916V26.6139ZM135.916 30.547H135.344V30.5633L135.916 30.547ZM135.088 31.4459L135.105 30.8261H135.072L135.088 31.4459ZM134.261 30.547L134.833 30.5633V30.547H134.261ZM134.261 29.8883H134.833V28.1715L133.821 29.5021L134.261 29.8883ZM133.252 30.8618L133.549 31.3908H133.565L133.252 30.8618ZM129.003 30.8618L128.699 31.3843H128.715L129.003 30.8618ZM126.976 26.6139L127.548 26.6236V26.6041L126.976 26.6139ZM131.454 21.7169L131.448 22.3367H131.464L131.454 21.7169Z" fill="#231F20"/>
<path d="M142.157 29.9175C142.681 29.924 143.192 29.7715 143.632 29.4827C144.062 29.1971 144.417 28.7914 144.657 28.3047C144.915 27.7919 145.048 27.2078 145.038 26.6237C145.048 26.0265 144.915 25.4424 144.657 24.9199C144.417 24.4364 144.062 24.0307 143.632 23.7419C143.185 23.4531 142.681 23.3103 142.157 23.3103C141.637 23.3103 141.132 23.4628 140.686 23.7419C140.253 24.021 139.897 24.4364 139.658 24.9134C139.402 25.4327 139.276 26.0201 139.286 26.6139C139.276 27.1981 139.402 27.7822 139.658 28.3047C139.897 28.7914 140.253 29.2036 140.692 29.4827C141.139 29.7715 141.646 29.924 142.157 29.9175ZM138.523 35.5577C138.416 35.5577 138.309 35.5414 138.203 35.496C138.102 35.4506 138.012 35.3889 137.928 35.2981C137.853 35.2169 137.789 35.1098 137.747 34.9995C137.705 34.8924 137.688 34.7756 137.688 34.649V26.6139C137.688 25.741 137.895 24.8745 138.293 24.1119C138.675 23.3817 139.218 22.7781 139.881 22.3562C140.395 22.0317 140.958 21.8175 141.546 21.7267C142.135 21.6358 142.73 21.6715 143.302 21.8338C143.871 21.996 144.411 22.2848 144.883 22.671C145.352 23.0572 145.75 23.5537 146.041 24.1021C146.438 24.868 146.645 25.7312 146.629 26.6042C146.645 27.4674 146.455 28.3306 146.083 29.0965C145.733 29.8072 145.219 30.4108 144.598 30.8424C144.02 31.2221 143.357 31.446 142.681 31.4817C142.002 31.5174 141.323 31.3746 140.709 31.0598C140.178 30.7807 139.716 30.3751 139.334 29.8883V34.649C139.334 34.7658 139.318 34.8827 139.276 34.993C139.237 35.1001 139.179 35.2007 139.105 35.2883C139.03 35.3792 138.93 35.4408 138.83 35.4863C138.749 35.5512 138.639 35.5674 138.523 35.5577Z" fill="#231F20"/>
<path d="M142.167 29.2943L142.158 30.5275H142.167V29.2943ZM140.405 30.0147C140.932 30.3652 141.553 30.5469 142.174 30.5372L142.158 29.304C141.744 29.3138 141.339 29.1872 140.99 28.9633L140.405 30.0147ZM139.163 28.5933C139.451 29.1775 139.875 29.674 140.405 30.0147L140.99 28.9535C140.644 28.7264 140.363 28.4051 140.172 28.0092L139.163 28.5933ZM138.724 26.604C138.714 27.2985 138.863 27.98 139.163 28.5933L140.162 28.0157C139.955 27.5841 139.849 27.107 139.858 26.6235L138.724 26.604ZM139.163 24.6245C138.863 25.2346 138.714 25.929 138.724 26.6235L139.858 26.604C139.849 26.1173 139.955 25.6305 140.162 25.1989L139.163 24.6245ZM140.395 23.2031C139.875 23.5438 139.445 24.0306 139.163 24.6147L140.162 25.1989C140.353 24.8127 140.635 24.4882 140.984 24.2642L140.395 23.2031ZM142.167 22.6903C141.546 22.6903 140.942 22.8688 140.411 23.2031L140.984 24.274C141.339 24.0468 141.753 23.9235 142.167 23.9235V22.6903ZM143.923 23.2031C143.393 22.8591 142.778 22.6903 142.167 22.6903V23.9235C142.581 23.9235 142.995 24.0403 143.351 24.274L143.923 23.2031ZM145.165 24.6245C144.874 24.0403 144.45 23.5535 143.929 23.2096L143.335 24.2642C143.68 24.4979 143.962 24.8224 144.162 25.2086L145.165 24.6245ZM145.617 26.63C145.627 25.929 145.478 25.2443 145.171 24.6245L144.169 25.2086C144.385 25.6402 144.492 26.1173 144.486 26.604L145.617 26.63ZM145.165 28.6031C145.469 27.9897 145.627 27.305 145.611 26.6138L144.476 26.63C144.486 27.107 144.376 27.5841 144.162 28.0092L145.165 28.6031ZM143.929 30.0147C144.45 29.674 144.874 29.1775 145.165 28.6031L144.162 28.0157C143.972 28.4051 143.68 28.7361 143.335 28.9633L143.929 30.0147ZM142.151 30.5372C142.778 30.5469 143.393 30.3652 143.929 30.0147L143.341 28.9535C142.985 29.1872 142.581 29.304 142.167 29.2943L142.151 30.5372ZM138.639 34.9279C138.607 34.9377 138.581 34.9474 138.549 34.9474L138.5 36.1806C138.691 36.1903 138.882 36.1514 139.053 36.08L138.639 34.9279ZM138.724 34.8663C138.698 34.8923 138.675 34.9117 138.649 34.9215L139.063 36.0735C139.238 35.9989 139.403 35.882 139.535 35.7295L138.724 34.8663ZM138.766 34.7852C138.756 34.8209 138.73 34.8468 138.714 34.876L139.535 35.7295C139.658 35.5867 139.758 35.4147 139.823 35.2265L138.766 34.7852ZM138.782 34.6781C138.782 34.7138 138.772 34.7495 138.766 34.7852L139.823 35.2265C139.891 35.0383 139.923 34.8403 139.917 34.6424L138.782 34.6781ZM138.782 29.8979V34.6586H139.917V29.8979H138.782ZM140.974 30.5177C140.518 30.2743 140.114 29.9336 139.791 29.502L138.914 30.2938C139.344 30.852 139.875 31.3096 140.47 31.6243L140.974 30.5177ZM142.662 30.8779C142.077 30.9136 141.495 30.7903 140.968 30.5112L140.479 31.6243C141.175 31.9846 141.944 32.1566 142.714 32.1111L142.662 30.8779ZM144.311 30.3295C143.813 30.6638 143.244 30.8423 142.655 30.8779L142.714 32.1111C143.483 32.0657 144.237 31.8255 144.9 31.3842L144.311 30.3295ZM145.595 28.827C145.297 29.4468 144.848 29.9596 144.311 30.3392L144.916 31.3842C145.627 30.8974 146.206 30.2127 146.604 29.4014L145.595 28.827ZM146.067 26.63C146.073 27.3959 145.918 28.152 145.585 28.827L146.594 29.4014C147.008 28.5382 147.215 27.5841 147.199 26.6138L146.067 26.63ZM145.553 24.4168C145.899 25.082 146.083 25.8382 146.067 26.604L147.199 26.6235C147.215 25.6305 146.985 24.6602 146.539 23.8034L145.553 24.4168ZM144.544 23.1739C144.958 23.5179 145.297 23.9397 145.553 24.4265L146.539 23.8034C146.206 23.1739 145.76 22.6254 145.229 22.1841L144.544 23.1739ZM143.16 22.4372C143.658 22.58 144.13 22.8234 144.544 23.1674L145.229 22.1841C144.699 21.7427 144.094 21.4215 143.451 21.2397L143.16 22.4372ZM141.627 22.3366C142.141 22.2555 142.662 22.2944 143.16 22.4372L143.451 21.2397C142.804 21.0612 142.135 21.0158 141.472 21.1132L141.627 22.3366ZM140.179 22.8948C140.628 22.6092 141.116 22.4177 141.627 22.3463L141.472 21.1229C140.809 21.2235 140.172 21.4636 139.6 21.8336L140.179 22.8948ZM138.798 24.4168C139.128 23.7872 139.6 23.255 140.179 22.8948L139.61 21.8239C138.856 22.3009 138.235 22.9856 137.812 23.8034L138.798 24.4168ZM138.268 26.6235C138.268 25.8479 138.449 25.0918 138.798 24.4168L137.805 23.8132C137.365 24.6699 137.133 25.6402 137.133 26.6235H138.268ZM138.268 34.6586V26.6235H137.133V34.6586H138.268ZM138.284 34.7754C138.277 34.7397 138.268 34.7138 138.268 34.6781L137.133 34.6424C137.126 34.8468 137.159 35.0448 137.233 35.2362L138.284 34.7754ZM138.336 34.8663C138.31 34.8403 138.293 34.8111 138.284 34.7754L137.226 35.2362C137.291 35.4245 137.398 35.5965 137.53 35.7392L138.336 34.8663ZM138.416 34.9215C138.384 34.9117 138.358 34.8825 138.336 34.8663L137.53 35.7392C137.663 35.882 137.821 35.9924 137.996 36.0735L138.416 34.9215ZM138.507 34.9377C138.475 34.9377 138.442 34.9279 138.416 34.9215L137.996 36.0735C138.167 36.1449 138.352 36.1806 138.542 36.1806L138.507 34.9377ZM142.167 29.9174L142.174 30.5372L142.167 29.304V29.9174ZM139.296 26.6138L139.865 26.6235V26.604L139.296 26.6138ZM143.632 23.732L143.929 23.2031H143.913L143.632 23.732ZM145.048 26.6235L144.476 26.6138V26.63L145.048 26.6235ZM142.158 29.9174V29.2943L142.151 30.5275L142.158 29.9174ZM139.351 34.6586H138.782V34.6781L139.351 34.6586ZM139.351 29.8979L139.791 29.502L138.782 28.1779V29.8979H139.351ZM144.609 30.8617L144.906 31.3907H144.922L144.609 30.8617ZM146.636 26.6235L146.067 26.6138V26.63L146.636 26.6235ZM137.695 34.6586L138.268 34.6781V34.6586H137.695ZM138.523 35.5575L138.549 34.9377H138.517L138.523 35.5575Z" fill="#231F20"/>
<path d="M105.47 18.5397V30.5372C105.479 30.7709 105.395 31.0045 105.247 31.1765C105.091 31.3388 104.884 31.4361 104.658 31.4361C104.445 31.4361 104.228 31.3485 104.073 31.1765C103.998 31.0954 103.94 30.9883 103.898 30.8779C103.856 30.7709 103.84 30.654 103.84 30.5372V18.5397C103.83 18.4229 103.856 18.3061 103.888 18.1892C103.93 18.0822 103.989 17.9718 104.063 17.8907C104.137 17.8031 104.228 17.7382 104.328 17.6927C104.428 17.6505 104.535 17.6213 104.642 17.6213C104.752 17.6213 104.859 17.6505 104.959 17.6927C105.056 17.7382 105.15 17.8096 105.224 17.8907C105.298 17.9816 105.356 18.0822 105.395 18.1892C105.463 18.3061 105.479 18.4229 105.47 18.5397Z" fill="#231F20"/>
<path d="M104.89 18.4132C104.9 18.4489 104.907 18.4845 104.907 18.5235L106.042 18.5754C106.051 18.3775 106.016 18.1698 105.951 17.9815L104.89 18.4132ZM104.842 18.3255C104.865 18.3515 104.884 18.3775 104.89 18.4132L105.958 17.9718C105.893 17.7836 105.793 17.6116 105.66 17.4688L104.842 18.3255ZM104.758 18.2606C104.79 18.2801 104.816 18.2963 104.842 18.3255L105.66 17.4688C105.527 17.326 105.379 17.2092 105.204 17.1281L104.758 18.2606ZM104.658 18.2444C104.693 18.2444 104.726 18.2509 104.758 18.2606L105.204 17.1281C105.033 17.0469 104.848 17.0112 104.667 17.0112V18.2444H104.658ZM104.567 18.2606C104.603 18.2444 104.635 18.2444 104.667 18.2444V17.0112C104.486 17.0112 104.296 17.0534 104.131 17.1281L104.567 18.2606ZM104.486 18.3255C104.509 18.2963 104.535 18.2801 104.567 18.2606L104.121 17.1281C103.946 17.2092 103.798 17.326 103.665 17.4688L104.486 18.3255ZM104.435 18.4132C104.444 18.3775 104.47 18.3515 104.486 18.3255L103.665 17.4688C103.532 17.6116 103.435 17.7836 103.368 17.9718L104.435 18.4132ZM104.418 18.5138C104.418 18.4781 104.418 18.4424 104.435 18.4034L103.368 17.9653C103.303 18.1535 103.267 18.3515 103.277 18.5592L104.418 18.5138ZM104.418 30.5372V18.5397H103.287V30.5372H104.418ZM104.435 30.654C104.428 30.6183 104.418 30.5826 104.418 30.5469L103.287 30.5112C103.277 30.7092 103.309 30.9071 103.377 31.0954L104.435 30.654ZM104.486 30.7449C104.46 30.7157 104.444 30.6897 104.435 30.654L103.377 31.0954C103.442 31.2836 103.542 31.4556 103.675 31.5984L104.486 30.7449ZM104.667 30.8163C104.593 30.8163 104.528 30.7903 104.477 30.7351L103.681 31.6243C103.946 31.9034 104.296 32.0592 104.667 32.0592V30.8163ZM104.858 30.7351C104.81 30.7903 104.742 30.8163 104.667 30.8163V32.0495C105.033 32.0495 105.388 31.8969 105.654 31.6178L104.858 30.7351ZM104.907 30.5469C104.907 30.6183 104.884 30.6995 104.832 30.7514L105.67 31.5886C105.919 31.2933 106.051 30.9136 106.042 30.5112L104.907 30.5469ZM104.907 18.5397V30.5372H106.042V18.5397H104.907ZM103.849 18.5397H104.418V18.5235L103.849 18.5397ZM103.849 30.5372L104.418 30.5534V30.5372H103.849ZM104.079 31.1765L103.675 31.6081L103.681 31.6178L103.691 31.6243L104.079 31.1765ZM105.256 31.1765L105.654 31.6178L105.66 31.6081L105.67 31.5984L105.256 31.1765ZM105.469 30.5372H104.9V30.5534L105.469 30.5372ZM105.469 18.5397L104.9 18.5138V18.53H105.469V18.5397Z" fill="#231F20"/>
<path d="M109.883 22.6904V30.5372C109.883 30.6541 109.867 30.7709 109.825 30.878C109.783 30.9883 109.725 31.0857 109.65 31.1765C109.576 31.2674 109.476 31.3291 109.379 31.3745C109.278 31.4199 109.162 31.4362 109.055 31.4264C108.949 31.4264 108.839 31.4102 108.732 31.3648C108.632 31.3193 108.541 31.2577 108.46 31.1668C108.376 31.0759 108.318 30.9786 108.276 30.8715C108.234 30.7612 108.218 30.6443 108.218 30.5178V22.6709C108.211 22.5541 108.234 22.4275 108.27 22.3204C108.308 22.2133 108.367 22.103 108.451 22.0219C108.535 21.9407 108.625 21.8791 108.722 21.8336C108.823 21.7882 108.929 21.772 109.046 21.7785C109.156 21.772 109.269 21.7882 109.369 21.8336C109.469 21.8791 109.57 21.9407 109.644 22.0219C109.718 22.103 109.783 22.2133 109.825 22.3204C109.873 22.447 109.89 22.5638 109.883 22.6904Z" fill="#231F20"/>
<path d="M109.304 22.554C109.311 22.58 109.32 22.6157 109.32 22.6514L110.452 22.7325C110.462 22.5281 110.436 22.3204 110.371 22.1224L109.304 22.554ZM109.252 22.4729C109.278 22.4989 109.294 22.5281 109.304 22.554L110.371 22.1127C110.303 21.9147 110.197 21.7427 110.064 21.5902L109.252 22.4729ZM109.178 22.4177C109.204 22.4275 109.23 22.4469 109.252 22.4729L110.058 21.5999C109.925 21.4572 109.757 21.3403 109.576 21.2657L109.178 22.4177ZM109.088 22.4015C109.12 22.4015 109.146 22.4015 109.178 22.4177L109.576 21.2592C109.395 21.1846 109.204 21.1489 109.013 21.1683L109.088 22.4015ZM108.939 22.4177C108.971 22.4112 109.003 22.4015 109.039 22.4015L109.071 21.1683C108.89 21.1586 108.706 21.1943 108.535 21.2657L108.939 22.4177ZM108.848 22.4826C108.874 22.4534 108.897 22.4372 108.929 22.4275L108.525 21.2754C108.35 21.3468 108.195 21.4572 108.062 21.5902L108.848 22.4826ZM108.806 22.554C108.816 22.5183 108.832 22.4924 108.855 22.4729L108.053 21.5902C107.92 21.7362 107.814 21.9147 107.746 22.1029L108.806 22.554ZM108.797 22.6514C108.797 22.6157 108.797 22.58 108.816 22.554L107.755 22.1029C107.687 22.2944 107.655 22.4989 107.665 22.7066L108.797 22.6514ZM108.797 30.5372V22.6903H107.665V30.5372H108.797ZM108.816 30.654C108.806 30.6183 108.797 30.5924 108.797 30.5534L107.665 30.5177C107.655 30.7254 107.687 30.9234 107.762 31.1116L108.816 30.654ZM108.864 30.7449C108.839 30.7157 108.822 30.6897 108.816 30.654L107.755 31.1116C107.82 31.3031 107.93 31.4718 108.062 31.6179L108.864 30.7449ZM108.948 30.7968C108.913 30.7903 108.89 30.7611 108.864 30.7449L108.062 31.6179C108.195 31.7606 108.35 31.8775 108.525 31.9489L108.948 30.7968ZM109.039 30.8163C109.003 30.8163 108.971 30.8066 108.948 30.7968L108.525 31.9489C108.699 32.0235 108.881 32.0592 109.071 32.0592L109.039 30.8163ZM109.172 30.7968C109.146 30.8066 109.113 30.8163 109.081 30.8163L109.023 32.0495C109.21 32.0592 109.401 32.0235 109.585 31.9489L109.172 30.7968ZM109.246 30.7449C109.22 30.7709 109.194 30.7903 109.172 30.7968L109.592 31.9489C109.776 31.8677 109.931 31.7509 110.064 31.6081L109.246 30.7449ZM109.294 30.654C109.288 30.6897 109.262 30.7157 109.246 30.7449L110.064 31.5984C110.19 31.4556 110.287 31.2836 110.355 31.0954L109.294 30.654ZM109.311 30.5534C109.311 30.5924 109.304 30.6281 109.294 30.6638L110.355 31.1051C110.42 30.9136 110.452 30.7157 110.446 30.5177L109.311 30.5534ZM109.311 22.6903V30.5372H110.446V22.6903H109.311ZM109.055 21.7882L109.039 22.4112H109.088L109.055 21.7882ZM108.46 22.0316L108.069 21.5805L108.062 21.5902L108.053 21.5999L108.46 22.0316ZM108.227 22.6903H108.797V22.6514L108.227 22.6903ZM108.227 30.5372L108.797 30.5534V30.5372H108.227ZM109.055 31.4361L109.081 30.8163H109.029L109.055 31.4361ZM109.883 30.5372H109.311V30.5534L109.883 30.5372ZM109.883 22.6903L109.311 22.6514V22.6903H109.883Z" fill="#231F20"/>
<path d="M109.056 20.2142C109.305 20.2142 109.544 20.1234 109.741 19.9514C109.942 19.7826 110.074 19.5392 110.123 19.2764C110.171 19.007 110.139 18.7377 110.023 18.4943C109.909 18.2509 109.719 18.0627 109.486 17.9653C109.253 17.855 108.998 17.8485 108.758 17.9199C108.516 18.001 108.309 18.1633 108.17 18.3872C108.028 18.6111 107.969 18.8805 107.995 19.1531C108.021 19.4224 108.128 19.6755 108.309 19.8637C108.409 19.9708 108.526 20.0617 108.658 20.1234C108.791 20.1883 108.914 20.2142 109.056 20.2142Z" fill="#231F20"/>
<path d="M108.425 20.7011C108.626 20.7887 108.849 20.8342 109.062 20.8342L109.046 19.601C108.982 19.601 108.923 19.5945 108.865 19.5653L108.425 20.7011ZM107.889 20.3052C108.037 20.474 108.218 20.6102 108.425 20.7011L108.865 19.5556C108.807 19.5296 108.758 19.4939 108.707 19.4387L107.889 20.3052ZM107.426 19.2148C107.459 19.6302 107.633 20.0164 107.895 20.3052L108.7 19.4322C108.616 19.3414 108.568 19.2246 108.551 19.0883L107.426 19.2148ZM107.688 18.0465C107.475 18.3873 107.384 18.7994 107.417 19.2148L108.551 19.098C108.542 18.9714 108.568 18.8449 108.632 18.7378L107.688 18.0465ZM108.584 17.3261C108.218 17.4429 107.905 17.6928 107.688 18.0465L108.632 18.7378C108.7 18.6307 108.797 18.5496 108.907 18.5139L108.584 17.3261ZM109.693 17.3878C109.337 17.2255 108.949 17.2093 108.584 17.3261L108.914 18.5139C109.03 18.4782 109.146 18.4846 109.253 18.5301L109.693 17.3878ZM110.521 18.2056C110.34 17.8389 110.049 17.55 109.703 17.3975L109.263 18.5398C109.37 18.5852 109.46 18.6761 109.518 18.7929L110.521 18.2056ZM110.679 19.403C110.754 19.0006 110.695 18.5755 110.521 18.2056L109.518 18.7832C109.577 18.9 109.593 19.0266 109.57 19.1532L110.679 19.403ZM110.097 20.4285C110.398 20.1689 110.595 19.799 110.679 19.3965L109.56 19.1532C109.534 19.2765 109.476 19.3868 109.379 19.4679L110.097 20.4285ZM109.046 20.8342C109.428 20.8342 109.8 20.7011 110.097 20.4383L109.379 19.4744C109.289 19.5556 109.172 19.601 109.056 19.601L109.046 20.8342ZM109.056 20.2143V19.5945H109.04L109.056 20.2143Z" fill="#231F20"/>
<path d="M114.213 18.5397V30.5372C114.213 30.654 114.197 30.7708 114.161 30.8779C114.122 30.9882 114.064 31.0856 113.99 31.1765C113.915 31.2673 113.822 31.329 113.725 31.3744C113.624 31.4198 113.518 31.4361 113.408 31.4361C113.301 31.4361 113.194 31.4198 113.094 31.3744C112.994 31.329 112.903 31.2673 112.829 31.1765C112.755 31.0953 112.696 30.9882 112.654 30.8779C112.616 30.7708 112.599 30.654 112.606 30.5372V18.5397C112.606 18.306 112.69 18.0821 112.845 17.9198C112.994 17.7576 113.201 17.657 113.417 17.657C113.634 17.657 113.841 17.7478 113.99 17.9198C114.129 18.0821 114.213 18.306 114.213 18.5397Z" fill="#231F20"/>
<path d="M113.576 18.3517C113.615 18.3971 113.65 18.4685 113.65 18.5399H114.782C114.782 18.144 114.633 17.7578 114.378 17.4787L113.576 18.3517ZM113.402 18.2803C113.466 18.2803 113.524 18.3062 113.576 18.3614L114.378 17.4884C114.123 17.2093 113.764 17.0471 113.402 17.0471V18.2803ZM113.237 18.3517C113.275 18.3062 113.343 18.2705 113.408 18.2705V17.0374C113.046 17.0374 112.69 17.1996 112.431 17.4787L113.237 18.3517ZM113.162 18.5399C113.162 18.4685 113.185 18.4036 113.237 18.3517L112.431 17.4787C112.176 17.7578 112.027 18.144 112.027 18.5399H113.162ZM113.162 30.5374V18.5399H112.027V30.5374H113.162ZM113.178 30.6542C113.169 30.6185 113.162 30.5828 113.162 30.5471L112.027 30.5114C112.018 30.7093 112.053 30.9073 112.118 31.0955L113.178 30.6542ZM113.227 30.745C113.201 30.7158 113.185 30.6899 113.178 30.6542L112.118 31.0955C112.186 31.2837 112.283 31.4557 112.409 31.5985L113.227 30.745ZM113.301 30.797C113.275 30.7905 113.253 30.771 113.237 30.745L112.415 31.5985C112.548 31.7511 112.706 31.8679 112.881 31.9425L113.301 30.797ZM113.385 30.8164C113.359 30.8164 113.327 30.8164 113.301 30.797L112.871 31.9425C113.046 32.0237 113.237 32.0593 113.427 32.0496L113.385 30.8164ZM113.508 30.797C113.482 30.8067 113.46 30.8164 113.434 30.8164L113.376 32.0496C113.566 32.0593 113.757 32.0237 113.938 31.949L113.508 30.797ZM113.566 30.7515C113.55 30.771 113.524 30.7905 113.502 30.797L113.932 31.9425C114.113 31.8614 114.271 31.7446 114.404 31.5888L113.566 30.7515ZM113.634 30.6542C113.625 30.6899 113.599 30.7158 113.583 30.745L114.404 31.5985C114.527 31.4557 114.627 31.2837 114.692 31.0955L113.634 30.6542ZM113.641 30.5536C113.641 30.5925 113.634 30.6282 113.625 30.6639L114.685 31.1053C114.75 30.9138 114.782 30.7158 114.776 30.5179L113.641 30.5536ZM113.641 18.5399V30.5374H114.776V18.5399H113.641ZM112.59 30.5374L113.162 30.5536V30.5374H112.59ZM113.402 31.4363L113.434 30.8164H113.385L113.402 31.4363ZM114.213 30.5374H113.641V30.5536L114.213 30.5374Z" fill="#231F20"/>
<path d="M67.1684 18.2801C68.0479 18.2606 68.908 18.5138 69.6614 19.0005C70.3566 19.4386 70.9095 20.1136 71.2491 20.9055C71.2911 20.9963 71.3073 21.0872 71.3073 21.1845C71.3073 21.3565 71.2426 21.5285 71.1262 21.6454C71.0098 21.7719 70.861 21.8336 70.6961 21.8433C70.5797 21.8433 70.4633 21.7979 70.3631 21.7265C70.2661 21.6616 70.182 21.5642 70.1335 21.4474C69.891 20.8698 69.4965 20.4025 68.9824 20.0974C68.4262 19.7534 67.7989 19.5847 67.1619 19.6009C66.7804 19.6009 66.3988 19.6561 66.0367 19.7469C65.6551 19.8345 65.2897 19.9806 64.9502 20.1785C64.6365 20.3505 64.3617 20.6004 64.1483 20.9055C63.9413 21.204 63.8346 21.5642 63.8411 21.9342C63.8346 22.1386 63.867 22.3366 63.9413 22.5281C64.0157 22.7163 64.116 22.8883 64.255 23.0311C64.5525 23.3264 64.9082 23.5535 65.2994 23.6866C65.7295 23.8488 66.1757 23.9657 66.6316 24.0468C67.094 24.1279 67.5176 24.1993 67.8992 24.2545C68.3615 24.3259 68.8078 24.4265 69.254 24.5595C69.684 24.6958 70.1076 24.8841 70.4892 25.1469C70.8513 25.3903 71.1585 25.7213 71.3816 26.1172C71.6145 26.5586 71.7373 27.0616 71.7212 27.5743C71.7373 28.1617 71.5886 28.7264 71.3008 29.2229C71.0195 29.6902 70.6444 30.0861 70.2079 30.3847C69.752 30.6897 69.254 30.9234 68.7334 31.0694C68.229 31.2122 67.6987 31.2933 67.1781 31.2933C66.1854 31.3095 65.1992 31.0402 64.3294 30.5177C63.5275 30.0504 62.8969 29.304 62.5251 28.3954C62.4927 28.3045 62.4766 28.2136 62.4766 28.126C62.4766 27.954 62.5412 27.782 62.6576 27.6555C62.774 27.5321 62.9228 27.4672 63.0877 27.4575C63.2138 27.4575 63.327 27.5029 63.4272 27.5743C63.5275 27.649 63.6083 27.7463 63.6503 27.8631C63.9252 28.5284 64.3973 29.0801 64.9922 29.4208C65.6616 29.807 66.415 30.005 67.1684 29.9888C67.5499 29.9888 67.9315 29.9336 68.3033 29.8427C68.6849 29.7551 69.047 29.6091 69.3866 29.4111C69.7099 29.2326 69.9848 28.9795 70.1982 28.6647C70.4051 28.3499 70.5215 27.9638 70.5118 27.5743C70.5215 27.3601 70.4892 27.1427 70.4148 26.9448C70.3405 26.7468 70.224 26.5683 70.0753 26.4255C69.7617 26.1367 69.3963 25.9388 68.9985 25.8219C68.5847 25.6954 68.1611 25.6045 67.731 25.5493C67.1781 25.4617 66.5993 25.3514 66.0011 25.2281C65.432 25.1015 64.8758 24.9133 64.3455 24.6601C63.8573 24.4362 63.4272 24.076 63.0974 23.6249C62.7805 23.1836 62.6156 22.6092 62.6156 21.905C62.6091 21.3468 62.7482 20.7984 63.023 20.3311C63.3043 19.8735 63.6665 19.4743 64.0965 19.1888C64.5525 18.874 65.0504 18.6403 65.571 18.4943C66.1013 18.3612 66.6316 18.2801 67.1684 18.2801Z" fill="#231F20"/>
<path d="M65.7719 19.2602C66.2246 19.1239 66.6967 19.0525 67.1688 19.0525V17.5046C66.5738 17.5046 65.9789 17.5954 65.3969 17.7674L65.7719 19.2602ZM64.4882 19.8638C64.886 19.5945 65.316 19.3868 65.7622 19.2602L65.3969 17.7674C64.8116 17.9362 64.249 18.199 63.7348 18.5592L64.4882 19.8638ZM63.6281 20.7725C63.8512 20.4025 64.139 20.0975 64.4882 19.8638L63.7413 18.5495C63.2207 18.9 62.7809 19.3673 62.4414 19.9255L63.6281 20.7725ZM63.3371 21.905C63.3274 21.4994 63.4373 21.1035 63.6346 20.7627L62.435 19.9255C62.0793 20.5193 61.8982 21.2236 61.9144 21.9342L63.3371 21.905ZM63.6605 23.1674C63.46 22.8883 63.3371 22.4989 63.3371 21.9245H61.9144C61.9144 22.7618 62.1051 23.5082 62.5417 24.1215L63.6605 23.1674ZM64.6273 23.9657C64.249 23.7873 63.9159 23.5179 63.6605 23.1674L62.5417 24.128C62.9491 24.6764 63.4697 25.1178 64.0646 25.3904L64.6273 23.9657ZM66.1438 24.4785C65.6232 24.3714 65.1155 24.1994 64.637 23.9657L64.0646 25.3806C64.6434 25.6597 65.2481 25.8674 65.8786 26.0005L66.1438 24.4785ZM67.8317 24.7965C67.2852 24.7154 66.7323 24.605 66.1438 24.4785L65.8625 25.9907C66.4671 26.127 67.0524 26.2341 67.6247 26.325L67.8317 24.7965ZM69.1801 25.0918C68.7338 24.9555 68.2779 24.8582 67.8155 24.7965L67.6409 26.325C68.0289 26.3802 68.4202 26.4613 68.8017 26.5781L69.1801 25.0918ZM70.5317 25.8479C70.1339 25.4877 69.678 25.2346 69.1801 25.0918L68.8179 26.5846C69.1154 26.6657 69.387 26.8215 69.6198 27.0357L70.5317 25.8479ZM71.0684 26.6592C70.952 26.351 70.7709 26.0719 70.5381 25.8577L69.5939 27.0195C69.6618 27.0811 69.7201 27.1623 69.7524 27.2531L71.0684 26.6592ZM71.2172 27.6296C71.2333 27.2986 71.1848 26.9643 71.0684 26.6592L69.7524 27.2531C69.7847 27.3407 69.8009 27.4413 69.7944 27.5387L71.2172 27.6296ZM70.7774 29.1321C71.0781 28.6842 71.2333 28.1326 71.2269 27.5744L69.8009 27.6133C69.8106 27.8373 69.7427 28.0514 69.6295 28.2332L70.7774 29.1321ZM69.7104 30.1154C70.1242 29.8785 70.4896 29.5475 70.7709 29.1418L69.636 28.2137C69.4872 28.4311 69.29 28.6096 69.0636 28.7459L69.7104 30.1154ZM68.4525 30.6184C68.8923 30.5113 69.3223 30.3393 69.7201 30.1056L69.0475 28.7362C68.7597 28.8984 68.4622 29.025 68.1389 29.0964L68.4525 30.6184ZM67.1688 30.7806C67.5989 30.7806 68.0386 30.7255 68.4622 30.6184L68.1389 29.1159C67.8155 29.197 67.4922 29.2424 67.1623 29.2424L67.1688 30.7806ZM64.6531 30.1219C65.4324 30.573 66.299 30.7969 67.185 30.7806L67.1526 29.2327C66.5156 29.2489 65.8851 29.0867 65.3225 28.7556L64.6531 30.1219ZM62.9879 28.1975C63.3274 29.025 63.9159 29.7097 64.6531 30.1219L65.316 28.7556C64.8601 28.4928 64.4947 28.0806 64.2878 27.5679L62.9879 28.1975ZM63.0461 28.2494C63.0235 28.2332 63.0073 28.2072 62.9879 28.178L64.2975 27.5841C64.1972 27.3148 64.0161 27.0909 63.793 26.9383L63.0461 28.2494ZM63.072 28.2494C63.0461 28.2494 63.0235 28.2429 63.0073 28.2234L63.8351 26.9643C63.6184 26.7923 63.363 26.7014 63.0881 26.6949L63.072 28.2494ZM63.156 28.2137C63.1399 28.2332 63.114 28.2429 63.0881 28.2494L63.072 26.7014C62.726 26.7014 62.3929 26.8572 62.1439 27.1266L63.156 28.2137ZM63.1884 28.1423C63.1884 28.1715 63.1787 28.1975 63.156 28.2137L62.1536 27.1266C61.9047 27.3959 61.7721 27.7561 61.7656 28.1326L63.1884 28.1423ZM63.1884 28.1163L61.7656 28.152C61.7721 28.3305 61.8044 28.522 61.8626 28.6842L63.1884 28.1163ZM64.6628 29.8428C64 29.4566 63.4761 28.8368 63.1722 28.0904L61.8723 28.7102C62.3024 29.7714 63.0461 30.6541 63.9838 31.2025L64.6628 29.8428ZM67.1623 30.5275C66.2925 30.547 65.4324 30.3133 64.679 29.8525L63.9903 31.2025C64.9668 31.7964 66.0759 32.0949 67.1947 32.0755L67.1623 30.5275ZM68.5431 30.3198C68.0968 30.4561 67.6344 30.5178 67.1688 30.5178L67.1785 32.0657C67.767 32.0657 68.3523 31.9781 68.9149 31.8159L68.5431 30.3198ZM69.8268 29.726C69.429 29.9986 68.999 30.1965 68.5528 30.3198L68.9084 31.8159C69.4969 31.6536 70.066 31.3842 70.5802 31.0305L69.8268 29.726ZM70.703 28.8011C70.4799 29.1775 70.1824 29.4923 69.8365 29.726L70.5802 31.0403C71.1105 30.6898 71.5664 30.2127 71.9059 29.6448L70.703 28.8011ZM71.0102 27.6036C71.0199 28.0352 70.91 28.4571 70.703 28.8173L71.9059 29.6448C72.2681 29.025 72.4524 28.3046 72.433 27.5679L71.0102 27.6036ZM70.7612 26.5132C70.9262 26.828 71.0102 27.1882 71.0038 27.5582L72.4265 27.6133C72.4427 26.9546 72.2939 26.3055 71.9964 25.7409L70.7612 26.5132ZM70.1178 25.8123C70.3829 25.9907 70.6125 26.2341 70.7774 26.5327L71.9867 25.7214C71.7054 25.2281 71.3174 24.803 70.8615 24.498L70.1178 25.8123ZM69.0636 25.3157C69.4387 25.4261 69.7847 25.5948 70.1178 25.8123L70.8615 24.498C70.4217 24.1994 69.9432 23.9755 69.4452 23.823L69.0636 25.3157ZM67.7993 25.0302C68.2294 25.0918 68.6498 25.1924 69.0636 25.3157L69.4549 23.8327C68.9731 23.6867 68.4849 23.5698 67.9966 23.4984L67.7993 25.0302ZM66.5156 24.8127C66.9877 24.8939 67.4081 24.9653 67.8058 25.0302L67.9966 23.4984C67.6247 23.4465 67.2109 23.3719 66.7549 23.2907L66.5156 24.8127ZM65.067 24.4266C65.5391 24.5986 66.0177 24.7316 66.5156 24.8225L66.7485 23.2907C66.3346 23.2193 65.9271 23.1123 65.5294 22.9597L65.067 24.4266ZM63.7769 23.599C64.1487 23.9755 64.5949 24.2546 65.0832 24.4266L65.5133 22.95C65.2255 22.8494 64.9603 22.6806 64.7372 22.4535L63.7769 23.599ZM63.2789 22.8137C63.3856 23.1025 63.5538 23.3654 63.7607 23.5893L64.7437 22.473C64.679 22.4113 64.6273 22.3302 64.5949 22.2393L63.2789 22.8137ZM63.1302 21.905C63.1205 22.2198 63.1722 22.5346 63.2789 22.8234L64.5949 22.2393C64.5626 22.1484 64.5464 22.0576 64.5529 21.9602L63.1302 21.905ZM63.5861 20.4382C63.2886 20.8698 63.1205 21.402 63.1302 21.9407L64.5529 21.9148C64.5529 21.7168 64.6111 21.5286 64.7178 21.3761L63.5861 20.4382ZM64.637 19.4939C64.2296 19.7178 63.8739 20.0423 63.5926 20.4382L64.7178 21.3826C64.8698 21.1684 65.067 20.9964 65.2901 20.8698L64.637 19.4939ZM65.8851 18.9909C65.4486 19.098 65.025 19.2602 64.6273 19.4939L65.2901 20.8633C65.5812 20.7011 65.8786 20.5745 66.1923 20.5031L65.8851 18.9909ZM67.1688 18.8286C66.7388 18.8286 66.3087 18.8805 65.8851 18.9909L66.2085 20.4934C66.5318 20.4123 66.8552 20.3668 67.1785 20.3668L67.1688 18.8286ZM69.3385 19.4225C68.6756 19.0168 67.9222 18.8091 67.1526 18.8286L67.1785 20.3766C67.6926 20.3668 68.1971 20.5031 68.6433 20.7725L69.3385 19.4225ZM70.7871 21.1327C70.4896 20.4025 69.9755 19.7989 69.3288 19.4225L68.6433 20.7822C69.0151 21.0061 69.3126 21.3469 69.4872 21.772L70.7871 21.1327ZM70.7386 21.0678C70.7548 21.0775 70.7709 21.097 70.7774 21.123L69.4872 21.7785C69.5939 22.0413 69.7783 22.249 70.0014 22.4016L70.7386 21.0678ZM70.7192 21.0775C70.7386 21.0775 70.7548 21.0873 70.7709 21.097L69.9755 22.3756C70.1824 22.5281 70.4314 22.6157 70.6869 22.6157L70.7192 21.0775ZM70.6287 21.1035C70.6448 21.0873 70.6707 21.0678 70.703 21.0678L70.7127 22.6157C71.0587 22.6157 71.3918 22.4632 71.6408 22.1939L70.6287 21.1035ZM70.5963 21.1846C70.5963 21.1586 70.606 21.1327 70.6287 21.1035L71.6311 22.2036C71.88 21.9342 72.0126 21.574 72.0191 21.1943L70.5963 21.1846ZM70.6125 21.2592C70.606 21.23 70.5963 21.2041 70.5963 21.1781L72.0191 21.1943C72.0191 20.9802 71.9803 20.753 71.8865 20.5648L70.6125 21.2592ZM69.3062 19.6659C69.8753 20.0261 70.3312 20.5745 70.606 21.23L71.8962 20.5907C71.4985 19.6464 70.8453 18.8643 70.024 18.3321L69.3062 19.6659ZM67.185 19.0525C67.9319 19.0363 68.6595 19.2505 69.2965 19.6659L70.024 18.3418C69.1574 17.7739 68.1615 17.4883 67.1526 17.5046L67.185 19.0525ZM62.6257 21.9148H63.3371V21.8986L62.6257 21.9148ZM67.7314 25.5591L67.6344 26.325H67.6506L67.7314 25.5591ZM70.0757 26.4418L70.5478 25.8674L70.5381 25.8577L70.5317 25.8479L70.0757 26.4418ZM70.5123 27.5841L69.8009 27.5387V27.6133L70.5123 27.5841ZM70.1986 28.6745L70.7709 29.1418V29.1256L70.1986 28.6745ZM67.1688 30.005V29.2327H67.1526L67.1688 30.005ZM63.6443 27.8827L62.9879 28.178V28.1975L63.6443 27.8827ZM63.4212 27.5939L63.0073 28.2234L63.0235 28.2429L63.0461 28.2591L63.4212 27.5939ZM63.0817 27.477L63.0881 26.7014H63.072L63.0817 27.477ZM62.477 28.1326L61.7656 28.1261V28.1618L62.477 28.1326ZM62.5255 28.4052L61.8626 28.6907L61.8723 28.7005L61.8788 28.7102L62.5255 28.4052ZM67.1688 31.3031V30.5275H67.1526L67.1688 31.3031ZM71.3012 29.2229L71.8962 29.6448V29.6286L71.3012 29.2229ZM71.7151 27.5744L71.0038 27.5484V27.5841L71.7151 27.5744ZM71.3821 26.127L71.9964 25.7409L71.9867 25.7311L71.9803 25.7214L71.3821 26.127ZM65.2998 23.6867L65.5294 22.9597H65.5133L65.2998 23.6867ZM64.2554 23.0311L63.7672 23.5893L63.7833 23.6055L64.2554 23.0311ZM63.8415 21.9342L64.5529 21.9602V21.9245L63.8415 21.9342ZM67.1688 19.601V20.3766H67.185L67.1688 19.601ZM70.1404 21.4475L69.4969 21.7623V21.7785L70.1404 21.4475ZM70.3732 21.7363L70.7709 21.097L70.7386 21.0775L70.3732 21.7363ZM70.703 21.8531L70.6869 22.6255H70.703V21.8531ZM71.2495 20.9153L70.606 21.2398L70.6125 21.2592L70.6222 21.2657L71.2495 20.9153ZM67.1688 18.2802V19.0525H67.185L67.1688 18.2802Z" fill="#231F20"/>
<mask id="mask0_414_977" style="mask-type:luminance" maskUnits="userSpaceOnUse" x="26" y="12" width="26" height="24">
<path d="M26.9893 12.4614H51.8226V35.723H26.9893V12.4614Z" fill="white"/>
</mask>
<g mask="url(#mask0_414_977)">
<mask id="mask1_414_977" style="mask-type:luminance" maskUnits="userSpaceOnUse" x="27" y="12" width="25" height="24">
<path d="M30.6398 27.8111C30.0675 27.36 29.4564 26.9641 28.842 26.578C28.5607 26.406 28.3149 26.182 28.108 25.9192C27.5842 25.2734 27.2867 24.4426 27.2705 23.5794V17.631C27.2705 16.4594 27.4516 16.1544 27.6003 15.8039C28.205 14.3923 29.4822 13.7594 30.0513 13.4804C30.5816 13.2207 31.5258 12.7697 32.7836 12.906C33.7602 13.0131 34.6785 13.4382 35.4319 14.1294L47.4185 23.0212C50.0344 24.4978 51.2664 26.857 51.6738 29.7258V35.3887H40.1269V35.1907C36.9646 32.7244 33.8022 30.258 30.6398 27.8111Z" fill="white"/>
</mask>
<g mask="url(#mask1_414_977)">
<path d="M-1.41113 -33.2278L152.18 102.376V146.601L-1.41113 10.9977" fill="url(#paint0_linear_414_977)"/>
</g>
</g>
<mask id="mask2_414_977" style="mask-type:luminance" maskUnits="userSpaceOnUse" x="26" y="12" width="26" height="24">
<path d="M26.9893 12.4614H51.8226V35.723H26.9893V12.4614Z" fill="white"/>
</mask>
<g mask="url(#mask2_414_977)">
<mask id="mask3_414_977" style="mask-type:luminance" maskUnits="userSpaceOnUse" x="27" y="12" width="25" height="24">
<path d="M30.6398 27.8111C30.0675 27.36 29.4564 26.9641 28.842 26.578C28.5607 26.406 28.3149 26.182 28.108 25.9192C27.5842 25.2734 27.2867 24.4426 27.2705 23.5794V17.631C27.2705 16.4594 27.4516 16.1544 27.6003 15.8039C28.205 14.3923 29.4822 13.7594 30.0513 13.4804C30.5816 13.2207 31.5258 12.7697 32.7836 12.906C33.7602 13.0131 34.6785 13.4382 35.4319 14.1294L47.4185 23.0212C50.0344 24.4978 51.2664 26.857 51.6738 29.7258V35.3887H40.1269V35.1907C36.9646 32.7244 33.8022 30.258 30.6398 27.8111Z" fill="white"/>
</mask>
<g mask="url(#mask3_414_977)">
<path fill-rule="evenodd" clip-rule="evenodd" d="M-1.41113 -33.0038L152.18 102.61V-54.2598H-1.41113" fill="#4E01B0"/>
<path fill-rule="evenodd" clip-rule="evenodd" d="M-1.41113 10.8259L152.18 146.43V112.735H-1.41113" fill="#B479FF"/>
</g>
</g>
<mask id="mask4_414_977" style="mask-type:luminance" maskUnits="userSpaceOnUse" x="26" y="20" width="26" height="34">
<path d="M26.9893 20.7693H51.8226V53.1693H26.9893V20.7693Z" fill="white"/>
</mask>
<g mask="url(#mask4_414_977)">
<mask id="mask5_414_977" style="mask-type:luminance" maskUnits="userSpaceOnUse" x="27" y="20" width="25" height="33">
<path d="M51.6803 35.3693C51.5736 37.099 50.9851 38.7443 49.9924 40.104C49.2972 41.0484 48.4209 41.8142 47.4283 42.3529L35.4416 51.2448C34.6882 51.9295 33.7699 52.3611 32.7934 52.4715C31.8492 52.5493 30.905 52.3514 30.0611 51.8938C29.4888 51.6147 28.2148 50.9852 27.6101 49.5735C27.4613 49.2133 27.2803 48.905 27.2803 47.7465V41.7883C27.2964 40.9218 27.5842 40.0943 28.1145 39.4485C28.3312 39.1856 28.5801 38.9617 28.8518 38.78C30.1581 37.9168 30.6496 37.5468 30.6496 37.5468C32.2793 36.6284 37.288 33.9284 40.0171 32.2215C43.6451 29.9433 45.4655 28.7653 45.9796 26.6235C46.5164 24.3908 45.4914 22.2198 44.7703 20.9963L48.9415 24.0468C49.8954 24.9847 50.6391 26.1367 51.1371 27.4218C51.4087 28.152 51.5995 28.9081 51.7062 29.6902L51.6803 35.3693Z" fill="white"/>
</mask>
<g mask="url(#mask5_414_977)">
<path d="M-1.41016 -868.664L152.181 1566.51V2128.1L-1.41016 -307.07" fill="url(#paint1_linear_414_977)"/>
</g>
</g>
<mask id="mask6_414_977" style="mask-type:luminance" maskUnits="userSpaceOnUse" x="26" y="20" width="26" height="34">
<path d="M26.9893 20.7693H51.8226V53.1693H26.9893V20.7693Z" fill="white"/>
</mask>
<g mask="url(#mask6_414_977)">
<mask id="mask7_414_977" style="mask-type:luminance" maskUnits="userSpaceOnUse" x="27" y="20" width="25" height="33">
<path d="M51.6803 35.3693C51.5736 37.099 50.9851 38.7443 49.9924 40.104C49.2972 41.0484 48.4209 41.8142 47.4283 42.3529L35.4416 51.2448C34.6882 51.9295 33.7699 52.3611 32.7934 52.4715C31.8492 52.5493 30.905 52.3514 30.0611 51.8938C29.4888 51.6147 28.2148 50.9852 27.6101 49.5735C27.4613 49.2133 27.2803 48.905 27.2803 47.7465V41.7883C27.2964 40.9218 27.5842 40.0943 28.1145 39.4485C28.3312 39.1856 28.5801 38.9617 28.8518 38.78C30.1581 37.9168 30.6496 37.5468 30.6496 37.5468C32.2793 36.6284 37.288 33.9284 40.0171 32.2215C43.6451 29.9433 45.4655 28.7653 45.9796 26.6235C46.5164 24.3908 45.4914 22.2198 44.7703 20.9963L48.9415 24.0468C49.8954 24.9847 50.6391 26.1367 51.1371 27.4218C51.4087 28.152 51.5995 28.9081 51.7062 29.6902L51.6803 35.3693Z" fill="white"/>
</mask>
<g mask="url(#mask7_414_977)">
<path fill-rule="evenodd" clip-rule="evenodd" d="M-1.41016 -867.395L152.181 1567.77V-54.2597H-1.41016" fill="#FF00D6"/>
<path fill-rule="evenodd" clip-rule="evenodd" d="M-1.41016 -308.231L152.181 2126.93V112.735H-1.41016" fill="#0036BF"/>
</g>
</g>
<mask id="mask8_414_977" style="mask-type:luminance" maskUnits="userSpaceOnUse" x="1" y="0" width="26" height="24">
<path d="M1.32812 0H26.1615V23.2615H1.32812V0Z" fill="white"/>
</mask>
<g mask="url(#mask8_414_977)">
<mask id="mask9_414_977" style="mask-type:luminance" maskUnits="userSpaceOnUse" x="1" y="0" width="25" height="24">
<path d="M22.3718 15.6612C22.9409 15.2102 23.5553 14.8142 24.1664 14.4281C24.4477 14.2561 24.6967 14.0321 24.9036 13.7693C25.4242 13.1235 25.7217 12.2927 25.7379 11.4295V5.47133C25.7379 4.30306 25.5568 3.99477 25.4081 3.64429C24.8034 2.23263 23.5294 1.60306 22.9571 1.32397C22.4268 1.06111 21.4858 0.613276 20.2247 0.74633C19.2482 0.853421 18.3299 1.28828 17.5765 1.96977L5.58342 10.8616C2.96751 12.3382 1.73231 14.6974 1.32812 17.5694V23.229H12.8847V23.0408C16.047 20.5745 19.2094 18.1178 22.3718 15.6612Z" fill="white"/>
</mask>
<g mask="url(#mask9_414_977)">
<path d="M-1.41113 4.03053L152.18 -131.57V-87.5066L-1.41113 48.1035" fill="url(#paint2_linear_414_977)"/>
</g>
</g>
<mask id="mask10_414_977" style="mask-type:luminance" maskUnits="userSpaceOnUse" x="1" y="0" width="26" height="5">
<path d="M1.32812 0H26.1615V4.15385H1.32812V0Z" fill="white"/>
</mask>
<g mask="url(#mask10_414_977)">
<mask id="mask11_414_977" style="mask-type:luminance" maskUnits="userSpaceOnUse" x="1" y="0" width="25" height="24">
<path d="M22.3718 15.6612C22.9409 15.2102 23.5553 14.8142 24.1664 14.4281C24.4477 14.2561 24.6967 14.0321 24.9036 13.7693C25.4242 13.1235 25.7217 12.2927 25.7379 11.4295V5.47133C25.7379 4.30306 25.5568 3.99477 25.4081 3.64429C24.8034 2.23263 23.5294 1.60306 22.9571 1.32397C22.4268 1.06111 21.4858 0.613276 20.2247 0.74633C19.2482 0.853421 18.3299 1.28828 17.5765 1.96977L5.58342 10.8616C2.96751 12.3382 1.73231 14.6974 1.32812 17.5694V23.229H12.8847V23.0408C16.047 20.5745 19.2094 18.1178 22.3718 15.6612Z" fill="white"/>
</mask>
<g mask="url(#mask11_414_977)">
<path fill-rule="evenodd" clip-rule="evenodd" d="M-1.41113 4.15045L152.18 -131.463V-54.2598H-1.41113" fill="#4E01B0"/>
</g>
</g>
<mask id="mask12_414_977" style="mask-type:luminance" maskUnits="userSpaceOnUse" x="1" y="0" width="26" height="24">
<path d="M1.32812 0H26.1615V23.2615H1.32812V0Z" fill="white"/>
</mask>
<g mask="url(#mask12_414_977)">
<mask id="mask13_414_977" style="mask-type:luminance" maskUnits="userSpaceOnUse" x="1" y="0" width="25" height="24">
<path d="M22.3718 15.6612C22.9409 15.2102 23.5553 14.8142 24.1664 14.4281C24.4477 14.2561 24.6967 14.0321 24.9036 13.7693C25.4242 13.1235 25.7217 12.2927 25.7379 11.4295V5.47133C25.7379 4.30306 25.5568 3.99477 25.4081 3.64429C24.8034 2.23263 23.5294 1.60306 22.9571 1.32397C22.4268 1.06111 21.4858 0.613276 20.2247 0.74633C19.2482 0.853421 18.3299 1.28828 17.5765 1.96977L5.58342 10.8616C2.96751 12.3382 1.73231 14.6974 1.32812 17.5694V23.229H12.8847V23.0408C16.047 20.5745 19.2094 18.1178 22.3718 15.6612Z" fill="white"/>
</mask>
<g mask="url(#mask13_414_977)">
<path fill-rule="evenodd" clip-rule="evenodd" d="M-1.41113 47.9801L152.18 -87.6235V112.744H-1.41113" fill="#B00194"/>
</g>
</g>
<mask id="mask14_414_977" style="mask-type:luminance" maskUnits="userSpaceOnUse" x="1" y="8" width="26" height="33">
<path d="M1.32812 8.30762H26.1615V40.7076H1.32812V8.30762Z" fill="white"/>
</mask>
<g mask="url(#mask14_414_977)">
<mask id="mask15_414_977" style="mask-type:luminance" maskUnits="userSpaceOnUse" x="1" y="8" width="25" height="33">
<path d="M1.32812 23.2289C1.43483 24.9554 2.02333 26.6039 3.01602 27.9637C3.71122 28.908 4.59073 29.6739 5.58342 30.2126L17.57 39.1044C18.3234 39.7892 19.2418 40.2208 20.2183 40.3279C21.1625 40.4187 22.1066 40.211 22.9506 39.7535C23.5197 39.4744 24.7969 38.8448 25.3983 37.4299C25.5406 37.0697 25.7314 36.7646 25.7314 35.6029V29.6447C25.7152 28.7815 25.4242 27.9539 24.8939 27.3049C24.6805 27.0453 24.4315 26.8214 24.1567 26.6396C22.8503 25.7764 22.3621 25.4065 22.3621 25.4065C20.7324 24.4881 15.7237 21.7881 13.0011 20.0779C9.37309 17.803 7.55263 16.6152 7.0385 14.4799C6.51144 12.2569 7.53646 10.0794 8.25753 8.86572L4.09277 11.9162C3.14212 12.8508 2.39518 14.0029 1.90046 15.2912C1.61914 16.0214 1.42836 16.784 1.32812 17.5596V23.2289Z" fill="white"/>
</mask>
<g mask="url(#mask15_414_977)">
<path d="M-1.41113 36.1967L152.18 -624.051V-512.264L-1.41113 148.149" fill="url(#paint3_linear_414_977)"/>
</g>
</g>
<mask id="mask16_414_977" style="mask-type:luminance" maskUnits="userSpaceOnUse" x="1" y="8" width="26" height="29">
<path d="M1.32812 8.30762H26.1615V36.5538H1.32812V8.30762Z" fill="white"/>
</mask>
<g mask="url(#mask16_414_977)">
<mask id="mask17_414_977" style="mask-type:luminance" maskUnits="userSpaceOnUse" x="1" y="8" width="25" height="33">
<path d="M1.32812 23.2289C1.43483 24.9554 2.02333 26.6039 3.01602 27.9637C3.71122 28.908 4.59073 29.6739 5.58342 30.2126L17.57 39.1044C18.3234 39.7892 19.2418 40.2208 20.2183 40.3279C21.1625 40.4187 22.1066 40.211 22.9506 39.7535C23.5197 39.4744 24.7969 38.8448 25.3983 37.4299C25.5406 37.0697 25.7314 36.7646 25.7314 35.6029V29.6447C25.7152 28.7815 25.4242 27.9539 24.8939 27.3049C24.6805 27.0453 24.4315 26.8214 24.1567 26.6396C22.8503 25.7764 22.3621 25.4065 22.3621 25.4065C20.7324 24.4881 15.7237 21.7881 13.0011 20.0779C9.37309 17.803 7.55263 16.6152 7.0385 14.4799C6.51144 12.2569 7.53646 10.0794 8.25753 8.86572L4.09277 11.9162C3.14212 12.8508 2.39518 14.0029 1.90046 15.2912C1.61914 16.0214 1.42836 16.784 1.32812 17.5596V23.2289Z" fill="white"/>
</mask>
<g mask="url(#mask17_414_977)">
<path fill-rule="evenodd" clip-rule="evenodd" d="M-1.41113 36.5504L152.18 -623.755V-54.2598H-1.41113" fill="#4D27D7"/>
</g>
</g>
<mask id="mask18_414_977" style="mask-type:luminance" maskUnits="userSpaceOnUse" x="1" y="8" width="26" height="33">
<path d="M1.32812 8.30762H26.1615V40.7076H1.32812V8.30762Z" fill="white"/>
</mask>
<g mask="url(#mask18_414_977)">
<mask id="mask19_414_977" style="mask-type:luminance" maskUnits="userSpaceOnUse" x="1" y="8" width="25" height="33">
<path d="M1.32812 23.2289C1.43483 24.9554 2.02333 26.6039 3.01602 27.9637C3.71122 28.908 4.59073 29.6739 5.58342 30.2126L17.57 39.1044C18.3234 39.7892 19.2418 40.2208 20.2183 40.3279C21.1625 40.4187 22.1066 40.211 22.9506 39.7535C23.5197 39.4744 24.7969 38.8448 25.3983 37.4299C25.5406 37.0697 25.7314 36.7646 25.7314 35.6029V29.6447C25.7152 28.7815 25.4242 27.9539 24.8939 27.3049C24.6805 27.0453 24.4315 26.8214 24.1567 26.6396C22.8503 25.7764 22.3621 25.4065 22.3621 25.4065C20.7324 24.4881 15.7237 21.7881 13.0011 20.0779C9.37309 17.803 7.55263 16.6152 7.0385 14.4799C6.51144 12.2569 7.53646 10.0794 8.25753 8.86572L4.09277 11.9162C3.14212 12.8508 2.39518 14.0029 1.90046 15.2912C1.61914 16.0214 1.42836 16.784 1.32812 17.5596V23.2289Z" fill="white"/>
</mask>
<g mask="url(#mask19_414_977)">
<path fill-rule="evenodd" clip-rule="evenodd" d="M-1.41113 147.77L152.18 -512.533V112.735H-1.41113" fill="#F105E3"/>
</g>
</g>
<path d="M146.48 18.1439H146.784C146.826 18.1439 146.859 18.1439 146.901 18.1244C146.933 18.1082 146.969 18.0887 147.001 18.0628C147.05 18.0011 147.066 17.92 147.066 17.8388C147.066 17.7577 147.043 17.6766 147.001 17.6117C146.975 17.5857 146.943 17.5598 146.901 17.55C146.868 17.5305 146.826 17.5305 146.784 17.5305H146.48V18.1439ZM146.746 18.5593H146.48V19.1791C146.48 19.2245 146.461 19.2602 146.438 19.2862C146.413 19.3154 146.371 19.3316 146.338 19.3316H146.131C146.089 19.3316 146.057 19.3154 146.031 19.2862C146.008 19.2602 145.992 19.2148 145.992 19.1791V17.2904C145.992 17.245 146.008 17.2093 146.031 17.1801C146.057 17.1541 146.099 17.1346 146.131 17.1346H146.784C146.985 17.1184 147.192 17.1801 147.357 17.3066C147.421 17.3618 147.48 17.4429 147.515 17.5241C147.548 17.6052 147.564 17.7025 147.564 17.7934C147.573 17.9265 147.538 18.053 147.48 18.1698C147.415 18.2802 147.324 18.3613 147.214 18.4132C147.431 18.8903 147.573 19.1888 147.606 19.2408C147.606 19.2408 147.628 19.2862 147.622 19.3057C147.612 19.3154 147.612 19.3154 147.606 19.3154C147.596 19.3154 147.59 19.3154 147.59 19.3154C147.399 19.3154 147.256 19.3154 147.208 19.3154C147.182 19.3154 147.159 19.3057 147.134 19.2959C147.108 19.2765 147.092 19.2602 147.082 19.2343L146.746 18.5593Z" fill="#231F20"/>
<path d="M146.762 16.4076C147.738 16.4076 148.524 17.2708 148.524 18.3255H148.673C148.673 17.18 147.819 16.2454 146.762 16.2454V16.4076ZM144.996 18.332C144.996 17.2708 145.792 16.4174 146.762 16.4174V16.2616C145.711 16.2616 144.848 17.1897 144.848 18.3418H144.996V18.332ZM146.762 20.2499C145.785 20.2499 144.996 19.3867 144.996 18.332H144.857C144.857 19.4743 145.711 20.4122 146.768 20.4122V20.2499H146.762ZM148.531 18.332C148.531 19.3964 147.738 20.2499 146.768 20.2499V20.4025C147.819 20.4025 148.683 19.4743 148.683 18.3255H148.531V18.332Z" fill="#231F20"/>
<defs>
<linearGradient id="paint0_linear_414_977" x1="85.3008" y1="43.4036" x2="63.4016" y2="68.207" gradientUnits="userSpaceOnUse">
<stop stop-color="#4E01B0"/>
<stop offset="0.01" stop-color="#4F01B0"/>
<stop offset="0.02" stop-color="#5001B0"/>
<stop offset="0.03" stop-color="#5101B0"/>
<stop offset="0.04" stop-color="#5201B0"/>
<stop offset="0.05" stop-color="#5301B0"/>
<stop offset="0.06" stop-color="#5401B0"/>
<stop offset="0.07" stop-color="#5501B0"/>
<stop offset="0.08" stop-color="#5601B0"/>
<stop offset="0.09" stop-color="#5701B0"/>
<stop offset="0.1" stop-color="#5801B0"/>
<stop offset="0.11" stop-color="#5901B0"/>
<stop offset="0.12" stop-color="#5901B0"/>
<stop offset="0.13" stop-color="#5A01B0"/>
<stop offset="0.14" stop-color="#5B01B0"/>
<stop offset="0.15" stop-color="#5C01B0"/>
<stop offset="0.16" stop-color="#5D01B0"/>
<stop offset="0.17" stop-color="#5E01B0"/>
<stop offset="0.18" stop-color="#5F01B0"/>
<stop offset="0.19" stop-color="#6001B0"/>
<stop offset="0.2" stop-color="#6101B0"/>
<stop offset="0.21" stop-color="#6201B0"/>
<stop offset="0.22" stop-color="#6301B0"/>
<stop offset="0.23" stop-color="#6501B0"/>
<stop offset="0.24" stop-color="#6801B0"/>
<stop offset="0.25" stop-color="#6C01B0"/>
<stop offset="0.26" stop-color="#6F01B0"/>
<stop offset="0.27" stop-color="#7201B0"/>
<stop offset="0.28" stop-color="#7601B0"/>
<stop offset="0.29" stop-color="#7901B0"/>
<stop offset="0.3" stop-color="#7D01B0"/>
<stop offset="0.31" stop-color="#8001B0"/>
<stop offset="0.32" stop-color="#8301B0"/>
<stop offset="0.33" stop-color="#8701B0"/>
<stop offset="0.34" stop-color="#8A01B0"/>
<stop offset="0.35" stop-color="#8D01B0"/>
<stop offset="0.36" stop-color="#8D02B1"/>
<stop offset="0.37" stop-color="#8D04B3"/>
<stop offset="0.38" stop-color="#8D05B4"/>
<stop offset="0.39" stop-color="#8C06B5"/>
<stop offset="0.4" stop-color="#8C07B6"/>
<stop offset="0.41" stop-color="#8C09B8"/>
<stop offset="0.42" stop-color="#8C0AB9"/>
<stop offset="0.43" stop-color="#8C0BBA"/>
<stop offset="0.44" stop-color="#8C0CBB"/>
<stop offset="0.45" stop-color="#8C0EBD"/>
<stop offset="0.46" stop-color="#8B0FBE"/>
<stop offset="0.47" stop-color="#8B10BF"/>
<stop offset="0.48" stop-color="#8B11C0"/>
<stop offset="0.49" stop-color="#8B12C2"/>
<stop offset="0.5" stop-color="#8B14C3"/>
<stop offset="0.51" stop-color="#8B15C4"/>
<stop offset="0.52" stop-color="#8B16C5"/>
<stop offset="0.53" stop-color="#8A17C7"/>
<stop offset="0.54" stop-color="#8A19C8"/>
<stop offset="0.55" stop-color="#8A1AC9"/>
<stop offset="0.56" stop-color="#8A1BCA"/>
<stop offset="0.57" stop-color="#8A1CCC"/>
<stop offset="0.58" stop-color="#8A1ECD"/>
<stop offset="0.59" stop-color="#891FCE"/>
<stop offset="0.6" stop-color="#8920CF"/>
<stop offset="0.61" stop-color="#8921D1"/>
<stop offset="0.62" stop-color="#8923D2"/>
<stop offset="0.63" stop-color="#8924D3"/>
<stop offset="0.64" stop-color="#8925D4"/>
<stop offset="0.65" stop-color="#8926D6"/>
<stop offset="0.66" stop-color="#8828D7"/>
<stop offset="0.67" stop-color="#8829D8"/>
<stop offset="0.68" stop-color="#882AD9"/>
<stop offset="0.69" stop-color="#882BDB"/>
<stop offset="0.7" stop-color="#882DDC"/>
<stop offset="0.71" stop-color="#882EDD"/>
<stop offset="0.72" stop-color="#882FDE"/>
<stop offset="0.73" stop-color="#8730E0"/>
<stop offset="0.74" stop-color="#8732E1"/>
<stop offset="0.75" stop-color="#8733E2"/>
<stop offset="0.76" stop-color="#8734E3"/>
<stop offset="0.77" stop-color="#8735E5"/>
<stop offset="0.78" stop-color="#8736E6"/>
<stop offset="0.79" stop-color="#8738E7"/>
<stop offset="0.8" stop-color="#8639E8"/>
<stop offset="0.81" stop-color="#883CEA"/>
<stop offset="0.82" stop-color="#8B3FEB"/>
<stop offset="0.83" stop-color="#8D42EC"/>
<stop offset="0.84" stop-color="#8F45ED"/>
<stop offset="0.85" stop-color="#9149EE"/>
<stop offset="0.86" stop-color="#944CEF"/>
<stop offset="0.87" stop-color="#964FF0"/>
<stop offset="0.88" stop-color="#9852F1"/>
<stop offset="0.89" stop-color="#9B56F3"/>
<stop offset="0.9" stop-color="#9D59F4"/>
<stop offset="0.91" stop-color="#9F5CF5"/>
<stop offset="0.92" stop-color="#A25FF6"/>
<stop offset="0.93" stop-color="#A463F7"/>
<stop offset="0.94" stop-color="#A666F8"/>
<stop offset="0.95" stop-color="#A969F9"/>
<stop offset="0.96" stop-color="#AB6CFA"/>
<stop offset="0.97" stop-color="#AD6FFC"/>
<stop offset="0.98" stop-color="#AF73FD"/>
<stop offset="0.99" stop-color="#B276FE"/>
<stop offset="1" stop-color="#B479FF"/>
</linearGradient>
<linearGradient id="paint1_linear_414_977" x1="93.0101" y1="628.408" x2="57.7285" y2="630.634" gradientUnits="userSpaceOnUse">
<stop stop-color="#FF00D6"/>
<stop offset="0.01" stop-color="#FE00D7"/>
<stop offset="0.02" stop-color="#FC01D9"/>
<stop offset="0.03" stop-color="#FB01DA"/>
<stop offset="0.04" stop-color="#F902DB"/>
<stop offset="0.05" stop-color="#F802DC"/>
<stop offset="0.06" stop-color="#F703DD"/>
<stop offset="0.07" stop-color="#F503DE"/>
<stop offset="0.08" stop-color="#F403E0"/>
<stop offset="0.09" stop-color="#F304E1"/>
<stop offset="0.1" stop-color="#F104E2"/>
<stop offset="0.11" stop-color="#F005E3"/>
<stop offset="0.12" stop-color="#EE05E4"/>
<stop offset="0.13" stop-color="#ED06E5"/>
<stop offset="0.14" stop-color="#EC06E7"/>
<stop offset="0.15" stop-color="#EA06E8"/>
<stop offset="0.16" stop-color="#E907E9"/>
<stop offset="0.17" stop-color="#E807EA"/>
<stop offset="0.18" stop-color="#E608EB"/>
<stop offset="0.19" stop-color="#E508EC"/>
<stop offset="0.2" stop-color="#E309EE"/>
<stop offset="0.21" stop-color="#E209EF"/>
<stop offset="0.22" stop-color="#E109F0"/>
<stop offset="0.23" stop-color="#DF0AF1"/>
<stop offset="0.24" stop-color="#DE0AF2"/>
<stop offset="0.25" stop-color="#DD0BF3"/>
<stop offset="0.26" stop-color="#DB0BF5"/>
<stop offset="0.27" stop-color="#DA0CF6"/>
<stop offset="0.28" stop-color="#D80CF7"/>
<stop offset="0.29" stop-color="#D70CF8"/>
<stop offset="0.3" stop-color="#D60DF9"/>
<stop offset="0.31" stop-color="#D40DFA"/>
<stop offset="0.32" stop-color="#D30EFC"/>
<stop offset="0.33" stop-color="#D20EFD"/>
<stop offset="0.34" stop-color="#D00EFE"/>
<stop offset="0.35" stop-color="#CF0FFF"/>
<stop offset="0.36" stop-color="#CB10FE"/>
<stop offset="0.37" stop-color="#C810FD"/>
<stop offset="0.38" stop-color="#C511FC"/>
<stop offset="0.39" stop-color="#C211FB"/>
<stop offset="0.4" stop-color="#BF12FA"/>
<stop offset="0.41" stop-color="#BC13F9"/>
<stop offset="0.42" stop-color="#B813F8"/>
<stop offset="0.43" stop-color="#B514F7"/>
<stop offset="0.44" stop-color="#B214F6"/>
<stop offset="0.45" stop-color="#AF15F5"/>
<stop offset="0.46" stop-color="#AC15F4"/>
<stop offset="0.47" stop-color="#A816F3"/>
<stop offset="0.48" stop-color="#A517F2"/>
<stop offset="0.49" stop-color="#A217F1"/>
<stop offset="0.5" stop-color="#9F18F0"/>
<stop offset="0.51" stop-color="#9C18EF"/>
<stop offset="0.52" stop-color="#9919EE"/>
<stop offset="0.53" stop-color="#951AED"/>
<stop offset="0.54" stop-color="#921AEC"/>
<stop offset="0.55" stop-color="#8F1BEB"/>
<stop offset="0.56" stop-color="#8C1BEA"/>
<stop offset="0.57" stop-color="#891CE9"/>
<stop offset="0.58" stop-color="#861DE8"/>
<stop offset="0.59" stop-color="#821DE7"/>
<stop offset="0.6" stop-color="#7F1EE6"/>
<stop offset="0.61" stop-color="#7C1EE5"/>
<stop offset="0.62" stop-color="#791FE4"/>
<stop offset="0.63" stop-color="#7620E3"/>
<stop offset="0.64" stop-color="#7220E3"/>
<stop offset="0.65" stop-color="#6F21E2"/>
<stop offset="0.66" stop-color="#6C21E1"/>
<stop offset="0.67" stop-color="#6922E0"/>
<stop offset="0.68" stop-color="#6623DF"/>
<stop offset="0.69" stop-color="#6323DE"/>
<stop offset="0.7" stop-color="#5F24DD"/>
<stop offset="0.71" stop-color="#5C24DC"/>
<stop offset="0.72" stop-color="#5925DB"/>
<stop offset="0.73" stop-color="#5626DA"/>
<stop offset="0.74" stop-color="#5326D9"/>
<stop offset="0.75" stop-color="#4F27D8"/>
<stop offset="0.76" stop-color="#4C27D7"/>
<stop offset="0.77" stop-color="#4928D6"/>
<stop offset="0.78" stop-color="#4628D5"/>
<stop offset="0.79" stop-color="#4329D4"/>
<stop offset="0.8" stop-color="#402AD3"/>
<stop offset="0.81" stop-color="#3C2AD2"/>
<stop offset="0.82" stop-color="#392BD1"/>
<stop offset="0.83" stop-color="#362BD0"/>
<stop offset="0.84" stop-color="#332CCF"/>
<stop offset="0.85" stop-color="#302DCE"/>
<stop offset="0.86" stop-color="#2D2DCD"/>
<stop offset="0.87" stop-color="#292ECC"/>
<stop offset="0.88" stop-color="#262ECB"/>
<stop offset="0.89" stop-color="#232FCA"/>
<stop offset="0.9" stop-color="#2030C9"/>
<stop offset="0.91" stop-color="#1D30C8"/>
<stop offset="0.92" stop-color="#1931C7"/>
<stop offset="0.93" stop-color="#1631C6"/>
<stop offset="0.94" stop-color="#1332C5"/>
<stop offset="0.95" stop-color="#1033C4"/>
<stop offset="0.96" stop-color="#0D33C3"/>
<stop offset="0.97" stop-color="#0A34C2"/>
<stop offset="0.98" stop-color="#0634C1"/>
<stop offset="0.99" stop-color="#0335C0"/>
<stop offset="1" stop-color="#0036BF"/>
</linearGradient>
<linearGradient id="paint2_linear_414_977" x1="65.463" y1="-55.0122" x2="87.3623" y2="-30.2086" gradientUnits="userSpaceOnUse">
<stop stop-color="#4E01B0"/>
<stop offset="0.01" stop-color="#4F01B0"/>
<stop offset="0.02" stop-color="#4F01B0"/>
<stop offset="0.03" stop-color="#5001B0"/>
<stop offset="0.04" stop-color="#5101B0"/>
<stop offset="0.05" stop-color="#5101B0"/>
<stop offset="0.06" stop-color="#5201B0"/>
<stop offset="0.07" stop-color="#5201B0"/>
<stop offset="0.08" stop-color="#5301B0"/>
<stop offset="0.09" stop-color="#5301B0"/>
<stop offset="0.1" stop-color="#5401B0"/>
<stop offset="0.11" stop-color="#5401B0"/>
<stop offset="0.12" stop-color="#5501B0"/>
<stop offset="0.13" stop-color="#5501B0"/>
<stop offset="0.14" stop-color="#5601B0"/>
<stop offset="0.15" stop-color="#5601B0"/>
<stop offset="0.16" stop-color="#5701B0"/>
<stop offset="0.17" stop-color="#5801B0"/>
<stop offset="0.18" stop-color="#5801B0"/>
<stop offset="0.19" stop-color="#5901B0"/>
<stop offset="0.2" stop-color="#5901B0"/>
<stop offset="0.21" stop-color="#5A01B0"/>
<stop offset="0.22" stop-color="#5A01B0"/>
<stop offset="0.23" stop-color="#5B01B0"/>
<stop offset="0.24" stop-color="#5B01B0"/>
<stop offset="0.25" stop-color="#5C01B0"/>
<stop offset="0.26" stop-color="#5C01B0"/>
<stop offset="0.27" stop-color="#5D01B0"/>
<stop offset="0.28" stop-color="#5D01B0"/>
<stop offset="0.29" stop-color="#5E01B0"/>
<stop offset="0.3" stop-color="#5E01B0"/>
<stop offset="0.31" stop-color="#5F01B0"/>
<stop offset="0.32" stop-color="#6001B0"/>
<stop offset="0.33" stop-color="#6001B0"/>
<stop offset="0.34" stop-color="#6101B0"/>
<stop offset="0.35" stop-color="#6101B0"/>
<stop offset="0.36" stop-color="#6201B0"/>
<stop offset="0.37" stop-color="#6201B0"/>
<stop offset="0.38" stop-color="#6301B0"/>
<stop offset="0.39" stop-color="#6401B0"/>
<stop offset="0.4" stop-color="#6501B0"/>
<stop offset="0.41" stop-color="#6701B0"/>
<stop offset="0.42" stop-color="#6801B0"/>
<stop offset="0.43" stop-color="#6901B0"/>
<stop offset="0.44" stop-color="#6B01B0"/>
<stop offset="0.45" stop-color="#6C01B0"/>
<stop offset="0.46" stop-color="#6E01B0"/>
<stop offset="0.47" stop-color="#6F01B0"/>
<stop offset="0.48" stop-color="#7101B0"/>
<stop offset="0.49" stop-color="#7201B0"/>
<stop offset="0.5" stop-color="#7301B0"/>
<stop offset="0.51" stop-color="#7501B0"/>
<stop offset="0.52" stop-color="#7601B0"/>
<stop offset="0.53" stop-color="#7801B0"/>
<stop offset="0.54" stop-color="#7901B0"/>
<stop offset="0.55" stop-color="#7B01B0"/>
<stop offset="0.56" stop-color="#7C01B0"/>
<stop offset="0.57" stop-color="#7E01B0"/>
<stop offset="0.58" stop-color="#7F01B0"/>
<stop offset="0.59" stop-color="#8001B0"/>
<stop offset="0.6" stop-color="#8201B0"/>
<stop offset="0.61" stop-color="#8301B0"/>
<stop offset="0.62" stop-color="#8501B0"/>
<stop offset="0.63" stop-color="#8601B0"/>
<stop offset="0.64" stop-color="#8801B0"/>
<stop offset="0.65" stop-color="#8901B0"/>
<stop offset="0.66" stop-color="#8B01B0"/>
<stop offset="0.67" stop-color="#8C01B0"/>
<stop offset="0.68" stop-color="#8D01B0"/>
<stop offset="0.69" stop-color="#8E01AF"/>
<stop offset="0.7" stop-color="#8F01AE"/>
<stop offset="0.71" stop-color="#9101AD"/>
<stop offset="0.72" stop-color="#9201AC"/>
<stop offset="0.73" stop-color="#9301AB"/>
<stop offset="0.74" stop-color="#9401AB"/>
<stop offset="0.75" stop-color="#9501AA"/>
<stop offset="0.76" stop-color="#9601A9"/>
<stop offset="0.77" stop-color="#9701A8"/>
<stop offset="0.78" stop-color="#9801A7"/>
<stop offset="0.79" stop-color="#9901A6"/>
<stop offset="0.8" stop-color="#9A01A5"/>
<stop offset="0.81" stop-color="#9B01A4"/>
<stop offset="0.82" stop-color="#9C01A4"/>
<stop offset="0.83" stop-color="#9E01A3"/>
<stop offset="0.84" stop-color="#9F01A2"/>
<stop offset="0.85" stop-color="#A001A1"/>
<stop offset="0.86" stop-color="#A101A0"/>
<stop offset="0.87" stop-color="#A2019F"/>
<stop offset="0.88" stop-color="#A3019E"/>
<stop offset="0.89" stop-color="#A4019E"/>
<stop offset="0.9" stop-color="#A5019D"/>
<stop offset="0.91" stop-color="#A6019C"/>
<stop offset="0.92" stop-color="#A7019B"/>
<stop offset="0.93" stop-color="#A8019A"/>
<stop offset="0.94" stop-color="#A90199"/>
<stop offset="0.95" stop-color="#AB0198"/>
<stop offset="0.96" stop-color="#AC0197"/>
<stop offset="0.97" stop-color="#AD0197"/>
<stop offset="0.98" stop-color="#AE0196"/>
<stop offset="0.99" stop-color="#AF0195"/>
<stop offset="1" stop-color="#B00194"/>
</linearGradient>
<linearGradient id="paint3_linear_414_977" x1="63.1377" y1="-241.318" x2="87.8415" y2="-235.572" gradientUnits="userSpaceOnUse">
<stop stop-color="#4D27D7"/>
<stop offset="0.01" stop-color="#4F27D8"/>
<stop offset="0.02" stop-color="#5126D8"/>
<stop offset="0.03" stop-color="#5326D9"/>
<stop offset="0.04" stop-color="#5526D9"/>
<stop offset="0.05" stop-color="#5725DA"/>
<stop offset="0.06" stop-color="#5925DB"/>
<stop offset="0.07" stop-color="#5B24DB"/>
<stop offset="0.08" stop-color="#5D24DC"/>
<stop offset="0.09" stop-color="#5F24DC"/>
<stop offset="0.1" stop-color="#6123DD"/>
<stop offset="0.11" stop-color="#6323DE"/>
<stop offset="0.12" stop-color="#6623DE"/>
<stop offset="0.13" stop-color="#6822DF"/>
<stop offset="0.14" stop-color="#6A22E0"/>
<stop offset="0.15" stop-color="#6C21E0"/>
<stop offset="0.16" stop-color="#6E21E1"/>
<stop offset="0.17" stop-color="#7021E1"/>
<stop offset="0.18" stop-color="#7220E2"/>
<stop offset="0.19" stop-color="#7420E3"/>
<stop offset="0.2" stop-color="#7620E3"/>
<stop offset="0.21" stop-color="#781FE4"/>
<stop offset="0.22" stop-color="#7A1FE4"/>
<stop offset="0.23" stop-color="#7C1EE5"/>
<stop offset="0.24" stop-color="#7E1EE6"/>
<stop offset="0.25" stop-color="#801EE6"/>
<stop offset="0.26" stop-color="#821DE7"/>
<stop offset="0.27" stop-color="#841DE7"/>
<stop offset="0.28" stop-color="#861DE8"/>
<stop offset="0.29" stop-color="#881CE9"/>
<stop offset="0.3" stop-color="#8A1CE9"/>
<stop offset="0.31" stop-color="#8C1BEA"/>
<stop offset="0.32" stop-color="#8E1BEA"/>
<stop offset="0.33" stop-color="#901BEB"/>
<stop offset="0.34" stop-color="#931AEC"/>
<stop offset="0.35" stop-color="#951AEC"/>
<stop offset="0.36" stop-color="#971AED"/>
<stop offset="0.37" stop-color="#9919EE"/>
<stop offset="0.38" stop-color="#9B19EE"/>
<stop offset="0.39" stop-color="#9D18EF"/>
<stop offset="0.4" stop-color="#9F18EF"/>
<stop offset="0.41" stop-color="#A118F0"/>
<stop offset="0.42" stop-color="#A317F1"/>
<stop offset="0.43" stop-color="#A517F1"/>
<stop offset="0.44" stop-color="#A717F2"/>
<stop offset="0.45" stop-color="#A916F2"/>
<stop offset="0.46" stop-color="#AB16F3"/>
<stop offset="0.47" stop-color="#AD15F4"/>
<stop offset="0.48" stop-color="#AF15F4"/>
<stop offset="0.49" stop-color="#B115F5"/>
<stop offset="0.5" stop-color="#B314F5"/>
<stop offset="0.51" stop-color="#B514F6"/>
<stop offset="0.52" stop-color="#B714F7"/>
<stop offset="0.53" stop-color="#B913F7"/>
<stop offset="0.54" stop-color="#BB13F8"/>
<stop offset="0.55" stop-color="#BD12F8"/>
<stop offset="0.56" stop-color="#C012F9"/>
<stop offset="0.57" stop-color="#C212FA"/>
<stop offset="0.58" stop-color="#C411FA"/>
<stop offset="0.59" stop-color="#C611FB"/>
<stop offset="0.6" stop-color="#C811FC"/>
<stop offset="0.61" stop-color="#CA10FC"/>
<stop offset="0.62" stop-color="#CC10FD"/>
<stop offset="0.63" stop-color="#CE0FFD"/>
<stop offset="0.64" stop-color="#D00FFE"/>
<stop offset="0.65" stop-color="#D10FFD"/>
<stop offset="0.66" stop-color="#D20EFD"/>
<stop offset="0.67" stop-color="#D30EFC"/>
<stop offset="0.68" stop-color="#D40EFB"/>
<stop offset="0.69" stop-color="#D50EFA"/>
<stop offset="0.7" stop-color="#D50DFA"/>
<stop offset="0.71" stop-color="#D60DF9"/>
<stop offset="0.72" stop-color="#D70DF8"/>
<stop offset="0.73" stop-color="#D80DF7"/>
<stop offset="0.74" stop-color="#D90CF7"/>
<stop offset="0.75" stop-color="#DA0CF6"/>
<stop offset="0.76" stop-color="#DB0CF5"/>
<stop offset="0.77" stop-color="#DC0BF4"/>
<stop offset="0.78" stop-color="#DD0BF4"/>
<stop offset="0.79" stop-color="#DE0BF3"/>
<stop offset="0.8" stop-color="#DF0BF2"/>
<stop offset="0.81" stop-color="#E00AF1"/>
<stop offset="0.82" stop-color="#E00AF1"/>
<stop offset="0.83" stop-color="#E10AF0"/>
<stop offset="0.84" stop-color="#E209EF"/>
<stop offset="0.85" stop-color="#E309EE"/>
<stop offset="0.86" stop-color="#E409EE"/>
<stop offset="0.87" stop-color="#E509ED"/>
<stop offset="0.88" stop-color="#E608EC"/>
<stop offset="0.89" stop-color="#E708EB"/>
<stop offset="0.9" stop-color="#E808EB"/>
<stop offset="0.91" stop-color="#E908EA"/>
<stop offset="0.92" stop-color="#EA07E9"/>
<stop offset="0.93" stop-color="#EB07E8"/>
<stop offset="0.94" stop-color="#EB07E8"/>
<stop offset="0.95" stop-color="#EC06E7"/>
<stop offset="0.96" stop-color="#ED06E6"/>
<stop offset="0.97" stop-color="#EE06E5"/>
<stop offset="0.98" stop-color="#EF06E5"/>
<stop offset="0.99" stop-color="#F005E4"/>
<stop offset="1" stop-color="#F105E3"/>
</linearGradient>
</defs>
</svg>
