<svg width="17" height="17" viewBox="0 0 17 17" fill="none" xmlns="http://www.w3.org/2000/svg">
<path d="M10.5875 3.7535L12.6986 5.86668L13.4254 5.14061L11.3143 3.02744L10.5875 3.7535ZM6.34822 12.9438L3.52874 10.1215L2.80193 10.8476L5.62142 13.6699L6.34822 12.9438ZM11.8507 9.78872L10.5377 10.282L10.8991 11.2438L12.2121 10.7504L11.8507 9.78872ZM6.18895 5.91744L6.66458 4.61929L5.69995 4.26586L5.22432 5.56401L6.18895 5.91744ZM4.13972 7.80548C4.627 7.67111 4.99776 7.57673 5.30096 7.35846L4.70071 6.52471C4.58227 6.60999 4.42849 6.6602 3.86668 6.81509L4.13972 7.80548ZM5.22432 5.56401C5.02368 6.11162 4.96091 6.26108 4.86613 6.37229L5.64805 7.03861C5.89033 6.75435 6.0149 6.39246 6.18895 5.91744L5.22432 5.56401ZM5.30096 7.35846C5.42909 7.2662 5.54563 7.15881 5.64805 7.03861L4.86613 6.37229C4.8173 6.42959 4.76176 6.48076 4.70071 6.52471L5.30096 7.35846ZM10.5377 10.282C10.0658 10.4594 9.70601 10.5866 9.4241 10.8306L10.0967 11.6073C10.2068 11.5119 10.355 11.4482 10.8991 11.2438L10.5377 10.282ZM9.6595 12.6022C9.81381 12.0414 9.86387 11.8877 9.94887 11.7692L9.11419 11.1703C8.89687 11.4732 8.80284 11.8432 8.66894 12.3297L9.6595 12.6022ZM9.4241 10.8306C9.30788 10.9313 9.20384 11.0453 9.11419 11.1703L9.94887 11.7692C9.99167 11.7096 10.0413 11.6553 10.0967 11.6073L9.4241 10.8306ZM3.52874 10.1215C3.08621 9.67852 2.78611 9.37697 2.59138 9.13232C2.39597 8.88679 2.37579 8.78049 2.37549 8.73283L1.34818 8.73933C1.3507 9.13808 1.54871 9.47196 1.78757 9.77208C2.0271 10.073 2.37735 10.4225 2.80193 10.8476L3.52874 10.1215ZM3.86668 6.81509C3.28779 6.97471 2.81075 7.10539 2.45393 7.24867C2.09809 7.39147 1.76095 7.58406 1.5619 7.92965L2.45215 8.44236C2.47586 8.4012 2.54567 8.31881 2.83666 8.20204C3.12667 8.0856 3.53633 7.97184 4.13972 7.80548L3.86668 6.81509ZM2.37549 8.73283C2.37485 8.63085 2.40132 8.53065 2.45215 8.44236L1.5619 7.92965C1.42014 8.1758 1.34638 8.45524 1.34818 8.73933L2.37549 8.73283ZM5.62142 13.6699C6.0487 14.0976 6.40005 14.4504 6.70265 14.6914C7.00438 14.9318 7.3406 15.1309 7.74208 15.1315L7.74359 14.1042C7.69606 14.1041 7.58955 14.0845 7.34272 13.8879C7.09671 13.6919 6.79358 13.3897 6.34822 12.9438L5.62142 13.6699ZM8.66894 12.3297C8.50169 12.9375 8.38732 13.3503 8.27013 13.6423C8.15247 13.9354 8.06946 14.0053 8.02795 14.029L8.53717 14.9212C8.88578 14.7223 9.07974 14.3831 9.2235 14.025C9.36767 13.6659 9.49903 13.1854 9.6595 12.6022L8.66894 12.3297ZM7.74208 15.1315C8.0209 15.1319 8.29499 15.0594 8.53717 14.9212L8.02795 14.029C7.94131 14.0784 7.84331 14.1043 7.74359 14.1042L7.74208 15.1315ZM12.6986 5.86668C13.4269 6.59577 13.9308 7.1021 14.2401 7.5194C14.5438 7.92938 14.5788 8.14752 14.5417 8.31908L15.5458 8.53619C15.6759 7.93486 15.4362 7.40804 15.0655 6.90773C14.7002 6.41476 14.1296 5.84557 13.4254 5.14061L12.6986 5.86668ZM12.2121 10.7504C13.1445 10.4001 13.8992 10.118 14.4355 9.82036C14.9798 9.51826 15.4157 9.13766 15.5458 8.53619L14.5417 8.31908C14.5046 8.49058 14.3828 8.67461 13.9369 8.92206C13.483 9.17396 12.8151 9.42642 11.8507 9.78872L12.2121 10.7504ZM11.3143 3.02744C10.6049 2.31725 10.0323 1.74216 9.53677 1.37428C9.03426 1.00119 8.50457 0.75975 7.90063 0.892995L8.12199 1.89621C8.29301 1.85847 8.51162 1.89268 8.92441 2.19914C9.34418 2.51079 9.85394 3.01913 10.5875 3.7535L11.3143 3.02744ZM6.66458 4.61929C7.02185 3.64426 7.27087 2.96846 7.52093 2.50898C7.7668 2.05711 7.9509 1.93396 8.12199 1.89621L7.90063 0.892995C7.29683 1.02622 6.91774 1.46806 6.61852 2.01794C6.32344 2.5602 6.04543 3.3229 5.69995 4.26586L6.66458 4.61929Z" fill="#1C274C"/>
<path opacity="0.5" d="M1.00634 14.7043C0.805848 14.905 0.806012 15.2303 1.00671 15.4308C1.20741 15.6313 1.53265 15.6311 1.73315 15.4304L1.00634 14.7043ZM4.9201 12.2402C5.1206 12.0395 5.12043 11.7142 4.91973 11.5138C4.71903 11.3133 4.39379 11.3135 4.1933 11.5141L4.9201 12.2402ZM1.73315 15.4304L4.9201 12.2402L4.1933 11.5141L1.00634 14.7043L1.73315 15.4304Z" fill="#1C274C"/>
</svg>
