<svg width="63" height="63" viewBox="0 0 63 63" fill="none" xmlns="http://www.w3.org/2000/svg">
<ellipse cx="31.0945" cy="31.3487" rx="31.0945" ry="31.3487" fill="#D4C7FF"/>
<circle cx="30.5" cy="31.5" r="23.5" fill="#D4C7FF"/>
<g clip-path="url(#clip0_766_891)">
<path d="M42.6338 37.5905C42.8361 37.5905 43 37.4266 43 37.2243V36.6631C43 35.6507 42.354 34.7576 41.3923 34.4407L39.1034 33.6876V32.8951C39.9004 32.4169 40.4351 31.5445 40.4351 30.5494V28.971C40.4351 27.4636 39.2087 26.2372 37.7013 26.2372C36.8134 26.2372 36.0233 26.663 35.5236 27.3208C35.247 26.8017 34.7779 26.3968 34.1907 26.204L31.902 25.4504V24.658C32.699 24.1798 33.2337 23.3074 33.2337 22.3122V20.7338C33.2338 19.2264 32.0074 18 30.5 18C28.9926 18 27.7662 19.2264 27.7662 20.7338V22.3122C27.7662 23.3073 28.3009 24.1797 29.0979 24.6579V25.4504L26.8095 26.2039C26.2221 26.3968 25.753 26.8017 25.4764 27.3208C24.9767 26.6629 24.1866 26.2372 23.2987 26.2372C21.7913 26.2372 20.5649 27.4636 20.5649 28.971V30.5494C20.5649 31.5445 21.0996 32.4169 21.8966 32.8951V33.6876L19.6075 34.4408C18.646 34.7576 18 35.6507 18 36.6631V37.2243C18 37.4266 18.1639 37.5905 18.3662 37.5905C18.5685 37.5905 18.7324 37.4266 18.7324 37.2243V36.6631C18.7324 35.9676 19.1762 35.3541 19.8366 35.1364L21.9807 34.4309C22.1766 34.9692 22.6934 35.3547 23.2986 35.3547C23.9038 35.3547 24.4206 34.9692 24.6166 34.4309L26.7604 35.1363C27.2303 35.2912 27.5944 35.6479 27.7628 36.1L26.8093 36.4139C25.8475 36.7304 25.2013 37.6233 25.2013 38.6358V39.0614H20.8041V38.1452C20.8041 37.9429 20.6401 37.779 20.4378 37.779C20.2355 37.779 20.0716 37.9429 20.0716 38.1452V39.0614H18.7324V38.935C18.7324 38.7327 18.5685 38.5687 18.3662 38.5687C18.1639 38.5687 18 38.7327 18 38.935V39.4276C18 39.6299 18.1639 39.7938 18.3662 39.7938H25.2013V42.6337C25.2013 42.8359 25.3652 42.9999 25.5675 42.9999H35.4324C35.6347 42.9999 35.7986 42.8359 35.7986 42.6337V42.1445C35.7986 41.9423 35.6347 41.7783 35.4324 41.7783C35.2301 41.7783 35.0662 41.9423 35.0662 42.1445V42.2676H33.7271V40.1183C33.7271 39.916 33.5631 39.7521 33.3608 39.7521C33.1585 39.7521 32.9946 39.916 32.9946 40.1183V42.2676H28.0054V40.1183C28.0054 39.916 27.8415 39.7521 27.6392 39.7521C27.4369 39.7521 27.2729 39.916 27.2729 40.1183V42.2676H25.9337V38.6359C25.9337 37.9404 26.3776 37.3271 27.0382 37.1097L29.1821 36.4041C29.3781 36.9423 29.8948 37.3278 30.5 37.3278C31.1052 37.3278 31.6219 36.9424 31.8179 36.4041L33.9618 37.1097C34.6224 37.3271 35.0663 37.9404 35.0663 38.6359V40.4348C35.0663 40.6371 35.2302 40.801 35.4325 40.801C35.6348 40.801 35.7987 40.6371 35.7987 40.4348V39.7939H42.6338C42.8361 39.7939 43 39.63 43 39.4277V38.9351C43 38.7328 42.8361 38.5688 42.6338 38.5688C42.4315 38.5688 42.2676 38.7328 42.2676 38.9351V39.0615H40.9284V38.1453C40.9284 37.943 40.7645 37.7791 40.5622 37.7791C40.3599 37.7791 40.1959 37.943 40.1959 38.1453V39.0615H35.7986V38.6359C35.7986 37.6234 35.1524 36.7305 34.1907 36.414L33.2372 36.1001C33.4056 35.6481 33.7696 35.2914 34.2394 35.1365L36.3834 34.431C36.5793 34.9693 37.0961 35.3548 37.7013 35.3548C38.3065 35.3548 38.8233 34.9693 39.0193 34.431L41.1632 35.1365C41.8238 35.3541 42.2676 35.9676 42.2676 36.6631V37.2243C42.2676 37.4266 42.4315 37.5905 42.6338 37.5905ZM37.7013 26.9696C38.8049 26.9696 39.7027 27.8674 39.7027 28.9709V30.5493C39.7027 31.6529 38.8048 32.5507 37.7013 32.5507C36.5978 32.5507 35.7 31.6529 35.7 30.5493V28.9709C35.7 27.8674 36.5978 26.9696 37.7013 26.9696ZM28.4986 22.3122V20.7338C28.4986 19.6302 29.3964 18.7324 30.5 18.7324C31.6036 18.7324 32.5014 19.6302 32.5014 20.7338V22.3122C32.5014 23.4157 31.6035 24.3135 30.5 24.3135C29.3965 24.3135 28.4986 23.4157 28.4986 22.3122ZM30.5 25.0459C30.731 25.0459 30.9552 25.0169 31.1696 24.9627V25.7057C31.1695 25.7092 31.1696 25.7126 31.1696 25.716C31.1693 26.085 30.8691 26.3851 30.5 26.3851C30.131 26.3851 29.8307 26.085 29.8305 25.716C29.8305 25.7125 29.8305 25.7091 29.8305 25.7057V24.9627C30.0448 25.0168 30.269 25.0459 30.5 25.0459ZM27.0383 26.8996L29.182 26.1938C29.378 26.7321 29.8948 27.1175 30.5 27.1175C31.1051 27.1175 31.6219 26.7321 31.8179 26.1938L33.9618 26.8997C34.574 27.1007 34.9985 27.6368 35.0578 28.2741C34.9991 28.4967 34.9675 28.7302 34.9675 28.9709V30.5493C34.9675 30.6421 34.9722 30.7338 34.9813 30.8242H33.2307C33.1678 29.3722 31.9672 28.2101 30.4999 28.2101C29.0326 28.2101 27.832 29.3722 27.7691 30.8242H26.0185C26.0276 30.7338 26.0323 30.6421 26.0323 30.5493V28.9709C26.0323 28.7302 26.0007 28.4967 25.942 28.2741C26.0014 27.6369 26.426 27.1008 27.0383 26.8996ZM30.5 34.5236C29.3964 34.5236 28.4986 33.6258 28.4986 32.5223V30.9439C28.4986 29.8403 29.3965 28.9425 30.5 28.9425C31.6035 28.9425 32.5014 29.8403 32.5014 30.9439V32.5223C32.5014 33.6258 31.6036 34.5236 30.5 34.5236ZM21.2973 30.5493V28.9709C21.2973 27.8674 22.1951 26.9696 23.2986 26.9696C24.4021 26.9696 25.3 27.8674 25.3 28.9709V30.5493C25.3 31.6529 24.4021 32.5507 23.2986 32.5507C22.1951 32.5507 21.2973 31.6529 21.2973 30.5493ZM23.9682 33.9527C23.9682 34.3219 23.6679 34.6223 23.2986 34.6223C22.9294 34.6223 22.629 34.3219 22.629 33.9527V33.1999C22.8434 33.2541 23.0676 33.2831 23.2986 33.2831C23.5296 33.2831 23.7539 33.2541 23.9682 33.1999V33.9527ZM26.9895 34.4407L24.7007 33.6876V32.8951C25.2128 32.5878 25.6161 32.1175 25.8393 31.5566H27.7662V32.5223C27.7662 33.5174 28.3009 34.3898 29.0979 34.868V35.6606L28.4583 35.8711C28.2178 35.2001 27.6831 34.6693 26.9895 34.4407ZM30.5 36.5953C30.1308 36.5953 29.8304 36.2949 29.8304 35.9257V35.9212C29.8304 35.9205 29.8304 35.9198 29.8304 35.9191V35.1729C30.0447 35.2271 30.269 35.2561 30.5 35.2561C30.731 35.2561 30.9552 35.2271 31.1696 35.1729V35.9191V35.9212V35.9257C31.1696 36.2949 30.8692 36.5953 30.5 36.5953ZM34.0104 34.4408C33.3169 34.6693 32.7822 35.2001 32.5417 35.8712L31.9021 35.6607V34.8681C32.6991 34.3899 33.2338 33.5175 33.2338 32.5223V31.5566H35.1607C35.3839 32.1176 35.7872 32.5878 36.2993 32.8951V33.6876L34.0104 34.4408ZM37.7013 34.6223C37.3321 34.6223 37.0317 34.3219 37.0317 33.9527V33.1999C37.2461 33.2541 37.4704 33.2832 37.7013 33.2832C37.9323 33.2832 38.1565 33.2541 38.3709 33.1999V33.9527C38.3709 34.3219 38.0706 34.6223 37.7013 34.6223Z" fill="#5027D9"/>
</g>
<defs>
<clipPath id="clip0_766_891">
<rect width="25" height="25" fill="white" transform="translate(18 18)"/>
</clipPath>
</defs>
</svg>
