<svg width="27" height="27" viewBox="0 0 27 27" fill="none" xmlns="http://www.w3.org/2000/svg">
<path fill-rule="evenodd" clip-rule="evenodd" d="M21.2352 25.7802C21.475 26.0204 21.8361 26.0921 22.15 25.9624C22.4635 25.8322 22.6683 25.5263 22.6683 25.1866V1.6793C22.6683 1.21546 22.2923 0.839478 21.8288 0.839478H5.03766C4.57382 0.839478 4.19824 1.21546 4.19824 1.6793V25.1866C4.19824 25.5263 4.40256 25.8322 4.71648 25.9624C5.03 26.0921 5.39108 26.0204 5.63126 25.7802L6.7169 24.695L7.80214 25.7802C8.13017 26.1083 8.6617 26.1083 8.98933 25.7802L10.1052 24.6644L11.1925 25.6428C11.5116 25.9301 11.9964 25.9301 12.3156 25.6428L13.4028 24.6644L14.5187 25.7802C14.8463 26.1083 15.3783 26.1083 15.7059 25.7802L16.7915 24.695L17.8768 25.7802C18.2048 26.1083 18.7363 26.1083 19.064 25.7802L20.1496 24.695L21.2352 25.7802ZM20.989 23.1596L20.7432 22.9138C20.4156 22.5862 19.8836 22.5862 19.556 22.9138L18.4704 23.9994L17.3851 22.9138C17.0571 22.5862 16.5256 22.5862 16.1979 22.9138L15.1123 23.9994L14.0266 22.9138C13.7111 22.5983 13.2033 22.585 12.8717 22.8836L11.7542 23.889L10.6367 22.8836C10.3047 22.585 9.79691 22.5983 9.48138 22.9138L8.39573 23.9994L7.3105 22.9138C6.98247 22.5862 6.45093 22.5862 6.1233 22.9138L5.87708 23.1596V2.51872H20.989V23.1596ZM8.39573 19.3099H18.4704C18.9338 19.3099 19.3102 18.9335 19.3102 18.4701C19.3102 18.007 18.9338 17.6307 18.4704 17.6307H8.39573C7.9327 17.6307 7.55632 18.007 7.55632 18.4701C7.55632 18.9335 7.9327 19.3099 8.39573 19.3099ZM8.39573 15.9514H18.4704C18.9338 15.9514 19.3102 15.5754 19.3102 15.112C19.3102 14.6486 18.9338 14.2726 18.4704 14.2726H8.39573C7.9327 14.2726 7.55632 14.6486 7.55632 15.112C7.55632 15.5754 7.9327 15.9514 8.39573 15.9514ZM8.39573 12.5933H18.4704C18.9338 12.5933 19.3102 12.217 19.3102 11.7539C19.3102 11.2905 18.9338 10.9141 18.4704 10.9141H8.39573C7.9327 10.9141 7.55632 11.2905 7.55632 11.7539C7.55632 12.217 7.9327 12.5933 8.39573 12.5933ZM8.39573 9.23527H18.4704C18.9338 9.23527 19.3102 8.85888 19.3102 8.39545C19.3102 7.93242 18.9338 7.55603 18.4704 7.55603H8.39573C7.9327 7.55603 7.55632 7.93242 7.55632 8.39545C7.55632 8.85888 7.9327 9.23527 8.39573 9.23527ZM8.39573 5.87679H18.4704C18.9338 5.87679 19.3102 5.50081 19.3102 5.03737C19.3102 4.57394 18.9338 4.19795 18.4704 4.19795H8.39573C7.9327 4.19795 7.55632 4.57394 7.55632 5.03737C7.55632 5.50081 7.9327 5.87679 8.39573 5.87679Z" fill="white"/>
</svg>
