<svg width="63" height="63" viewBox="0 0 63 63" fill="none" xmlns="http://www.w3.org/2000/svg">
<ellipse cx="31.0945" cy="31.3487" rx="31.0945" ry="31.3487" fill="#D4C7FF"/>
<g clip-path="url(#clip0_766_890)">
<path d="M31.5011 36.0157L23.0779 31.5017L26.5202 29.6552L24.9815 28.8306L20.0005 31.5017L31.5011 37.6632L43.0001 31.5017L38.0192 28.8306L36.4838 29.6552L39.9244 31.5017L31.5011 36.0157Z" fill="#5027D9"/>
<path d="M31.5011 41.3526L23.0779 36.8386L26.5202 34.9921L24.9815 34.1675L20.0005 36.8386L31.5011 43.0001L43.0001 36.8386L38.0192 34.1675L36.4838 34.9921L39.9244 36.8386L31.5011 41.3526Z" fill="#5027D9"/>
<path d="M31.5011 19.9996L20.0005 26.1612L31.5011 32.3209L43.0001 26.1594L31.5011 19.9996ZM31.5011 21.6471L39.9244 26.1612L31.5011 30.6752L23.0779 26.1612L31.5011 21.6471Z" fill="#5027D9"/>
</g>
<defs>
<clipPath id="clip0_766_890">
<rect width="23" height="23" fill="white" transform="translate(20 20)"/>
</clipPath>
</defs>
</svg>
