<svg width="33" height="33" viewBox="0 0 33 33" fill="none" xmlns="http://www.w3.org/2000/svg">
<path d="M26.8259 8.04375L18.6584 3.3275C17.3246 2.5575 15.6746 2.5575 14.3271 3.3275L6.1734 8.04375C4.83965 8.81375 4.01465 10.2438 4.01465 11.7975V21.2025C4.01465 22.7425 4.83965 24.1725 6.1734 24.9562L14.3409 29.6725C15.6746 30.4425 17.3246 30.4425 18.6721 29.6725L26.8396 24.9562C28.1734 24.1862 28.9984 22.7563 28.9984 21.2025V11.7975C28.9846 10.2438 28.1596 8.8275 26.8259 8.04375ZM15.4684 10.6562C15.4684 10.0925 15.9359 9.625 16.4996 9.625C17.0634 9.625 17.5309 10.0925 17.5309 10.6562V17.875C17.5309 18.4388 17.0634 18.9062 16.4996 18.9062C15.9359 18.9062 15.4684 18.4388 15.4684 17.875V10.6562ZM17.7646 22.8662C17.6959 23.0312 17.5996 23.1825 17.4759 23.32C17.2146 23.5812 16.8709 23.7188 16.4996 23.7188C16.3209 23.7188 16.1421 23.6775 15.9771 23.6087C15.7984 23.54 15.6609 23.4437 15.5234 23.32C15.3996 23.1825 15.3034 23.0312 15.2209 22.8662C15.1521 22.7012 15.1246 22.5225 15.1246 22.3438C15.1246 21.9862 15.2621 21.6287 15.5234 21.3675C15.6609 21.2437 15.7984 21.1475 15.9771 21.0788C16.4859 20.8587 17.0909 20.9825 17.4759 21.3675C17.5996 21.505 17.6959 21.6425 17.7646 21.8212C17.8334 21.9862 17.8746 22.165 17.8746 22.3438C17.8746 22.5225 17.8334 22.7012 17.7646 22.8662Z" fill="#5027D9"/>
</svg>
