<svg width="33" height="33" viewBox="0 0 33 33" fill="none" xmlns="http://www.w3.org/2000/svg">
<path d="M26.8261 8.04375L18.6586 3.3275C17.3249 2.5575 15.6749 2.5575 14.3274 3.3275L6.17364 8.04375C4.83989 8.81375 4.01489 10.2438 4.01489 11.7975V21.2025C4.01489 22.7425 4.83989 24.1725 6.17364 24.9562L14.3411 29.6725C15.6749 30.4425 17.3249 30.4425 18.6724 29.6725L26.8399 24.9562C28.1736 24.1862 28.9986 22.7563 28.9986 21.2025V11.7975C28.9849 10.2438 28.1599 8.8275 26.8261 8.04375ZM15.4686 10.6562C15.4686 10.0925 15.9361 9.625 16.4999 9.625C17.0636 9.625 17.5311 10.0925 17.5311 10.6562V17.875C17.5311 18.4388 17.0636 18.9062 16.4999 18.9062C15.9361 18.9062 15.4686 18.4388 15.4686 17.875V10.6562ZM17.7649 22.8662C17.6961 23.0312 17.5999 23.1825 17.4761 23.32C17.2149 23.5812 16.8711 23.7188 16.4999 23.7188C16.3211 23.7188 16.1424 23.6775 15.9774 23.6087C15.7986 23.54 15.6611 23.4437 15.5236 23.32C15.3999 23.1825 15.3036 23.0312 15.2211 22.8662C15.1524 22.7012 15.1249 22.5225 15.1249 22.3438C15.1249 21.9862 15.2624 21.6287 15.5236 21.3675C15.6611 21.2437 15.7986 21.1475 15.9774 21.0788C16.4861 20.8587 17.0911 20.9825 17.4761 21.3675C17.5999 21.505 17.6961 21.6425 17.7649 21.8212C17.8336 21.9862 17.8749 22.165 17.8749 22.3438C17.8749 22.5225 17.8336 22.7012 17.7649 22.8662Z" fill="#5027D9"/>
</svg>
