<svg width="18" height="19" viewBox="0 0 18 19" fill="none" xmlns="http://www.w3.org/2000/svg">
<mask id="mask0_19_2932" style="mask-type:luminance" maskUnits="userSpaceOnUse" x="0" y="0" width="18" height="19">
<rect y="0.499756" width="18" height="18" fill="white"/>
</mask>
<g mask="url(#mask0_19_2932)">
<path fill-rule="evenodd" clip-rule="evenodd" d="M16.3541 8.03088H15.75V7.99976H9V10.9998H13.2386C12.6203 12.7461 10.9586 13.9998 9 13.9998C6.51488 13.9998 4.5 11.9849 4.5 9.49976C4.5 7.01463 6.51488 4.99976 9 4.99976C10.1471 4.99976 11.1908 5.43251 11.9854 6.13938L14.1067 4.01801C12.7673 2.76963 10.9755 1.99976 9 1.99976C4.85813 1.99976 1.5 5.35788 1.5 9.49976C1.5 13.6416 4.85813 16.9998 9 16.9998C13.1419 16.9998 16.5 13.6416 16.5 9.49976C16.5 8.99688 16.4482 8.50601 16.3541 8.03088Z" fill="#FFC107"/>
<path fill-rule="evenodd" clip-rule="evenodd" d="M2.36523 6.00888L4.82936 7.81601C5.49611 6.16526 7.11086 4.99976 9.00049 4.99976C10.1476 4.99976 11.1912 5.43251 11.9859 6.13938L14.1072 4.01801C12.7677 2.76963 10.976 1.99976 9.00049 1.99976C6.11974 1.99976 3.62148 3.62613 2.36523 6.00888Z" fill="#FF3D00"/>
<path fill-rule="evenodd" clip-rule="evenodd" d="M9.00012 16.9998C10.9374 16.9998 12.6976 16.2584 14.0285 15.0528L11.7072 13.0885C10.9542 13.6589 10.0182 13.9998 9.00012 13.9998C7.04937 13.9998 5.39299 12.7559 4.76899 11.02L2.32324 12.9044C3.56449 15.3333 6.08524 16.9998 9.00012 16.9998Z" fill="#4CAF50"/>
<path fill-rule="evenodd" clip-rule="evenodd" d="M16.3541 8.03088H15.75V7.99976H9V10.9998H13.2386C12.9416 11.8386 12.402 12.562 11.706 13.0889C11.7064 13.0885 11.7068 13.0885 11.7071 13.0881L14.0284 15.0524C13.8641 15.2016 16.5 13.2498 16.5 9.49976C16.5 8.99688 16.4482 8.50601 16.3541 8.03088Z" fill="#1976D2"/>
</g>
</svg>
